G75*
G70*
%OFA0B0*%
%FSLAX24Y24*%
%IPPOS*%
%LPD*%
%AMOC8*
5,1,8,0,0,1.08239X$1,22.5*
%
%ADD10C,0.0090*%
%ADD11C,0.0060*%
%ADD12R,0.2190X0.0010*%
%ADD13R,0.2210X0.0010*%
%ADD14R,0.2200X0.0010*%
%ADD15R,0.2170X0.0010*%
%ADD16R,0.0090X0.0010*%
%ADD17R,0.0100X0.0010*%
%ADD18R,0.0010X0.0010*%
%ADD19R,0.0020X0.0010*%
%ADD20R,0.0030X0.0010*%
%ADD21R,0.0040X0.0010*%
%ADD22R,0.0050X0.0010*%
%ADD23R,0.0060X0.0010*%
%ADD24R,0.0070X0.0010*%
%ADD25R,0.0110X0.0010*%
%ADD26R,0.0130X0.0010*%
%ADD27R,0.0140X0.0010*%
%ADD28R,0.0160X0.0010*%
%ADD29R,0.0170X0.0010*%
%ADD30R,0.0180X0.0010*%
%ADD31R,0.0200X0.0010*%
%ADD32R,0.0210X0.0010*%
%ADD33R,0.0220X0.0010*%
%ADD34R,0.0240X0.0010*%
%ADD35R,0.0080X0.0010*%
%ADD36R,0.0120X0.0010*%
%ADD37R,0.0150X0.0010*%
%ADD38R,0.0230X0.0010*%
%ADD39R,0.0310X0.0010*%
%ADD40R,0.0300X0.0010*%
%ADD41R,0.0290X0.0010*%
%ADD42R,0.0270X0.0010*%
%ADD43R,0.0260X0.0010*%
%ADD44R,0.0250X0.0010*%
%ADD45R,0.0190X0.0010*%
%ADD46R,0.0110X0.0005*%
%ADD47R,0.0210X0.0005*%
%ADD48R,0.0280X0.0005*%
%ADD49R,0.0325X0.0005*%
%ADD50R,0.0365X0.0005*%
%ADD51R,0.0410X0.0005*%
%ADD52R,0.0440X0.0005*%
%ADD53R,0.0470X0.0005*%
%ADD54R,0.0505X0.0005*%
%ADD55R,0.0530X0.0005*%
%ADD56R,0.0555X0.0005*%
%ADD57R,0.0580X0.0005*%
%ADD58R,0.0600X0.0005*%
%ADD59R,0.0625X0.0005*%
%ADD60R,0.0645X0.0005*%
%ADD61R,0.0665X0.0005*%
%ADD62R,0.0685X0.0005*%
%ADD63R,0.0705X0.0005*%
%ADD64R,0.0715X0.0005*%
%ADD65R,0.0735X0.0005*%
%ADD66R,0.0755X0.0005*%
%ADD67R,0.0090X0.0005*%
%ADD68R,0.0770X0.0005*%
%ADD69R,0.0190X0.0005*%
%ADD70R,0.0355X0.0005*%
%ADD71R,0.0360X0.0005*%
%ADD72R,0.0260X0.0005*%
%ADD73R,0.0315X0.0005*%
%ADD74R,0.0320X0.0005*%
%ADD75R,0.0295X0.0005*%
%ADD76R,0.0275X0.0005*%
%ADD77R,0.0400X0.0005*%
%ADD78R,0.0265X0.0005*%
%ADD79R,0.0435X0.0005*%
%ADD80R,0.0255X0.0005*%
%ADD81R,0.0465X0.0005*%
%ADD82R,0.0245X0.0005*%
%ADD83R,0.0495X0.0005*%
%ADD84R,0.0235X0.0005*%
%ADD85R,0.0525X0.0005*%
%ADD86R,0.0230X0.0005*%
%ADD87R,0.0240X0.0005*%
%ADD88R,0.0545X0.0005*%
%ADD89R,0.0820X0.0005*%
%ADD90R,0.0220X0.0005*%
%ADD91R,0.0025X0.0005*%
%ADD92R,0.0795X0.0005*%
%ADD93R,0.0215X0.0005*%
%ADD94R,0.0035X0.0005*%
%ADD95R,0.0040X0.0005*%
%ADD96R,0.0800X0.0005*%
%ADD97R,0.0205X0.0005*%
%ADD98R,0.0050X0.0005*%
%ADD99R,0.0805X0.0005*%
%ADD100R,0.0165X0.0005*%
%ADD101R,0.0055X0.0005*%
%ADD102R,0.0200X0.0005*%
%ADD103R,0.0060X0.0005*%
%ADD104R,0.0300X0.0005*%
%ADD105R,0.0195X0.0005*%
%ADD106R,0.0065X0.0005*%
%ADD107R,0.0345X0.0005*%
%ADD108R,0.0070X0.0005*%
%ADD109R,0.0385X0.0005*%
%ADD110R,0.0080X0.0005*%
%ADD111R,0.0425X0.0005*%
%ADD112R,0.0185X0.0005*%
%ADD113R,0.0085X0.0005*%
%ADD114R,0.0635X0.0005*%
%ADD115R,0.0810X0.0005*%
%ADD116R,0.0095X0.0005*%
%ADD117R,0.0335X0.0005*%
%ADD118R,0.0655X0.0005*%
%ADD119R,0.0105X0.0005*%
%ADD120R,0.0290X0.0005*%
%ADD121R,0.0660X0.0005*%
%ADD122R,0.0115X0.0005*%
%ADD123R,0.0285X0.0005*%
%ADD124R,0.0120X0.0005*%
%ADD125R,0.0270X0.0005*%
%ADD126R,0.0675X0.0005*%
%ADD127R,0.0130X0.0005*%
%ADD128R,0.0680X0.0005*%
%ADD129R,0.0135X0.0005*%
%ADD130R,0.0250X0.0005*%
%ADD131R,0.0140X0.0005*%
%ADD132R,0.0180X0.0005*%
%ADD133R,0.0695X0.0005*%
%ADD134R,0.0150X0.0005*%
%ADD135R,0.0160X0.0005*%
%ADD136R,0.0155X0.0005*%
%ADD137R,0.0145X0.0005*%
%ADD138R,0.0700X0.0005*%
%ADD139R,0.0225X0.0005*%
%ADD140R,0.0170X0.0005*%
%ADD141R,0.0100X0.0005*%
%ADD142R,0.0075X0.0005*%
%ADD143R,0.0720X0.0005*%
%ADD144R,0.0725X0.0005*%
%ADD145R,0.0340X0.0005*%
%ADD146R,0.0305X0.0005*%
%ADD147R,0.0175X0.0005*%
%ADD148R,0.0005X0.0005*%
%ADD149R,0.0010X0.0005*%
%ADD150R,0.0015X0.0005*%
%ADD151R,0.0020X0.0005*%
%ADD152R,0.0030X0.0005*%
%ADD153R,0.0125X0.0005*%
%ADD154R,0.0045X0.0005*%
%ADD155R,0.0370X0.0005*%
%ADD156R,0.0375X0.0005*%
%ADD157R,0.0350X0.0005*%
%ADD158R,0.0330X0.0005*%
%ADD159R,0.0485X0.0005*%
%ADD160R,0.0480X0.0005*%
%ADD161R,0.0460X0.0005*%
%ADD162R,0.0445X0.0005*%
%ADD163R,0.0310X0.0005*%
%ADD164R,0.0380X0.0005*%
%ADD165R,0.0415X0.0005*%
%ADD166R,0.0450X0.0005*%
%ADD167R,0.0490X0.0005*%
%ADD168R,0.0965X0.0005*%
%ADD169R,0.0975X0.0005*%
%ADD170R,0.0980X0.0005*%
%ADD171R,0.0990X0.0005*%
%ADD172R,0.1005X0.0005*%
%ADD173R,0.0615X0.0005*%
%ADD174R,0.0640X0.0005*%
%ADD175R,0.0605X0.0005*%
%ADD176R,0.0620X0.0005*%
%ADD177R,0.0590X0.0005*%
%ADD178R,0.0570X0.0005*%
%ADD179R,0.0540X0.0005*%
%ADD180R,0.0515X0.0005*%
%ADD181R,0.0565X0.0005*%
%ADD182R,0.0535X0.0005*%
%ADD183R,0.0395X0.0005*%
%ADD184R,0.0520X0.0005*%
%ADD185R,0.0500X0.0005*%
%ADD186R,0.0430X0.0005*%
%ADD187C,0.0000*%
%ADD188C,0.0059*%
D10*
X014008Y010248D02*
X013923Y010333D01*
X013923Y010503D01*
X014008Y010588D01*
X014008Y010801D02*
X013923Y010886D01*
X013923Y011056D01*
X014008Y011141D01*
X014008Y010801D02*
X014348Y010801D01*
X014433Y010886D01*
X014433Y011056D01*
X014348Y011141D01*
X014348Y010588D02*
X014433Y010503D01*
X014433Y010333D01*
X014348Y010248D01*
X014008Y010248D01*
X013923Y011906D02*
X013923Y012161D01*
X014008Y012246D01*
X014093Y012246D01*
X014178Y012161D01*
X014178Y011906D01*
X014178Y012161D02*
X014263Y012246D01*
X014348Y012246D01*
X014433Y012161D01*
X014433Y011906D01*
X013923Y011906D01*
X014348Y012458D02*
X014178Y012628D01*
X013923Y012628D01*
X014178Y012628D02*
X014348Y012798D01*
X014433Y012798D01*
X014178Y013010D02*
X014178Y013351D01*
X014263Y013563D02*
X014178Y013648D01*
X014178Y013818D01*
X014093Y013903D01*
X014008Y013903D01*
X013923Y013818D01*
X013923Y013648D01*
X014008Y013563D01*
X014263Y013563D02*
X014348Y013563D01*
X014433Y013648D01*
X014433Y013818D01*
X014348Y013903D01*
X014263Y014115D02*
X014433Y014286D01*
X014263Y014456D01*
X013923Y014456D01*
X014178Y014456D02*
X014178Y014115D01*
X014263Y014115D02*
X013923Y014115D01*
X014008Y015220D02*
X013923Y015305D01*
X013923Y015476D01*
X014008Y015561D01*
X014093Y015561D01*
X014178Y015476D01*
X014178Y015391D01*
X014178Y015476D02*
X014263Y015561D01*
X014348Y015561D01*
X014433Y015476D01*
X014433Y015305D01*
X014348Y015220D01*
X014008Y015773D02*
X014008Y015858D01*
X013923Y015858D01*
X013923Y015773D01*
X014008Y015773D01*
X014008Y016049D02*
X014348Y016389D01*
X014008Y016389D01*
X013923Y016304D01*
X013923Y016134D01*
X014008Y016049D01*
X014348Y016049D01*
X014433Y016134D01*
X014433Y016304D01*
X014348Y016389D01*
X014433Y012458D02*
X014348Y012458D01*
X019551Y010354D02*
X019551Y010269D01*
X019551Y010354D02*
X019636Y010439D01*
X020061Y010439D01*
X020061Y010184D01*
X019976Y010099D01*
X019806Y010099D01*
X019721Y010184D01*
X019721Y010439D01*
X019721Y010651D02*
X019721Y010821D01*
X019721Y010736D02*
X020061Y010736D01*
X020061Y010651D01*
X020231Y010736D02*
X020316Y010736D01*
X019976Y011019D02*
X019806Y011019D01*
X019721Y011104D01*
X019721Y011360D01*
X020061Y011360D02*
X020061Y011104D01*
X019976Y011019D01*
X019976Y009886D02*
X019721Y009886D01*
X019721Y009631D01*
X019806Y009546D01*
X019891Y009631D01*
X019891Y009886D01*
X019976Y009886D02*
X020061Y009801D01*
X020061Y009631D01*
X020231Y009334D02*
X019721Y009334D01*
X019721Y008994D02*
X020231Y008994D01*
X020061Y009164D01*
X020231Y009334D01*
X020146Y012124D02*
X020061Y012124D01*
X019976Y012209D01*
X019976Y012380D01*
X019891Y012465D01*
X019806Y012465D01*
X019721Y012380D01*
X019721Y012209D01*
X019806Y012124D01*
X020146Y012124D02*
X020231Y012209D01*
X020231Y012380D01*
X020146Y012465D01*
X020061Y012677D02*
X019721Y012677D01*
X019721Y012847D02*
X019976Y012847D01*
X020061Y012932D01*
X019976Y013017D01*
X019721Y013017D01*
X019806Y013229D02*
X019721Y013314D01*
X019721Y013485D01*
X019806Y013570D01*
X019976Y013570D01*
X020061Y013485D01*
X020061Y013314D01*
X019976Y013229D01*
X019806Y013229D01*
X019976Y012847D02*
X020061Y012762D01*
X020061Y012677D01*
X019891Y013782D02*
X020061Y014037D01*
X019976Y014242D02*
X019806Y014242D01*
X019721Y014327D01*
X019721Y014497D01*
X019891Y014582D02*
X019891Y014242D01*
X019976Y014242D02*
X020061Y014327D01*
X020061Y014497D01*
X019976Y014582D01*
X019891Y014582D01*
X019721Y014037D02*
X019891Y013782D01*
X019721Y013782D02*
X020231Y013782D01*
X020231Y015347D02*
X020231Y015687D01*
X020231Y015517D02*
X019721Y015517D01*
X019721Y015900D02*
X019721Y016155D01*
X019806Y016240D01*
X019891Y016240D01*
X019976Y016155D01*
X019976Y015900D01*
X019976Y016155D02*
X020061Y016240D01*
X020146Y016240D01*
X020231Y016155D01*
X020231Y015900D01*
X019721Y015900D01*
X019806Y016452D02*
X020146Y016792D01*
X019806Y016792D01*
X019721Y016707D01*
X019721Y016537D01*
X019806Y016452D01*
X020146Y016452D01*
X020231Y016537D01*
X020231Y016707D01*
X020146Y016792D01*
X020061Y017005D02*
X020231Y017175D01*
X019721Y017175D01*
X019721Y017005D02*
X019721Y017345D01*
D11*
X021040Y015890D02*
X021267Y015890D01*
X021323Y015833D01*
X021323Y015663D01*
X020983Y015663D01*
X020983Y015833D01*
X021040Y015890D01*
X020983Y015521D02*
X021323Y015521D01*
X021323Y015295D02*
X020983Y015295D01*
X021040Y015153D02*
X021153Y015153D01*
X021153Y015040D01*
X021040Y015153D02*
X020983Y015096D01*
X020983Y014983D01*
X021040Y014926D01*
X021267Y014926D01*
X021323Y014983D01*
X021323Y015096D01*
X021267Y015153D01*
X021323Y015295D02*
X020983Y015521D01*
X020983Y013861D02*
X021210Y013861D01*
X021323Y013748D01*
X021210Y013634D01*
X020983Y013634D01*
X020983Y013493D02*
X020983Y013266D01*
X021323Y013266D01*
X021323Y013125D02*
X021323Y012898D01*
X021323Y013011D02*
X020983Y013011D01*
X021040Y012756D02*
X020983Y012700D01*
X020983Y012586D01*
X021040Y012529D01*
X021267Y012529D01*
X021323Y012586D01*
X021323Y012700D01*
X021267Y012756D01*
X021267Y011893D02*
X021210Y011893D01*
X021153Y011836D01*
X021153Y011666D01*
X020983Y011666D02*
X021323Y011666D01*
X021323Y011836D01*
X021267Y011893D01*
X021153Y011836D02*
X021097Y011893D01*
X021040Y011893D01*
X020983Y011836D01*
X020983Y011666D01*
X020983Y011524D02*
X020983Y011298D01*
X021323Y011298D01*
X021323Y011156D02*
X021323Y010929D01*
X021323Y011043D02*
X020983Y011043D01*
X021040Y010788D02*
X020983Y010731D01*
X020983Y010618D01*
X021040Y010561D01*
X021267Y010561D01*
X021323Y010618D01*
X021323Y010731D01*
X021267Y010788D01*
X021153Y013634D02*
X021153Y013861D01*
X021056Y004280D02*
X020910Y004280D01*
X020836Y004206D01*
X021130Y003913D01*
X021056Y003839D01*
X020910Y003839D01*
X020836Y003913D01*
X020836Y004206D01*
X020669Y004280D02*
X020669Y004060D01*
X020523Y004133D01*
X020449Y004133D01*
X020376Y004060D01*
X020376Y003913D01*
X020449Y003839D01*
X020596Y003839D01*
X020669Y003913D01*
X020669Y004280D02*
X020376Y004280D01*
X020209Y004206D02*
X020136Y004280D01*
X019989Y004280D01*
X019915Y004206D01*
X020209Y003913D01*
X020136Y003839D01*
X019989Y003839D01*
X019915Y003913D01*
X019915Y004206D01*
X020209Y004206D02*
X020209Y003913D01*
X019749Y003766D02*
X019455Y003766D01*
X019288Y003986D02*
X019141Y003839D01*
X018995Y003986D01*
X018995Y004280D01*
X018828Y004133D02*
X018681Y004280D01*
X018681Y003839D01*
X018828Y003839D02*
X018534Y003839D01*
X019288Y003986D02*
X019288Y004280D01*
X021056Y004280D02*
X021130Y004206D01*
X021130Y003913D01*
X021297Y003913D02*
X021370Y003839D01*
X021517Y003839D01*
X021590Y003913D01*
X021590Y004060D02*
X021443Y004133D01*
X021370Y004133D01*
X021297Y004060D01*
X021297Y003913D01*
X021590Y004060D02*
X021590Y004280D01*
X021297Y004280D01*
X021757Y004206D02*
X021757Y004060D01*
X021830Y003986D01*
X022051Y003986D01*
X022051Y003839D02*
X022051Y004280D01*
X021830Y004280D01*
X021757Y004206D01*
X022217Y004206D02*
X022217Y003913D01*
X022291Y003839D01*
X022511Y003839D01*
X022511Y004280D01*
X022291Y004280D01*
X022217Y004206D01*
D12*
X012009Y004419D03*
X012009Y004469D03*
X012009Y012293D03*
X012009Y012343D03*
X012009Y020167D03*
X012009Y020217D03*
D13*
X012009Y020197D03*
X012009Y020187D03*
X012009Y020177D03*
X012009Y012323D03*
X012009Y012313D03*
X012009Y012303D03*
X012009Y004449D03*
X012009Y004439D03*
X012009Y004429D03*
D14*
X012004Y004459D03*
X012004Y012333D03*
X012004Y020207D03*
D15*
X012009Y020227D03*
X012009Y012353D03*
X012009Y004479D03*
D16*
X011979Y004659D03*
X012019Y004869D03*
X012019Y004879D03*
X012019Y004889D03*
X011749Y005079D03*
X011789Y005199D03*
X011789Y005209D03*
X011479Y005379D03*
X011479Y005389D03*
X011489Y005399D03*
X011489Y005409D03*
X011499Y005419D03*
X011509Y005439D03*
X011519Y005459D03*
X011529Y005469D03*
X011529Y005479D03*
X011539Y005489D03*
X011549Y005509D03*
X011559Y005529D03*
X011569Y005539D03*
X011579Y005559D03*
X011589Y005579D03*
X011599Y005599D03*
X011609Y005609D03*
X011609Y005619D03*
X011619Y005629D03*
X011629Y005649D03*
X011639Y005669D03*
X011649Y005689D03*
X011659Y005699D03*
X011669Y005719D03*
X011679Y005739D03*
X011689Y005759D03*
X011699Y005769D03*
X011709Y005789D03*
X011719Y005809D03*
X011729Y005829D03*
X011739Y005839D03*
X011739Y005849D03*
X011749Y005859D03*
X011759Y005879D03*
X011769Y005899D03*
X011779Y005919D03*
X011789Y005929D03*
X011799Y005949D03*
X011809Y005969D03*
X011819Y005989D03*
X011829Y005999D03*
X011839Y006019D03*
X011849Y006039D03*
X011859Y006059D03*
X011879Y006089D03*
X011889Y006109D03*
X011899Y006129D03*
X011909Y006139D03*
X011919Y006159D03*
X011929Y006179D03*
X011939Y006199D03*
X011949Y006209D03*
X011949Y006219D03*
X011959Y006229D03*
X011969Y006249D03*
X011979Y006269D03*
X012089Y006269D03*
X012099Y006249D03*
X012109Y006229D03*
X012119Y006209D03*
X012129Y006199D03*
X012129Y006189D03*
X012139Y006179D03*
X012149Y006159D03*
X012159Y006139D03*
X012169Y006119D03*
X012179Y006099D03*
X012189Y006079D03*
X012199Y006069D03*
X012199Y006059D03*
X012209Y006049D03*
X012219Y006029D03*
X012229Y006009D03*
X012239Y005989D03*
X012249Y005969D03*
X012259Y005959D03*
X012259Y005949D03*
X012269Y005939D03*
X012269Y005929D03*
X012279Y005919D03*
X012289Y005899D03*
X012299Y005879D03*
X012309Y005859D03*
X012319Y005849D03*
X012319Y005839D03*
X012329Y005829D03*
X012329Y005819D03*
X012339Y005809D03*
X012339Y005799D03*
X012349Y005789D03*
X012349Y005779D03*
X012359Y005769D03*
X012369Y005749D03*
X012379Y005729D03*
X012389Y005709D03*
X012399Y005699D03*
X012399Y005689D03*
X012409Y005679D03*
X012409Y005669D03*
X012419Y005659D03*
X012419Y005649D03*
X012429Y005639D03*
X012439Y005619D03*
X012449Y005599D03*
X012459Y005589D03*
X012459Y005579D03*
X012469Y005559D03*
X012479Y005549D03*
X012479Y005539D03*
X012489Y005529D03*
X012489Y005519D03*
X012499Y005509D03*
X012509Y005489D03*
X012519Y005469D03*
X012529Y005449D03*
X012539Y005429D03*
X012549Y005419D03*
X012549Y005409D03*
X012559Y005399D03*
X012559Y005389D03*
X012569Y005379D03*
X012579Y005359D03*
X012589Y005339D03*
X012599Y005319D03*
X012609Y005299D03*
X012619Y005289D03*
X012619Y005279D03*
X012629Y005269D03*
X012629Y005259D03*
X012639Y005249D03*
X012649Y005229D03*
X012659Y005209D03*
X012669Y005199D03*
X012669Y005189D03*
X012679Y005179D03*
X012679Y005169D03*
X012689Y005159D03*
X012689Y005149D03*
X012699Y005139D03*
X012699Y005129D03*
X012709Y005119D03*
X012719Y005099D03*
X012729Y005079D03*
X012739Y005059D03*
X012749Y005039D03*
X012759Y005029D03*
X012759Y005019D03*
X012769Y005009D03*
X012769Y004999D03*
X012779Y004989D03*
X012789Y004969D03*
X012799Y004949D03*
X012809Y004929D03*
X012819Y004919D03*
X012819Y004909D03*
X012829Y004899D03*
X012829Y004889D03*
X012839Y004879D03*
X012839Y004869D03*
X012849Y004859D03*
X012859Y004839D03*
X012869Y004819D03*
X012879Y004799D03*
X012889Y004789D03*
X012889Y004779D03*
X012899Y004769D03*
X012899Y004759D03*
X012909Y004749D03*
X012909Y004739D03*
X012919Y004729D03*
X012929Y004709D03*
X012939Y004689D03*
X012949Y004669D03*
X012959Y004649D03*
X012969Y004639D03*
X012969Y004629D03*
X012979Y004619D03*
X012979Y004609D03*
X012989Y004599D03*
X012999Y004579D03*
X013009Y004559D03*
X013019Y004539D03*
X013029Y004519D03*
X013039Y004509D03*
X013039Y004499D03*
X013049Y004489D03*
X011439Y005309D03*
X011439Y005319D03*
X011449Y005329D03*
X011459Y005349D03*
X011469Y005369D03*
X011429Y005299D03*
X011419Y005279D03*
X011409Y005259D03*
X011399Y005249D03*
X011399Y005239D03*
X011389Y005229D03*
X011379Y005209D03*
X011369Y005189D03*
X011359Y005169D03*
X011349Y005159D03*
X011349Y005149D03*
X011339Y005139D03*
X011329Y005119D03*
X011319Y005099D03*
X011309Y005089D03*
X011309Y005079D03*
X011299Y005069D03*
X011289Y005049D03*
X011279Y005029D03*
X011269Y005019D03*
X011269Y005009D03*
X011259Y004999D03*
X011249Y004979D03*
X011239Y004959D03*
X011229Y004949D03*
X011229Y004939D03*
X011219Y004929D03*
X011209Y004909D03*
X011199Y004889D03*
X011189Y004879D03*
X011189Y004869D03*
X011169Y004839D03*
X011159Y004819D03*
X011149Y004799D03*
X011139Y004779D03*
X011129Y004769D03*
X011119Y004749D03*
X011109Y004729D03*
X011099Y004719D03*
X011099Y004709D03*
X011089Y004699D03*
X011079Y004679D03*
X011069Y004659D03*
X011059Y004639D03*
X011049Y004629D03*
X011039Y004609D03*
X011029Y004589D03*
X011019Y004569D03*
X011009Y004559D03*
X011009Y004549D03*
X010999Y004539D03*
X010989Y004519D03*
X010979Y004499D03*
X010969Y004489D03*
X012039Y006369D03*
X013049Y012363D03*
X013039Y012373D03*
X013039Y012383D03*
X013029Y012393D03*
X013019Y012413D03*
X013009Y012433D03*
X012999Y012453D03*
X012989Y012473D03*
X012979Y012483D03*
X012979Y012493D03*
X012969Y012503D03*
X012969Y012513D03*
X012959Y012523D03*
X012949Y012543D03*
X012939Y012563D03*
X012929Y012583D03*
X012919Y012603D03*
X012909Y012613D03*
X012909Y012623D03*
X012899Y012633D03*
X012899Y012643D03*
X012889Y012653D03*
X012889Y012663D03*
X012879Y012673D03*
X012869Y012693D03*
X012859Y012713D03*
X012849Y012733D03*
X012839Y012743D03*
X012839Y012753D03*
X012829Y012763D03*
X012829Y012773D03*
X012819Y012783D03*
X012819Y012793D03*
X012809Y012803D03*
X012799Y012823D03*
X012789Y012843D03*
X012779Y012863D03*
X012769Y012873D03*
X012769Y012883D03*
X012759Y012893D03*
X012759Y012903D03*
X012749Y012913D03*
X012739Y012933D03*
X012729Y012953D03*
X012719Y012973D03*
X012709Y012993D03*
X012699Y013003D03*
X012699Y013013D03*
X012689Y013023D03*
X012689Y013033D03*
X012679Y013043D03*
X012679Y013053D03*
X012669Y013063D03*
X012669Y013073D03*
X012659Y013083D03*
X012649Y013103D03*
X012639Y013123D03*
X012629Y013133D03*
X012629Y013143D03*
X012619Y013153D03*
X012619Y013163D03*
X012609Y013173D03*
X012599Y013193D03*
X012589Y013213D03*
X012579Y013233D03*
X012569Y013253D03*
X012559Y013263D03*
X012559Y013273D03*
X012549Y013283D03*
X012549Y013293D03*
X012539Y013303D03*
X012529Y013323D03*
X012519Y013343D03*
X012509Y013363D03*
X012499Y013383D03*
X012489Y013393D03*
X012489Y013403D03*
X012479Y013413D03*
X012479Y013423D03*
X012469Y013433D03*
X012459Y013453D03*
X012459Y013463D03*
X012449Y013473D03*
X012439Y013493D03*
X012429Y013513D03*
X012419Y013523D03*
X012419Y013533D03*
X012409Y013543D03*
X012409Y013553D03*
X012399Y013563D03*
X012399Y013573D03*
X012389Y013583D03*
X012379Y013603D03*
X012369Y013623D03*
X012359Y013643D03*
X012349Y013653D03*
X012349Y013663D03*
X012339Y013673D03*
X012339Y013683D03*
X012329Y013693D03*
X012329Y013703D03*
X012319Y013713D03*
X012319Y013723D03*
X012309Y013733D03*
X012299Y013753D03*
X012289Y013773D03*
X012279Y013793D03*
X012269Y013803D03*
X012269Y013813D03*
X012259Y013823D03*
X012259Y013833D03*
X012249Y013843D03*
X012239Y013863D03*
X012229Y013883D03*
X012219Y013903D03*
X012209Y013923D03*
X012199Y013933D03*
X012199Y013943D03*
X012189Y013953D03*
X012179Y013973D03*
X012169Y013993D03*
X012159Y014013D03*
X012149Y014033D03*
X012139Y014053D03*
X012129Y014063D03*
X012129Y014073D03*
X012119Y014083D03*
X012109Y014103D03*
X012099Y014123D03*
X012089Y014143D03*
X011979Y014143D03*
X011969Y014123D03*
X011959Y014103D03*
X011949Y014093D03*
X011949Y014083D03*
X011939Y014073D03*
X011929Y014053D03*
X011919Y014033D03*
X011909Y014013D03*
X011899Y014003D03*
X011889Y013983D03*
X011879Y013963D03*
X011859Y013933D03*
X011849Y013913D03*
X011839Y013893D03*
X011829Y013873D03*
X011819Y013863D03*
X011809Y013843D03*
X011799Y013823D03*
X011789Y013803D03*
X011779Y013793D03*
X011769Y013773D03*
X011759Y013753D03*
X011749Y013733D03*
X011739Y013723D03*
X011739Y013713D03*
X011729Y013703D03*
X011719Y013683D03*
X011709Y013663D03*
X011699Y013643D03*
X011689Y013633D03*
X011679Y013613D03*
X011669Y013593D03*
X011659Y013573D03*
X011649Y013563D03*
X011639Y013543D03*
X011629Y013523D03*
X011619Y013503D03*
X011609Y013493D03*
X011609Y013483D03*
X011599Y013473D03*
X011589Y013453D03*
X011579Y013433D03*
X011569Y013413D03*
X011559Y013403D03*
X011549Y013383D03*
X011539Y013363D03*
X011529Y013353D03*
X011529Y013343D03*
X011519Y013333D03*
X011509Y013313D03*
X011499Y013293D03*
X011489Y013283D03*
X011489Y013273D03*
X011479Y013263D03*
X011479Y013253D03*
X011469Y013243D03*
X011459Y013223D03*
X011449Y013203D03*
X011439Y013193D03*
X011439Y013183D03*
X011429Y013173D03*
X011419Y013153D03*
X011409Y013133D03*
X011399Y013123D03*
X011399Y013113D03*
X011389Y013103D03*
X011379Y013083D03*
X011369Y013063D03*
X011359Y013043D03*
X011349Y013033D03*
X011349Y013023D03*
X011339Y013013D03*
X011329Y012993D03*
X011319Y012973D03*
X011309Y012963D03*
X011309Y012953D03*
X011299Y012943D03*
X011289Y012923D03*
X011279Y012903D03*
X011269Y012893D03*
X011269Y012883D03*
X011259Y012873D03*
X011249Y012853D03*
X011239Y012833D03*
X011229Y012823D03*
X011229Y012813D03*
X011219Y012803D03*
X011209Y012783D03*
X011199Y012763D03*
X011189Y012753D03*
X011189Y012743D03*
X011169Y012713D03*
X011159Y012693D03*
X011149Y012673D03*
X011139Y012653D03*
X011129Y012643D03*
X011119Y012623D03*
X011109Y012603D03*
X011099Y012593D03*
X011099Y012583D03*
X011089Y012573D03*
X011079Y012553D03*
X011069Y012533D03*
X011059Y012513D03*
X011049Y012503D03*
X011039Y012483D03*
X011029Y012463D03*
X011019Y012443D03*
X011009Y012433D03*
X011009Y012423D03*
X010999Y012413D03*
X010989Y012393D03*
X010979Y012373D03*
X010969Y012363D03*
X011749Y012953D03*
X011789Y013073D03*
X011789Y013083D03*
X012019Y012763D03*
X012019Y012753D03*
X012019Y012743D03*
X011979Y012533D03*
X012039Y014243D03*
X013049Y020237D03*
X013039Y020247D03*
X013039Y020257D03*
X013029Y020267D03*
X013019Y020287D03*
X013009Y020307D03*
X012999Y020327D03*
X012989Y020347D03*
X012979Y020357D03*
X012979Y020367D03*
X012969Y020377D03*
X012969Y020387D03*
X012959Y020397D03*
X012949Y020417D03*
X012939Y020437D03*
X012929Y020457D03*
X012919Y020477D03*
X012909Y020487D03*
X012909Y020497D03*
X012899Y020507D03*
X012899Y020517D03*
X012889Y020527D03*
X012889Y020537D03*
X012879Y020547D03*
X012869Y020567D03*
X012859Y020587D03*
X012849Y020607D03*
X012839Y020617D03*
X012839Y020627D03*
X012829Y020637D03*
X012829Y020647D03*
X012819Y020657D03*
X012819Y020667D03*
X012809Y020677D03*
X012799Y020697D03*
X012789Y020717D03*
X012779Y020737D03*
X012769Y020747D03*
X012769Y020757D03*
X012759Y020767D03*
X012759Y020777D03*
X012749Y020787D03*
X012739Y020807D03*
X012729Y020827D03*
X012719Y020847D03*
X012709Y020867D03*
X012699Y020877D03*
X012699Y020887D03*
X012689Y020897D03*
X012689Y020907D03*
X012679Y020917D03*
X012679Y020927D03*
X012669Y020937D03*
X012669Y020947D03*
X012659Y020957D03*
X012649Y020977D03*
X012639Y020997D03*
X012629Y021007D03*
X012629Y021017D03*
X012619Y021027D03*
X012619Y021037D03*
X012609Y021047D03*
X012599Y021067D03*
X012589Y021087D03*
X012579Y021107D03*
X012569Y021127D03*
X012559Y021137D03*
X012559Y021147D03*
X012549Y021157D03*
X012549Y021167D03*
X012539Y021177D03*
X012529Y021197D03*
X012519Y021217D03*
X012509Y021237D03*
X012499Y021257D03*
X012489Y021267D03*
X012489Y021277D03*
X012479Y021287D03*
X012479Y021297D03*
X012469Y021307D03*
X012459Y021327D03*
X012459Y021337D03*
X012449Y021347D03*
X012439Y021367D03*
X012429Y021387D03*
X012419Y021397D03*
X012419Y021407D03*
X012409Y021417D03*
X012409Y021427D03*
X012399Y021437D03*
X012399Y021447D03*
X012389Y021457D03*
X012379Y021477D03*
X012369Y021497D03*
X012359Y021517D03*
X012349Y021527D03*
X012349Y021537D03*
X012339Y021547D03*
X012339Y021557D03*
X012329Y021567D03*
X012329Y021577D03*
X012319Y021587D03*
X012319Y021597D03*
X012309Y021607D03*
X012299Y021627D03*
X012289Y021647D03*
X012279Y021667D03*
X012269Y021677D03*
X012269Y021687D03*
X012259Y021697D03*
X012259Y021707D03*
X012249Y021717D03*
X012239Y021737D03*
X012229Y021757D03*
X012219Y021777D03*
X012209Y021797D03*
X012199Y021807D03*
X012199Y021817D03*
X012189Y021827D03*
X012179Y021847D03*
X012169Y021867D03*
X012159Y021887D03*
X012149Y021907D03*
X012139Y021927D03*
X012129Y021937D03*
X012129Y021947D03*
X012119Y021957D03*
X012109Y021977D03*
X012099Y021997D03*
X012089Y022017D03*
X011979Y022017D03*
X011969Y021997D03*
X011959Y021977D03*
X011949Y021967D03*
X011949Y021957D03*
X011939Y021947D03*
X011929Y021927D03*
X011919Y021907D03*
X011909Y021887D03*
X011899Y021877D03*
X011889Y021857D03*
X011879Y021837D03*
X011859Y021807D03*
X011849Y021787D03*
X011839Y021767D03*
X011829Y021747D03*
X011819Y021737D03*
X011809Y021717D03*
X011799Y021697D03*
X011789Y021677D03*
X011779Y021667D03*
X011769Y021647D03*
X011759Y021627D03*
X011749Y021607D03*
X011739Y021597D03*
X011739Y021587D03*
X011729Y021577D03*
X011719Y021557D03*
X011709Y021537D03*
X011699Y021517D03*
X011689Y021507D03*
X011679Y021487D03*
X011669Y021467D03*
X011659Y021447D03*
X011649Y021437D03*
X011639Y021417D03*
X011629Y021397D03*
X011619Y021377D03*
X011609Y021367D03*
X011609Y021357D03*
X011599Y021347D03*
X011589Y021327D03*
X011579Y021307D03*
X011569Y021287D03*
X011559Y021277D03*
X011549Y021257D03*
X011539Y021237D03*
X011529Y021227D03*
X011529Y021217D03*
X011519Y021207D03*
X011509Y021187D03*
X011499Y021167D03*
X011489Y021157D03*
X011489Y021147D03*
X011479Y021137D03*
X011479Y021127D03*
X011469Y021117D03*
X011459Y021097D03*
X011449Y021077D03*
X011439Y021067D03*
X011439Y021057D03*
X011429Y021047D03*
X011419Y021027D03*
X011409Y021007D03*
X011399Y020997D03*
X011399Y020987D03*
X011389Y020977D03*
X011379Y020957D03*
X011369Y020937D03*
X011359Y020917D03*
X011349Y020907D03*
X011349Y020897D03*
X011339Y020887D03*
X011329Y020867D03*
X011319Y020847D03*
X011309Y020837D03*
X011309Y020827D03*
X011299Y020817D03*
X011289Y020797D03*
X011279Y020777D03*
X011269Y020767D03*
X011269Y020757D03*
X011259Y020747D03*
X011249Y020727D03*
X011239Y020707D03*
X011229Y020697D03*
X011229Y020687D03*
X011219Y020677D03*
X011209Y020657D03*
X011199Y020637D03*
X011189Y020627D03*
X011189Y020617D03*
X011169Y020587D03*
X011159Y020567D03*
X011149Y020547D03*
X011139Y020527D03*
X011129Y020517D03*
X011119Y020497D03*
X011109Y020477D03*
X011099Y020467D03*
X011099Y020457D03*
X011089Y020447D03*
X011079Y020427D03*
X011069Y020407D03*
X011059Y020387D03*
X011049Y020377D03*
X011039Y020357D03*
X011029Y020337D03*
X011019Y020317D03*
X011009Y020307D03*
X011009Y020297D03*
X010999Y020287D03*
X010989Y020267D03*
X010979Y020247D03*
X010969Y020237D03*
X011749Y020827D03*
X011789Y020947D03*
X011789Y020957D03*
X012019Y020637D03*
X012019Y020627D03*
X012019Y020617D03*
X011979Y020407D03*
X012039Y022117D03*
D17*
X012034Y022107D03*
X011974Y022007D03*
X011964Y021987D03*
X011934Y021937D03*
X011924Y021917D03*
X011914Y021897D03*
X011894Y021867D03*
X011884Y021847D03*
X011874Y021827D03*
X011864Y021817D03*
X011854Y021797D03*
X011844Y021777D03*
X011834Y021757D03*
X011814Y021727D03*
X011804Y021707D03*
X011794Y021687D03*
X011774Y021657D03*
X011764Y021637D03*
X011754Y021617D03*
X011724Y021567D03*
X011714Y021547D03*
X011704Y021527D03*
X011684Y021497D03*
X011674Y021477D03*
X011664Y021457D03*
X011644Y021427D03*
X011634Y021407D03*
X011624Y021387D03*
X011594Y021337D03*
X011584Y021317D03*
X011574Y021297D03*
X011554Y021267D03*
X011544Y021247D03*
X011514Y021197D03*
X011504Y021177D03*
X011464Y021107D03*
X011454Y021087D03*
X011424Y021037D03*
X011414Y021017D03*
X011384Y020967D03*
X011374Y020947D03*
X011364Y020927D03*
X011334Y020877D03*
X011324Y020857D03*
X011294Y020807D03*
X011284Y020787D03*
X011254Y020737D03*
X011244Y020717D03*
X011214Y020667D03*
X011204Y020647D03*
X011184Y020607D03*
X011174Y020597D03*
X011164Y020577D03*
X011154Y020557D03*
X011144Y020537D03*
X011124Y020507D03*
X011114Y020487D03*
X011084Y020437D03*
X011074Y020417D03*
X011064Y020397D03*
X011044Y020367D03*
X011034Y020347D03*
X011024Y020327D03*
X010994Y020277D03*
X010984Y020257D03*
X011754Y020837D03*
X011794Y020967D03*
X011794Y020977D03*
X011804Y020987D03*
X011804Y020997D03*
X011804Y021007D03*
X011824Y021047D03*
X012154Y021107D03*
X012464Y021317D03*
X012444Y021357D03*
X012434Y021377D03*
X012384Y021467D03*
X012374Y021487D03*
X012364Y021507D03*
X012304Y021617D03*
X012294Y021637D03*
X012284Y021657D03*
X012244Y021727D03*
X012234Y021747D03*
X012224Y021767D03*
X012214Y021787D03*
X012184Y021837D03*
X012174Y021857D03*
X012164Y021877D03*
X012154Y021897D03*
X012144Y021917D03*
X012114Y021967D03*
X012104Y021987D03*
X012094Y022007D03*
X012504Y021247D03*
X012514Y021227D03*
X012524Y021207D03*
X012534Y021187D03*
X012574Y021117D03*
X012584Y021097D03*
X012594Y021077D03*
X012604Y021057D03*
X012644Y020987D03*
X012654Y020967D03*
X012714Y020857D03*
X012724Y020837D03*
X012734Y020817D03*
X012744Y020797D03*
X012784Y020727D03*
X012794Y020707D03*
X012804Y020687D03*
X012854Y020597D03*
X012864Y020577D03*
X012874Y020557D03*
X012924Y020467D03*
X012934Y020447D03*
X012944Y020427D03*
X012954Y020407D03*
X012994Y020337D03*
X013004Y020317D03*
X013014Y020297D03*
X013024Y020277D03*
X012024Y020647D03*
X012024Y020657D03*
X012024Y020667D03*
X012024Y020677D03*
X012034Y020707D03*
X011984Y020427D03*
X011984Y020417D03*
X012034Y014233D03*
X011974Y014133D03*
X011964Y014113D03*
X011934Y014063D03*
X011924Y014043D03*
X011914Y014023D03*
X011894Y013993D03*
X011884Y013973D03*
X011874Y013953D03*
X011864Y013943D03*
X011854Y013923D03*
X011844Y013903D03*
X011834Y013883D03*
X011814Y013853D03*
X011804Y013833D03*
X011794Y013813D03*
X011774Y013783D03*
X011764Y013763D03*
X011754Y013743D03*
X011724Y013693D03*
X011714Y013673D03*
X011704Y013653D03*
X011684Y013623D03*
X011674Y013603D03*
X011664Y013583D03*
X011644Y013553D03*
X011634Y013533D03*
X011624Y013513D03*
X011594Y013463D03*
X011584Y013443D03*
X011574Y013423D03*
X011554Y013393D03*
X011544Y013373D03*
X011514Y013323D03*
X011504Y013303D03*
X011464Y013233D03*
X011454Y013213D03*
X011424Y013163D03*
X011414Y013143D03*
X011384Y013093D03*
X011374Y013073D03*
X011364Y013053D03*
X011334Y013003D03*
X011324Y012983D03*
X011294Y012933D03*
X011284Y012913D03*
X011254Y012863D03*
X011244Y012843D03*
X011214Y012793D03*
X011204Y012773D03*
X011184Y012733D03*
X011174Y012723D03*
X011164Y012703D03*
X011154Y012683D03*
X011144Y012663D03*
X011124Y012633D03*
X011114Y012613D03*
X011084Y012563D03*
X011074Y012543D03*
X011064Y012523D03*
X011044Y012493D03*
X011034Y012473D03*
X011024Y012453D03*
X010994Y012403D03*
X010984Y012383D03*
X011754Y012963D03*
X011794Y013093D03*
X011794Y013103D03*
X011804Y013113D03*
X011804Y013123D03*
X011804Y013133D03*
X011824Y013173D03*
X012154Y013233D03*
X012464Y013443D03*
X012444Y013483D03*
X012434Y013503D03*
X012384Y013593D03*
X012374Y013613D03*
X012364Y013633D03*
X012304Y013743D03*
X012294Y013763D03*
X012284Y013783D03*
X012244Y013853D03*
X012234Y013873D03*
X012224Y013893D03*
X012214Y013913D03*
X012184Y013963D03*
X012174Y013983D03*
X012164Y014003D03*
X012154Y014023D03*
X012144Y014043D03*
X012114Y014093D03*
X012104Y014113D03*
X012094Y014133D03*
X012504Y013373D03*
X012514Y013353D03*
X012524Y013333D03*
X012534Y013313D03*
X012574Y013243D03*
X012584Y013223D03*
X012594Y013203D03*
X012604Y013183D03*
X012644Y013113D03*
X012654Y013093D03*
X012714Y012983D03*
X012724Y012963D03*
X012734Y012943D03*
X012744Y012923D03*
X012784Y012853D03*
X012794Y012833D03*
X012804Y012813D03*
X012854Y012723D03*
X012864Y012703D03*
X012874Y012683D03*
X012924Y012593D03*
X012934Y012573D03*
X012944Y012553D03*
X012954Y012533D03*
X012994Y012463D03*
X013004Y012443D03*
X013014Y012423D03*
X013024Y012403D03*
X012024Y012773D03*
X012024Y012783D03*
X012024Y012793D03*
X012024Y012803D03*
X012034Y012833D03*
X011984Y012553D03*
X011984Y012543D03*
X012034Y006359D03*
X011974Y006259D03*
X011964Y006239D03*
X011934Y006189D03*
X011924Y006169D03*
X011914Y006149D03*
X011894Y006119D03*
X011884Y006099D03*
X011874Y006079D03*
X011864Y006069D03*
X011854Y006049D03*
X011844Y006029D03*
X011834Y006009D03*
X011814Y005979D03*
X011804Y005959D03*
X011794Y005939D03*
X011774Y005909D03*
X011764Y005889D03*
X011754Y005869D03*
X011724Y005819D03*
X011714Y005799D03*
X011704Y005779D03*
X011684Y005749D03*
X011674Y005729D03*
X011664Y005709D03*
X011644Y005679D03*
X011634Y005659D03*
X011624Y005639D03*
X011594Y005589D03*
X011584Y005569D03*
X011574Y005549D03*
X011554Y005519D03*
X011544Y005499D03*
X011514Y005449D03*
X011504Y005429D03*
X011464Y005359D03*
X011454Y005339D03*
X011424Y005289D03*
X011414Y005269D03*
X011384Y005219D03*
X011374Y005199D03*
X011364Y005179D03*
X011334Y005129D03*
X011324Y005109D03*
X011294Y005059D03*
X011284Y005039D03*
X011254Y004989D03*
X011244Y004969D03*
X011214Y004919D03*
X011204Y004899D03*
X011184Y004859D03*
X011174Y004849D03*
X011164Y004829D03*
X011154Y004809D03*
X011144Y004789D03*
X011124Y004759D03*
X011114Y004739D03*
X011084Y004689D03*
X011074Y004669D03*
X011064Y004649D03*
X011044Y004619D03*
X011034Y004599D03*
X011024Y004579D03*
X010994Y004529D03*
X010984Y004509D03*
X011754Y005089D03*
X011794Y005219D03*
X011794Y005229D03*
X011804Y005239D03*
X011804Y005249D03*
X011804Y005259D03*
X011824Y005299D03*
X012154Y005359D03*
X012464Y005569D03*
X012444Y005609D03*
X012434Y005629D03*
X012384Y005719D03*
X012374Y005739D03*
X012364Y005759D03*
X012304Y005869D03*
X012294Y005889D03*
X012284Y005909D03*
X012244Y005979D03*
X012234Y005999D03*
X012224Y006019D03*
X012214Y006039D03*
X012184Y006089D03*
X012174Y006109D03*
X012164Y006129D03*
X012154Y006149D03*
X012144Y006169D03*
X012114Y006219D03*
X012104Y006239D03*
X012094Y006259D03*
X012504Y005499D03*
X012514Y005479D03*
X012524Y005459D03*
X012534Y005439D03*
X012574Y005369D03*
X012584Y005349D03*
X012594Y005329D03*
X012604Y005309D03*
X012644Y005239D03*
X012654Y005219D03*
X012714Y005109D03*
X012724Y005089D03*
X012734Y005069D03*
X012744Y005049D03*
X012784Y004979D03*
X012794Y004959D03*
X012804Y004939D03*
X012854Y004849D03*
X012864Y004829D03*
X012874Y004809D03*
X012924Y004719D03*
X012934Y004699D03*
X012944Y004679D03*
X012954Y004659D03*
X012994Y004589D03*
X013004Y004569D03*
X013014Y004549D03*
X013024Y004529D03*
X012024Y004899D03*
X012024Y004909D03*
X012024Y004919D03*
X012024Y004929D03*
X012034Y004959D03*
X011984Y004679D03*
X011984Y004669D03*
D18*
X011969Y004579D03*
X011699Y005029D03*
X011969Y012453D03*
X011699Y012903D03*
X011969Y020327D03*
X011699Y020777D03*
D19*
X011964Y020337D03*
X012214Y021167D03*
X012214Y013293D03*
X011964Y012463D03*
X012214Y005419D03*
X011964Y004589D03*
D20*
X011969Y004599D03*
X011709Y005039D03*
X012199Y005409D03*
X011969Y012473D03*
X011709Y012913D03*
X012199Y013283D03*
X011969Y020347D03*
X011709Y020787D03*
X012199Y021157D03*
D21*
X012194Y021147D03*
X011974Y020357D03*
X012194Y013273D03*
X011974Y012483D03*
X012194Y005399D03*
X011974Y004609D03*
D22*
X011969Y004619D03*
X011719Y005049D03*
X011729Y005059D03*
X011969Y012493D03*
X011719Y012923D03*
X011729Y012933D03*
X011969Y020367D03*
X011719Y020797D03*
X011729Y020807D03*
D23*
X011974Y020377D03*
X012184Y021137D03*
X012034Y022137D03*
X012034Y014263D03*
X012184Y013263D03*
X011974Y012503D03*
X012034Y006389D03*
X012184Y005389D03*
X011974Y004629D03*
D24*
X011979Y004639D03*
X011979Y004649D03*
X011739Y005069D03*
X012169Y005379D03*
X011979Y012513D03*
X011979Y012523D03*
X011739Y012943D03*
X012169Y013253D03*
X011979Y020387D03*
X011979Y020397D03*
X011739Y020817D03*
X012169Y021127D03*
D25*
X011839Y021097D03*
X011829Y021077D03*
X011829Y021067D03*
X011829Y021057D03*
X011819Y021037D03*
X011819Y021027D03*
X011809Y021017D03*
X011769Y020847D03*
X012039Y020747D03*
X012039Y020737D03*
X012039Y020727D03*
X012039Y020717D03*
X012029Y020697D03*
X012029Y020687D03*
X011989Y020437D03*
X011839Y013223D03*
X011829Y013203D03*
X011829Y013193D03*
X011829Y013183D03*
X011819Y013163D03*
X011819Y013153D03*
X011809Y013143D03*
X011769Y012973D03*
X012039Y012873D03*
X012039Y012863D03*
X012039Y012853D03*
X012039Y012843D03*
X012029Y012823D03*
X012029Y012813D03*
X011989Y012563D03*
X011839Y005349D03*
X011829Y005329D03*
X011829Y005319D03*
X011829Y005309D03*
X011819Y005289D03*
X011819Y005279D03*
X011809Y005269D03*
X011769Y005099D03*
X012039Y004999D03*
X012039Y004989D03*
X012039Y004979D03*
X012039Y004969D03*
X012029Y004949D03*
X012029Y004939D03*
X011989Y004689D03*
D26*
X011989Y004699D03*
X012049Y005039D03*
X012049Y005049D03*
X012049Y005059D03*
X012049Y005069D03*
X011779Y005109D03*
X011859Y005409D03*
X011869Y005429D03*
X011869Y005439D03*
X011879Y005459D03*
X011879Y005469D03*
X011889Y005489D03*
X011899Y005519D03*
X011989Y012573D03*
X012049Y012913D03*
X012049Y012923D03*
X012049Y012933D03*
X012049Y012943D03*
X011779Y012983D03*
X011859Y013283D03*
X011869Y013303D03*
X011869Y013313D03*
X011879Y013333D03*
X011879Y013343D03*
X011889Y013363D03*
X011899Y013393D03*
X011989Y020447D03*
X012049Y020787D03*
X012049Y020797D03*
X012049Y020807D03*
X012049Y020817D03*
X011779Y020857D03*
X011859Y021157D03*
X011869Y021177D03*
X011869Y021187D03*
X011879Y021207D03*
X011879Y021217D03*
X011889Y021237D03*
X011899Y021267D03*
D27*
X011904Y021277D03*
X011904Y021287D03*
X011914Y021307D03*
X011924Y021337D03*
X011894Y021257D03*
X011894Y021247D03*
X011884Y021227D03*
X012124Y021077D03*
X012064Y020887D03*
X012064Y020877D03*
X012064Y020867D03*
X012054Y020847D03*
X012054Y020837D03*
X012054Y020827D03*
X011784Y020867D03*
X011994Y020467D03*
X011994Y020457D03*
X012034Y022067D03*
X012034Y022077D03*
X012034Y014203D03*
X012034Y014193D03*
X011924Y013463D03*
X011914Y013433D03*
X011904Y013413D03*
X011904Y013403D03*
X011894Y013383D03*
X011894Y013373D03*
X011884Y013353D03*
X012124Y013203D03*
X012064Y013013D03*
X012064Y013003D03*
X012064Y012993D03*
X012054Y012973D03*
X012054Y012963D03*
X012054Y012953D03*
X011784Y012993D03*
X011994Y012593D03*
X011994Y012583D03*
X012034Y006329D03*
X012034Y006319D03*
X011924Y005589D03*
X011914Y005559D03*
X011904Y005539D03*
X011904Y005529D03*
X011894Y005509D03*
X011894Y005499D03*
X011884Y005479D03*
X012124Y005329D03*
X012064Y005139D03*
X012064Y005129D03*
X012064Y005119D03*
X012054Y005099D03*
X012054Y005089D03*
X012054Y005079D03*
X011784Y005119D03*
X011994Y004719D03*
X011994Y004709D03*
D28*
X011994Y004729D03*
X011974Y004829D03*
X012074Y005189D03*
X012104Y005309D03*
X012114Y005319D03*
X011954Y005669D03*
X011954Y005679D03*
X011964Y005699D03*
X011964Y005709D03*
X011974Y005729D03*
X012274Y005689D03*
X012034Y006299D03*
X012034Y006309D03*
X011994Y012603D03*
X011974Y012703D03*
X012074Y013063D03*
X012104Y013183D03*
X012114Y013193D03*
X011954Y013543D03*
X011954Y013553D03*
X011964Y013573D03*
X011964Y013583D03*
X011974Y013603D03*
X012274Y013563D03*
X012034Y014173D03*
X012034Y014183D03*
X011994Y020477D03*
X011974Y020577D03*
X012074Y020937D03*
X012104Y021057D03*
X012114Y021067D03*
X011954Y021417D03*
X011954Y021427D03*
X011964Y021447D03*
X011964Y021457D03*
X011974Y021477D03*
X012274Y021437D03*
X012034Y022047D03*
X012034Y022057D03*
D29*
X012009Y021577D03*
X011999Y021547D03*
X011989Y021527D03*
X011989Y021517D03*
X011979Y021497D03*
X011979Y021487D03*
X011969Y021467D03*
X011809Y020887D03*
X011999Y020497D03*
X011999Y020487D03*
X012009Y013703D03*
X011999Y013673D03*
X011989Y013653D03*
X011989Y013643D03*
X011979Y013623D03*
X011979Y013613D03*
X011969Y013593D03*
X011809Y013013D03*
X011999Y012623D03*
X011999Y012613D03*
X012009Y005829D03*
X011999Y005799D03*
X011989Y005779D03*
X011989Y005769D03*
X011979Y005749D03*
X011979Y005739D03*
X011969Y005719D03*
X011809Y005139D03*
X011999Y004749D03*
X011999Y004739D03*
D30*
X012004Y004759D03*
X011814Y005149D03*
X012094Y005299D03*
X011984Y005759D03*
X011994Y005789D03*
X012004Y005809D03*
X012004Y005819D03*
X012014Y005839D03*
X012014Y005849D03*
X012024Y005869D03*
X012024Y005879D03*
X012034Y006289D03*
X012004Y012633D03*
X011814Y013023D03*
X012094Y013173D03*
X011984Y013633D03*
X011994Y013663D03*
X012004Y013683D03*
X012004Y013693D03*
X012014Y013713D03*
X012014Y013723D03*
X012024Y013743D03*
X012024Y013753D03*
X012034Y014163D03*
X012004Y020507D03*
X011814Y020897D03*
X012094Y021047D03*
X011984Y021507D03*
X011994Y021537D03*
X012004Y021557D03*
X012004Y021567D03*
X012014Y021587D03*
X012014Y021597D03*
X012024Y021617D03*
X012024Y021627D03*
X012034Y022037D03*
D31*
X012034Y022027D03*
X012084Y021037D03*
X012074Y021027D03*
X011824Y020907D03*
X012004Y020517D03*
X012034Y014153D03*
X012084Y013163D03*
X012074Y013153D03*
X011824Y013033D03*
X012004Y012643D03*
X012034Y006279D03*
X012084Y005289D03*
X012074Y005279D03*
X011824Y005159D03*
X012004Y004769D03*
D32*
X012009Y004779D03*
X012009Y004789D03*
X011839Y005169D03*
X012009Y012653D03*
X012009Y012663D03*
X011839Y013043D03*
X012009Y020527D03*
X012009Y020537D03*
X011839Y020917D03*
D33*
X012064Y021017D03*
X012014Y020547D03*
X012064Y013143D03*
X012014Y012673D03*
X012064Y005269D03*
X012014Y004799D03*
D34*
X012014Y004809D03*
X012014Y004819D03*
X011854Y005189D03*
X012054Y005259D03*
X012014Y012683D03*
X012014Y012693D03*
X011854Y013063D03*
X012054Y013133D03*
X012014Y020557D03*
X012014Y020567D03*
X011854Y020937D03*
X012054Y021007D03*
D35*
X012164Y021117D03*
X012014Y020607D03*
X012014Y020597D03*
X012014Y020587D03*
X011924Y020587D03*
X012034Y022127D03*
X012034Y014253D03*
X012164Y013243D03*
X012014Y012733D03*
X012014Y012723D03*
X012014Y012713D03*
X011924Y012713D03*
X012034Y006379D03*
X012164Y005369D03*
X012014Y004859D03*
X012014Y004849D03*
X012014Y004839D03*
X011924Y004839D03*
D36*
X012044Y005009D03*
X012044Y005019D03*
X012044Y005029D03*
X012134Y005339D03*
X012144Y005349D03*
X011874Y005449D03*
X011864Y005419D03*
X011854Y005399D03*
X011854Y005389D03*
X011844Y005369D03*
X011844Y005359D03*
X011834Y005339D03*
X012054Y005889D03*
X012034Y006339D03*
X012034Y006349D03*
X012044Y012883D03*
X012044Y012893D03*
X012044Y012903D03*
X012134Y013213D03*
X012144Y013223D03*
X011874Y013323D03*
X011864Y013293D03*
X011854Y013273D03*
X011854Y013263D03*
X011844Y013243D03*
X011844Y013233D03*
X011834Y013213D03*
X012054Y013763D03*
X012034Y014213D03*
X012034Y014223D03*
X012044Y020757D03*
X012044Y020767D03*
X012044Y020777D03*
X012134Y021087D03*
X012144Y021097D03*
X011874Y021197D03*
X011864Y021167D03*
X011854Y021147D03*
X011854Y021137D03*
X011844Y021117D03*
X011844Y021107D03*
X011834Y021087D03*
X012054Y021637D03*
X012034Y022087D03*
X012034Y022097D03*
D37*
X011959Y021437D03*
X011949Y021407D03*
X011949Y021397D03*
X011939Y021387D03*
X011939Y021377D03*
X011939Y021367D03*
X011929Y021357D03*
X011929Y021347D03*
X011919Y021327D03*
X011919Y021317D03*
X011909Y021297D03*
X012069Y020917D03*
X012069Y020907D03*
X012069Y020897D03*
X012059Y020857D03*
X011799Y020877D03*
X011959Y013563D03*
X011949Y013533D03*
X011949Y013523D03*
X011939Y013513D03*
X011939Y013503D03*
X011939Y013493D03*
X011929Y013483D03*
X011929Y013473D03*
X011919Y013453D03*
X011919Y013443D03*
X011909Y013423D03*
X012069Y013043D03*
X012069Y013033D03*
X012069Y013023D03*
X012059Y012983D03*
X011799Y013003D03*
X011959Y005689D03*
X011949Y005659D03*
X011949Y005649D03*
X011939Y005639D03*
X011939Y005629D03*
X011939Y005619D03*
X011929Y005609D03*
X011929Y005599D03*
X011919Y005579D03*
X011919Y005569D03*
X011909Y005549D03*
X012069Y005169D03*
X012069Y005159D03*
X012069Y005149D03*
X012059Y005109D03*
X011799Y005129D03*
D38*
X011849Y005179D03*
X011849Y013053D03*
X011849Y020927D03*
D39*
X011999Y020947D03*
X011999Y013073D03*
X011999Y005199D03*
D40*
X012004Y005209D03*
X012004Y013083D03*
X012004Y020957D03*
D41*
X012019Y020967D03*
X012019Y013093D03*
X012019Y005219D03*
D42*
X012029Y005229D03*
X012029Y013103D03*
X012029Y020977D03*
D43*
X012034Y020987D03*
X012034Y013113D03*
X012034Y005239D03*
D44*
X012049Y005249D03*
X012049Y013123D03*
X012049Y020997D03*
D45*
X012019Y021607D03*
X012029Y021637D03*
X012029Y013763D03*
X012019Y013733D03*
X012029Y005889D03*
X012019Y005859D03*
D46*
X019819Y019571D03*
X019924Y019846D03*
X019909Y019856D03*
X019904Y019861D03*
X019899Y019866D03*
X019884Y019876D03*
X019839Y019906D03*
X019824Y019916D03*
X019819Y019921D03*
X019804Y019931D03*
X019789Y019941D03*
X019784Y019946D03*
X019774Y019951D03*
X019769Y019956D03*
X019764Y019961D03*
X019754Y019966D03*
X019749Y019971D03*
X019739Y019976D03*
X019734Y019981D03*
X019719Y019991D03*
X019939Y020221D03*
X020059Y020376D03*
X020059Y020381D03*
X020064Y020386D03*
X020064Y020391D03*
X019534Y020531D03*
X019534Y020536D03*
X019374Y020556D03*
X019374Y020561D03*
X019314Y020086D03*
X019344Y019891D03*
X019689Y021096D03*
X019689Y021101D03*
D47*
X019819Y021296D03*
X019409Y021491D03*
X018469Y020986D03*
X018469Y020446D03*
X018474Y020441D03*
X018729Y019921D03*
X019459Y019741D03*
X019819Y019576D03*
X020924Y019846D03*
X021009Y020876D03*
X020724Y021026D03*
D48*
X020759Y021006D03*
X019409Y021486D03*
X018564Y021036D03*
X019819Y019581D03*
X020094Y019696D03*
D49*
X019822Y019586D03*
X020792Y019786D03*
X019832Y021326D03*
X019412Y021481D03*
D50*
X020817Y020961D03*
X019822Y019591D03*
D51*
X019819Y019596D03*
X018724Y021091D03*
D52*
X018714Y021081D03*
X019819Y019601D03*
D53*
X019819Y019606D03*
X018704Y021066D03*
D54*
X019422Y021451D03*
X019822Y019611D03*
D55*
X019819Y019616D03*
D56*
X019822Y019621D03*
X019447Y021431D03*
D57*
X019464Y021416D03*
X019819Y019626D03*
D58*
X019819Y019631D03*
X019474Y021406D03*
D59*
X019822Y019636D03*
D60*
X019822Y019641D03*
X019177Y019786D03*
D61*
X019147Y019801D03*
X019822Y019646D03*
D62*
X019822Y019651D03*
X019122Y019816D03*
D63*
X019092Y019836D03*
X019822Y019656D03*
D64*
X019822Y019661D03*
X019087Y019841D03*
X019082Y019846D03*
D65*
X019822Y019666D03*
D66*
X019822Y019671D03*
D67*
X020004Y019781D03*
X019939Y020196D03*
X020074Y020426D03*
X020079Y020436D03*
X020079Y020441D03*
X019534Y020556D03*
X019369Y020531D03*
X019314Y020061D03*
X019349Y019896D03*
X020554Y019671D03*
X019694Y021126D03*
D68*
X019819Y019676D03*
D69*
X019739Y020006D03*
X020554Y019676D03*
X021029Y020331D03*
X021034Y020336D03*
X021039Y020346D03*
X021044Y020351D03*
X021049Y020356D03*
X021054Y020361D03*
X021059Y020836D03*
X021054Y020841D03*
X021049Y020846D03*
X020714Y021031D03*
X020589Y021251D03*
X020584Y021256D03*
X020579Y021261D03*
X018599Y020346D03*
X018439Y020471D03*
X018434Y020476D03*
X018434Y020956D03*
X018439Y020961D03*
X018684Y019956D03*
X018689Y019951D03*
D70*
X019607Y019681D03*
X020557Y019691D03*
X020802Y020971D03*
D71*
X020809Y020966D03*
X020859Y020936D03*
X019624Y021386D03*
X018744Y021111D03*
X018624Y021051D03*
X020034Y019681D03*
D72*
X020554Y019681D03*
X020854Y019806D03*
X020749Y021011D03*
X020469Y021331D03*
X019824Y021311D03*
X018799Y019881D03*
D73*
X019577Y019686D03*
X020067Y019686D03*
X019657Y021381D03*
D74*
X020779Y020991D03*
X020889Y020931D03*
X020554Y019686D03*
X018599Y021046D03*
D75*
X018582Y021041D03*
X019562Y019691D03*
X020082Y019691D03*
X020767Y021001D03*
X020907Y020926D03*
D76*
X019747Y020031D03*
X019547Y019696D03*
X019292Y019861D03*
X018817Y019876D03*
X018777Y021136D03*
D77*
X018729Y021096D03*
X020554Y019696D03*
D78*
X020292Y019796D03*
X020112Y019701D03*
X019757Y020021D03*
X019532Y019701D03*
X018552Y021031D03*
X020937Y020916D03*
D79*
X020557Y019701D03*
D80*
X020122Y019706D03*
X019757Y020016D03*
X019522Y019706D03*
X018792Y019886D03*
X018542Y021026D03*
X020947Y020911D03*
D81*
X020557Y019706D03*
X019397Y021466D03*
D82*
X020492Y021321D03*
X020957Y020906D03*
X020132Y019711D03*
X019512Y019711D03*
X018782Y019891D03*
X018567Y020381D03*
X018562Y020386D03*
X018527Y020411D03*
D83*
X020557Y019711D03*
D84*
X020142Y019716D03*
X019502Y019716D03*
X019097Y019756D03*
X018762Y019901D03*
X018577Y020371D03*
X018572Y020376D03*
X018512Y021011D03*
X020502Y021316D03*
X020977Y020896D03*
D85*
X020557Y019716D03*
D86*
X020884Y019821D03*
X020894Y019826D03*
X020984Y020891D03*
X020734Y021021D03*
X020509Y021311D03*
X019494Y019721D03*
X019484Y019726D03*
X018509Y020421D03*
X018499Y020426D03*
X018499Y021006D03*
D87*
X018519Y021016D03*
X018519Y020416D03*
X018769Y019896D03*
X019759Y020036D03*
X020149Y019721D03*
X020284Y019801D03*
X020874Y019816D03*
X020969Y020901D03*
X019824Y021306D03*
D88*
X019442Y021436D03*
X020557Y019721D03*
D89*
X020434Y019726D03*
D90*
X020909Y019836D03*
X020994Y020886D03*
X020524Y021301D03*
X020519Y021306D03*
X019474Y019731D03*
X018744Y019911D03*
X018484Y020996D03*
D91*
X019352Y020446D03*
X019352Y020441D03*
X019527Y020621D03*
X020127Y020596D03*
X020127Y020591D03*
X019927Y020096D03*
X019927Y020091D03*
X020032Y019731D03*
X019307Y019991D03*
X019707Y021211D03*
X019707Y021216D03*
D92*
X020457Y019731D03*
X020467Y019736D03*
D93*
X020277Y019806D03*
X019772Y020041D03*
X019467Y019736D03*
X018737Y019916D03*
X018587Y020361D03*
X018482Y020436D03*
X018477Y020991D03*
X020532Y021296D03*
X021002Y020881D03*
X020917Y019841D03*
D94*
X020027Y019736D03*
X019352Y019906D03*
X019352Y020456D03*
X019527Y020611D03*
X019527Y020616D03*
X020117Y020561D03*
X020122Y020571D03*
X020122Y020576D03*
X019702Y021196D03*
D95*
X019704Y021191D03*
X019529Y020606D03*
X019354Y020466D03*
X019354Y020461D03*
X019309Y020011D03*
X019309Y020006D03*
X019929Y020116D03*
X019929Y020121D03*
X020254Y019851D03*
X020024Y019741D03*
X020114Y020551D03*
X020114Y020556D03*
X020119Y020566D03*
D96*
X020504Y019756D03*
X020494Y019751D03*
X020474Y019741D03*
D97*
X020932Y019851D03*
X020937Y019856D03*
X021017Y020871D03*
X020547Y021286D03*
X020542Y021291D03*
X019447Y019751D03*
X019452Y019746D03*
X018722Y019926D03*
X018592Y020356D03*
X018462Y020451D03*
X018462Y020981D03*
D98*
X019359Y020481D03*
X019529Y020596D03*
X020109Y020536D03*
X020109Y020531D03*
X019699Y021176D03*
X019309Y020026D03*
X019309Y020021D03*
X019309Y020016D03*
X020024Y019746D03*
D99*
X020487Y019746D03*
X020512Y019761D03*
X020522Y019766D03*
X020527Y019771D03*
X020537Y019776D03*
D100*
X021017Y019936D03*
X021022Y019941D03*
X021022Y019946D03*
X021027Y019951D03*
X021032Y020276D03*
X021027Y020286D03*
X021022Y020291D03*
X021022Y020296D03*
X021017Y020306D03*
X021017Y020311D03*
X021117Y020431D03*
X021122Y020436D03*
X021127Y020446D03*
X021122Y020761D03*
X021117Y020771D03*
X021112Y020776D03*
X020702Y021036D03*
X020647Y021181D03*
X020642Y021186D03*
X020642Y021191D03*
X020637Y021196D03*
X020632Y021201D03*
X019972Y019831D03*
X019097Y019751D03*
X018632Y020016D03*
X018627Y020021D03*
X018627Y020026D03*
X018622Y020031D03*
X018617Y020041D03*
X018607Y020336D03*
X018382Y020531D03*
X018377Y020541D03*
X018372Y020546D03*
X018367Y020551D03*
X018362Y020561D03*
X018362Y020871D03*
X018367Y020881D03*
X018372Y020886D03*
X018377Y020891D03*
X018382Y020901D03*
D101*
X019242Y021181D03*
X019237Y021211D03*
X019232Y021241D03*
X019227Y021271D03*
X019222Y021296D03*
X019222Y021301D03*
X019217Y021326D03*
X019217Y021331D03*
X019212Y021356D03*
X019212Y021361D03*
X019192Y021481D03*
X019192Y021486D03*
X019702Y021171D03*
X019532Y020591D03*
X019357Y020486D03*
X019932Y020141D03*
X019932Y020136D03*
X020102Y020511D03*
X020102Y020516D03*
X020107Y020521D03*
X020107Y020526D03*
X020022Y019751D03*
D102*
X020274Y019811D03*
X020944Y019861D03*
X021029Y020861D03*
X021024Y020866D03*
X020554Y021281D03*
X019279Y021386D03*
X018809Y021151D03*
X018454Y020976D03*
X018449Y020971D03*
X018449Y020461D03*
X018454Y020456D03*
X018594Y020351D03*
X018709Y019936D03*
X018714Y019931D03*
X019319Y019871D03*
X019439Y019756D03*
D103*
X019309Y020031D03*
X019309Y020036D03*
X019269Y020141D03*
X019259Y020166D03*
X019249Y020191D03*
X019239Y020216D03*
X019214Y020281D03*
X019204Y020306D03*
X019194Y020331D03*
X019184Y020356D03*
X019159Y020421D03*
X019149Y020446D03*
X019139Y020471D03*
X019129Y020496D03*
X019104Y020561D03*
X019094Y020586D03*
X019084Y020611D03*
X019074Y020636D03*
X019039Y020726D03*
X019029Y020751D03*
X019019Y020776D03*
X019009Y020801D03*
X018984Y020866D03*
X018974Y020891D03*
X018964Y020916D03*
X018954Y020941D03*
X018944Y020966D03*
X018934Y020991D03*
X018929Y021006D03*
X018919Y021031D03*
X019254Y021096D03*
X019254Y021101D03*
X019254Y021106D03*
X019254Y021111D03*
X019254Y021116D03*
X019254Y021121D03*
X019249Y021126D03*
X019249Y021131D03*
X019249Y021136D03*
X019249Y021141D03*
X019249Y021146D03*
X019249Y021151D03*
X019244Y021156D03*
X019244Y021161D03*
X019244Y021166D03*
X019244Y021171D03*
X019244Y021176D03*
X019239Y021186D03*
X019239Y021191D03*
X019239Y021196D03*
X019239Y021201D03*
X019239Y021206D03*
X019234Y021216D03*
X019234Y021221D03*
X019234Y021226D03*
X019234Y021231D03*
X019234Y021236D03*
X019229Y021246D03*
X019229Y021251D03*
X019229Y021256D03*
X019229Y021261D03*
X019229Y021266D03*
X019224Y021276D03*
X019224Y021281D03*
X019224Y021286D03*
X019224Y021291D03*
X019219Y021306D03*
X019219Y021311D03*
X019219Y021316D03*
X019219Y021321D03*
X019214Y021336D03*
X019214Y021341D03*
X019214Y021346D03*
X019214Y021351D03*
X019189Y021491D03*
X019189Y021496D03*
X019259Y021091D03*
X019259Y021086D03*
X019259Y021081D03*
X019259Y021076D03*
X019259Y021071D03*
X019259Y021066D03*
X019264Y021056D03*
X019264Y021051D03*
X019264Y021046D03*
X019264Y021041D03*
X019264Y021036D03*
X019269Y021026D03*
X019269Y021021D03*
X019269Y021016D03*
X019269Y021011D03*
X019274Y021001D03*
X019274Y020996D03*
X019274Y020991D03*
X019274Y020986D03*
X019274Y020981D03*
X019279Y020971D03*
X019279Y020966D03*
X019279Y020961D03*
X019279Y020956D03*
X019279Y020951D03*
X019284Y020941D03*
X019284Y020936D03*
X019284Y020931D03*
X019284Y020926D03*
X019284Y020921D03*
X019289Y020911D03*
X019289Y020906D03*
X019289Y020901D03*
X019289Y020896D03*
X019294Y020886D03*
X019294Y020881D03*
X019294Y020876D03*
X019294Y020871D03*
X019294Y020866D03*
X019299Y020856D03*
X019299Y020851D03*
X019299Y020846D03*
X019299Y020841D03*
X019299Y020836D03*
X019304Y020826D03*
X019304Y020821D03*
X019304Y020816D03*
X019304Y020811D03*
X019304Y020806D03*
X019309Y020796D03*
X019309Y020791D03*
X019309Y020786D03*
X019309Y020781D03*
X019309Y020776D03*
X019314Y020766D03*
X019314Y020761D03*
X019314Y020756D03*
X019314Y020751D03*
X019319Y020741D03*
X019319Y020736D03*
X019319Y020731D03*
X019319Y020726D03*
X019319Y020721D03*
X019324Y020711D03*
X019324Y020706D03*
X019324Y020701D03*
X019324Y020696D03*
X019324Y020691D03*
X019329Y020681D03*
X019329Y020676D03*
X019329Y020671D03*
X019329Y020666D03*
X019329Y020661D03*
X019334Y020651D03*
X019334Y020646D03*
X019334Y020641D03*
X019334Y020636D03*
X019339Y020626D03*
X019339Y020621D03*
X019339Y020616D03*
X019339Y020611D03*
X019339Y020606D03*
X019359Y020491D03*
X019479Y020451D03*
X019489Y020476D03*
X019469Y020426D03*
X019459Y020401D03*
X019529Y020586D03*
X019814Y020661D03*
X019819Y020641D03*
X019824Y020621D03*
X019829Y020596D03*
X019834Y020576D03*
X019839Y020556D03*
X019844Y020531D03*
X019849Y020511D03*
X019854Y020491D03*
X019859Y020466D03*
X019864Y020446D03*
X019869Y020426D03*
X019874Y020401D03*
X019879Y020381D03*
X019884Y020361D03*
X019889Y020336D03*
X019894Y020321D03*
X019894Y020316D03*
X019899Y020306D03*
X019899Y020301D03*
X019899Y020296D03*
X019904Y020281D03*
X019904Y020276D03*
X019904Y020271D03*
X019909Y020261D03*
X019909Y020256D03*
X019934Y020151D03*
X019934Y020146D03*
X020059Y020146D03*
X020059Y020151D03*
X020059Y020156D03*
X020064Y020196D03*
X020064Y020201D03*
X020069Y020226D03*
X020069Y020231D03*
X020069Y020236D03*
X020069Y020241D03*
X020069Y020246D03*
X020074Y020256D03*
X020074Y020261D03*
X020074Y020266D03*
X020074Y020271D03*
X020074Y020276D03*
X020074Y020281D03*
X020074Y020286D03*
X020074Y020291D03*
X020079Y020301D03*
X020079Y020306D03*
X020079Y020311D03*
X020079Y020316D03*
X020079Y020321D03*
X020079Y020326D03*
X020099Y020501D03*
X020099Y020506D03*
X019809Y020686D03*
X019804Y020706D03*
X019799Y020726D03*
X019794Y020751D03*
X019789Y020771D03*
X019784Y020791D03*
X019779Y020816D03*
X019774Y020836D03*
X019769Y020856D03*
X019764Y020881D03*
X019759Y020901D03*
X019754Y020921D03*
X019749Y020946D03*
X019744Y020966D03*
X019739Y020986D03*
X019734Y021006D03*
X019734Y021011D03*
X019729Y021031D03*
X019724Y021051D03*
X019699Y021161D03*
X019699Y021166D03*
X020054Y020111D03*
X020054Y020106D03*
X020054Y020101D03*
X020054Y020096D03*
X020049Y020086D03*
X020049Y020081D03*
X020049Y020076D03*
X020049Y020071D03*
X020049Y020066D03*
X020049Y020061D03*
X020049Y020056D03*
X020049Y020051D03*
X020049Y020046D03*
X020044Y020041D03*
X020044Y020036D03*
X020044Y020031D03*
X020044Y020026D03*
X020044Y020021D03*
X020044Y020016D03*
X020044Y020011D03*
X020044Y020006D03*
X020044Y020001D03*
X020044Y019996D03*
X020039Y019991D03*
X020039Y019986D03*
X020039Y019981D03*
X020039Y019976D03*
X020039Y019971D03*
X020039Y019966D03*
X020039Y019961D03*
X020039Y019956D03*
X020039Y019951D03*
X020039Y019946D03*
X020034Y019941D03*
X020034Y019936D03*
X020034Y019931D03*
X020034Y019926D03*
X020034Y019921D03*
X020034Y019916D03*
X020034Y019911D03*
X020034Y019906D03*
X020034Y019901D03*
X020034Y019896D03*
X020029Y019891D03*
X020029Y019886D03*
X020029Y019881D03*
X020029Y019876D03*
X020029Y019871D03*
X020029Y019866D03*
X020029Y019861D03*
X020029Y019856D03*
X020029Y019851D03*
X020029Y019846D03*
X020024Y019841D03*
X020019Y019756D03*
D104*
X020814Y019791D03*
X019829Y021321D03*
X020174Y021451D03*
X019094Y019761D03*
D105*
X019422Y019771D03*
X019427Y019766D03*
X019432Y019761D03*
X018702Y019941D03*
X018697Y019946D03*
X018442Y020466D03*
X018447Y020966D03*
X020562Y021276D03*
X020567Y021271D03*
X020572Y021266D03*
X021037Y020856D03*
X021042Y020851D03*
X020962Y019876D03*
X020957Y019871D03*
X020952Y019866D03*
D106*
X020052Y020091D03*
X020057Y020116D03*
X020057Y020121D03*
X020057Y020126D03*
X020057Y020131D03*
X020057Y020136D03*
X020057Y020141D03*
X020062Y020161D03*
X020062Y020166D03*
X020062Y020171D03*
X020062Y020176D03*
X020062Y020181D03*
X020062Y020186D03*
X020062Y020191D03*
X020067Y020206D03*
X020067Y020211D03*
X020067Y020216D03*
X020067Y020221D03*
X020072Y020251D03*
X020077Y020296D03*
X020012Y020326D03*
X020007Y020316D03*
X020002Y020306D03*
X019997Y020296D03*
X019992Y020286D03*
X019987Y020276D03*
X019982Y020266D03*
X019977Y020256D03*
X019907Y020266D03*
X019902Y020286D03*
X019902Y020291D03*
X019897Y020311D03*
X019892Y020326D03*
X019892Y020331D03*
X019887Y020341D03*
X019887Y020346D03*
X019887Y020351D03*
X019887Y020356D03*
X019882Y020366D03*
X019882Y020371D03*
X019882Y020376D03*
X019877Y020386D03*
X019877Y020391D03*
X019877Y020396D03*
X019872Y020406D03*
X019872Y020411D03*
X019872Y020416D03*
X019872Y020421D03*
X019867Y020431D03*
X019867Y020436D03*
X019867Y020441D03*
X019862Y020451D03*
X019862Y020456D03*
X019862Y020461D03*
X019857Y020471D03*
X019857Y020476D03*
X019857Y020481D03*
X019857Y020486D03*
X019852Y020496D03*
X019852Y020501D03*
X019852Y020506D03*
X019847Y020516D03*
X019847Y020521D03*
X019847Y020526D03*
X019842Y020536D03*
X019842Y020541D03*
X019842Y020546D03*
X019842Y020551D03*
X019837Y020561D03*
X019837Y020566D03*
X019837Y020571D03*
X019832Y020581D03*
X019832Y020586D03*
X019832Y020591D03*
X019827Y020601D03*
X019827Y020606D03*
X019827Y020611D03*
X019827Y020616D03*
X019822Y020626D03*
X019822Y020631D03*
X019822Y020636D03*
X019817Y020646D03*
X019817Y020651D03*
X019817Y020656D03*
X019812Y020666D03*
X019812Y020671D03*
X019812Y020676D03*
X019812Y020681D03*
X019807Y020691D03*
X019807Y020696D03*
X019807Y020701D03*
X019802Y020711D03*
X019802Y020716D03*
X019802Y020721D03*
X019797Y020731D03*
X019797Y020736D03*
X019797Y020741D03*
X019797Y020746D03*
X019792Y020756D03*
X019792Y020761D03*
X019792Y020766D03*
X019787Y020776D03*
X019787Y020781D03*
X019787Y020786D03*
X019782Y020796D03*
X019782Y020801D03*
X019782Y020806D03*
X019782Y020811D03*
X019777Y020821D03*
X019777Y020826D03*
X019777Y020831D03*
X019772Y020841D03*
X019772Y020846D03*
X019772Y020851D03*
X019767Y020861D03*
X019767Y020866D03*
X019767Y020871D03*
X019767Y020876D03*
X019762Y020886D03*
X019762Y020891D03*
X019762Y020896D03*
X019757Y020906D03*
X019757Y020911D03*
X019757Y020916D03*
X019752Y020926D03*
X019752Y020931D03*
X019752Y020936D03*
X019752Y020941D03*
X019747Y020951D03*
X019747Y020956D03*
X019747Y020961D03*
X019742Y020971D03*
X019742Y020976D03*
X019742Y020981D03*
X019737Y020991D03*
X019737Y020996D03*
X019737Y021001D03*
X019732Y021016D03*
X019732Y021021D03*
X019732Y021026D03*
X019727Y021036D03*
X019727Y021041D03*
X019727Y021046D03*
X019722Y021056D03*
X019722Y021061D03*
X019722Y021066D03*
X019652Y021066D03*
X019647Y021056D03*
X019642Y021046D03*
X019637Y021036D03*
X019632Y021026D03*
X019627Y021016D03*
X019622Y021006D03*
X019617Y020996D03*
X019612Y020986D03*
X019607Y020976D03*
X019602Y020966D03*
X019597Y020956D03*
X019592Y020946D03*
X019587Y020936D03*
X019582Y020926D03*
X019577Y020916D03*
X019572Y020906D03*
X019567Y020896D03*
X019562Y020886D03*
X019557Y020876D03*
X019552Y020866D03*
X019547Y020861D03*
X019547Y020856D03*
X019542Y020851D03*
X019542Y020846D03*
X019537Y020841D03*
X019537Y020836D03*
X019532Y020831D03*
X019532Y020826D03*
X019527Y020821D03*
X019522Y020811D03*
X019517Y020801D03*
X019512Y020791D03*
X019507Y020781D03*
X019502Y020771D03*
X019497Y020761D03*
X019492Y020751D03*
X019487Y020741D03*
X019482Y020731D03*
X019532Y020581D03*
X019497Y020501D03*
X019497Y020496D03*
X019497Y020491D03*
X019492Y020486D03*
X019492Y020481D03*
X019487Y020471D03*
X019487Y020466D03*
X019482Y020461D03*
X019482Y020456D03*
X019477Y020446D03*
X019477Y020441D03*
X019472Y020436D03*
X019472Y020431D03*
X019467Y020421D03*
X019467Y020416D03*
X019462Y020411D03*
X019462Y020406D03*
X019457Y020396D03*
X019457Y020391D03*
X019452Y020386D03*
X019452Y020381D03*
X019452Y020376D03*
X019447Y020371D03*
X019447Y020366D03*
X019442Y020361D03*
X019442Y020356D03*
X019442Y020351D03*
X019437Y020341D03*
X019432Y020331D03*
X019432Y020326D03*
X019427Y020316D03*
X019422Y020306D03*
X019422Y020301D03*
X019417Y020291D03*
X019412Y020281D03*
X019407Y020271D03*
X019407Y020266D03*
X019402Y020256D03*
X019397Y020246D03*
X019397Y020241D03*
X019392Y020231D03*
X019387Y020221D03*
X019387Y020216D03*
X019382Y020206D03*
X019377Y020196D03*
X019372Y020181D03*
X019367Y020171D03*
X019357Y020146D03*
X019277Y020126D03*
X019272Y020131D03*
X019272Y020136D03*
X019267Y020146D03*
X019267Y020151D03*
X019262Y020156D03*
X019262Y020161D03*
X019257Y020171D03*
X019257Y020176D03*
X019252Y020181D03*
X019252Y020186D03*
X019247Y020196D03*
X019247Y020201D03*
X019242Y020206D03*
X019242Y020211D03*
X019237Y020221D03*
X019237Y020226D03*
X019232Y020231D03*
X019232Y020236D03*
X019232Y020241D03*
X019227Y020246D03*
X019227Y020251D03*
X019222Y020256D03*
X019222Y020261D03*
X019222Y020266D03*
X019217Y020271D03*
X019217Y020276D03*
X019212Y020286D03*
X019212Y020291D03*
X019207Y020296D03*
X019207Y020301D03*
X019202Y020311D03*
X019202Y020316D03*
X019197Y020321D03*
X019197Y020326D03*
X019192Y020336D03*
X019192Y020341D03*
X019187Y020346D03*
X019187Y020351D03*
X019182Y020361D03*
X019182Y020366D03*
X019177Y020371D03*
X019177Y020376D03*
X019177Y020381D03*
X019172Y020386D03*
X019172Y020391D03*
X019167Y020396D03*
X019167Y020401D03*
X019167Y020406D03*
X019162Y020411D03*
X019162Y020416D03*
X019157Y020426D03*
X019157Y020431D03*
X019152Y020436D03*
X019152Y020441D03*
X019147Y020451D03*
X019147Y020456D03*
X019142Y020461D03*
X019142Y020466D03*
X019137Y020476D03*
X019137Y020481D03*
X019132Y020486D03*
X019132Y020491D03*
X019127Y020501D03*
X019127Y020506D03*
X019122Y020511D03*
X019122Y020516D03*
X019122Y020521D03*
X019117Y020526D03*
X019117Y020531D03*
X019112Y020536D03*
X019112Y020541D03*
X019112Y020546D03*
X019107Y020551D03*
X019107Y020556D03*
X019102Y020566D03*
X019102Y020571D03*
X019097Y020576D03*
X019097Y020581D03*
X019092Y020591D03*
X019092Y020596D03*
X019087Y020601D03*
X019087Y020606D03*
X019082Y020616D03*
X019082Y020621D03*
X019077Y020626D03*
X019077Y020631D03*
X019072Y020641D03*
X019072Y020646D03*
X019067Y020651D03*
X019067Y020656D03*
X019067Y020661D03*
X019062Y020666D03*
X019062Y020671D03*
X019057Y020676D03*
X019057Y020681D03*
X019057Y020686D03*
X019052Y020691D03*
X019052Y020696D03*
X019047Y020701D03*
X019047Y020706D03*
X019047Y020711D03*
X019042Y020716D03*
X019042Y020721D03*
X019037Y020731D03*
X019037Y020736D03*
X019032Y020741D03*
X019032Y020746D03*
X019027Y020756D03*
X019027Y020761D03*
X019022Y020766D03*
X019022Y020771D03*
X019017Y020781D03*
X019017Y020786D03*
X019012Y020791D03*
X019012Y020796D03*
X019007Y020806D03*
X019007Y020811D03*
X019002Y020816D03*
X019002Y020821D03*
X019002Y020826D03*
X018997Y020831D03*
X018997Y020836D03*
X018992Y020841D03*
X018992Y020846D03*
X018992Y020851D03*
X018987Y020856D03*
X018987Y020861D03*
X018982Y020871D03*
X018982Y020876D03*
X018977Y020881D03*
X018977Y020886D03*
X018972Y020896D03*
X018972Y020901D03*
X018967Y020906D03*
X018967Y020911D03*
X018962Y020921D03*
X018962Y020926D03*
X018957Y020931D03*
X018957Y020936D03*
X018952Y020946D03*
X018952Y020951D03*
X018947Y020956D03*
X018947Y020961D03*
X018942Y020971D03*
X018942Y020976D03*
X018937Y020981D03*
X018937Y020986D03*
X018932Y020996D03*
X018932Y021001D03*
X018927Y021011D03*
X018927Y021016D03*
X018922Y021021D03*
X018922Y021026D03*
X018917Y021036D03*
X018917Y021041D03*
X018912Y021046D03*
X018867Y021166D03*
X018867Y021171D03*
X018862Y021181D03*
X018857Y021196D03*
X018852Y021206D03*
X018847Y021221D03*
X018842Y021231D03*
X018837Y021246D03*
X018827Y021271D03*
X018817Y021296D03*
X018812Y021311D03*
X018807Y021321D03*
X018802Y021336D03*
X018797Y021346D03*
X018792Y021361D03*
X018787Y021371D03*
X018782Y021386D03*
X018777Y021396D03*
X018772Y021411D03*
X018767Y021421D03*
X018762Y021436D03*
X018757Y021446D03*
X018757Y021451D03*
X018752Y021461D03*
X018747Y021471D03*
X018747Y021476D03*
X018747Y021481D03*
X018742Y021486D03*
X018742Y021491D03*
X018737Y021496D03*
X019262Y021061D03*
X019267Y021031D03*
X019272Y021006D03*
X019277Y020976D03*
X019282Y020946D03*
X019287Y020916D03*
X019292Y020891D03*
X019297Y020861D03*
X019302Y020831D03*
X019307Y020801D03*
X019312Y020771D03*
X019317Y020746D03*
X019322Y020716D03*
X019327Y020686D03*
X019332Y020656D03*
X019337Y020631D03*
X019342Y020601D03*
X019362Y020496D03*
X019347Y019901D03*
X019932Y020156D03*
X020097Y020491D03*
X020097Y020496D03*
X020017Y019761D03*
X019697Y021151D03*
X019697Y021156D03*
X019812Y021251D03*
D107*
X019097Y019766D03*
D108*
X019309Y020041D03*
X019309Y020046D03*
X019349Y020126D03*
X019349Y020131D03*
X019354Y020136D03*
X019354Y020141D03*
X019359Y020151D03*
X019359Y020156D03*
X019364Y020161D03*
X019364Y020166D03*
X019369Y020176D03*
X019374Y020186D03*
X019374Y020191D03*
X019379Y020201D03*
X019384Y020211D03*
X019389Y020226D03*
X019394Y020236D03*
X019399Y020251D03*
X019404Y020261D03*
X019409Y020276D03*
X019414Y020286D03*
X019419Y020296D03*
X019424Y020311D03*
X019429Y020321D03*
X019434Y020336D03*
X019439Y020346D03*
X019364Y020501D03*
X019364Y020506D03*
X019414Y020601D03*
X019419Y020611D03*
X019424Y020621D03*
X019429Y020626D03*
X019429Y020631D03*
X019434Y020636D03*
X019434Y020641D03*
X019439Y020646D03*
X019439Y020651D03*
X019444Y020656D03*
X019444Y020661D03*
X019449Y020666D03*
X019449Y020671D03*
X019454Y020676D03*
X019454Y020681D03*
X019459Y020686D03*
X019459Y020691D03*
X019464Y020696D03*
X019464Y020701D03*
X019469Y020706D03*
X019469Y020711D03*
X019474Y020716D03*
X019474Y020721D03*
X019479Y020726D03*
X019484Y020736D03*
X019489Y020746D03*
X019494Y020756D03*
X019499Y020766D03*
X019504Y020776D03*
X019509Y020786D03*
X019514Y020796D03*
X019519Y020806D03*
X019524Y020816D03*
X019554Y020871D03*
X019559Y020881D03*
X019564Y020891D03*
X019569Y020901D03*
X019574Y020911D03*
X019579Y020921D03*
X019584Y020931D03*
X019589Y020941D03*
X019594Y020951D03*
X019599Y020961D03*
X019604Y020971D03*
X019609Y020981D03*
X019614Y020991D03*
X019619Y021001D03*
X019624Y021011D03*
X019629Y021021D03*
X019634Y021031D03*
X019639Y021041D03*
X019644Y021051D03*
X019649Y021061D03*
X019529Y020576D03*
X019594Y020461D03*
X019609Y020436D03*
X019624Y020411D03*
X019629Y020401D03*
X019639Y020386D03*
X019644Y020376D03*
X019649Y020366D03*
X019654Y020361D03*
X019659Y020351D03*
X019664Y020341D03*
X019669Y020336D03*
X019674Y020326D03*
X019679Y020316D03*
X019684Y020306D03*
X019689Y020301D03*
X019689Y020296D03*
X019694Y020291D03*
X019694Y020286D03*
X019699Y020281D03*
X019704Y020276D03*
X019704Y020271D03*
X019709Y020266D03*
X019709Y020261D03*
X019714Y020256D03*
X019719Y020251D03*
X019719Y020246D03*
X019724Y020241D03*
X019724Y020236D03*
X019729Y020231D03*
X019734Y020226D03*
X019734Y020221D03*
X019739Y020216D03*
X019739Y020211D03*
X019744Y020206D03*
X019749Y020201D03*
X019749Y020196D03*
X019754Y020191D03*
X019754Y020186D03*
X019759Y020181D03*
X019764Y020176D03*
X019764Y020171D03*
X019769Y020166D03*
X019769Y020161D03*
X019774Y020156D03*
X019779Y020151D03*
X019779Y020146D03*
X019784Y020141D03*
X019784Y020136D03*
X019789Y020131D03*
X019794Y020126D03*
X019794Y020121D03*
X019799Y020116D03*
X019799Y020111D03*
X019804Y020106D03*
X019809Y020101D03*
X019809Y020096D03*
X019814Y020091D03*
X019814Y020086D03*
X019819Y020081D03*
X019824Y020076D03*
X019824Y020071D03*
X019829Y020066D03*
X019934Y020161D03*
X019934Y020166D03*
X019979Y020261D03*
X019984Y020271D03*
X019989Y020281D03*
X019994Y020291D03*
X019999Y020301D03*
X020004Y020311D03*
X020009Y020321D03*
X020094Y020486D03*
X020014Y019766D03*
X018864Y021176D03*
X018859Y021186D03*
X018859Y021191D03*
X018854Y021201D03*
X018849Y021211D03*
X018849Y021216D03*
X018844Y021226D03*
X018839Y021236D03*
X018839Y021241D03*
X018834Y021251D03*
X018834Y021256D03*
X018829Y021261D03*
X018829Y021266D03*
X018824Y021276D03*
X018824Y021281D03*
X018819Y021286D03*
X018819Y021291D03*
X018814Y021301D03*
X018814Y021306D03*
X018809Y021316D03*
X018804Y021326D03*
X018804Y021331D03*
X018799Y021341D03*
X018794Y021351D03*
X018794Y021356D03*
X018789Y021366D03*
X018784Y021376D03*
X018784Y021381D03*
X018779Y021391D03*
X018774Y021401D03*
X018774Y021406D03*
X018769Y021416D03*
X018764Y021426D03*
X018764Y021431D03*
X018759Y021441D03*
X018754Y021456D03*
X018749Y021466D03*
D109*
X018732Y021101D03*
X019097Y019771D03*
D110*
X019309Y020056D03*
X019364Y020511D03*
X019364Y020516D03*
X019824Y020061D03*
X020084Y020456D03*
X020084Y020461D03*
X020009Y019771D03*
X019694Y021136D03*
X019694Y021141D03*
D111*
X020177Y021436D03*
X018722Y021086D03*
X019097Y019776D03*
D112*
X019417Y019776D03*
X018682Y019961D03*
X018677Y019966D03*
X018427Y020481D03*
X018422Y020486D03*
X018417Y020491D03*
X018417Y020941D03*
X018422Y020946D03*
X018427Y020951D03*
X019817Y021291D03*
X021067Y020831D03*
X021072Y020826D03*
X021077Y020381D03*
X021072Y020376D03*
X021067Y020371D03*
X021062Y020366D03*
X021037Y020341D03*
X021027Y020326D03*
X020977Y019891D03*
X020972Y019886D03*
X020967Y019881D03*
D113*
X020007Y019776D03*
X019937Y020181D03*
X019937Y020186D03*
X019937Y020191D03*
X020082Y020446D03*
X020082Y020451D03*
X019532Y020561D03*
X019367Y020526D03*
X019367Y020521D03*
X019692Y021131D03*
X019812Y021256D03*
D114*
X019187Y019781D03*
D115*
X020544Y019781D03*
D116*
X020002Y019786D03*
X019937Y020201D03*
X020072Y020416D03*
X020072Y020421D03*
X020077Y020431D03*
X019532Y020551D03*
X019372Y020536D03*
X019312Y020066D03*
X019692Y021116D03*
X019692Y021121D03*
X019227Y021371D03*
D117*
X020792Y020981D03*
X020312Y019786D03*
D118*
X019162Y019791D03*
D119*
X019312Y020081D03*
X019372Y020546D03*
X019372Y020551D03*
X019942Y020216D03*
X020067Y020396D03*
X020067Y020401D03*
X019797Y019936D03*
X019812Y019926D03*
X019832Y019911D03*
X019847Y019901D03*
X019852Y019896D03*
X019862Y019891D03*
X019917Y019851D03*
X019932Y019841D03*
X019997Y019791D03*
X019692Y021106D03*
X019692Y021111D03*
X019412Y021496D03*
X018852Y021161D03*
D120*
X018769Y021131D03*
X018829Y019871D03*
X020299Y019791D03*
D121*
X019154Y019796D03*
X020174Y021391D03*
D122*
X019377Y020566D03*
X019312Y020091D03*
X019727Y019986D03*
X019812Y020056D03*
X019872Y019886D03*
X019877Y019881D03*
X019892Y019871D03*
X019997Y019796D03*
X020257Y019836D03*
X019942Y020226D03*
X019942Y020231D03*
X019942Y020236D03*
X020057Y020366D03*
X020057Y020371D03*
D123*
X020827Y019796D03*
X020922Y020921D03*
X020442Y021341D03*
X019827Y021316D03*
D124*
X019814Y021266D03*
X019689Y021091D03*
X019689Y021086D03*
X019239Y021376D03*
X019374Y020571D03*
X019534Y020526D03*
X019314Y020101D03*
X019314Y020096D03*
X019719Y019996D03*
X019944Y020241D03*
X020054Y020356D03*
X020054Y020361D03*
X019994Y019801D03*
D125*
X019749Y020026D03*
X020839Y019801D03*
X020459Y021336D03*
D126*
X019137Y019806D03*
D127*
X019339Y019886D03*
X019314Y020111D03*
X019379Y020586D03*
X019379Y020591D03*
X019684Y021071D03*
X019814Y021271D03*
X020049Y020341D03*
X020044Y020331D03*
X019944Y020251D03*
X019989Y019806D03*
X020259Y019831D03*
D128*
X019129Y019811D03*
X020174Y021386D03*
D129*
X019382Y020596D03*
X019537Y020511D03*
X019537Y020506D03*
X019312Y020116D03*
X019987Y019811D03*
D130*
X020864Y019811D03*
X020744Y021016D03*
X020479Y021326D03*
X020174Y021456D03*
X018784Y021141D03*
X018529Y021021D03*
X018534Y020406D03*
X018544Y020401D03*
X018549Y020396D03*
X018554Y020391D03*
D131*
X019314Y020121D03*
X019984Y019816D03*
D132*
X020269Y019816D03*
X019784Y020046D03*
X019329Y019876D03*
X018669Y019971D03*
X018664Y019976D03*
X018659Y019981D03*
X018414Y020936D03*
X020174Y021461D03*
X020594Y021246D03*
X020599Y021241D03*
X020604Y021236D03*
X020609Y021231D03*
X021074Y020821D03*
X021079Y020816D03*
X021084Y020811D03*
X021079Y020386D03*
X021024Y020321D03*
X020984Y019896D03*
D133*
X019112Y019821D03*
X019107Y019826D03*
D134*
X019334Y019881D03*
X019979Y019821D03*
X021059Y020016D03*
X021064Y020026D03*
X021064Y020031D03*
X021064Y020036D03*
X021069Y020046D03*
X021069Y020051D03*
X021069Y020056D03*
X021074Y020066D03*
X021074Y020071D03*
X021074Y020076D03*
X021074Y020081D03*
X021074Y020086D03*
X021079Y020126D03*
X021079Y020131D03*
X021079Y020136D03*
X021074Y020156D03*
X021074Y020161D03*
X021074Y020166D03*
X021074Y020171D03*
X021074Y020176D03*
X021069Y020181D03*
X021069Y020186D03*
X021069Y020191D03*
X021069Y020196D03*
X021064Y020201D03*
X021064Y020206D03*
X021059Y020221D03*
X021149Y020491D03*
X021154Y020506D03*
X021159Y020516D03*
X021159Y020521D03*
X021159Y020526D03*
X021164Y020536D03*
X021164Y020541D03*
X021164Y020546D03*
X021164Y020551D03*
X021169Y020566D03*
X021169Y020571D03*
X021169Y020576D03*
X021169Y020581D03*
X021169Y020586D03*
X021169Y020591D03*
X021169Y020596D03*
X021169Y020601D03*
X021169Y020606D03*
X021169Y020611D03*
X021169Y020616D03*
X021169Y020621D03*
X021169Y020626D03*
X021169Y020631D03*
X021164Y020651D03*
X021164Y020656D03*
X021164Y020661D03*
X021164Y020666D03*
X021159Y020671D03*
X021159Y020676D03*
X021159Y020681D03*
X021154Y020691D03*
X021154Y020696D03*
X020694Y021041D03*
X020694Y021046D03*
X020694Y021051D03*
X020689Y021066D03*
X020689Y021071D03*
X020689Y021076D03*
X020689Y021081D03*
X020684Y021091D03*
X020684Y021096D03*
X020684Y021101D03*
X020679Y021111D03*
X020674Y021126D03*
X018589Y020291D03*
X018584Y020281D03*
X018584Y020276D03*
X018584Y020271D03*
X018579Y020261D03*
X018579Y020256D03*
X018579Y020251D03*
X018579Y020246D03*
X018574Y020236D03*
X018574Y020231D03*
X018574Y020226D03*
X018574Y020221D03*
X018574Y020216D03*
X018574Y020211D03*
X018574Y020206D03*
X018574Y020201D03*
X018574Y020196D03*
X018574Y020191D03*
X018574Y020186D03*
X018574Y020181D03*
X018574Y020176D03*
X018574Y020171D03*
X018574Y020166D03*
X018574Y020161D03*
X018574Y020156D03*
X018579Y020141D03*
X018579Y020136D03*
X018579Y020131D03*
X018579Y020126D03*
X018584Y020121D03*
X018584Y020116D03*
X018584Y020111D03*
X018589Y020101D03*
X018334Y020621D03*
X018329Y020636D03*
X018329Y020641D03*
X018329Y020646D03*
X018324Y020651D03*
X018324Y020656D03*
X018324Y020661D03*
X018324Y020666D03*
X018319Y020676D03*
X018319Y020681D03*
X018319Y020686D03*
X018319Y020691D03*
X018319Y020696D03*
X018319Y020701D03*
X018319Y020706D03*
X018319Y020711D03*
X018319Y020716D03*
X018319Y020721D03*
X018319Y020726D03*
X018319Y020731D03*
X018319Y020736D03*
X018319Y020741D03*
X018319Y020746D03*
X018319Y020751D03*
X018324Y020766D03*
X018324Y020771D03*
X018324Y020776D03*
X018324Y020781D03*
X018329Y020786D03*
X018329Y020791D03*
X018329Y020796D03*
X018334Y020806D03*
X018334Y020811D03*
D135*
X018344Y020836D03*
X018349Y020846D03*
X018354Y020856D03*
X018359Y020866D03*
X018364Y020876D03*
X018344Y020596D03*
X018349Y020586D03*
X018354Y020576D03*
X018359Y020566D03*
X018364Y020556D03*
X018604Y020326D03*
X018599Y020316D03*
X018604Y020061D03*
X018609Y020051D03*
X018614Y020046D03*
X018619Y020036D03*
X019814Y021281D03*
X020649Y021176D03*
X020654Y021171D03*
X020654Y021166D03*
X020659Y021161D03*
X020659Y021156D03*
X021119Y020766D03*
X021124Y020756D03*
X021129Y020751D03*
X021129Y020746D03*
X021134Y020741D03*
X021139Y020731D03*
X021134Y020461D03*
X021134Y020456D03*
X021129Y020451D03*
X021124Y020441D03*
X021019Y020301D03*
X021029Y020281D03*
X021034Y020271D03*
X021039Y020266D03*
X021044Y020256D03*
X021049Y020246D03*
X021049Y019991D03*
X021044Y019981D03*
X021039Y019971D03*
X021034Y019966D03*
X021034Y019961D03*
X021029Y019956D03*
X020264Y019821D03*
D136*
X019977Y019826D03*
X019727Y020001D03*
X018607Y020056D03*
X018602Y020066D03*
X018602Y020071D03*
X018597Y020076D03*
X018597Y020081D03*
X018592Y020086D03*
X018592Y020091D03*
X018592Y020096D03*
X018587Y020106D03*
X018582Y020266D03*
X018587Y020286D03*
X018592Y020296D03*
X018592Y020301D03*
X018597Y020306D03*
X018597Y020311D03*
X018602Y020321D03*
X018607Y020331D03*
X018357Y020571D03*
X018352Y020581D03*
X018347Y020591D03*
X018342Y020601D03*
X018342Y020606D03*
X018337Y020611D03*
X018337Y020616D03*
X018332Y020626D03*
X018332Y020631D03*
X018332Y020801D03*
X018337Y020816D03*
X018337Y020821D03*
X018342Y020826D03*
X018342Y020831D03*
X018347Y020841D03*
X018352Y020851D03*
X018357Y020861D03*
X020662Y021151D03*
X020667Y021146D03*
X020667Y021141D03*
X020672Y021136D03*
X020672Y021131D03*
X020677Y021121D03*
X020677Y021116D03*
X020682Y021106D03*
X021137Y020736D03*
X021142Y020726D03*
X021142Y020721D03*
X021147Y020716D03*
X021147Y020711D03*
X021152Y020706D03*
X021152Y020701D03*
X021157Y020686D03*
X021162Y020531D03*
X021157Y020511D03*
X021152Y020501D03*
X021152Y020496D03*
X021147Y020486D03*
X021147Y020481D03*
X021142Y020476D03*
X021142Y020471D03*
X021137Y020466D03*
X021042Y020261D03*
X021047Y020251D03*
X021052Y020241D03*
X021052Y020236D03*
X021057Y020231D03*
X021057Y020226D03*
X021062Y020216D03*
X021062Y020211D03*
X021067Y020041D03*
X021062Y020021D03*
X021057Y020011D03*
X021057Y020006D03*
X021052Y020001D03*
X021052Y019996D03*
X021047Y019986D03*
X021042Y019976D03*
D137*
X021072Y020061D03*
X021077Y020091D03*
X021077Y020096D03*
X021077Y020101D03*
X021077Y020106D03*
X021077Y020111D03*
X021077Y020116D03*
X021077Y020121D03*
X021077Y020141D03*
X021077Y020146D03*
X021077Y020151D03*
X021167Y020556D03*
X021167Y020561D03*
X021167Y020636D03*
X021167Y020641D03*
X021167Y020646D03*
X020692Y021056D03*
X020692Y021061D03*
X020687Y021086D03*
X019817Y021276D03*
X019252Y021381D03*
X018322Y020761D03*
X018322Y020756D03*
X018322Y020671D03*
X018577Y020241D03*
X018577Y020151D03*
X018577Y020146D03*
X019797Y020051D03*
X020262Y019826D03*
D138*
X019099Y019831D03*
X020174Y021381D03*
D139*
X019822Y021301D03*
X018797Y021146D03*
X018492Y021001D03*
X018492Y020431D03*
X018582Y020366D03*
X018752Y019906D03*
X019312Y019866D03*
X019747Y020011D03*
X020902Y019831D03*
D140*
X021004Y019921D03*
X021009Y019926D03*
X021014Y019931D03*
X021094Y020401D03*
X021099Y020406D03*
X021104Y020411D03*
X021104Y020416D03*
X021109Y020421D03*
X021114Y020426D03*
X021109Y020781D03*
X021104Y020786D03*
X021099Y020791D03*
X021099Y020796D03*
X020629Y021206D03*
X020624Y021211D03*
X019969Y019836D03*
X018644Y020001D03*
X018639Y020006D03*
X018634Y020011D03*
X018394Y020516D03*
X018389Y020521D03*
X018384Y020526D03*
X018379Y020536D03*
X018379Y020896D03*
X018384Y020906D03*
X018389Y020911D03*
X018394Y020916D03*
X018819Y021156D03*
D141*
X019369Y020541D03*
X019534Y020541D03*
X019534Y020546D03*
X019314Y020076D03*
X019314Y020071D03*
X019939Y020206D03*
X019939Y020211D03*
X020069Y020406D03*
X020069Y020411D03*
X020254Y019841D03*
X019814Y021261D03*
D142*
X019697Y021146D03*
X019217Y021366D03*
X018907Y021051D03*
X019422Y020616D03*
X019417Y020606D03*
X019532Y020571D03*
X019532Y020566D03*
X019572Y020501D03*
X019572Y020496D03*
X019577Y020491D03*
X019582Y020486D03*
X019582Y020481D03*
X019587Y020476D03*
X019587Y020471D03*
X019592Y020466D03*
X019597Y020456D03*
X019602Y020451D03*
X019602Y020446D03*
X019607Y020441D03*
X019612Y020431D03*
X019617Y020426D03*
X019617Y020421D03*
X019622Y020416D03*
X019627Y020406D03*
X019632Y020396D03*
X019637Y020391D03*
X019642Y020381D03*
X019647Y020371D03*
X019657Y020356D03*
X019662Y020346D03*
X019672Y020331D03*
X019677Y020321D03*
X019682Y020311D03*
X019937Y020176D03*
X019937Y020171D03*
X020087Y020466D03*
X020087Y020471D03*
X020092Y020476D03*
X020092Y020481D03*
X020257Y019846D03*
X019312Y020051D03*
D143*
X019074Y019851D03*
D144*
X019067Y019856D03*
D145*
X018869Y019861D03*
X018749Y021116D03*
D146*
X018842Y019866D03*
X020427Y021346D03*
X020772Y020996D03*
D147*
X020622Y021216D03*
X020617Y021221D03*
X020612Y021226D03*
X021087Y020806D03*
X021092Y020801D03*
X021092Y020396D03*
X021087Y020391D03*
X021022Y020316D03*
X021002Y019916D03*
X020997Y019911D03*
X020992Y019906D03*
X020987Y019901D03*
X019817Y021286D03*
X018602Y020341D03*
X018412Y020496D03*
X018407Y020501D03*
X018402Y020506D03*
X018397Y020511D03*
X018397Y020921D03*
X018402Y020926D03*
X018407Y020931D03*
X018647Y019996D03*
X018652Y019991D03*
X018657Y019986D03*
D148*
X019307Y019966D03*
X019347Y020411D03*
X019347Y020416D03*
X019927Y020066D03*
X020142Y020641D03*
X020142Y020646D03*
X019812Y021246D03*
D149*
X019709Y021236D03*
X019709Y021231D03*
X019524Y020641D03*
X019524Y020636D03*
X019349Y020421D03*
X019309Y019971D03*
X019924Y020071D03*
X019924Y020076D03*
X020139Y020631D03*
X020139Y020636D03*
D150*
X020137Y020626D03*
X020137Y020621D03*
X019927Y020086D03*
X019927Y020081D03*
X019347Y020426D03*
X019527Y020631D03*
X019707Y021221D03*
X019707Y021226D03*
X020172Y021466D03*
X019307Y019976D03*
D151*
X019309Y019981D03*
X019309Y019986D03*
X019349Y020431D03*
X019349Y020436D03*
X019524Y020626D03*
X020129Y020606D03*
X020129Y020601D03*
X020134Y020611D03*
X020134Y020616D03*
D152*
X020124Y020586D03*
X020124Y020581D03*
X019929Y020111D03*
X019929Y020106D03*
X019929Y020101D03*
X019354Y020451D03*
X019309Y020001D03*
X019309Y019996D03*
X019704Y021201D03*
X019704Y021206D03*
D153*
X019687Y021081D03*
X019687Y021076D03*
X019377Y020581D03*
X019377Y020576D03*
X019537Y020521D03*
X019537Y020516D03*
X019312Y020106D03*
X019942Y020246D03*
X020047Y020336D03*
X020052Y020346D03*
X020052Y020351D03*
D154*
X020112Y020541D03*
X020112Y020546D03*
X019932Y020131D03*
X019932Y020126D03*
X019527Y020601D03*
X019357Y020476D03*
X019357Y020471D03*
X019702Y021181D03*
X019702Y021186D03*
D155*
X020824Y020956D03*
X020839Y020946D03*
X020849Y020941D03*
D156*
X020832Y020951D03*
X018737Y021106D03*
D157*
X019834Y021331D03*
X020174Y021446D03*
X020799Y020976D03*
D158*
X020784Y020986D03*
X020409Y021351D03*
X018754Y021121D03*
D159*
X018697Y021056D03*
X019407Y021461D03*
D160*
X018699Y021061D03*
D161*
X018709Y021071D03*
X020174Y021431D03*
D162*
X018712Y021076D03*
D163*
X018759Y021126D03*
D164*
X019839Y021336D03*
D165*
X019842Y021341D03*
D166*
X019849Y021346D03*
X019389Y021471D03*
D167*
X019859Y021351D03*
X020174Y021426D03*
D168*
X020082Y021356D03*
D169*
X020072Y021361D03*
D170*
X020059Y021366D03*
D171*
X020044Y021371D03*
D172*
X020027Y021376D03*
D173*
X019487Y021391D03*
X019482Y021396D03*
D174*
X020174Y021396D03*
D175*
X019477Y021401D03*
D176*
X020174Y021401D03*
D177*
X020174Y021406D03*
X019469Y021411D03*
D178*
X019459Y021421D03*
X020174Y021411D03*
D179*
X020174Y021416D03*
D180*
X020177Y021421D03*
D181*
X019452Y021426D03*
D182*
X019437Y021441D03*
D183*
X020177Y021441D03*
D184*
X019429Y021446D03*
D185*
X019414Y021456D03*
D186*
X019379Y021476D03*
D187*
X005612Y021526D02*
X005612Y004990D01*
X006557Y004990D02*
X006559Y005040D01*
X006565Y005090D01*
X006575Y005139D01*
X006589Y005187D01*
X006606Y005234D01*
X006627Y005279D01*
X006652Y005323D01*
X006680Y005364D01*
X006712Y005403D01*
X006746Y005440D01*
X006783Y005474D01*
X006823Y005504D01*
X006865Y005531D01*
X006909Y005555D01*
X006955Y005576D01*
X007002Y005592D01*
X007050Y005605D01*
X007100Y005614D01*
X007149Y005619D01*
X007200Y005620D01*
X007250Y005617D01*
X007299Y005610D01*
X007348Y005599D01*
X007396Y005584D01*
X007442Y005566D01*
X007487Y005544D01*
X007530Y005518D01*
X007571Y005489D01*
X007610Y005457D01*
X007646Y005422D01*
X007678Y005384D01*
X007708Y005344D01*
X007735Y005301D01*
X007758Y005257D01*
X007777Y005211D01*
X007793Y005163D01*
X007805Y005114D01*
X007813Y005065D01*
X007817Y005015D01*
X007817Y004965D01*
X007813Y004915D01*
X007805Y004866D01*
X007793Y004817D01*
X007777Y004769D01*
X007758Y004723D01*
X007735Y004679D01*
X007708Y004636D01*
X007678Y004596D01*
X007646Y004558D01*
X007610Y004523D01*
X007571Y004491D01*
X007530Y004462D01*
X007487Y004436D01*
X007442Y004414D01*
X007396Y004396D01*
X007348Y004381D01*
X007299Y004370D01*
X007250Y004363D01*
X007200Y004360D01*
X007149Y004361D01*
X007100Y004366D01*
X007050Y004375D01*
X007002Y004388D01*
X006955Y004404D01*
X006909Y004425D01*
X006865Y004449D01*
X006823Y004476D01*
X006783Y004506D01*
X006746Y004540D01*
X006712Y004577D01*
X006680Y004616D01*
X006652Y004657D01*
X006627Y004701D01*
X006606Y004746D01*
X006589Y004793D01*
X006575Y004841D01*
X006565Y004890D01*
X006559Y004940D01*
X006557Y004990D01*
X005612Y004990D02*
X005614Y004913D01*
X005620Y004836D01*
X005629Y004759D01*
X005642Y004683D01*
X005659Y004607D01*
X005680Y004533D01*
X005704Y004459D01*
X005732Y004387D01*
X005763Y004317D01*
X005798Y004248D01*
X005836Y004180D01*
X005877Y004115D01*
X005922Y004052D01*
X005970Y003991D01*
X006020Y003932D01*
X006073Y003876D01*
X006129Y003823D01*
X006188Y003773D01*
X006249Y003725D01*
X006312Y003680D01*
X006377Y003639D01*
X006445Y003601D01*
X006514Y003566D01*
X006584Y003535D01*
X006656Y003507D01*
X006730Y003483D01*
X006804Y003462D01*
X006880Y003445D01*
X006956Y003432D01*
X007033Y003423D01*
X007110Y003417D01*
X007187Y003415D01*
X007187Y003416D02*
X023722Y003416D01*
X023092Y004990D02*
X023094Y005040D01*
X023100Y005090D01*
X023110Y005139D01*
X023124Y005187D01*
X023141Y005234D01*
X023162Y005279D01*
X023187Y005323D01*
X023215Y005364D01*
X023247Y005403D01*
X023281Y005440D01*
X023318Y005474D01*
X023358Y005504D01*
X023400Y005531D01*
X023444Y005555D01*
X023490Y005576D01*
X023537Y005592D01*
X023585Y005605D01*
X023635Y005614D01*
X023684Y005619D01*
X023735Y005620D01*
X023785Y005617D01*
X023834Y005610D01*
X023883Y005599D01*
X023931Y005584D01*
X023977Y005566D01*
X024022Y005544D01*
X024065Y005518D01*
X024106Y005489D01*
X024145Y005457D01*
X024181Y005422D01*
X024213Y005384D01*
X024243Y005344D01*
X024270Y005301D01*
X024293Y005257D01*
X024312Y005211D01*
X024328Y005163D01*
X024340Y005114D01*
X024348Y005065D01*
X024352Y005015D01*
X024352Y004965D01*
X024348Y004915D01*
X024340Y004866D01*
X024328Y004817D01*
X024312Y004769D01*
X024293Y004723D01*
X024270Y004679D01*
X024243Y004636D01*
X024213Y004596D01*
X024181Y004558D01*
X024145Y004523D01*
X024106Y004491D01*
X024065Y004462D01*
X024022Y004436D01*
X023977Y004414D01*
X023931Y004396D01*
X023883Y004381D01*
X023834Y004370D01*
X023785Y004363D01*
X023735Y004360D01*
X023684Y004361D01*
X023635Y004366D01*
X023585Y004375D01*
X023537Y004388D01*
X023490Y004404D01*
X023444Y004425D01*
X023400Y004449D01*
X023358Y004476D01*
X023318Y004506D01*
X023281Y004540D01*
X023247Y004577D01*
X023215Y004616D01*
X023187Y004657D01*
X023162Y004701D01*
X023141Y004746D01*
X023124Y004793D01*
X023110Y004841D01*
X023100Y004890D01*
X023094Y004940D01*
X023092Y004990D01*
X023722Y003415D02*
X023799Y003417D01*
X023876Y003423D01*
X023953Y003432D01*
X024029Y003445D01*
X024105Y003462D01*
X024179Y003483D01*
X024253Y003507D01*
X024325Y003535D01*
X024395Y003566D01*
X024464Y003601D01*
X024532Y003639D01*
X024597Y003680D01*
X024660Y003725D01*
X024721Y003773D01*
X024780Y003823D01*
X024836Y003876D01*
X024889Y003932D01*
X024939Y003991D01*
X024987Y004052D01*
X025032Y004115D01*
X025073Y004180D01*
X025111Y004248D01*
X025146Y004317D01*
X025177Y004387D01*
X025205Y004459D01*
X025229Y004533D01*
X025250Y004607D01*
X025267Y004683D01*
X025280Y004759D01*
X025289Y004836D01*
X025295Y004913D01*
X025297Y004990D01*
X025297Y021526D01*
X023092Y021526D02*
X023094Y021576D01*
X023100Y021626D01*
X023110Y021675D01*
X023124Y021723D01*
X023141Y021770D01*
X023162Y021815D01*
X023187Y021859D01*
X023215Y021900D01*
X023247Y021939D01*
X023281Y021976D01*
X023318Y022010D01*
X023358Y022040D01*
X023400Y022067D01*
X023444Y022091D01*
X023490Y022112D01*
X023537Y022128D01*
X023585Y022141D01*
X023635Y022150D01*
X023684Y022155D01*
X023735Y022156D01*
X023785Y022153D01*
X023834Y022146D01*
X023883Y022135D01*
X023931Y022120D01*
X023977Y022102D01*
X024022Y022080D01*
X024065Y022054D01*
X024106Y022025D01*
X024145Y021993D01*
X024181Y021958D01*
X024213Y021920D01*
X024243Y021880D01*
X024270Y021837D01*
X024293Y021793D01*
X024312Y021747D01*
X024328Y021699D01*
X024340Y021650D01*
X024348Y021601D01*
X024352Y021551D01*
X024352Y021501D01*
X024348Y021451D01*
X024340Y021402D01*
X024328Y021353D01*
X024312Y021305D01*
X024293Y021259D01*
X024270Y021215D01*
X024243Y021172D01*
X024213Y021132D01*
X024181Y021094D01*
X024145Y021059D01*
X024106Y021027D01*
X024065Y020998D01*
X024022Y020972D01*
X023977Y020950D01*
X023931Y020932D01*
X023883Y020917D01*
X023834Y020906D01*
X023785Y020899D01*
X023735Y020896D01*
X023684Y020897D01*
X023635Y020902D01*
X023585Y020911D01*
X023537Y020924D01*
X023490Y020940D01*
X023444Y020961D01*
X023400Y020985D01*
X023358Y021012D01*
X023318Y021042D01*
X023281Y021076D01*
X023247Y021113D01*
X023215Y021152D01*
X023187Y021193D01*
X023162Y021237D01*
X023141Y021282D01*
X023124Y021329D01*
X023110Y021377D01*
X023100Y021426D01*
X023094Y021476D01*
X023092Y021526D01*
X023722Y023101D02*
X023799Y023099D01*
X023876Y023093D01*
X023953Y023084D01*
X024029Y023071D01*
X024105Y023054D01*
X024179Y023033D01*
X024253Y023009D01*
X024325Y022981D01*
X024395Y022950D01*
X024464Y022915D01*
X024532Y022877D01*
X024597Y022836D01*
X024660Y022791D01*
X024721Y022743D01*
X024780Y022693D01*
X024836Y022640D01*
X024889Y022584D01*
X024939Y022525D01*
X024987Y022464D01*
X025032Y022401D01*
X025073Y022336D01*
X025111Y022268D01*
X025146Y022199D01*
X025177Y022129D01*
X025205Y022057D01*
X025229Y021983D01*
X025250Y021909D01*
X025267Y021833D01*
X025280Y021757D01*
X025289Y021680D01*
X025295Y021603D01*
X025297Y021526D01*
X023722Y023101D02*
X007187Y023101D01*
X006557Y021526D02*
X006559Y021576D01*
X006565Y021626D01*
X006575Y021675D01*
X006589Y021723D01*
X006606Y021770D01*
X006627Y021815D01*
X006652Y021859D01*
X006680Y021900D01*
X006712Y021939D01*
X006746Y021976D01*
X006783Y022010D01*
X006823Y022040D01*
X006865Y022067D01*
X006909Y022091D01*
X006955Y022112D01*
X007002Y022128D01*
X007050Y022141D01*
X007100Y022150D01*
X007149Y022155D01*
X007200Y022156D01*
X007250Y022153D01*
X007299Y022146D01*
X007348Y022135D01*
X007396Y022120D01*
X007442Y022102D01*
X007487Y022080D01*
X007530Y022054D01*
X007571Y022025D01*
X007610Y021993D01*
X007646Y021958D01*
X007678Y021920D01*
X007708Y021880D01*
X007735Y021837D01*
X007758Y021793D01*
X007777Y021747D01*
X007793Y021699D01*
X007805Y021650D01*
X007813Y021601D01*
X007817Y021551D01*
X007817Y021501D01*
X007813Y021451D01*
X007805Y021402D01*
X007793Y021353D01*
X007777Y021305D01*
X007758Y021259D01*
X007735Y021215D01*
X007708Y021172D01*
X007678Y021132D01*
X007646Y021094D01*
X007610Y021059D01*
X007571Y021027D01*
X007530Y020998D01*
X007487Y020972D01*
X007442Y020950D01*
X007396Y020932D01*
X007348Y020917D01*
X007299Y020906D01*
X007250Y020899D01*
X007200Y020896D01*
X007149Y020897D01*
X007100Y020902D01*
X007050Y020911D01*
X007002Y020924D01*
X006955Y020940D01*
X006909Y020961D01*
X006865Y020985D01*
X006823Y021012D01*
X006783Y021042D01*
X006746Y021076D01*
X006712Y021113D01*
X006680Y021152D01*
X006652Y021193D01*
X006627Y021237D01*
X006606Y021282D01*
X006589Y021329D01*
X006575Y021377D01*
X006565Y021426D01*
X006559Y021476D01*
X006557Y021526D01*
X005612Y021526D02*
X005614Y021603D01*
X005620Y021680D01*
X005629Y021757D01*
X005642Y021833D01*
X005659Y021909D01*
X005680Y021983D01*
X005704Y022057D01*
X005732Y022129D01*
X005763Y022199D01*
X005798Y022268D01*
X005836Y022336D01*
X005877Y022401D01*
X005922Y022464D01*
X005970Y022525D01*
X006020Y022584D01*
X006073Y022640D01*
X006129Y022693D01*
X006188Y022743D01*
X006249Y022791D01*
X006312Y022836D01*
X006377Y022877D01*
X006445Y022915D01*
X006514Y022950D01*
X006584Y022981D01*
X006656Y023009D01*
X006730Y023033D01*
X006804Y023054D01*
X006880Y023071D01*
X006956Y023084D01*
X007033Y023093D01*
X007110Y023099D01*
X007187Y023101D01*
X010809Y010757D02*
X010808Y010756D01*
X010808Y010752D01*
X010809Y010751D01*
X010814Y010751D01*
X010817Y010751D02*
X010817Y010756D01*
X010818Y010757D01*
X010820Y010756D01*
X010820Y010751D01*
X010823Y010751D02*
X010823Y010757D01*
X010822Y010757D01*
X010820Y010756D01*
X010814Y010757D02*
X010809Y010757D01*
X010814Y010757D02*
X010814Y010747D01*
X010826Y010752D02*
X010826Y010756D01*
X010828Y010757D01*
X010833Y010757D01*
X010833Y010761D02*
X010833Y010751D01*
X010828Y010751D01*
X010826Y010752D01*
X010836Y010752D02*
X010836Y010751D01*
X010837Y010751D01*
X010837Y010752D01*
X010836Y010752D01*
X010840Y010752D02*
X010840Y010756D01*
X010841Y010757D01*
X010845Y010757D01*
X010846Y010756D01*
X010846Y010752D01*
X010845Y010751D01*
X010841Y010751D01*
X010840Y010752D01*
X010849Y010751D02*
X010854Y010751D01*
X010856Y010752D01*
X010856Y010756D01*
X010854Y010757D01*
X010849Y010757D01*
X010849Y010749D01*
X010851Y010747D01*
X010852Y010747D01*
X010858Y010752D02*
X010858Y010756D01*
X010860Y010757D01*
X010863Y010757D01*
X010865Y010756D01*
X010865Y010752D01*
X010863Y010751D01*
X010860Y010751D01*
X010858Y010752D01*
X010868Y010751D02*
X010871Y010751D01*
X010869Y010751D02*
X010869Y010761D01*
X010871Y010761D01*
X010874Y010749D02*
X010880Y010749D01*
X010884Y010751D02*
X010888Y010751D01*
X010889Y010752D01*
X010889Y010756D01*
X010888Y010757D01*
X010884Y010757D01*
X010883Y010756D01*
X010883Y010754D01*
X010889Y010754D01*
X010892Y010757D02*
X010897Y010754D01*
X010892Y010751D01*
X010897Y010751D02*
X010897Y010761D01*
X010901Y010757D02*
X010905Y010757D01*
X010906Y010756D01*
X010906Y010752D01*
X010905Y010751D01*
X010901Y010751D01*
X010900Y010752D01*
X010900Y010756D01*
X010901Y010757D01*
X010909Y010756D02*
X010909Y010751D01*
X010912Y010751D02*
X010912Y010756D01*
X010911Y010757D01*
X010909Y010756D01*
X010912Y010756D02*
X010914Y010757D01*
X010916Y010757D01*
X010916Y010751D01*
X010918Y010752D02*
X010920Y010751D01*
X010923Y010751D01*
X010925Y010752D01*
X010927Y010749D02*
X010934Y010749D01*
X010936Y010751D02*
X010941Y010751D01*
X010943Y010752D01*
X010943Y010756D01*
X010941Y010757D01*
X010936Y010757D01*
X010925Y010757D02*
X010923Y010756D01*
X010920Y010756D01*
X010918Y010754D01*
X010918Y010752D01*
X010918Y010759D02*
X010920Y010761D01*
X010923Y010761D01*
X010925Y010759D01*
X010925Y010757D01*
X010946Y010751D02*
X010949Y010751D01*
X010948Y010751D02*
X010948Y010757D01*
X010949Y010757D01*
X010952Y010757D02*
X010957Y010757D01*
X010959Y010756D01*
X010959Y010752D01*
X010957Y010751D01*
X010952Y010751D01*
X010952Y010749D02*
X010952Y010757D01*
X010948Y010761D02*
X010948Y010762D01*
X010952Y010749D02*
X010954Y010747D01*
X010955Y010747D01*
X010961Y010751D02*
X010966Y010751D01*
X010968Y010752D01*
X010966Y010754D01*
X010961Y010754D01*
X010961Y010756D02*
X010961Y010751D01*
X010961Y010756D02*
X010963Y010757D01*
X010966Y010757D01*
X010970Y010761D02*
X010970Y010751D01*
X010977Y010751D02*
X010977Y010761D01*
X010974Y010757D01*
X010970Y010761D01*
X010979Y010761D02*
X010986Y010751D01*
X010989Y010752D02*
X010989Y010756D01*
X010990Y010757D01*
X010994Y010757D01*
X010995Y010756D01*
X010995Y010752D01*
X010994Y010751D01*
X010990Y010751D01*
X010989Y010752D01*
X010998Y010751D02*
X011003Y010751D01*
X011005Y010752D01*
X011005Y010756D01*
X011003Y010757D01*
X010998Y010757D01*
X010998Y010749D01*
X011000Y010747D01*
X011001Y010747D01*
X011007Y010752D02*
X011007Y010756D01*
X011009Y010757D01*
X011012Y010757D01*
X011014Y010756D01*
X011014Y010752D01*
X011012Y010751D01*
X011009Y010751D01*
X011007Y010752D01*
X011017Y010751D02*
X011020Y010751D01*
X011018Y010751D02*
X011018Y010761D01*
X011020Y010761D01*
X011022Y010761D02*
X011029Y010751D01*
X011032Y010754D02*
X011038Y010754D01*
X011038Y010756D02*
X011037Y010757D01*
X011033Y010757D01*
X011032Y010756D01*
X011032Y010754D01*
X011033Y010751D02*
X011037Y010751D01*
X011038Y010752D01*
X011038Y010756D01*
X011041Y010751D02*
X011044Y010751D01*
X011043Y010751D02*
X011043Y010761D01*
X011044Y010761D01*
X011047Y010757D02*
X011052Y010757D01*
X011054Y010756D01*
X011054Y010752D01*
X011052Y010751D01*
X011047Y010751D01*
X011047Y010749D02*
X011047Y010757D01*
X011047Y010749D02*
X011049Y010747D01*
X011050Y010747D01*
X011056Y010751D02*
X011061Y010751D01*
X011063Y010752D01*
X011061Y010754D01*
X011056Y010754D01*
X011056Y010756D02*
X011056Y010751D01*
X011056Y010756D02*
X011058Y010757D01*
X011061Y010757D01*
X011065Y010756D02*
X011065Y010754D01*
X011072Y010754D01*
X011072Y010756D02*
X011070Y010757D01*
X011067Y010757D01*
X011065Y010756D01*
X011067Y010751D02*
X011070Y010751D01*
X011072Y010752D01*
X011072Y010756D01*
X011075Y010761D02*
X011081Y010751D01*
X011084Y010752D02*
X011085Y010754D01*
X011089Y010754D01*
X011090Y010756D01*
X011089Y010757D01*
X011084Y010757D01*
X011084Y010752D02*
X011085Y010751D01*
X011090Y010751D01*
X011093Y010751D02*
X011095Y010752D01*
X011095Y010759D01*
X011097Y010757D02*
X011093Y010757D01*
X011099Y010756D02*
X011099Y010751D01*
X011099Y010756D02*
X011101Y010757D01*
X011106Y010757D01*
X011106Y010751D01*
X011108Y010754D02*
X011115Y010754D01*
X011115Y010756D02*
X011113Y010757D01*
X011110Y010757D01*
X011108Y010756D01*
X011108Y010754D01*
X011110Y010751D02*
X011113Y010751D01*
X011115Y010752D01*
X011115Y010756D01*
X011118Y010756D02*
X011118Y010751D01*
X011121Y010751D02*
X011121Y010756D01*
X011119Y010757D01*
X011118Y010756D01*
X011121Y010756D02*
X011123Y010757D01*
X011124Y010757D01*
X011124Y010751D01*
X011127Y010751D02*
X011127Y010757D01*
X011127Y010751D02*
X011132Y010751D01*
X011133Y010752D01*
X011133Y010757D01*
X011136Y010757D02*
X011141Y010757D01*
X011143Y010756D01*
X011143Y010752D01*
X011141Y010751D01*
X011136Y010751D01*
X011145Y010752D02*
X011145Y010756D01*
X011147Y010757D01*
X011150Y010757D01*
X011152Y010756D01*
X011152Y010752D01*
X011150Y010751D01*
X011147Y010751D01*
X011145Y010752D01*
X011154Y010752D02*
X011154Y010759D01*
X011156Y010761D01*
X011161Y010761D01*
X011161Y010751D01*
X011156Y010751D01*
X011154Y010752D01*
X011164Y010761D02*
X011170Y010751D01*
X011173Y010754D02*
X011179Y010754D01*
X011179Y010756D02*
X011178Y010757D01*
X011174Y010757D01*
X011173Y010756D01*
X011173Y010754D01*
X011174Y010751D02*
X011178Y010751D01*
X011179Y010752D01*
X011179Y010756D01*
X011182Y010757D02*
X011187Y010757D01*
X011189Y010756D01*
X011189Y010752D01*
X011187Y010751D01*
X011182Y010751D01*
X011192Y010751D02*
X011195Y010751D01*
X011193Y010751D02*
X011193Y010757D01*
X011195Y010757D01*
X011198Y010757D02*
X011199Y010757D01*
X011203Y010754D01*
X011205Y010756D02*
X011205Y010752D01*
X011207Y010751D01*
X011212Y010751D01*
X011214Y010752D02*
X011216Y010754D01*
X011219Y010754D01*
X011221Y010756D01*
X011219Y010757D01*
X011214Y010757D01*
X011212Y010757D02*
X011207Y010757D01*
X011205Y010756D01*
X011203Y010757D02*
X011203Y010751D01*
X011212Y010747D02*
X011212Y010757D01*
X011214Y010752D02*
X011216Y010751D01*
X011221Y010751D01*
X011223Y010751D02*
X011228Y010751D01*
X011230Y010752D01*
X011228Y010754D01*
X011223Y010754D01*
X011223Y010756D02*
X011223Y010751D01*
X011223Y010756D02*
X011225Y010757D01*
X011228Y010757D01*
X011233Y010756D02*
X011233Y010751D01*
X011236Y010751D02*
X011236Y010756D01*
X011234Y010757D01*
X011233Y010756D01*
X011236Y010756D02*
X011238Y010757D01*
X011239Y010757D01*
X011239Y010751D01*
X011242Y010752D02*
X011242Y010756D01*
X011244Y010757D01*
X011247Y010757D01*
X011249Y010756D01*
X011249Y010752D01*
X011247Y010751D01*
X011244Y010751D01*
X011242Y010752D01*
X011251Y010756D02*
X011251Y010751D01*
X011251Y010756D02*
X011253Y010757D01*
X011256Y010757D01*
X011258Y010756D01*
X011261Y010757D02*
X011264Y010757D01*
X011262Y010759D02*
X011262Y010752D01*
X011261Y010751D01*
X011258Y010751D02*
X011258Y010761D01*
X011266Y010761D02*
X011273Y010751D01*
X011276Y010752D02*
X011277Y010754D01*
X011281Y010754D01*
X011282Y010756D01*
X011281Y010757D01*
X011276Y010757D01*
X011276Y010752D02*
X011277Y010751D01*
X011282Y010751D01*
X011285Y010757D02*
X011287Y010757D01*
X011290Y010754D01*
X011293Y010754D02*
X011299Y010754D01*
X011299Y010756D02*
X011298Y010757D01*
X011294Y010757D01*
X011293Y010756D01*
X011293Y010754D01*
X011294Y010751D02*
X011298Y010751D01*
X011299Y010752D01*
X011299Y010756D01*
X011302Y010757D02*
X011307Y010757D01*
X011308Y010756D01*
X011307Y010754D01*
X011303Y010754D01*
X011302Y010752D01*
X011303Y010751D01*
X011308Y010751D01*
X011311Y010752D02*
X011311Y010761D01*
X011318Y010761D02*
X011318Y010752D01*
X011316Y010751D01*
X011313Y010751D01*
X011311Y010752D01*
X011320Y010761D02*
X011327Y010751D01*
X011290Y010751D02*
X011290Y010757D01*
X011193Y010762D02*
X011193Y010761D01*
D188*
X014797Y012692D02*
X014999Y012939D01*
X014947Y013039D01*
X015288Y013180D01*
X015317Y013127D01*
X015355Y013080D01*
X015402Y013042D01*
X015455Y013013D01*
X015512Y012996D01*
X015572Y012990D01*
X015635Y012996D01*
X015695Y013016D01*
X015750Y013047D01*
X015798Y013088D01*
X015836Y013139D01*
X015863Y013196D01*
X015877Y013257D01*
X015879Y013320D01*
X015868Y013383D01*
X015844Y013441D01*
X015809Y013494D01*
X015764Y013538D01*
X015711Y013572D01*
X015652Y013595D01*
X015590Y013605D01*
X015527Y013602D01*
X015465Y013586D01*
X015409Y013558D01*
X015359Y013519D01*
X015318Y013471D01*
X015288Y013415D01*
X014947Y013556D01*
X014999Y013656D01*
X014797Y013903D01*
X014966Y014073D01*
X015214Y013871D01*
X015313Y013923D01*
X015420Y013957D01*
X015452Y014274D01*
X015692Y014274D01*
X015725Y013957D01*
X015831Y013923D01*
X015931Y013871D01*
X016178Y014073D01*
X016348Y013903D01*
X016146Y013656D01*
X016198Y013556D01*
X016232Y013450D01*
X016549Y013417D01*
X016549Y013178D01*
X016232Y013145D01*
X016198Y013039D01*
X016146Y012939D01*
X016348Y012692D01*
X016178Y012522D01*
X015931Y012724D01*
X015831Y012672D01*
X015725Y012638D01*
X015692Y012321D01*
X015452Y012321D01*
X015420Y012638D01*
X015313Y012672D01*
X015214Y012724D01*
X014966Y012522D01*
X014797Y012692D01*
X014806Y012682D02*
X015163Y012682D01*
X015092Y012624D02*
X014864Y012624D01*
X014921Y012567D02*
X015022Y012567D01*
X014836Y012740D02*
X016309Y012740D01*
X016339Y012682D02*
X015982Y012682D01*
X016053Y012624D02*
X016281Y012624D01*
X016223Y012567D02*
X016123Y012567D01*
X016262Y012797D02*
X014883Y012797D01*
X014930Y012855D02*
X016215Y012855D01*
X016168Y012912D02*
X014977Y012912D01*
X014983Y012970D02*
X016162Y012970D01*
X016192Y013027D02*
X015716Y013027D01*
X015794Y013085D02*
X016212Y013085D01*
X016231Y013142D02*
X015838Y013142D01*
X015864Y013200D02*
X016549Y013200D01*
X016549Y013258D02*
X015877Y013258D01*
X015879Y013315D02*
X016549Y013315D01*
X016549Y013373D02*
X015870Y013373D01*
X015849Y013430D02*
X016423Y013430D01*
X016220Y013488D02*
X015813Y013488D01*
X015753Y013545D02*
X016201Y013545D01*
X016174Y013603D02*
X015600Y013603D01*
X015554Y013603D02*
X014971Y013603D01*
X014974Y013545D02*
X015393Y013545D01*
X015333Y013488D02*
X015113Y013488D01*
X015252Y013430D02*
X015296Y013430D01*
X015308Y013142D02*
X015198Y013142D01*
X015059Y013085D02*
X015351Y013085D01*
X015428Y013027D02*
X014953Y013027D01*
X015295Y012682D02*
X015850Y012682D01*
X015723Y012624D02*
X015422Y012624D01*
X015427Y012567D02*
X015717Y012567D01*
X015712Y012509D02*
X015433Y012509D01*
X015439Y012452D02*
X015706Y012452D01*
X015700Y012394D02*
X015445Y012394D01*
X015451Y012337D02*
X015694Y012337D01*
X016150Y013660D02*
X014995Y013660D01*
X014948Y013718D02*
X016197Y013718D01*
X016244Y013776D02*
X014901Y013776D01*
X014854Y013833D02*
X016291Y013833D01*
X016338Y013891D02*
X015955Y013891D01*
X015893Y013891D02*
X015251Y013891D01*
X015190Y013891D02*
X014807Y013891D01*
X014842Y013948D02*
X015120Y013948D01*
X015049Y014006D02*
X014899Y014006D01*
X014957Y014063D02*
X014978Y014063D01*
X015393Y013948D02*
X015751Y013948D01*
X015720Y014006D02*
X015425Y014006D01*
X015431Y014063D02*
X015714Y014063D01*
X015708Y014121D02*
X015437Y014121D01*
X015443Y014178D02*
X015702Y014178D01*
X015696Y014236D02*
X015449Y014236D01*
X016025Y013948D02*
X016303Y013948D01*
X016246Y014006D02*
X016096Y014006D01*
X016166Y014063D02*
X016188Y014063D01*
M02*
