%
M48
M72
T01C0.0320
T02C0.0400
T03C0.0551
T04C0.1260
%
T01
X7080Y11486
X8080Y11486
X6671Y12668
X6671Y13849
X7080Y15030
X8080Y15030
X9671Y13849
X9671Y12668
X16734Y11805
X16931Y12790
X16931Y13727
X16734Y14711
X18013Y14939
X18013Y15892
X16931Y16727
X16734Y17711
X16832Y18845
X18013Y18892
X17785Y19935
X17785Y20935
X17785Y21935
X16832Y21845
X21238Y18179
X21238Y16998
X24238Y16998
X24238Y18179
X23828Y19557
X22828Y19557
X21785Y19935
X21785Y20935
X21785Y21935
X18013Y13939
X18013Y12577
X18013Y11577
X18013Y10526
X16931Y9790
X16734Y8805
X16832Y7868
X18013Y7526
X17785Y6581
X17785Y5581
X16832Y4868
X17785Y4581
X21785Y4581
X21785Y5581
X21785Y6581
X22828Y6959
X23828Y6959
X24238Y8337
X24238Y9518
X21238Y9518
X21238Y8337
T02
X13895Y8518
X12895Y8518
X11895Y8518
X11895Y17967
X12895Y17967
X13895Y17967
T03
X7831Y17025
X7831Y18994
X7844Y9518
X7844Y7549
X23112Y11290
X23112Y13258
X23112Y15227
T04
X7187Y4990
X23722Y4990
X23722Y21526
X7187Y21526
M30
