G75*
G70*
%OFA0B0*%
%FSLAX24Y24*%
%IPPOS*%
%LPD*%
%AMOC8*
5,1,8,0,0,1.08239X$1,22.5*
%
%ADD10C,0.0060*%
%ADD11C,0.0090*%
%ADD12C,0.0240*%
%ADD13R,0.0010X0.2190*%
%ADD14R,0.0010X0.2210*%
%ADD15R,0.0010X0.2200*%
%ADD16R,0.0010X0.2170*%
%ADD17R,0.0010X0.0090*%
%ADD18R,0.0010X0.0100*%
%ADD19R,0.0010X0.0010*%
%ADD20R,0.0010X0.0020*%
%ADD21R,0.0010X0.0030*%
%ADD22R,0.0010X0.0040*%
%ADD23R,0.0010X0.0050*%
%ADD24R,0.0010X0.0060*%
%ADD25R,0.0010X0.0070*%
%ADD26R,0.0010X0.0110*%
%ADD27R,0.0010X0.0130*%
%ADD28R,0.0010X0.0140*%
%ADD29R,0.0010X0.0160*%
%ADD30R,0.0010X0.0170*%
%ADD31R,0.0010X0.0180*%
%ADD32R,0.0010X0.0200*%
%ADD33R,0.0010X0.0210*%
%ADD34R,0.0010X0.0220*%
%ADD35R,0.0010X0.0240*%
%ADD36R,0.0010X0.0080*%
%ADD37R,0.0010X0.0120*%
%ADD38R,0.0010X0.0150*%
%ADD39R,0.0010X0.0230*%
%ADD40R,0.0010X0.0310*%
%ADD41R,0.0010X0.0300*%
%ADD42R,0.0010X0.0290*%
%ADD43R,0.0010X0.0270*%
%ADD44R,0.0010X0.0260*%
%ADD45R,0.0010X0.0250*%
%ADD46R,0.0010X0.0190*%
%ADD47C,0.0000*%
%ADD48C,0.0030*%
%ADD49C,0.0050*%
%ADD50R,0.0400X0.0500*%
%ADD51C,0.0080*%
%ADD52C,0.0010*%
%ADD53C,0.0100*%
%ADD54R,0.0660X0.0300*%
%ADD55C,0.0200*%
%ADD56R,0.0300X0.4200*%
%ADD57R,0.0200X0.0750*%
%ADD58R,0.0750X0.0400*%
%ADD59R,0.0200X0.1300*%
D10*
X006544Y006959D02*
X006544Y010896D01*
X006836Y010896D01*
X006836Y006959D01*
X006544Y006959D01*
X006836Y006959D02*
X008816Y006959D01*
X008816Y010896D01*
X008869Y010896D01*
X009102Y010896D01*
X009497Y010896D01*
X009497Y006959D01*
X008816Y006959D01*
X011589Y006684D02*
X011689Y006584D01*
X012839Y006534D01*
X011589Y006684D02*
X011589Y010384D01*
X011689Y010484D01*
X012839Y010534D01*
X008816Y010896D02*
X006836Y010896D01*
X011689Y016033D02*
X012839Y015983D01*
X011689Y016033D02*
X011589Y016133D01*
X011589Y019833D01*
X011689Y019933D01*
X012839Y019983D01*
X009485Y020372D02*
X009089Y020372D01*
X008857Y020372D01*
X008804Y020372D01*
X008804Y016435D01*
X006824Y016435D01*
X006824Y020372D01*
X008804Y020372D01*
X009485Y020372D02*
X009485Y016435D01*
X008804Y016435D01*
X006824Y016435D02*
X006532Y016435D01*
X006532Y020372D01*
X006824Y020372D01*
X017229Y021526D02*
X017231Y021582D01*
X017237Y021639D01*
X017247Y021694D01*
X017261Y021749D01*
X017278Y021803D01*
X017300Y021855D01*
X017325Y021905D01*
X017353Y021954D01*
X017385Y022001D01*
X017420Y022045D01*
X017458Y022087D01*
X017499Y022126D01*
X017543Y022161D01*
X017589Y022194D01*
X017637Y022223D01*
X017687Y022249D01*
X017739Y022272D01*
X017793Y022290D01*
X017847Y022305D01*
X017902Y022316D01*
X017958Y022323D01*
X018015Y022326D01*
X018071Y022325D01*
X018128Y022320D01*
X018183Y022311D01*
X018238Y022298D01*
X018292Y022281D01*
X018345Y022261D01*
X018396Y022237D01*
X018445Y022209D01*
X018492Y022178D01*
X018537Y022144D01*
X018580Y022106D01*
X018619Y022066D01*
X018656Y022023D01*
X018689Y021978D01*
X018719Y021930D01*
X018746Y021880D01*
X018769Y021829D01*
X018789Y021776D01*
X018805Y021722D01*
X018817Y021666D01*
X018825Y021611D01*
X018829Y021554D01*
X018829Y021498D01*
X018825Y021441D01*
X018817Y021386D01*
X018805Y021330D01*
X018789Y021276D01*
X018769Y021223D01*
X018746Y021172D01*
X018719Y021122D01*
X018689Y021074D01*
X018656Y021029D01*
X018619Y020986D01*
X018580Y020946D01*
X018537Y020908D01*
X018492Y020874D01*
X018445Y020843D01*
X018396Y020815D01*
X018345Y020791D01*
X018292Y020771D01*
X018238Y020754D01*
X018183Y020741D01*
X018128Y020732D01*
X018071Y020727D01*
X018015Y020726D01*
X017958Y020729D01*
X017902Y020736D01*
X017847Y020747D01*
X017793Y020762D01*
X017739Y020780D01*
X017687Y020803D01*
X017637Y020829D01*
X017589Y020858D01*
X017543Y020891D01*
X017499Y020926D01*
X017458Y020965D01*
X017420Y021007D01*
X017385Y021051D01*
X017353Y021098D01*
X017325Y021147D01*
X017300Y021197D01*
X017278Y021249D01*
X017261Y021303D01*
X017247Y021358D01*
X017237Y021413D01*
X017231Y021470D01*
X017229Y021526D01*
X018338Y020073D02*
X018338Y017073D01*
X019338Y017073D01*
X019340Y017103D01*
X019345Y017133D01*
X019354Y017162D01*
X019367Y017189D01*
X019382Y017215D01*
X019401Y017239D01*
X019422Y017260D01*
X019446Y017279D01*
X019472Y017294D01*
X019499Y017307D01*
X019528Y017316D01*
X019558Y017321D01*
X019588Y017323D01*
X019618Y017321D01*
X019648Y017316D01*
X019677Y017307D01*
X019704Y017294D01*
X019730Y017279D01*
X019754Y017260D01*
X019775Y017239D01*
X019794Y017215D01*
X019809Y017189D01*
X019822Y017162D01*
X019831Y017133D01*
X019836Y017103D01*
X019838Y017073D01*
X020838Y017073D01*
X020838Y020073D01*
X018338Y020073D01*
X022288Y019526D02*
X022288Y019376D01*
X022338Y019326D01*
X022338Y017426D01*
X022288Y017376D01*
X022288Y017226D01*
X022290Y017209D01*
X022294Y017192D01*
X022301Y017176D01*
X022311Y017162D01*
X022324Y017149D01*
X022338Y017139D01*
X022354Y017132D01*
X022371Y017128D01*
X022388Y017126D01*
X023088Y017126D02*
X023105Y017128D01*
X023122Y017132D01*
X023138Y017139D01*
X023152Y017149D01*
X023165Y017162D01*
X023175Y017176D01*
X023182Y017192D01*
X023186Y017209D01*
X023188Y017226D01*
X023188Y017376D01*
X023138Y017426D01*
X023138Y019326D01*
X023188Y019376D01*
X023188Y019526D01*
X023186Y019543D01*
X023182Y019560D01*
X023175Y019576D01*
X023165Y019590D01*
X023152Y019603D01*
X023138Y019613D01*
X023122Y019620D01*
X023105Y019624D01*
X023088Y019626D01*
X023469Y019526D02*
X023469Y019376D01*
X023519Y019326D01*
X023519Y017426D01*
X023469Y017376D01*
X023469Y017226D01*
X023471Y017209D01*
X023475Y017192D01*
X023482Y017176D01*
X023492Y017162D01*
X023505Y017149D01*
X023519Y017139D01*
X023535Y017132D01*
X023552Y017128D01*
X023569Y017126D01*
X024269Y017126D02*
X024286Y017128D01*
X024303Y017132D01*
X024319Y017139D01*
X024333Y017149D01*
X024346Y017162D01*
X024356Y017176D01*
X024363Y017192D01*
X024367Y017209D01*
X024369Y017226D01*
X024369Y017376D01*
X024319Y017426D01*
X024319Y019326D01*
X024369Y019376D01*
X024369Y019526D01*
X024367Y019543D01*
X024363Y019560D01*
X024356Y019576D01*
X024346Y019590D01*
X024333Y019603D01*
X024319Y019613D01*
X024303Y019620D01*
X024286Y019624D01*
X024269Y019626D01*
X023569Y019626D02*
X023552Y019624D01*
X023535Y019620D01*
X023519Y019613D01*
X023505Y019603D01*
X023492Y019590D01*
X023482Y019576D01*
X023475Y019560D01*
X023471Y019543D01*
X023469Y019526D01*
X022388Y019626D02*
X022371Y019624D01*
X022354Y019620D01*
X022338Y019613D01*
X022324Y019603D01*
X022311Y019590D01*
X022301Y019576D01*
X022294Y019560D01*
X022290Y019543D01*
X022288Y019526D01*
X022139Y016211D02*
X021458Y016211D01*
X021458Y010305D01*
X021854Y010305D01*
X022086Y010305D01*
X022139Y010305D01*
X022139Y016211D01*
X024120Y016211D01*
X024120Y010305D01*
X022139Y010305D01*
X021323Y010618D02*
X021323Y010731D01*
X021266Y010788D01*
X021323Y010618D02*
X021266Y010561D01*
X021040Y010561D01*
X020983Y010618D01*
X020983Y010731D01*
X021040Y010788D01*
X020983Y010929D02*
X020983Y011156D01*
X020983Y011043D02*
X021323Y011043D01*
X021323Y011298D02*
X020983Y011298D01*
X021323Y011298D02*
X021323Y011524D01*
X021323Y011666D02*
X020983Y011666D01*
X020983Y011836D01*
X021040Y011893D01*
X021096Y011893D01*
X021153Y011836D01*
X021153Y011666D01*
X021153Y011836D02*
X021210Y011893D01*
X021266Y011893D01*
X021323Y011836D01*
X021323Y011666D01*
X021266Y012529D02*
X021040Y012529D01*
X020983Y012586D01*
X020983Y012700D01*
X021040Y012756D01*
X020983Y012898D02*
X020983Y013125D01*
X020983Y013011D02*
X021323Y013011D01*
X021323Y013266D02*
X020983Y013266D01*
X021323Y013266D02*
X021323Y013493D01*
X021323Y013634D02*
X021096Y013634D01*
X020983Y013748D01*
X021096Y013861D01*
X021323Y013861D01*
X021153Y013861D02*
X021153Y013634D01*
X021266Y012756D02*
X021323Y012700D01*
X021323Y012586D01*
X021266Y012529D01*
X021266Y014926D02*
X021040Y014926D01*
X020983Y014983D01*
X020983Y015096D01*
X021040Y015153D01*
X021153Y015153D02*
X021153Y015040D01*
X021153Y015153D02*
X021266Y015153D01*
X021323Y015096D01*
X021323Y014983D01*
X021266Y014926D01*
X021323Y015295D02*
X020983Y015295D01*
X021323Y015521D01*
X020983Y015521D01*
X020983Y015663D02*
X020983Y015833D01*
X021040Y015890D01*
X021266Y015890D01*
X021323Y015833D01*
X021323Y015663D01*
X020983Y015663D01*
X017131Y014439D02*
X017133Y014495D01*
X017139Y014552D01*
X017149Y014607D01*
X017163Y014662D01*
X017180Y014716D01*
X017202Y014768D01*
X017227Y014818D01*
X017255Y014867D01*
X017287Y014914D01*
X017322Y014958D01*
X017360Y015000D01*
X017401Y015039D01*
X017445Y015074D01*
X017491Y015107D01*
X017539Y015136D01*
X017589Y015162D01*
X017641Y015185D01*
X017695Y015203D01*
X017749Y015218D01*
X017804Y015229D01*
X017860Y015236D01*
X017917Y015239D01*
X017973Y015238D01*
X018030Y015233D01*
X018085Y015224D01*
X018140Y015211D01*
X018194Y015194D01*
X018247Y015174D01*
X018298Y015150D01*
X018347Y015122D01*
X018394Y015091D01*
X018439Y015057D01*
X018482Y015019D01*
X018521Y014979D01*
X018558Y014936D01*
X018591Y014891D01*
X018621Y014843D01*
X018648Y014793D01*
X018671Y014742D01*
X018691Y014689D01*
X018707Y014635D01*
X018719Y014579D01*
X018727Y014524D01*
X018731Y014467D01*
X018731Y014411D01*
X018727Y014354D01*
X018719Y014299D01*
X018707Y014243D01*
X018691Y014189D01*
X018671Y014136D01*
X018648Y014085D01*
X018621Y014035D01*
X018591Y013987D01*
X018558Y013942D01*
X018521Y013899D01*
X018482Y013859D01*
X018439Y013821D01*
X018394Y013787D01*
X018347Y013756D01*
X018298Y013728D01*
X018247Y013704D01*
X018194Y013684D01*
X018140Y013667D01*
X018085Y013654D01*
X018030Y013645D01*
X017973Y013640D01*
X017917Y013639D01*
X017860Y013642D01*
X017804Y013649D01*
X017749Y013660D01*
X017695Y013675D01*
X017641Y013693D01*
X017589Y013716D01*
X017539Y013742D01*
X017491Y013771D01*
X017445Y013804D01*
X017401Y013839D01*
X017360Y013878D01*
X017322Y013920D01*
X017287Y013964D01*
X017255Y014011D01*
X017227Y014060D01*
X017202Y014110D01*
X017180Y014162D01*
X017163Y014216D01*
X017149Y014271D01*
X017139Y014326D01*
X017133Y014383D01*
X017131Y014439D01*
X017229Y012077D02*
X017231Y012133D01*
X017237Y012190D01*
X017247Y012245D01*
X017261Y012300D01*
X017278Y012354D01*
X017300Y012406D01*
X017325Y012456D01*
X017353Y012505D01*
X017385Y012552D01*
X017420Y012596D01*
X017458Y012638D01*
X017499Y012677D01*
X017543Y012712D01*
X017589Y012745D01*
X017637Y012774D01*
X017687Y012800D01*
X017739Y012823D01*
X017793Y012841D01*
X017847Y012856D01*
X017902Y012867D01*
X017958Y012874D01*
X018015Y012877D01*
X018071Y012876D01*
X018128Y012871D01*
X018183Y012862D01*
X018238Y012849D01*
X018292Y012832D01*
X018345Y012812D01*
X018396Y012788D01*
X018445Y012760D01*
X018492Y012729D01*
X018537Y012695D01*
X018580Y012657D01*
X018619Y012617D01*
X018656Y012574D01*
X018689Y012529D01*
X018719Y012481D01*
X018746Y012431D01*
X018769Y012380D01*
X018789Y012327D01*
X018805Y012273D01*
X018817Y012217D01*
X018825Y012162D01*
X018829Y012105D01*
X018829Y012049D01*
X018825Y011992D01*
X018817Y011937D01*
X018805Y011881D01*
X018789Y011827D01*
X018769Y011774D01*
X018746Y011723D01*
X018719Y011673D01*
X018689Y011625D01*
X018656Y011580D01*
X018619Y011537D01*
X018580Y011497D01*
X018537Y011459D01*
X018492Y011425D01*
X018445Y011394D01*
X018396Y011366D01*
X018345Y011342D01*
X018292Y011322D01*
X018238Y011305D01*
X018183Y011292D01*
X018128Y011283D01*
X018071Y011278D01*
X018015Y011277D01*
X017958Y011280D01*
X017902Y011287D01*
X017847Y011298D01*
X017793Y011313D01*
X017739Y011331D01*
X017687Y011354D01*
X017637Y011380D01*
X017589Y011409D01*
X017543Y011442D01*
X017499Y011477D01*
X017458Y011516D01*
X017420Y011558D01*
X017385Y011602D01*
X017353Y011649D01*
X017325Y011698D01*
X017300Y011748D01*
X017278Y011800D01*
X017261Y011854D01*
X017247Y011909D01*
X017237Y011964D01*
X017231Y012021D01*
X017229Y012077D01*
X018338Y009443D02*
X018338Y006443D01*
X019338Y006443D01*
X019340Y006473D01*
X019345Y006503D01*
X019354Y006532D01*
X019367Y006559D01*
X019382Y006585D01*
X019401Y006609D01*
X019422Y006630D01*
X019446Y006649D01*
X019472Y006664D01*
X019499Y006677D01*
X019528Y006686D01*
X019558Y006691D01*
X019588Y006693D01*
X019618Y006691D01*
X019648Y006686D01*
X019677Y006677D01*
X019704Y006664D01*
X019730Y006649D01*
X019754Y006630D01*
X019775Y006609D01*
X019794Y006585D01*
X019809Y006559D01*
X019822Y006532D01*
X019831Y006503D01*
X019836Y006473D01*
X019838Y006443D01*
X020838Y006443D01*
X020838Y009443D01*
X018338Y009443D01*
X022288Y009290D02*
X022288Y009140D01*
X022338Y009090D01*
X022338Y007190D01*
X022288Y007140D01*
X022288Y006990D01*
X022290Y006973D01*
X022294Y006956D01*
X022301Y006940D01*
X022311Y006926D01*
X022324Y006913D01*
X022338Y006903D01*
X022354Y006896D01*
X022371Y006892D01*
X022388Y006890D01*
X023088Y006890D02*
X023105Y006892D01*
X023122Y006896D01*
X023138Y006903D01*
X023152Y006913D01*
X023165Y006926D01*
X023175Y006940D01*
X023182Y006956D01*
X023186Y006973D01*
X023188Y006990D01*
X023188Y007140D01*
X023138Y007190D01*
X023138Y009090D01*
X023188Y009140D01*
X023188Y009290D01*
X023186Y009307D01*
X023182Y009324D01*
X023175Y009340D01*
X023165Y009354D01*
X023152Y009367D01*
X023138Y009377D01*
X023122Y009384D01*
X023105Y009388D01*
X023088Y009390D01*
X023469Y009290D02*
X023469Y009140D01*
X023519Y009090D01*
X023519Y007190D01*
X023469Y007140D01*
X023469Y006990D01*
X023471Y006973D01*
X023475Y006956D01*
X023482Y006940D01*
X023492Y006926D01*
X023505Y006913D01*
X023519Y006903D01*
X023535Y006896D01*
X023552Y006892D01*
X023569Y006890D01*
X024269Y006890D02*
X024286Y006892D01*
X024303Y006896D01*
X024319Y006903D01*
X024333Y006913D01*
X024346Y006926D01*
X024356Y006940D01*
X024363Y006956D01*
X024367Y006973D01*
X024369Y006990D01*
X024369Y007140D01*
X024319Y007190D01*
X024319Y009090D01*
X024369Y009140D01*
X024369Y009290D01*
X024367Y009307D01*
X024363Y009324D01*
X024356Y009340D01*
X024346Y009354D01*
X024333Y009367D01*
X024319Y009377D01*
X024303Y009384D01*
X024286Y009388D01*
X024269Y009390D01*
X023569Y009390D02*
X023552Y009388D01*
X023535Y009384D01*
X023519Y009377D01*
X023505Y009367D01*
X023492Y009354D01*
X023482Y009340D01*
X023475Y009324D01*
X023471Y009307D01*
X023469Y009290D01*
X022388Y009390D02*
X022371Y009388D01*
X022354Y009384D01*
X022338Y009377D01*
X022324Y009367D01*
X022311Y009354D01*
X022301Y009340D01*
X022294Y009324D01*
X022290Y009307D01*
X022288Y009290D01*
X024120Y010305D02*
X024411Y010305D01*
X024411Y016211D01*
X024120Y016211D01*
X017229Y004990D02*
X017231Y005046D01*
X017237Y005103D01*
X017247Y005158D01*
X017261Y005213D01*
X017278Y005267D01*
X017300Y005319D01*
X017325Y005369D01*
X017353Y005418D01*
X017385Y005465D01*
X017420Y005509D01*
X017458Y005551D01*
X017499Y005590D01*
X017543Y005625D01*
X017589Y005658D01*
X017637Y005687D01*
X017687Y005713D01*
X017739Y005736D01*
X017793Y005754D01*
X017847Y005769D01*
X017902Y005780D01*
X017958Y005787D01*
X018015Y005790D01*
X018071Y005789D01*
X018128Y005784D01*
X018183Y005775D01*
X018238Y005762D01*
X018292Y005745D01*
X018345Y005725D01*
X018396Y005701D01*
X018445Y005673D01*
X018492Y005642D01*
X018537Y005608D01*
X018580Y005570D01*
X018619Y005530D01*
X018656Y005487D01*
X018689Y005442D01*
X018719Y005394D01*
X018746Y005344D01*
X018769Y005293D01*
X018789Y005240D01*
X018805Y005186D01*
X018817Y005130D01*
X018825Y005075D01*
X018829Y005018D01*
X018829Y004962D01*
X018825Y004905D01*
X018817Y004850D01*
X018805Y004794D01*
X018789Y004740D01*
X018769Y004687D01*
X018746Y004636D01*
X018719Y004586D01*
X018689Y004538D01*
X018656Y004493D01*
X018619Y004450D01*
X018580Y004410D01*
X018537Y004372D01*
X018492Y004338D01*
X018445Y004307D01*
X018396Y004279D01*
X018345Y004255D01*
X018292Y004235D01*
X018238Y004218D01*
X018183Y004205D01*
X018128Y004196D01*
X018071Y004191D01*
X018015Y004190D01*
X017958Y004193D01*
X017902Y004200D01*
X017847Y004211D01*
X017793Y004226D01*
X017739Y004244D01*
X017687Y004267D01*
X017637Y004293D01*
X017589Y004322D01*
X017543Y004355D01*
X017499Y004390D01*
X017458Y004429D01*
X017420Y004471D01*
X017385Y004515D01*
X017353Y004562D01*
X017325Y004611D01*
X017300Y004661D01*
X017278Y004713D01*
X017261Y004767D01*
X017247Y004822D01*
X017237Y004877D01*
X017231Y004934D01*
X017229Y004990D01*
D11*
X020091Y009565D02*
X020006Y009650D01*
X020006Y009820D01*
X020091Y009905D01*
X020177Y009905D01*
X020517Y009565D01*
X020517Y009905D01*
X020006Y010669D02*
X020006Y011010D01*
X020006Y010840D02*
X020517Y010840D01*
X020517Y011222D02*
X020177Y011222D01*
X020347Y011222D02*
X020177Y011392D01*
X020177Y011477D01*
X020177Y011682D02*
X020177Y011767D01*
X020517Y011767D01*
X020517Y011682D02*
X020517Y011853D01*
X020432Y012051D02*
X020347Y012136D01*
X020347Y012391D01*
X020262Y012391D02*
X020517Y012391D01*
X020517Y012136D01*
X020432Y012051D01*
X020177Y012136D02*
X020177Y012306D01*
X020262Y012391D01*
X020262Y012603D02*
X020177Y012688D01*
X020177Y012943D01*
X020262Y012603D02*
X020432Y012603D01*
X020517Y012688D01*
X020517Y012943D01*
X020432Y013708D02*
X020091Y013708D01*
X020006Y013793D01*
X020006Y013963D01*
X020091Y014048D01*
X020262Y014261D02*
X020177Y014346D01*
X020177Y014516D01*
X020262Y014601D01*
X020432Y014601D01*
X020517Y014516D01*
X020517Y014346D01*
X020432Y014261D01*
X020262Y014261D01*
X020432Y014048D02*
X020517Y013963D01*
X020517Y013793D01*
X020432Y013708D01*
X020517Y014813D02*
X020177Y014813D01*
X020177Y015068D01*
X020262Y015153D01*
X020517Y015153D01*
X020432Y015451D02*
X020091Y015451D01*
X020177Y015366D02*
X020177Y015536D01*
X020177Y015734D02*
X020517Y015734D01*
X020347Y015734D02*
X020177Y015904D01*
X020177Y015989D01*
X020262Y016194D02*
X020177Y016279D01*
X020177Y016449D01*
X020262Y016535D01*
X020432Y016535D01*
X020517Y016449D01*
X020517Y016279D01*
X020432Y016194D01*
X020262Y016194D01*
X020517Y016747D02*
X020517Y016917D01*
X020517Y016832D02*
X020006Y016832D01*
X020006Y016747D01*
X020517Y015536D02*
X020432Y015451D01*
X020006Y011767D02*
X019921Y011767D01*
X011560Y011802D02*
X011390Y011972D01*
X011050Y011972D01*
X011135Y012184D02*
X011050Y012269D01*
X011050Y012439D01*
X011135Y012524D01*
X011475Y012524D01*
X011560Y012439D01*
X011560Y012269D01*
X011475Y012184D01*
X011135Y012184D01*
X011050Y012736D02*
X011560Y012736D01*
X011560Y013077D01*
X011560Y013459D02*
X011050Y013459D01*
X011050Y013289D02*
X011050Y013629D01*
X011220Y013841D02*
X011050Y014012D01*
X011220Y014182D01*
X011560Y014182D01*
X011475Y014394D02*
X011135Y014394D01*
X011050Y014479D01*
X011050Y014649D01*
X011135Y014734D01*
X011305Y014734D02*
X011305Y014564D01*
X011305Y014734D02*
X011475Y014734D01*
X011560Y014649D01*
X011560Y014479D01*
X011475Y014394D01*
X011305Y014182D02*
X011305Y013841D01*
X011220Y013841D02*
X011560Y013841D01*
X010576Y013792D02*
X010491Y013877D01*
X010321Y013877D01*
X010321Y013707D01*
X010151Y013537D02*
X010491Y013537D01*
X010576Y013622D01*
X010576Y013792D01*
X010576Y014089D02*
X010065Y014089D01*
X010151Y013877D02*
X010065Y013792D01*
X010065Y013622D01*
X010151Y013537D01*
X010065Y013338D02*
X010065Y013168D01*
X010065Y013253D02*
X010576Y013253D01*
X010576Y013168D02*
X010576Y013338D01*
X010576Y012956D02*
X010065Y012956D01*
X010321Y012956D02*
X010321Y012616D01*
X010576Y012616D02*
X010065Y012616D01*
X011050Y011631D02*
X011390Y011631D01*
X011560Y011802D01*
X010321Y014089D02*
X010321Y014429D01*
X010576Y014429D02*
X010065Y014429D01*
X011050Y014946D02*
X011050Y015287D01*
X011305Y015116D02*
X011305Y014946D01*
X011560Y014946D02*
X011560Y015287D01*
X011560Y014946D02*
X011050Y014946D01*
X007229Y014886D02*
X006719Y014886D01*
X006719Y015141D01*
X006804Y015226D01*
X006974Y015226D01*
X007059Y015141D01*
X007059Y014886D01*
X007059Y015056D02*
X007229Y015226D01*
X007229Y014674D02*
X007229Y014333D01*
X006719Y014333D01*
X006719Y014674D01*
X006974Y014504D02*
X006974Y014333D01*
X006974Y014121D02*
X006974Y013951D01*
X006974Y014121D02*
X007144Y014121D01*
X007229Y014036D01*
X007229Y013866D01*
X007144Y013781D01*
X006804Y013781D01*
X006719Y013866D01*
X006719Y014036D01*
X006804Y014121D01*
X006719Y013569D02*
X007229Y013569D01*
X006719Y013229D01*
X007229Y013229D01*
X007229Y013016D02*
X006889Y013016D01*
X006719Y012846D01*
X006889Y012676D01*
X007229Y012676D01*
X007144Y012464D02*
X006804Y012464D01*
X006719Y012379D01*
X006719Y012124D01*
X007229Y012124D01*
X007229Y012379D01*
X007144Y012464D01*
X006974Y012676D02*
X006974Y013016D01*
D12*
X019588Y013018D02*
X019588Y013498D01*
X019588Y013978D02*
X019588Y014458D01*
X019588Y014938D02*
X019588Y015419D01*
X019588Y015899D02*
X019588Y016379D01*
X019588Y016859D02*
X019588Y017339D01*
X019588Y017819D02*
X019588Y018299D01*
X019588Y018779D02*
X019588Y019260D01*
X019588Y019740D02*
X019588Y020220D01*
X019588Y020700D02*
X019588Y021180D01*
X019588Y021660D02*
X019588Y022140D01*
X019588Y022620D02*
X019588Y023101D01*
X019588Y012538D02*
X019588Y012058D01*
X019588Y011578D02*
X019588Y011098D01*
X019588Y010618D02*
X019588Y010137D01*
X019588Y009657D02*
X019588Y009177D01*
X019588Y008697D02*
X019588Y008217D01*
X019588Y007737D02*
X019588Y007257D01*
X019588Y006777D02*
X019588Y006296D01*
X019588Y005816D02*
X019588Y005336D01*
X019588Y004856D02*
X019588Y004376D01*
X019588Y003896D02*
X019588Y003416D01*
D13*
X016259Y007729D03*
X016209Y007729D03*
X011338Y005170D03*
X011288Y005170D03*
X015422Y013241D03*
X015472Y013241D03*
X016209Y017966D03*
X016259Y017966D03*
X011338Y021312D03*
X011288Y021312D03*
X009566Y013438D03*
X009516Y013438D03*
D14*
X009536Y013438D03*
X009546Y013438D03*
X009556Y013438D03*
X015442Y013241D03*
X015452Y013241D03*
X015462Y013241D03*
X016229Y017966D03*
X016239Y017966D03*
X016249Y017966D03*
X011328Y021312D03*
X011318Y021312D03*
X011308Y021312D03*
X016229Y007729D03*
X016239Y007729D03*
X016249Y007729D03*
X011328Y005170D03*
X011318Y005170D03*
X011308Y005170D03*
D15*
X011298Y005165D03*
X016219Y007724D03*
X015432Y013236D03*
X016219Y017961D03*
X011298Y021307D03*
X009526Y013433D03*
D16*
X009506Y013438D03*
X015412Y013241D03*
X016199Y017966D03*
X011278Y021312D03*
X016199Y007729D03*
X011278Y005170D03*
D17*
X011098Y005140D03*
X010888Y005180D03*
X010878Y005180D03*
X010868Y005180D03*
X010678Y004910D03*
X010558Y004950D03*
X010548Y004950D03*
X010378Y004640D03*
X010368Y004640D03*
X010358Y004650D03*
X010348Y004650D03*
X010338Y004660D03*
X010318Y004670D03*
X010298Y004680D03*
X010288Y004690D03*
X010278Y004690D03*
X010268Y004700D03*
X010248Y004710D03*
X010228Y004720D03*
X010218Y004730D03*
X010198Y004740D03*
X010178Y004750D03*
X010158Y004760D03*
X010148Y004770D03*
X010138Y004770D03*
X010128Y004780D03*
X010108Y004790D03*
X010088Y004800D03*
X010068Y004810D03*
X010058Y004820D03*
X010038Y004830D03*
X010018Y004840D03*
X009998Y004850D03*
X009988Y004860D03*
X009968Y004870D03*
X009948Y004880D03*
X009928Y004890D03*
X009918Y004900D03*
X009908Y004900D03*
X009898Y004910D03*
X009878Y004920D03*
X009858Y004930D03*
X009838Y004940D03*
X009828Y004950D03*
X009808Y004960D03*
X009788Y004970D03*
X009768Y004980D03*
X009758Y004990D03*
X009738Y005000D03*
X009718Y005010D03*
X009698Y005020D03*
X009668Y005040D03*
X009648Y005050D03*
X009628Y005060D03*
X009618Y005070D03*
X009598Y005080D03*
X009578Y005090D03*
X009558Y005100D03*
X009548Y005110D03*
X009538Y005110D03*
X009528Y005120D03*
X009508Y005130D03*
X009488Y005140D03*
X009488Y005250D03*
X009508Y005260D03*
X009528Y005270D03*
X009548Y005280D03*
X009558Y005290D03*
X009568Y005290D03*
X009578Y005300D03*
X009598Y005310D03*
X009618Y005320D03*
X009638Y005330D03*
X009658Y005340D03*
X009678Y005350D03*
X009688Y005360D03*
X009698Y005360D03*
X009708Y005370D03*
X009728Y005380D03*
X009748Y005390D03*
X009768Y005400D03*
X009788Y005410D03*
X009798Y005420D03*
X009808Y005420D03*
X009818Y005430D03*
X009828Y005430D03*
X009838Y005440D03*
X009858Y005450D03*
X009878Y005460D03*
X009898Y005470D03*
X009908Y005480D03*
X009918Y005480D03*
X009928Y005490D03*
X009938Y005490D03*
X009948Y005500D03*
X009958Y005500D03*
X009968Y005510D03*
X009978Y005510D03*
X009988Y005520D03*
X010008Y005530D03*
X010028Y005540D03*
X010048Y005550D03*
X010058Y005560D03*
X010068Y005560D03*
X010078Y005570D03*
X010088Y005570D03*
X010098Y005580D03*
X010108Y005580D03*
X010118Y005590D03*
X010138Y005600D03*
X010158Y005610D03*
X010168Y005620D03*
X010178Y005620D03*
X010198Y005630D03*
X010208Y005640D03*
X010218Y005640D03*
X010228Y005650D03*
X010238Y005650D03*
X010248Y005660D03*
X010268Y005670D03*
X010288Y005680D03*
X010308Y005690D03*
X010328Y005700D03*
X010338Y005710D03*
X010348Y005710D03*
X010358Y005720D03*
X010368Y005720D03*
X010378Y005730D03*
X010398Y005740D03*
X010418Y005750D03*
X010438Y005760D03*
X010458Y005770D03*
X010468Y005780D03*
X010478Y005780D03*
X010488Y005790D03*
X010498Y005790D03*
X010508Y005800D03*
X010528Y005810D03*
X010548Y005820D03*
X010558Y005830D03*
X010568Y005830D03*
X010578Y005840D03*
X010588Y005840D03*
X010598Y005850D03*
X010608Y005850D03*
X010618Y005860D03*
X010628Y005860D03*
X010638Y005870D03*
X010658Y005880D03*
X010678Y005890D03*
X010698Y005900D03*
X010718Y005910D03*
X010728Y005920D03*
X010738Y005920D03*
X010748Y005930D03*
X010758Y005930D03*
X010768Y005940D03*
X010788Y005950D03*
X010808Y005960D03*
X010828Y005970D03*
X010838Y005980D03*
X010848Y005980D03*
X010858Y005990D03*
X010868Y005990D03*
X010878Y006000D03*
X010888Y006000D03*
X010898Y006010D03*
X010918Y006020D03*
X010938Y006030D03*
X010958Y006040D03*
X010968Y006050D03*
X010978Y006050D03*
X010988Y006060D03*
X010998Y006060D03*
X011008Y006070D03*
X011018Y006070D03*
X011028Y006080D03*
X011048Y006090D03*
X011068Y006100D03*
X011088Y006110D03*
X011108Y006120D03*
X011118Y006130D03*
X011128Y006130D03*
X011138Y006140D03*
X011148Y006140D03*
X011158Y006150D03*
X011178Y006160D03*
X011198Y006170D03*
X011218Y006180D03*
X011238Y006190D03*
X011248Y006200D03*
X011258Y006200D03*
X011268Y006210D03*
X010388Y004630D03*
X010408Y004620D03*
X010428Y004610D03*
X010438Y004600D03*
X010448Y004600D03*
X010458Y004590D03*
X010478Y004580D03*
X010498Y004570D03*
X010508Y004560D03*
X010518Y004560D03*
X010528Y004550D03*
X010548Y004540D03*
X010568Y004530D03*
X010588Y004520D03*
X010598Y004510D03*
X010608Y004510D03*
X010618Y004500D03*
X010638Y004490D03*
X010658Y004480D03*
X010668Y004470D03*
X010678Y004470D03*
X010688Y004460D03*
X010708Y004450D03*
X010728Y004440D03*
X010738Y004430D03*
X010748Y004430D03*
X010758Y004420D03*
X010778Y004410D03*
X010798Y004400D03*
X010808Y004390D03*
X010818Y004390D03*
X010828Y004380D03*
X010848Y004370D03*
X010868Y004360D03*
X010878Y004350D03*
X010888Y004350D03*
X010918Y004330D03*
X010938Y004320D03*
X010958Y004310D03*
X010978Y004300D03*
X010988Y004290D03*
X011008Y004280D03*
X011028Y004270D03*
X011038Y004260D03*
X011048Y004260D03*
X011058Y004250D03*
X011078Y004240D03*
X011098Y004230D03*
X011118Y004220D03*
X011128Y004210D03*
X011148Y004200D03*
X011168Y004190D03*
X011188Y004180D03*
X011198Y004170D03*
X011208Y004170D03*
X011218Y004160D03*
X011238Y004150D03*
X011258Y004140D03*
X011268Y004130D03*
X009388Y005200D03*
X014309Y007759D03*
X014409Y007809D03*
X014429Y007819D03*
X014449Y007829D03*
X014469Y007839D03*
X014479Y007849D03*
X014489Y007849D03*
X014499Y007859D03*
X014519Y007869D03*
X014539Y007879D03*
X014559Y007889D03*
X014579Y007899D03*
X014599Y007909D03*
X014609Y007919D03*
X014619Y007919D03*
X014629Y007929D03*
X014649Y007939D03*
X014669Y007949D03*
X014689Y007959D03*
X014709Y007969D03*
X014719Y007979D03*
X014729Y007979D03*
X014739Y007989D03*
X014749Y007989D03*
X014759Y007999D03*
X014779Y008009D03*
X014799Y008019D03*
X014819Y008029D03*
X014829Y008039D03*
X014839Y008039D03*
X014849Y008049D03*
X014859Y008049D03*
X014869Y008059D03*
X014879Y008059D03*
X014889Y008069D03*
X014899Y008069D03*
X014909Y008079D03*
X014929Y008089D03*
X014949Y008099D03*
X014969Y008109D03*
X014979Y008119D03*
X014989Y008119D03*
X014999Y008129D03*
X015009Y008129D03*
X015019Y008139D03*
X015029Y008139D03*
X015039Y008149D03*
X015059Y008159D03*
X015079Y008169D03*
X015089Y008179D03*
X015099Y008179D03*
X015119Y008189D03*
X015129Y008199D03*
X015139Y008199D03*
X015149Y008209D03*
X015159Y008209D03*
X015169Y008219D03*
X015189Y008229D03*
X015209Y008239D03*
X015229Y008249D03*
X015249Y008259D03*
X015259Y008269D03*
X015269Y008269D03*
X015279Y008279D03*
X015289Y008279D03*
X015299Y008289D03*
X015319Y008299D03*
X015339Y008309D03*
X015359Y008319D03*
X015379Y008329D03*
X015389Y008339D03*
X015399Y008339D03*
X015409Y008349D03*
X015419Y008349D03*
X015429Y008359D03*
X015449Y008369D03*
X015469Y008379D03*
X015479Y008389D03*
X015489Y008389D03*
X015499Y008399D03*
X015509Y008399D03*
X015519Y008409D03*
X015529Y008409D03*
X015539Y008419D03*
X015549Y008419D03*
X015559Y008429D03*
X015579Y008439D03*
X015599Y008449D03*
X015619Y008459D03*
X015639Y008469D03*
X015649Y008479D03*
X015659Y008479D03*
X015669Y008489D03*
X015679Y008489D03*
X015689Y008499D03*
X015709Y008509D03*
X015729Y008519D03*
X015749Y008529D03*
X015759Y008539D03*
X015769Y008539D03*
X015779Y008549D03*
X015789Y008549D03*
X015799Y008559D03*
X015809Y008559D03*
X015819Y008569D03*
X015839Y008579D03*
X015859Y008589D03*
X015879Y008599D03*
X015889Y008609D03*
X015899Y008609D03*
X015909Y008619D03*
X015919Y008619D03*
X015929Y008629D03*
X015939Y008629D03*
X015949Y008639D03*
X015969Y008649D03*
X015989Y008659D03*
X016009Y008669D03*
X016029Y008679D03*
X016039Y008689D03*
X016049Y008689D03*
X016059Y008699D03*
X016069Y008699D03*
X016079Y008709D03*
X016099Y008719D03*
X016119Y008729D03*
X016139Y008739D03*
X016159Y008749D03*
X016169Y008759D03*
X016179Y008759D03*
X016189Y008769D03*
X015809Y007739D03*
X015799Y007739D03*
X015789Y007739D03*
X016019Y007699D03*
X015599Y007469D03*
X015479Y007509D03*
X015469Y007509D03*
X015299Y007199D03*
X015289Y007199D03*
X015279Y007209D03*
X015269Y007209D03*
X015259Y007219D03*
X015239Y007229D03*
X015219Y007239D03*
X015209Y007249D03*
X015199Y007249D03*
X015189Y007259D03*
X015169Y007269D03*
X015149Y007279D03*
X015139Y007289D03*
X015119Y007299D03*
X015099Y007309D03*
X015079Y007319D03*
X015069Y007329D03*
X015059Y007329D03*
X015049Y007339D03*
X015029Y007349D03*
X015009Y007359D03*
X014989Y007369D03*
X014979Y007379D03*
X014959Y007389D03*
X014939Y007399D03*
X014919Y007409D03*
X014909Y007419D03*
X014889Y007429D03*
X014869Y007439D03*
X014849Y007449D03*
X014839Y007459D03*
X014829Y007459D03*
X014819Y007469D03*
X014799Y007479D03*
X014779Y007489D03*
X014759Y007499D03*
X014749Y007509D03*
X014729Y007519D03*
X014709Y007529D03*
X014689Y007539D03*
X014679Y007549D03*
X014659Y007559D03*
X014639Y007569D03*
X014619Y007579D03*
X014589Y007599D03*
X014569Y007609D03*
X014549Y007619D03*
X014539Y007629D03*
X014519Y007639D03*
X014499Y007649D03*
X014479Y007659D03*
X014469Y007669D03*
X014459Y007669D03*
X014449Y007679D03*
X014429Y007689D03*
X014409Y007699D03*
X015309Y007189D03*
X015329Y007179D03*
X015349Y007169D03*
X015359Y007159D03*
X015369Y007159D03*
X015379Y007149D03*
X015399Y007139D03*
X015419Y007129D03*
X015429Y007119D03*
X015439Y007119D03*
X015449Y007109D03*
X015469Y007099D03*
X015489Y007089D03*
X015509Y007079D03*
X015519Y007069D03*
X015529Y007069D03*
X015539Y007059D03*
X015559Y007049D03*
X015579Y007039D03*
X015589Y007029D03*
X015599Y007029D03*
X015609Y007019D03*
X015629Y007009D03*
X015649Y006999D03*
X015659Y006989D03*
X015669Y006989D03*
X015679Y006979D03*
X015699Y006969D03*
X015719Y006959D03*
X015729Y006949D03*
X015739Y006949D03*
X015749Y006939D03*
X015769Y006929D03*
X015789Y006919D03*
X015799Y006909D03*
X015809Y006909D03*
X015839Y006889D03*
X015859Y006879D03*
X015879Y006869D03*
X015899Y006859D03*
X015909Y006849D03*
X015929Y006839D03*
X015949Y006829D03*
X015959Y006819D03*
X015969Y006819D03*
X015979Y006809D03*
X015999Y006799D03*
X016019Y006789D03*
X016039Y006779D03*
X016049Y006769D03*
X016069Y006759D03*
X016089Y006749D03*
X016109Y006739D03*
X016119Y006729D03*
X016129Y006729D03*
X016139Y006719D03*
X016159Y006709D03*
X016179Y006699D03*
X016189Y006689D03*
X015402Y012201D03*
X015392Y012211D03*
X015372Y012221D03*
X015352Y012231D03*
X015342Y012241D03*
X015332Y012241D03*
X015322Y012251D03*
X015302Y012261D03*
X015282Y012271D03*
X015262Y012281D03*
X015252Y012291D03*
X015232Y012301D03*
X015212Y012311D03*
X015192Y012321D03*
X015182Y012331D03*
X015172Y012331D03*
X015162Y012341D03*
X015142Y012351D03*
X015122Y012361D03*
X015112Y012371D03*
X015092Y012381D03*
X015072Y012391D03*
X015052Y012401D03*
X015022Y012421D03*
X015012Y012421D03*
X015002Y012431D03*
X014982Y012441D03*
X014962Y012451D03*
X014952Y012461D03*
X014942Y012461D03*
X014932Y012471D03*
X014912Y012481D03*
X014892Y012491D03*
X014882Y012501D03*
X014872Y012501D03*
X014862Y012511D03*
X014842Y012521D03*
X014822Y012531D03*
X014812Y012541D03*
X014802Y012541D03*
X014792Y012551D03*
X014772Y012561D03*
X014752Y012571D03*
X014742Y012581D03*
X014732Y012581D03*
X014722Y012591D03*
X014702Y012601D03*
X014682Y012611D03*
X014662Y012621D03*
X014652Y012631D03*
X014642Y012631D03*
X014632Y012641D03*
X014612Y012651D03*
X014592Y012661D03*
X014582Y012671D03*
X014572Y012671D03*
X014562Y012681D03*
X014542Y012691D03*
X014522Y012701D03*
X014512Y012711D03*
X014502Y012711D03*
X014492Y012721D03*
X014482Y012721D03*
X014472Y012731D03*
X014452Y012741D03*
X014432Y012751D03*
X014422Y012761D03*
X014412Y012761D03*
X014402Y012771D03*
X014382Y012781D03*
X014362Y012791D03*
X014352Y012801D03*
X014332Y012811D03*
X014312Y012821D03*
X014292Y012831D03*
X014282Y012841D03*
X014272Y012841D03*
X014262Y012851D03*
X014242Y012861D03*
X014222Y012871D03*
X014202Y012881D03*
X014192Y012891D03*
X014172Y012901D03*
X014152Y012911D03*
X014132Y012921D03*
X014122Y012931D03*
X014102Y012941D03*
X014082Y012951D03*
X014062Y012961D03*
X014052Y012971D03*
X014042Y012971D03*
X014032Y012981D03*
X014012Y012991D03*
X013992Y013001D03*
X013972Y013011D03*
X013962Y013021D03*
X013942Y013031D03*
X013922Y013041D03*
X013902Y013051D03*
X013892Y013061D03*
X013872Y013071D03*
X013852Y013081D03*
X013832Y013091D03*
X013802Y013111D03*
X013782Y013121D03*
X013762Y013131D03*
X013752Y013141D03*
X013732Y013151D03*
X013712Y013161D03*
X013692Y013171D03*
X013682Y013181D03*
X013672Y013181D03*
X013662Y013191D03*
X013642Y013201D03*
X013622Y013211D03*
X013622Y013321D03*
X013642Y013331D03*
X013662Y013341D03*
X013682Y013351D03*
X013692Y013361D03*
X013702Y013361D03*
X013712Y013371D03*
X013732Y013381D03*
X013752Y013391D03*
X013772Y013401D03*
X013792Y013411D03*
X013812Y013421D03*
X013822Y013431D03*
X013832Y013431D03*
X013842Y013441D03*
X013862Y013451D03*
X013882Y013461D03*
X013902Y013471D03*
X013922Y013481D03*
X013932Y013491D03*
X013942Y013491D03*
X013952Y013501D03*
X013962Y013501D03*
X013972Y013511D03*
X013992Y013521D03*
X014012Y013531D03*
X014032Y013541D03*
X014042Y013551D03*
X014052Y013551D03*
X014062Y013561D03*
X014072Y013561D03*
X014082Y013571D03*
X014092Y013571D03*
X014102Y013581D03*
X014112Y013581D03*
X014122Y013591D03*
X014142Y013601D03*
X014162Y013611D03*
X014182Y013621D03*
X014192Y013631D03*
X014202Y013631D03*
X014212Y013641D03*
X014222Y013641D03*
X014232Y013651D03*
X014242Y013651D03*
X014252Y013661D03*
X014272Y013671D03*
X014292Y013681D03*
X014302Y013691D03*
X014312Y013691D03*
X014332Y013701D03*
X014342Y013711D03*
X014352Y013711D03*
X014362Y013721D03*
X014372Y013721D03*
X014382Y013731D03*
X014402Y013741D03*
X014422Y013751D03*
X014442Y013761D03*
X014462Y013771D03*
X014472Y013781D03*
X014482Y013781D03*
X014492Y013791D03*
X014502Y013791D03*
X014512Y013801D03*
X014532Y013811D03*
X014552Y013821D03*
X014572Y013831D03*
X014592Y013841D03*
X014602Y013851D03*
X014612Y013851D03*
X014622Y013861D03*
X014632Y013861D03*
X014642Y013871D03*
X014662Y013881D03*
X014682Y013891D03*
X014692Y013901D03*
X014702Y013901D03*
X014712Y013911D03*
X014722Y013911D03*
X014732Y013921D03*
X014742Y013921D03*
X014752Y013931D03*
X014762Y013931D03*
X014772Y013941D03*
X014792Y013951D03*
X014812Y013961D03*
X014832Y013971D03*
X014852Y013981D03*
X014862Y013991D03*
X014872Y013991D03*
X014882Y014001D03*
X014892Y014001D03*
X014902Y014011D03*
X014922Y014021D03*
X014942Y014031D03*
X014962Y014041D03*
X014972Y014051D03*
X014982Y014051D03*
X014992Y014061D03*
X015002Y014061D03*
X015012Y014071D03*
X015022Y014071D03*
X015032Y014081D03*
X015052Y014091D03*
X015072Y014101D03*
X015092Y014111D03*
X015102Y014121D03*
X015112Y014121D03*
X015122Y014131D03*
X015132Y014131D03*
X015142Y014141D03*
X015152Y014141D03*
X015162Y014151D03*
X015182Y014161D03*
X015202Y014171D03*
X015222Y014181D03*
X015242Y014191D03*
X015252Y014201D03*
X015262Y014201D03*
X015272Y014211D03*
X015282Y014211D03*
X015292Y014221D03*
X015312Y014231D03*
X015332Y014241D03*
X015352Y014251D03*
X015372Y014261D03*
X015382Y014271D03*
X015392Y014271D03*
X015402Y014281D03*
X015232Y013211D03*
X015022Y013251D03*
X015012Y013251D03*
X015002Y013251D03*
X014812Y012981D03*
X014692Y013021D03*
X014682Y013021D03*
X013522Y013271D03*
X009496Y012398D03*
X009486Y012408D03*
X009466Y012418D03*
X009446Y012428D03*
X009436Y012438D03*
X009426Y012438D03*
X009416Y012448D03*
X009396Y012458D03*
X009376Y012468D03*
X009356Y012478D03*
X009346Y012488D03*
X009326Y012498D03*
X009306Y012508D03*
X009286Y012518D03*
X009276Y012528D03*
X009266Y012528D03*
X009256Y012538D03*
X009236Y012548D03*
X009216Y012558D03*
X009206Y012568D03*
X009186Y012578D03*
X009166Y012588D03*
X009146Y012598D03*
X009116Y012618D03*
X009106Y012618D03*
X009096Y012628D03*
X009076Y012638D03*
X009056Y012648D03*
X009046Y012658D03*
X009036Y012658D03*
X009026Y012668D03*
X009006Y012678D03*
X008986Y012688D03*
X008976Y012698D03*
X008966Y012698D03*
X008956Y012708D03*
X008936Y012718D03*
X008916Y012728D03*
X008906Y012738D03*
X008896Y012738D03*
X008886Y012748D03*
X008866Y012758D03*
X008846Y012768D03*
X008836Y012778D03*
X008826Y012778D03*
X008816Y012788D03*
X008796Y012798D03*
X008776Y012808D03*
X008756Y012818D03*
X008746Y012828D03*
X008736Y012828D03*
X008726Y012838D03*
X008706Y012848D03*
X008686Y012858D03*
X008676Y012868D03*
X008666Y012868D03*
X008656Y012878D03*
X008636Y012888D03*
X008616Y012898D03*
X008606Y012908D03*
X008596Y012908D03*
X008586Y012918D03*
X008576Y012918D03*
X008566Y012928D03*
X008546Y012938D03*
X008526Y012948D03*
X008516Y012958D03*
X008506Y012958D03*
X008496Y012968D03*
X008476Y012978D03*
X008456Y012988D03*
X008446Y012998D03*
X008426Y013008D03*
X008406Y013018D03*
X008386Y013028D03*
X008376Y013038D03*
X008366Y013038D03*
X008356Y013048D03*
X008336Y013058D03*
X008316Y013068D03*
X008296Y013078D03*
X008286Y013088D03*
X008266Y013098D03*
X008246Y013108D03*
X008226Y013118D03*
X008216Y013128D03*
X008196Y013138D03*
X008176Y013148D03*
X008156Y013158D03*
X008146Y013168D03*
X008136Y013168D03*
X008126Y013178D03*
X008106Y013188D03*
X008086Y013198D03*
X008066Y013208D03*
X008056Y013218D03*
X008036Y013228D03*
X008016Y013238D03*
X007996Y013248D03*
X007986Y013258D03*
X007966Y013268D03*
X007946Y013278D03*
X007926Y013288D03*
X007896Y013308D03*
X007876Y013318D03*
X007856Y013328D03*
X007846Y013338D03*
X007826Y013348D03*
X007806Y013358D03*
X007786Y013368D03*
X007776Y013378D03*
X007766Y013378D03*
X007756Y013388D03*
X007736Y013398D03*
X007716Y013408D03*
X007716Y013518D03*
X007736Y013528D03*
X007756Y013538D03*
X007776Y013548D03*
X007786Y013558D03*
X007796Y013558D03*
X007806Y013568D03*
X007826Y013578D03*
X007846Y013588D03*
X007866Y013598D03*
X007886Y013608D03*
X007906Y013618D03*
X007916Y013628D03*
X007926Y013628D03*
X007936Y013638D03*
X007956Y013648D03*
X007976Y013658D03*
X007996Y013668D03*
X008016Y013678D03*
X008026Y013688D03*
X008036Y013688D03*
X008046Y013698D03*
X008056Y013698D03*
X008066Y013708D03*
X008086Y013718D03*
X008106Y013728D03*
X008126Y013738D03*
X008136Y013748D03*
X008146Y013748D03*
X008156Y013758D03*
X008166Y013758D03*
X008176Y013768D03*
X008186Y013768D03*
X008196Y013778D03*
X008206Y013778D03*
X008216Y013788D03*
X008236Y013798D03*
X008256Y013808D03*
X008276Y013818D03*
X008286Y013828D03*
X008296Y013828D03*
X008306Y013838D03*
X008316Y013838D03*
X008326Y013848D03*
X008336Y013848D03*
X008346Y013858D03*
X008366Y013868D03*
X008386Y013878D03*
X008396Y013888D03*
X008406Y013888D03*
X008426Y013898D03*
X008436Y013908D03*
X008446Y013908D03*
X008456Y013918D03*
X008466Y013918D03*
X008476Y013928D03*
X008496Y013938D03*
X008516Y013948D03*
X008536Y013958D03*
X008556Y013968D03*
X008566Y013978D03*
X008576Y013978D03*
X008586Y013988D03*
X008596Y013988D03*
X008606Y013998D03*
X008626Y014008D03*
X008646Y014018D03*
X008666Y014028D03*
X008686Y014038D03*
X008696Y014048D03*
X008706Y014048D03*
X008716Y014058D03*
X008726Y014058D03*
X008736Y014068D03*
X008756Y014078D03*
X008776Y014088D03*
X008786Y014098D03*
X008796Y014098D03*
X008806Y014108D03*
X008816Y014108D03*
X008826Y014118D03*
X008836Y014118D03*
X008846Y014128D03*
X008856Y014128D03*
X008866Y014138D03*
X008886Y014148D03*
X008906Y014158D03*
X008926Y014168D03*
X008946Y014178D03*
X008956Y014188D03*
X008966Y014188D03*
X008976Y014198D03*
X008986Y014198D03*
X008996Y014208D03*
X009016Y014218D03*
X009036Y014228D03*
X009056Y014238D03*
X009066Y014248D03*
X009076Y014248D03*
X009086Y014258D03*
X009096Y014258D03*
X009106Y014268D03*
X009116Y014268D03*
X009126Y014278D03*
X009146Y014288D03*
X009166Y014298D03*
X009186Y014308D03*
X009196Y014318D03*
X009206Y014318D03*
X009216Y014328D03*
X009226Y014328D03*
X009236Y014338D03*
X009246Y014338D03*
X009256Y014348D03*
X009276Y014358D03*
X009296Y014368D03*
X009316Y014378D03*
X009336Y014388D03*
X009346Y014398D03*
X009356Y014398D03*
X009366Y014408D03*
X009376Y014408D03*
X009386Y014418D03*
X009406Y014428D03*
X009426Y014438D03*
X009446Y014448D03*
X009466Y014458D03*
X009476Y014468D03*
X009486Y014468D03*
X009496Y014478D03*
X009326Y013408D03*
X009116Y013448D03*
X009106Y013448D03*
X009096Y013448D03*
X008906Y013178D03*
X008786Y013218D03*
X008776Y013218D03*
X007616Y013468D03*
X014309Y017996D03*
X014409Y018046D03*
X014429Y018056D03*
X014449Y018066D03*
X014469Y018076D03*
X014479Y018086D03*
X014489Y018086D03*
X014499Y018096D03*
X014519Y018106D03*
X014539Y018116D03*
X014559Y018126D03*
X014579Y018136D03*
X014599Y018146D03*
X014609Y018156D03*
X014619Y018156D03*
X014629Y018166D03*
X014649Y018176D03*
X014669Y018186D03*
X014689Y018196D03*
X014709Y018206D03*
X014719Y018216D03*
X014729Y018216D03*
X014739Y018226D03*
X014749Y018226D03*
X014759Y018236D03*
X014779Y018246D03*
X014799Y018256D03*
X014819Y018266D03*
X014829Y018276D03*
X014839Y018276D03*
X014849Y018286D03*
X014859Y018286D03*
X014869Y018296D03*
X014879Y018296D03*
X014889Y018306D03*
X014899Y018306D03*
X014909Y018316D03*
X014929Y018326D03*
X014949Y018336D03*
X014969Y018346D03*
X014979Y018356D03*
X014989Y018356D03*
X014999Y018366D03*
X015009Y018366D03*
X015019Y018376D03*
X015029Y018376D03*
X015039Y018386D03*
X015059Y018396D03*
X015079Y018406D03*
X015089Y018416D03*
X015099Y018416D03*
X015119Y018426D03*
X015129Y018436D03*
X015139Y018436D03*
X015149Y018446D03*
X015159Y018446D03*
X015169Y018456D03*
X015189Y018466D03*
X015209Y018476D03*
X015229Y018486D03*
X015249Y018496D03*
X015259Y018506D03*
X015269Y018506D03*
X015279Y018516D03*
X015289Y018516D03*
X015299Y018526D03*
X015319Y018536D03*
X015339Y018546D03*
X015359Y018556D03*
X015379Y018566D03*
X015389Y018576D03*
X015399Y018576D03*
X015409Y018586D03*
X015419Y018586D03*
X015429Y018596D03*
X015449Y018606D03*
X015469Y018616D03*
X015479Y018626D03*
X015489Y018626D03*
X015499Y018636D03*
X015509Y018636D03*
X015519Y018646D03*
X015529Y018646D03*
X015539Y018656D03*
X015549Y018656D03*
X015559Y018666D03*
X015579Y018676D03*
X015599Y018686D03*
X015619Y018696D03*
X015639Y018706D03*
X015649Y018716D03*
X015659Y018716D03*
X015669Y018726D03*
X015679Y018726D03*
X015689Y018736D03*
X015709Y018746D03*
X015729Y018756D03*
X015749Y018766D03*
X015759Y018776D03*
X015769Y018776D03*
X015779Y018786D03*
X015789Y018786D03*
X015799Y018796D03*
X015809Y018796D03*
X015819Y018806D03*
X015839Y018816D03*
X015859Y018826D03*
X015879Y018836D03*
X015889Y018846D03*
X015899Y018846D03*
X015909Y018856D03*
X015919Y018856D03*
X015929Y018866D03*
X015939Y018866D03*
X015949Y018876D03*
X015969Y018886D03*
X015989Y018896D03*
X016009Y018906D03*
X016029Y018916D03*
X016039Y018926D03*
X016049Y018926D03*
X016059Y018936D03*
X016069Y018936D03*
X016079Y018946D03*
X016099Y018956D03*
X016119Y018966D03*
X016139Y018976D03*
X016159Y018986D03*
X016169Y018996D03*
X016179Y018996D03*
X016189Y019006D03*
X016019Y017936D03*
X015809Y017976D03*
X015799Y017976D03*
X015789Y017976D03*
X015599Y017706D03*
X015479Y017746D03*
X015469Y017746D03*
X015209Y017486D03*
X015199Y017486D03*
X015189Y017496D03*
X015169Y017506D03*
X015149Y017516D03*
X015139Y017526D03*
X015119Y017536D03*
X015099Y017546D03*
X015079Y017556D03*
X015069Y017566D03*
X015059Y017566D03*
X015049Y017576D03*
X015029Y017586D03*
X015009Y017596D03*
X014989Y017606D03*
X014979Y017616D03*
X014959Y017626D03*
X014939Y017636D03*
X014919Y017646D03*
X014909Y017656D03*
X014889Y017666D03*
X014869Y017676D03*
X014849Y017686D03*
X014839Y017696D03*
X014829Y017696D03*
X014819Y017706D03*
X014799Y017716D03*
X014779Y017726D03*
X014759Y017736D03*
X014749Y017746D03*
X014729Y017756D03*
X014709Y017766D03*
X014689Y017776D03*
X014679Y017786D03*
X014659Y017796D03*
X014639Y017806D03*
X014619Y017816D03*
X014589Y017836D03*
X014569Y017846D03*
X014549Y017856D03*
X014539Y017866D03*
X014519Y017876D03*
X014499Y017886D03*
X014479Y017896D03*
X014469Y017906D03*
X014459Y017906D03*
X014449Y017916D03*
X014429Y017926D03*
X014409Y017936D03*
X015219Y017476D03*
X015239Y017466D03*
X015259Y017456D03*
X015269Y017446D03*
X015279Y017446D03*
X015289Y017436D03*
X015299Y017436D03*
X015309Y017426D03*
X015329Y017416D03*
X015349Y017406D03*
X015359Y017396D03*
X015369Y017396D03*
X015379Y017386D03*
X015399Y017376D03*
X015419Y017366D03*
X015429Y017356D03*
X015439Y017356D03*
X015449Y017346D03*
X015469Y017336D03*
X015489Y017326D03*
X015509Y017316D03*
X015519Y017306D03*
X015529Y017306D03*
X015539Y017296D03*
X015559Y017286D03*
X015579Y017276D03*
X015589Y017266D03*
X015599Y017266D03*
X015609Y017256D03*
X015629Y017246D03*
X015649Y017236D03*
X015659Y017226D03*
X015669Y017226D03*
X015679Y017216D03*
X015699Y017206D03*
X015719Y017196D03*
X015729Y017186D03*
X015739Y017186D03*
X015749Y017176D03*
X015769Y017166D03*
X015789Y017156D03*
X015799Y017146D03*
X015809Y017146D03*
X015839Y017126D03*
X015859Y017116D03*
X015879Y017106D03*
X015899Y017096D03*
X015909Y017086D03*
X015929Y017076D03*
X015949Y017066D03*
X015959Y017056D03*
X015969Y017056D03*
X015979Y017046D03*
X015999Y017036D03*
X016019Y017026D03*
X016039Y017016D03*
X016049Y017006D03*
X016069Y016996D03*
X016089Y016986D03*
X016109Y016976D03*
X016119Y016966D03*
X016129Y016966D03*
X016139Y016956D03*
X016159Y016946D03*
X016179Y016936D03*
X016189Y016926D03*
X011268Y020272D03*
X011258Y020282D03*
X011238Y020292D03*
X011218Y020302D03*
X011208Y020312D03*
X011198Y020312D03*
X011188Y020322D03*
X011168Y020332D03*
X011148Y020342D03*
X011128Y020352D03*
X011118Y020362D03*
X011098Y020372D03*
X011078Y020382D03*
X011058Y020392D03*
X011048Y020402D03*
X011038Y020402D03*
X011028Y020412D03*
X011008Y020422D03*
X010988Y020432D03*
X010978Y020442D03*
X010958Y020452D03*
X010938Y020462D03*
X010918Y020472D03*
X010888Y020492D03*
X010878Y020492D03*
X010868Y020502D03*
X010848Y020512D03*
X010828Y020522D03*
X010818Y020532D03*
X010808Y020532D03*
X010798Y020542D03*
X010778Y020552D03*
X010758Y020562D03*
X010748Y020572D03*
X010738Y020572D03*
X010728Y020582D03*
X010708Y020592D03*
X010688Y020602D03*
X010678Y020612D03*
X010668Y020612D03*
X010658Y020622D03*
X010638Y020632D03*
X010618Y020642D03*
X010608Y020652D03*
X010598Y020652D03*
X010588Y020662D03*
X010568Y020672D03*
X010548Y020682D03*
X010528Y020692D03*
X010518Y020702D03*
X010508Y020702D03*
X010498Y020712D03*
X010478Y020722D03*
X010458Y020732D03*
X010448Y020742D03*
X010438Y020742D03*
X010428Y020752D03*
X010408Y020762D03*
X010388Y020772D03*
X010378Y020782D03*
X010368Y020782D03*
X010358Y020792D03*
X010348Y020792D03*
X010338Y020802D03*
X010318Y020812D03*
X010298Y020822D03*
X010288Y020832D03*
X010278Y020832D03*
X010268Y020842D03*
X010248Y020852D03*
X010228Y020862D03*
X010218Y020872D03*
X010198Y020882D03*
X010178Y020892D03*
X010158Y020902D03*
X010148Y020912D03*
X010138Y020912D03*
X010128Y020922D03*
X010108Y020932D03*
X010088Y020942D03*
X010068Y020952D03*
X010058Y020962D03*
X010038Y020972D03*
X010018Y020982D03*
X009998Y020992D03*
X009988Y021002D03*
X009968Y021012D03*
X009948Y021022D03*
X009928Y021032D03*
X009918Y021042D03*
X009908Y021042D03*
X009898Y021052D03*
X009878Y021062D03*
X009858Y021072D03*
X009838Y021082D03*
X009828Y021092D03*
X009808Y021102D03*
X009788Y021112D03*
X009768Y021122D03*
X009758Y021132D03*
X009738Y021142D03*
X009718Y021152D03*
X009698Y021162D03*
X009668Y021182D03*
X009648Y021192D03*
X009628Y021202D03*
X009618Y021212D03*
X009598Y021222D03*
X009578Y021232D03*
X009558Y021242D03*
X009548Y021252D03*
X009538Y021252D03*
X009528Y021262D03*
X009508Y021272D03*
X009488Y021282D03*
X009488Y021392D03*
X009508Y021402D03*
X009528Y021412D03*
X009548Y021422D03*
X009558Y021432D03*
X009568Y021432D03*
X009578Y021442D03*
X009598Y021452D03*
X009618Y021462D03*
X009638Y021472D03*
X009658Y021482D03*
X009678Y021492D03*
X009688Y021502D03*
X009698Y021502D03*
X009708Y021512D03*
X009728Y021522D03*
X009748Y021532D03*
X009768Y021542D03*
X009788Y021552D03*
X009798Y021562D03*
X009808Y021562D03*
X009818Y021572D03*
X009828Y021572D03*
X009838Y021582D03*
X009858Y021592D03*
X009878Y021602D03*
X009898Y021612D03*
X009908Y021622D03*
X009918Y021622D03*
X009928Y021632D03*
X009938Y021632D03*
X009948Y021642D03*
X009958Y021642D03*
X009968Y021652D03*
X009978Y021652D03*
X009988Y021662D03*
X010008Y021672D03*
X010028Y021682D03*
X010048Y021692D03*
X010058Y021702D03*
X010068Y021702D03*
X010078Y021712D03*
X010088Y021712D03*
X010098Y021722D03*
X010108Y021722D03*
X010118Y021732D03*
X010138Y021742D03*
X010158Y021752D03*
X010168Y021762D03*
X010178Y021762D03*
X010198Y021772D03*
X010208Y021782D03*
X010218Y021782D03*
X010228Y021792D03*
X010238Y021792D03*
X010248Y021802D03*
X010268Y021812D03*
X010288Y021822D03*
X010308Y021832D03*
X010328Y021842D03*
X010338Y021852D03*
X010348Y021852D03*
X010358Y021862D03*
X010368Y021862D03*
X010378Y021872D03*
X010398Y021882D03*
X010418Y021892D03*
X010438Y021902D03*
X010458Y021912D03*
X010468Y021922D03*
X010478Y021922D03*
X010488Y021932D03*
X010498Y021932D03*
X010508Y021942D03*
X010528Y021952D03*
X010548Y021962D03*
X010558Y021972D03*
X010568Y021972D03*
X010578Y021982D03*
X010588Y021982D03*
X010598Y021992D03*
X010608Y021992D03*
X010618Y022002D03*
X010628Y022002D03*
X010638Y022012D03*
X010658Y022022D03*
X010678Y022032D03*
X010698Y022042D03*
X010718Y022052D03*
X010728Y022062D03*
X010738Y022062D03*
X010748Y022072D03*
X010758Y022072D03*
X010768Y022082D03*
X010788Y022092D03*
X010808Y022102D03*
X010828Y022112D03*
X010838Y022122D03*
X010848Y022122D03*
X010858Y022132D03*
X010868Y022132D03*
X010878Y022142D03*
X010888Y022142D03*
X010898Y022152D03*
X010918Y022162D03*
X010938Y022172D03*
X010958Y022182D03*
X010968Y022192D03*
X010978Y022192D03*
X010988Y022202D03*
X010998Y022202D03*
X011008Y022212D03*
X011018Y022212D03*
X011028Y022222D03*
X011048Y022232D03*
X011068Y022242D03*
X011088Y022252D03*
X011108Y022262D03*
X011118Y022272D03*
X011128Y022272D03*
X011138Y022282D03*
X011148Y022282D03*
X011158Y022292D03*
X011178Y022302D03*
X011198Y022312D03*
X011218Y022322D03*
X011238Y022332D03*
X011248Y022342D03*
X011258Y022342D03*
X011268Y022352D03*
X011098Y021282D03*
X010888Y021322D03*
X010878Y021322D03*
X010868Y021322D03*
X010678Y021052D03*
X010558Y021092D03*
X010548Y021092D03*
X009388Y021342D03*
D18*
X009398Y021337D03*
X009498Y021277D03*
X009518Y021267D03*
X009568Y021237D03*
X009588Y021227D03*
X009608Y021217D03*
X009638Y021197D03*
X009658Y021187D03*
X009678Y021177D03*
X009688Y021167D03*
X009708Y021157D03*
X009728Y021147D03*
X009748Y021137D03*
X009778Y021117D03*
X009798Y021107D03*
X009818Y021097D03*
X009848Y021077D03*
X009868Y021067D03*
X009888Y021057D03*
X009938Y021027D03*
X009958Y021017D03*
X009978Y021007D03*
X010008Y020987D03*
X010028Y020977D03*
X010048Y020967D03*
X010078Y020947D03*
X010098Y020937D03*
X010118Y020927D03*
X010168Y020897D03*
X010188Y020887D03*
X010208Y020877D03*
X010238Y020857D03*
X010258Y020847D03*
X010308Y020817D03*
X010328Y020807D03*
X010398Y020767D03*
X010418Y020757D03*
X010468Y020727D03*
X010488Y020717D03*
X010538Y020687D03*
X010558Y020677D03*
X010578Y020667D03*
X010628Y020637D03*
X010648Y020627D03*
X010698Y020597D03*
X010718Y020587D03*
X010768Y020557D03*
X010788Y020547D03*
X010838Y020517D03*
X010858Y020507D03*
X010898Y020487D03*
X010908Y020477D03*
X010928Y020467D03*
X010948Y020457D03*
X010968Y020447D03*
X010998Y020427D03*
X011018Y020417D03*
X011068Y020387D03*
X011088Y020377D03*
X011108Y020367D03*
X011138Y020347D03*
X011158Y020337D03*
X011178Y020327D03*
X011228Y020297D03*
X011248Y020287D03*
X010668Y021057D03*
X010538Y021097D03*
X010528Y021097D03*
X010518Y021107D03*
X010508Y021107D03*
X010498Y021107D03*
X010458Y021127D03*
X010398Y021457D03*
X010188Y021767D03*
X010148Y021747D03*
X010128Y021737D03*
X010038Y021687D03*
X010018Y021677D03*
X009998Y021667D03*
X009888Y021607D03*
X009868Y021597D03*
X009848Y021587D03*
X009778Y021547D03*
X009758Y021537D03*
X009738Y021527D03*
X009718Y021517D03*
X009668Y021487D03*
X009648Y021477D03*
X009628Y021467D03*
X009608Y021457D03*
X009588Y021447D03*
X009538Y021417D03*
X009518Y021407D03*
X009498Y021397D03*
X010258Y021807D03*
X010278Y021817D03*
X010298Y021827D03*
X010318Y021837D03*
X010388Y021877D03*
X010408Y021887D03*
X010428Y021897D03*
X010448Y021907D03*
X010518Y021947D03*
X010538Y021957D03*
X010648Y022017D03*
X010668Y022027D03*
X010688Y022037D03*
X010708Y022047D03*
X010778Y022087D03*
X010798Y022097D03*
X010818Y022107D03*
X010908Y022157D03*
X010928Y022167D03*
X010948Y022177D03*
X011038Y022227D03*
X011058Y022237D03*
X011078Y022247D03*
X011098Y022257D03*
X011168Y022297D03*
X011188Y022307D03*
X011208Y022317D03*
X011228Y022327D03*
X010858Y021327D03*
X010848Y021327D03*
X010838Y021327D03*
X010828Y021327D03*
X010798Y021337D03*
X011078Y021287D03*
X011088Y021287D03*
X014319Y017991D03*
X014419Y018051D03*
X014439Y018061D03*
X014459Y018071D03*
X014509Y018101D03*
X014529Y018111D03*
X014549Y018121D03*
X014569Y018131D03*
X014589Y018141D03*
X014639Y018171D03*
X014659Y018181D03*
X014679Y018191D03*
X014699Y018201D03*
X014769Y018241D03*
X014789Y018251D03*
X014809Y018261D03*
X014919Y018321D03*
X014939Y018331D03*
X014959Y018341D03*
X015049Y018391D03*
X015069Y018401D03*
X015109Y018421D03*
X015179Y018461D03*
X015199Y018471D03*
X015219Y018481D03*
X015239Y018491D03*
X015309Y018531D03*
X015329Y018541D03*
X015349Y018551D03*
X015369Y018561D03*
X015439Y018601D03*
X015459Y018611D03*
X015569Y018671D03*
X015589Y018681D03*
X015609Y018691D03*
X015629Y018701D03*
X015699Y018741D03*
X015719Y018751D03*
X015739Y018761D03*
X015829Y018811D03*
X015849Y018821D03*
X015869Y018831D03*
X015959Y018881D03*
X015979Y018891D03*
X015999Y018901D03*
X016019Y018911D03*
X016089Y018951D03*
X016109Y018961D03*
X016129Y018971D03*
X016149Y018981D03*
X015719Y017991D03*
X015749Y017981D03*
X015759Y017981D03*
X015769Y017981D03*
X015779Y017981D03*
X015999Y017941D03*
X016009Y017941D03*
X015589Y017711D03*
X015459Y017751D03*
X015449Y017751D03*
X015439Y017761D03*
X015429Y017761D03*
X015419Y017761D03*
X015379Y017781D03*
X015319Y018111D03*
X015039Y017581D03*
X015019Y017591D03*
X014999Y017601D03*
X014969Y017621D03*
X014949Y017631D03*
X014929Y017641D03*
X014899Y017661D03*
X014879Y017671D03*
X014859Y017681D03*
X014809Y017711D03*
X014789Y017721D03*
X014769Y017731D03*
X014739Y017751D03*
X014719Y017761D03*
X014699Y017771D03*
X014669Y017791D03*
X014649Y017801D03*
X014629Y017811D03*
X014609Y017821D03*
X014599Y017831D03*
X014579Y017841D03*
X014559Y017851D03*
X014529Y017871D03*
X014509Y017881D03*
X014489Y017891D03*
X014439Y017921D03*
X014419Y017931D03*
X015089Y017551D03*
X015109Y017541D03*
X015129Y017531D03*
X015159Y017511D03*
X015179Y017501D03*
X015229Y017471D03*
X015249Y017461D03*
X015319Y017421D03*
X015339Y017411D03*
X015389Y017381D03*
X015409Y017371D03*
X015459Y017341D03*
X015479Y017331D03*
X015499Y017321D03*
X015549Y017291D03*
X015569Y017281D03*
X015619Y017251D03*
X015639Y017241D03*
X015689Y017211D03*
X015709Y017201D03*
X015759Y017171D03*
X015779Y017161D03*
X015819Y017141D03*
X015829Y017131D03*
X015849Y017121D03*
X015869Y017111D03*
X015889Y017101D03*
X015919Y017081D03*
X015939Y017071D03*
X015989Y017041D03*
X016009Y017031D03*
X016029Y017021D03*
X016059Y017001D03*
X016079Y016991D03*
X016099Y016981D03*
X016149Y016951D03*
X016169Y016941D03*
X015362Y014256D03*
X015342Y014246D03*
X015322Y014236D03*
X015302Y014226D03*
X015232Y014186D03*
X015212Y014176D03*
X015192Y014166D03*
X015172Y014156D03*
X015082Y014106D03*
X015062Y014096D03*
X015042Y014086D03*
X014952Y014036D03*
X014932Y014026D03*
X014912Y014016D03*
X014842Y013976D03*
X014822Y013966D03*
X014802Y013956D03*
X014782Y013946D03*
X014672Y013886D03*
X014652Y013876D03*
X014582Y013836D03*
X014562Y013826D03*
X014542Y013816D03*
X014522Y013806D03*
X014452Y013766D03*
X014432Y013756D03*
X014412Y013746D03*
X014392Y013736D03*
X014322Y013696D03*
X014282Y013676D03*
X014262Y013666D03*
X014172Y013616D03*
X014152Y013606D03*
X014132Y013596D03*
X014022Y013536D03*
X014002Y013526D03*
X013982Y013516D03*
X013912Y013476D03*
X013892Y013466D03*
X013872Y013456D03*
X013852Y013446D03*
X013802Y013416D03*
X013782Y013406D03*
X013762Y013396D03*
X013742Y013386D03*
X013722Y013376D03*
X013672Y013346D03*
X013652Y013336D03*
X013632Y013326D03*
X013532Y013266D03*
X013632Y013206D03*
X013652Y013196D03*
X013702Y013166D03*
X013722Y013156D03*
X013742Y013146D03*
X013772Y013126D03*
X013792Y013116D03*
X013812Y013106D03*
X013822Y013096D03*
X013842Y013086D03*
X013862Y013076D03*
X013882Y013066D03*
X013912Y013046D03*
X013932Y013036D03*
X013952Y013026D03*
X013982Y013006D03*
X014002Y012996D03*
X014022Y012986D03*
X014072Y012956D03*
X014092Y012946D03*
X014112Y012936D03*
X014142Y012916D03*
X014162Y012906D03*
X014182Y012896D03*
X014212Y012876D03*
X014232Y012866D03*
X014252Y012856D03*
X014302Y012826D03*
X014322Y012816D03*
X014342Y012806D03*
X014372Y012786D03*
X014392Y012776D03*
X014442Y012746D03*
X014462Y012736D03*
X014532Y012696D03*
X014552Y012686D03*
X014602Y012656D03*
X014622Y012646D03*
X014672Y012616D03*
X014692Y012606D03*
X014712Y012596D03*
X014762Y012566D03*
X014782Y012556D03*
X014832Y012526D03*
X014852Y012516D03*
X014902Y012486D03*
X014922Y012476D03*
X014972Y012446D03*
X014992Y012436D03*
X015032Y012416D03*
X015042Y012406D03*
X015062Y012396D03*
X015082Y012386D03*
X015102Y012376D03*
X015132Y012356D03*
X015152Y012346D03*
X015202Y012316D03*
X015222Y012306D03*
X015242Y012296D03*
X015272Y012276D03*
X015292Y012266D03*
X015312Y012256D03*
X015362Y012226D03*
X015382Y012216D03*
X014802Y012986D03*
X014672Y013026D03*
X014662Y013026D03*
X014652Y013036D03*
X014642Y013036D03*
X014632Y013036D03*
X014592Y013056D03*
X014532Y013386D03*
X014932Y013266D03*
X014962Y013256D03*
X014972Y013256D03*
X014982Y013256D03*
X014992Y013256D03*
X015212Y013216D03*
X015222Y013216D03*
X016149Y008744D03*
X016129Y008734D03*
X016109Y008724D03*
X016089Y008714D03*
X016019Y008674D03*
X015999Y008664D03*
X015979Y008654D03*
X015959Y008644D03*
X015869Y008594D03*
X015849Y008584D03*
X015829Y008574D03*
X015739Y008524D03*
X015719Y008514D03*
X015699Y008504D03*
X015629Y008464D03*
X015609Y008454D03*
X015589Y008444D03*
X015569Y008434D03*
X015459Y008374D03*
X015439Y008364D03*
X015369Y008324D03*
X015349Y008314D03*
X015329Y008304D03*
X015309Y008294D03*
X015239Y008254D03*
X015219Y008244D03*
X015199Y008234D03*
X015179Y008224D03*
X015109Y008184D03*
X015069Y008164D03*
X015049Y008154D03*
X014959Y008104D03*
X014939Y008094D03*
X014919Y008084D03*
X014809Y008024D03*
X014789Y008014D03*
X014769Y008004D03*
X014699Y007964D03*
X014679Y007954D03*
X014659Y007944D03*
X014639Y007934D03*
X014589Y007904D03*
X014569Y007894D03*
X014549Y007884D03*
X014529Y007874D03*
X014509Y007864D03*
X014459Y007834D03*
X014439Y007824D03*
X014419Y007814D03*
X014319Y007754D03*
X014419Y007694D03*
X014439Y007684D03*
X014489Y007654D03*
X014509Y007644D03*
X014529Y007634D03*
X014559Y007614D03*
X014579Y007604D03*
X014599Y007594D03*
X014609Y007584D03*
X014629Y007574D03*
X014649Y007564D03*
X014669Y007554D03*
X014699Y007534D03*
X014719Y007524D03*
X014739Y007514D03*
X014769Y007494D03*
X014789Y007484D03*
X014809Y007474D03*
X014859Y007444D03*
X014879Y007434D03*
X014899Y007424D03*
X014929Y007404D03*
X014949Y007394D03*
X014969Y007384D03*
X014999Y007364D03*
X015019Y007354D03*
X015039Y007344D03*
X015089Y007314D03*
X015109Y007304D03*
X015129Y007294D03*
X015159Y007274D03*
X015179Y007264D03*
X015229Y007234D03*
X015249Y007224D03*
X015319Y007184D03*
X015339Y007174D03*
X015389Y007144D03*
X015409Y007134D03*
X015459Y007104D03*
X015479Y007094D03*
X015499Y007084D03*
X015549Y007054D03*
X015569Y007044D03*
X015619Y007014D03*
X015639Y007004D03*
X015689Y006974D03*
X015709Y006964D03*
X015759Y006934D03*
X015779Y006924D03*
X015819Y006904D03*
X015829Y006894D03*
X015849Y006884D03*
X015869Y006874D03*
X015889Y006864D03*
X015919Y006844D03*
X015939Y006834D03*
X015989Y006804D03*
X016009Y006794D03*
X016029Y006784D03*
X016059Y006764D03*
X016079Y006754D03*
X016099Y006744D03*
X016149Y006714D03*
X016169Y006704D03*
X015589Y007474D03*
X015459Y007514D03*
X015449Y007514D03*
X015439Y007524D03*
X015429Y007524D03*
X015419Y007524D03*
X015379Y007544D03*
X015319Y007874D03*
X015719Y007754D03*
X015749Y007744D03*
X015759Y007744D03*
X015769Y007744D03*
X015779Y007744D03*
X015999Y007704D03*
X016009Y007704D03*
X011228Y006185D03*
X011208Y006175D03*
X011188Y006165D03*
X011168Y006155D03*
X011098Y006115D03*
X011078Y006105D03*
X011058Y006095D03*
X011038Y006085D03*
X010948Y006035D03*
X010928Y006025D03*
X010908Y006015D03*
X010818Y005965D03*
X010798Y005955D03*
X010778Y005945D03*
X010708Y005905D03*
X010688Y005895D03*
X010668Y005885D03*
X010648Y005875D03*
X010538Y005815D03*
X010518Y005805D03*
X010448Y005765D03*
X010428Y005755D03*
X010408Y005745D03*
X010388Y005735D03*
X010318Y005695D03*
X010298Y005685D03*
X010278Y005675D03*
X010258Y005665D03*
X010188Y005625D03*
X010148Y005605D03*
X010128Y005595D03*
X010038Y005545D03*
X010018Y005535D03*
X009998Y005525D03*
X009888Y005465D03*
X009868Y005455D03*
X009848Y005445D03*
X009778Y005405D03*
X009758Y005395D03*
X009738Y005385D03*
X009718Y005375D03*
X009668Y005345D03*
X009648Y005335D03*
X009628Y005325D03*
X009608Y005315D03*
X009588Y005305D03*
X009538Y005275D03*
X009518Y005265D03*
X009498Y005255D03*
X009398Y005195D03*
X009498Y005135D03*
X009518Y005125D03*
X009568Y005095D03*
X009588Y005085D03*
X009608Y005075D03*
X009638Y005055D03*
X009658Y005045D03*
X009678Y005035D03*
X009688Y005025D03*
X009708Y005015D03*
X009728Y005005D03*
X009748Y004995D03*
X009778Y004975D03*
X009798Y004965D03*
X009818Y004955D03*
X009848Y004935D03*
X009868Y004925D03*
X009888Y004915D03*
X009938Y004885D03*
X009958Y004875D03*
X009978Y004865D03*
X010008Y004845D03*
X010028Y004835D03*
X010048Y004825D03*
X010078Y004805D03*
X010098Y004795D03*
X010118Y004785D03*
X010168Y004755D03*
X010188Y004745D03*
X010208Y004735D03*
X010238Y004715D03*
X010258Y004705D03*
X010308Y004675D03*
X010328Y004665D03*
X010398Y004625D03*
X010418Y004615D03*
X010468Y004585D03*
X010488Y004575D03*
X010538Y004545D03*
X010558Y004535D03*
X010578Y004525D03*
X010628Y004495D03*
X010648Y004485D03*
X010698Y004455D03*
X010718Y004445D03*
X010768Y004415D03*
X010788Y004405D03*
X010838Y004375D03*
X010858Y004365D03*
X010898Y004345D03*
X010908Y004335D03*
X010928Y004325D03*
X010948Y004315D03*
X010968Y004305D03*
X010998Y004285D03*
X011018Y004275D03*
X011068Y004245D03*
X011088Y004235D03*
X011108Y004225D03*
X011138Y004205D03*
X011158Y004195D03*
X011178Y004185D03*
X011228Y004155D03*
X011248Y004145D03*
X010668Y004915D03*
X010538Y004955D03*
X010528Y004955D03*
X010518Y004965D03*
X010508Y004965D03*
X010498Y004965D03*
X010458Y004985D03*
X010398Y005315D03*
X010798Y005195D03*
X010828Y005185D03*
X010838Y005185D03*
X010848Y005185D03*
X010858Y005185D03*
X011078Y005145D03*
X011088Y005145D03*
X009476Y012413D03*
X009456Y012423D03*
X009406Y012453D03*
X009386Y012463D03*
X009366Y012473D03*
X009336Y012493D03*
X009316Y012503D03*
X009296Y012513D03*
X009246Y012543D03*
X009226Y012553D03*
X009196Y012573D03*
X009176Y012583D03*
X009156Y012593D03*
X009136Y012603D03*
X009126Y012613D03*
X009086Y012633D03*
X009066Y012643D03*
X009016Y012673D03*
X008996Y012683D03*
X008946Y012713D03*
X008926Y012723D03*
X008876Y012753D03*
X008856Y012763D03*
X008806Y012793D03*
X008786Y012803D03*
X008766Y012813D03*
X008716Y012843D03*
X008696Y012853D03*
X008646Y012883D03*
X008626Y012893D03*
X008556Y012933D03*
X008536Y012943D03*
X008486Y012973D03*
X008466Y012983D03*
X008436Y013003D03*
X008416Y013013D03*
X008396Y013023D03*
X008346Y013053D03*
X008326Y013063D03*
X008306Y013073D03*
X008276Y013093D03*
X008256Y013103D03*
X008236Y013113D03*
X008206Y013133D03*
X008186Y013143D03*
X008166Y013153D03*
X008116Y013183D03*
X008096Y013193D03*
X008076Y013203D03*
X008046Y013223D03*
X008026Y013233D03*
X008006Y013243D03*
X007976Y013263D03*
X007956Y013273D03*
X007936Y013283D03*
X007916Y013293D03*
X007906Y013303D03*
X007886Y013313D03*
X007866Y013323D03*
X007836Y013343D03*
X007816Y013353D03*
X007796Y013363D03*
X007746Y013393D03*
X007726Y013403D03*
X007626Y013463D03*
X007726Y013523D03*
X007746Y013533D03*
X007766Y013543D03*
X007816Y013573D03*
X007836Y013583D03*
X007856Y013593D03*
X007876Y013603D03*
X007896Y013613D03*
X007946Y013643D03*
X007966Y013653D03*
X007986Y013663D03*
X008006Y013673D03*
X008076Y013713D03*
X008096Y013723D03*
X008116Y013733D03*
X008226Y013793D03*
X008246Y013803D03*
X008266Y013813D03*
X008356Y013863D03*
X008376Y013873D03*
X008416Y013893D03*
X008486Y013933D03*
X008506Y013943D03*
X008526Y013953D03*
X008546Y013963D03*
X008616Y014003D03*
X008636Y014013D03*
X008656Y014023D03*
X008676Y014033D03*
X008746Y014073D03*
X008766Y014083D03*
X008876Y014143D03*
X008896Y014153D03*
X008916Y014163D03*
X008936Y014173D03*
X009006Y014213D03*
X009026Y014223D03*
X009046Y014233D03*
X009136Y014283D03*
X009156Y014293D03*
X009176Y014303D03*
X009266Y014353D03*
X009286Y014363D03*
X009306Y014373D03*
X009326Y014383D03*
X009396Y014423D03*
X009416Y014433D03*
X009436Y014443D03*
X009456Y014453D03*
X009316Y013413D03*
X009306Y013413D03*
X009086Y013453D03*
X009076Y013453D03*
X009066Y013453D03*
X009056Y013453D03*
X009026Y013463D03*
X008896Y013183D03*
X008766Y013223D03*
X008756Y013223D03*
X008746Y013233D03*
X008736Y013233D03*
X008726Y013233D03*
X008686Y013253D03*
X008626Y013583D03*
D19*
X008956Y013128D03*
X009406Y013398D03*
X014862Y012931D03*
X015312Y013201D03*
X015649Y017656D03*
X016099Y017926D03*
X011178Y021272D03*
X010728Y021002D03*
X016099Y007689D03*
X015649Y007419D03*
X011178Y005130D03*
X010728Y004860D03*
D20*
X011168Y005125D03*
X010338Y005375D03*
X015259Y007934D03*
X016089Y007684D03*
X015302Y013196D03*
X014472Y013446D03*
X016089Y017921D03*
X015259Y018171D03*
X011168Y021267D03*
X010338Y021517D03*
X008566Y013643D03*
X009396Y013393D03*
D21*
X009386Y013398D03*
X008946Y013138D03*
X008576Y013628D03*
X014482Y013431D03*
X014852Y012941D03*
X015292Y013201D03*
X015639Y017666D03*
X016079Y017926D03*
X015269Y018156D03*
X011158Y021272D03*
X010718Y021012D03*
X010348Y021502D03*
X015269Y007919D03*
X015639Y007429D03*
X016079Y007689D03*
X011158Y005130D03*
X010718Y004870D03*
X010348Y005360D03*
D22*
X010358Y005355D03*
X011148Y005135D03*
X015279Y007914D03*
X016069Y007694D03*
X015282Y013206D03*
X014492Y013426D03*
X016069Y017931D03*
X015279Y018151D03*
X011148Y021277D03*
X010358Y021497D03*
X008586Y013623D03*
X009376Y013403D03*
D23*
X009366Y013398D03*
X008936Y013148D03*
X008926Y013158D03*
X014832Y012961D03*
X014842Y012951D03*
X015272Y013201D03*
X015629Y017676D03*
X015619Y017686D03*
X016059Y017926D03*
X011138Y021272D03*
X010708Y021022D03*
X010698Y021032D03*
X016059Y007689D03*
X015629Y007439D03*
X015619Y007449D03*
X011138Y005130D03*
X010708Y004880D03*
X010698Y004890D03*
D24*
X010368Y005345D03*
X011128Y005135D03*
X009368Y005195D03*
X014289Y007754D03*
X015289Y007904D03*
X016049Y007694D03*
X015262Y013206D03*
X014502Y013416D03*
X013502Y013266D03*
X009356Y013403D03*
X008596Y013613D03*
X007596Y013463D03*
X015289Y018141D03*
X016049Y017931D03*
X013896Y021534D03*
X011128Y021277D03*
X010368Y021487D03*
X009368Y021337D03*
D25*
X010378Y021472D03*
X010688Y021042D03*
X011108Y021282D03*
X011118Y021282D03*
X015299Y018126D03*
X015609Y017696D03*
X016029Y017936D03*
X016039Y017936D03*
X014512Y013401D03*
X014822Y012971D03*
X015242Y013211D03*
X015252Y013211D03*
X015299Y007889D03*
X015609Y007459D03*
X016029Y007699D03*
X016039Y007699D03*
X011118Y005140D03*
X011108Y005140D03*
X010688Y004900D03*
X010378Y005330D03*
X008916Y013168D03*
X009336Y013408D03*
X009346Y013408D03*
X008606Y013598D03*
D26*
X008636Y013268D03*
X008656Y013258D03*
X008666Y013258D03*
X008676Y013258D03*
X008696Y013248D03*
X008706Y013248D03*
X008716Y013238D03*
X008886Y013198D03*
X008986Y013468D03*
X008996Y013468D03*
X009006Y013468D03*
X009016Y013468D03*
X009036Y013458D03*
X009046Y013458D03*
X009296Y013418D03*
X014542Y013071D03*
X014562Y013061D03*
X014572Y013061D03*
X014582Y013061D03*
X014602Y013051D03*
X014612Y013051D03*
X014622Y013041D03*
X014792Y013001D03*
X014892Y013271D03*
X014902Y013271D03*
X014912Y013271D03*
X014922Y013271D03*
X014942Y013261D03*
X014952Y013261D03*
X015202Y013221D03*
X015579Y017726D03*
X015409Y017766D03*
X015399Y017776D03*
X015389Y017776D03*
X015369Y017786D03*
X015359Y017786D03*
X015349Y017786D03*
X015329Y017796D03*
X015679Y017996D03*
X015689Y017996D03*
X015699Y017996D03*
X015709Y017996D03*
X015729Y017986D03*
X015739Y017986D03*
X015989Y017946D03*
X011068Y021292D03*
X010818Y021332D03*
X010808Y021332D03*
X010788Y021342D03*
X010778Y021342D03*
X010768Y021342D03*
X010758Y021342D03*
X010658Y021072D03*
X010488Y021112D03*
X010478Y021122D03*
X010468Y021122D03*
X010448Y021132D03*
X010438Y021132D03*
X010428Y021132D03*
X010408Y021142D03*
X015679Y007759D03*
X015689Y007759D03*
X015699Y007759D03*
X015709Y007759D03*
X015729Y007749D03*
X015739Y007749D03*
X015989Y007709D03*
X015579Y007489D03*
X015409Y007529D03*
X015399Y007539D03*
X015389Y007539D03*
X015369Y007549D03*
X015359Y007549D03*
X015349Y007549D03*
X015329Y007559D03*
X011068Y005150D03*
X010818Y005190D03*
X010808Y005190D03*
X010788Y005200D03*
X010778Y005200D03*
X010768Y005200D03*
X010758Y005200D03*
X010658Y004930D03*
X010488Y004970D03*
X010478Y004980D03*
X010468Y004980D03*
X010448Y004990D03*
X010438Y004990D03*
X010428Y004990D03*
X010408Y005000D03*
D27*
X010348Y005020D03*
X010328Y005030D03*
X010318Y005030D03*
X010298Y005040D03*
X010288Y005040D03*
X010268Y005050D03*
X010238Y005060D03*
X010648Y004940D03*
X010688Y005210D03*
X010698Y005210D03*
X010708Y005210D03*
X010718Y005210D03*
X011058Y005150D03*
X015159Y007619D03*
X015189Y007609D03*
X015209Y007599D03*
X015219Y007599D03*
X015239Y007589D03*
X015249Y007589D03*
X015269Y007579D03*
X015569Y007499D03*
X015609Y007769D03*
X015619Y007769D03*
X015629Y007769D03*
X015639Y007769D03*
X015979Y007709D03*
X014782Y013011D03*
X014822Y013281D03*
X014832Y013281D03*
X014842Y013281D03*
X014852Y013281D03*
X015192Y013221D03*
X014482Y013091D03*
X014462Y013101D03*
X014452Y013101D03*
X014432Y013111D03*
X014422Y013111D03*
X014402Y013121D03*
X014372Y013131D03*
X015569Y017736D03*
X015609Y018006D03*
X015619Y018006D03*
X015629Y018006D03*
X015639Y018006D03*
X015979Y017946D03*
X015269Y017816D03*
X015249Y017826D03*
X015239Y017826D03*
X015219Y017836D03*
X015209Y017836D03*
X015189Y017846D03*
X015159Y017856D03*
X011058Y021292D03*
X010718Y021352D03*
X010708Y021352D03*
X010698Y021352D03*
X010688Y021352D03*
X010648Y021082D03*
X010348Y021162D03*
X010328Y021172D03*
X010318Y021172D03*
X010298Y021182D03*
X010288Y021182D03*
X010268Y021192D03*
X010238Y021202D03*
X008946Y013478D03*
X008936Y013478D03*
X008926Y013478D03*
X008916Y013478D03*
X008876Y013208D03*
X008576Y013288D03*
X008556Y013298D03*
X008546Y013298D03*
X008526Y013308D03*
X008516Y013308D03*
X008496Y013318D03*
X008466Y013328D03*
X009286Y013418D03*
D28*
X009276Y013423D03*
X009266Y013423D03*
X008906Y013483D03*
X008896Y013483D03*
X008886Y013483D03*
X008866Y013493D03*
X008856Y013493D03*
X008846Y013493D03*
X008656Y013553D03*
X008506Y013313D03*
X008486Y013323D03*
X008476Y013323D03*
X008456Y013333D03*
X008446Y013333D03*
X008426Y013343D03*
X008396Y013353D03*
X008866Y013213D03*
X007666Y013463D03*
X007656Y013463D03*
X013562Y013266D03*
X013572Y013266D03*
X014302Y013156D03*
X014332Y013146D03*
X014352Y013136D03*
X014362Y013136D03*
X014382Y013126D03*
X014392Y013126D03*
X014412Y013116D03*
X014562Y013356D03*
X014752Y013296D03*
X014762Y013296D03*
X014772Y013296D03*
X014792Y013286D03*
X014802Y013286D03*
X014812Y013286D03*
X014772Y013016D03*
X015172Y013226D03*
X015182Y013226D03*
X015559Y017741D03*
X015579Y018011D03*
X015589Y018011D03*
X015599Y018011D03*
X015559Y018021D03*
X015549Y018021D03*
X015539Y018021D03*
X015349Y018081D03*
X015199Y017841D03*
X015179Y017851D03*
X015169Y017851D03*
X015149Y017861D03*
X015139Y017861D03*
X015119Y017871D03*
X015089Y017881D03*
X014359Y017991D03*
X014349Y017991D03*
X015959Y017951D03*
X015969Y017951D03*
X011048Y021297D03*
X011038Y021297D03*
X010678Y021357D03*
X010668Y021357D03*
X010658Y021357D03*
X010638Y021367D03*
X010628Y021367D03*
X010618Y021367D03*
X010428Y021427D03*
X010278Y021187D03*
X010258Y021197D03*
X010248Y021197D03*
X010228Y021207D03*
X010218Y021207D03*
X010198Y021217D03*
X010168Y021227D03*
X010638Y021087D03*
X009438Y021337D03*
X009428Y021337D03*
X014349Y007754D03*
X014359Y007754D03*
X015089Y007644D03*
X015119Y007634D03*
X015139Y007624D03*
X015149Y007624D03*
X015169Y007614D03*
X015179Y007614D03*
X015199Y007604D03*
X015349Y007844D03*
X015539Y007784D03*
X015549Y007784D03*
X015559Y007784D03*
X015579Y007774D03*
X015589Y007774D03*
X015599Y007774D03*
X015559Y007504D03*
X015959Y007714D03*
X015969Y007714D03*
X011048Y005155D03*
X011038Y005155D03*
X010678Y005215D03*
X010668Y005215D03*
X010658Y005215D03*
X010638Y005225D03*
X010628Y005225D03*
X010618Y005225D03*
X010428Y005285D03*
X010278Y005045D03*
X010258Y005055D03*
X010248Y005055D03*
X010228Y005065D03*
X010218Y005065D03*
X010198Y005075D03*
X010168Y005085D03*
X010638Y004945D03*
X009438Y005195D03*
X009428Y005195D03*
D29*
X009448Y005195D03*
X009458Y005195D03*
X010028Y005135D03*
X010048Y005125D03*
X010058Y005125D03*
X010078Y005115D03*
X010088Y005115D03*
X010438Y005275D03*
X010448Y005265D03*
X010568Y005235D03*
X010578Y005236D03*
X010928Y005135D03*
X011028Y005155D03*
X014369Y007754D03*
X014379Y007754D03*
X014949Y007694D03*
X014969Y007684D03*
X014979Y007684D03*
X014999Y007674D03*
X015009Y007674D03*
X015359Y007834D03*
X015369Y007824D03*
X015489Y007794D03*
X015499Y007795D03*
X015849Y007694D03*
X015949Y007714D03*
X015062Y013206D03*
X015162Y013226D03*
X014712Y013307D03*
X014702Y013306D03*
X014582Y013336D03*
X014572Y013346D03*
X014222Y013186D03*
X014212Y013186D03*
X014192Y013196D03*
X014182Y013196D03*
X014162Y013206D03*
X013592Y013266D03*
X013582Y013266D03*
X009256Y013423D03*
X009156Y013403D03*
X008806Y013503D03*
X008796Y013503D03*
X008676Y013533D03*
X008666Y013543D03*
X008316Y013383D03*
X008306Y013383D03*
X008286Y013393D03*
X008276Y013393D03*
X008256Y013403D03*
X007686Y013463D03*
X007676Y013463D03*
X014369Y017991D03*
X014379Y017991D03*
X014949Y017931D03*
X014969Y017921D03*
X014979Y017921D03*
X014999Y017911D03*
X015009Y017911D03*
X015359Y018071D03*
X015369Y018061D03*
X015489Y018031D03*
X015499Y018031D03*
X015849Y017931D03*
X015949Y017951D03*
X011028Y021297D03*
X010928Y021277D03*
X010578Y021377D03*
X010568Y021377D03*
X010448Y021407D03*
X010438Y021417D03*
X010088Y021257D03*
X010078Y021257D03*
X010058Y021267D03*
X010048Y021267D03*
X010028Y021277D03*
X009458Y021337D03*
X009448Y021337D03*
D30*
X009928Y021312D03*
X009958Y021302D03*
X009978Y021292D03*
X009988Y021292D03*
X010008Y021282D03*
X010018Y021282D03*
X010038Y021272D03*
X010618Y021112D03*
X011008Y021302D03*
X011018Y021302D03*
X014849Y017966D03*
X014879Y017956D03*
X014899Y017946D03*
X014909Y017946D03*
X014929Y017936D03*
X014939Y017936D03*
X014959Y017926D03*
X015539Y017766D03*
X015929Y017956D03*
X015939Y017956D03*
X015152Y013231D03*
X015142Y013231D03*
X014752Y013041D03*
X014172Y013201D03*
X014152Y013211D03*
X014142Y013211D03*
X014122Y013221D03*
X014112Y013221D03*
X014092Y013231D03*
X014062Y013241D03*
X009246Y013428D03*
X009236Y013428D03*
X008846Y013238D03*
X008266Y013398D03*
X008246Y013408D03*
X008236Y013408D03*
X008216Y013418D03*
X008206Y013418D03*
X008186Y013428D03*
X008156Y013438D03*
X014849Y007729D03*
X014879Y007719D03*
X014899Y007709D03*
X014909Y007709D03*
X014929Y007699D03*
X014939Y007699D03*
X014959Y007689D03*
X015539Y007529D03*
X015929Y007719D03*
X015939Y007719D03*
X011018Y005160D03*
X011008Y005160D03*
X010618Y004970D03*
X010038Y005130D03*
X010018Y005140D03*
X010008Y005140D03*
X009988Y005150D03*
X009978Y005150D03*
X009958Y005160D03*
X009928Y005170D03*
D31*
X009938Y005165D03*
X009948Y005165D03*
X009968Y005155D03*
X009998Y005145D03*
X009918Y005175D03*
X009908Y005175D03*
X009888Y005185D03*
X009878Y005185D03*
X009468Y005195D03*
X010458Y005255D03*
X010608Y004975D03*
X010998Y005165D03*
X014389Y007754D03*
X014799Y007744D03*
X014809Y007744D03*
X014829Y007734D03*
X014839Y007734D03*
X014859Y007724D03*
X014869Y007724D03*
X014889Y007714D03*
X014919Y007704D03*
X015379Y007814D03*
X015529Y007534D03*
X015919Y007724D03*
X014742Y013046D03*
X014592Y013326D03*
X014132Y013216D03*
X014102Y013226D03*
X014082Y013236D03*
X014072Y013236D03*
X014052Y013246D03*
X014042Y013246D03*
X014022Y013256D03*
X014012Y013256D03*
X013602Y013266D03*
X015132Y013236D03*
X015529Y017771D03*
X015379Y018051D03*
X014919Y017941D03*
X014889Y017951D03*
X014869Y017961D03*
X014859Y017961D03*
X014839Y017971D03*
X014829Y017971D03*
X014809Y017981D03*
X014799Y017981D03*
X014389Y017991D03*
X015919Y017961D03*
X010998Y021307D03*
X010608Y021117D03*
X010458Y021397D03*
X009998Y021287D03*
X009968Y021297D03*
X009948Y021307D03*
X009938Y021307D03*
X009918Y021317D03*
X009908Y021317D03*
X009888Y021327D03*
X009878Y021327D03*
X009468Y021337D03*
X008686Y013523D03*
X008836Y013243D03*
X009226Y013433D03*
X008226Y013413D03*
X008196Y013423D03*
X008176Y013433D03*
X008166Y013433D03*
X008146Y013443D03*
X008136Y013443D03*
X008116Y013453D03*
X008106Y013453D03*
X007696Y013463D03*
D32*
X007706Y013463D03*
X008696Y013513D03*
X008706Y013503D03*
X008826Y013253D03*
X009216Y013433D03*
X013612Y013266D03*
X014602Y013316D03*
X014612Y013306D03*
X014732Y013056D03*
X015122Y013236D03*
X015519Y017781D03*
X015399Y018031D03*
X015389Y018041D03*
X015909Y017961D03*
X014399Y017991D03*
X010988Y021307D03*
X010598Y021127D03*
X010478Y021377D03*
X010468Y021387D03*
X009478Y021337D03*
X014399Y007754D03*
X015389Y007804D03*
X015399Y007794D03*
X015519Y007544D03*
X015909Y007724D03*
X010988Y005165D03*
X010598Y004985D03*
X010478Y005235D03*
X010468Y005245D03*
X009478Y005195D03*
D33*
X010588Y005000D03*
X010968Y005170D03*
X010978Y005170D03*
X015509Y007559D03*
X015889Y007729D03*
X015899Y007729D03*
X014722Y013071D03*
X015102Y013241D03*
X015112Y013241D03*
X015509Y017796D03*
X015889Y017966D03*
X015899Y017966D03*
X010978Y021312D03*
X010968Y021312D03*
X010588Y021142D03*
X009206Y013438D03*
X009196Y013438D03*
X008816Y013268D03*
D34*
X008716Y013493D03*
X009186Y013443D03*
X014622Y013296D03*
X015092Y013246D03*
X015879Y017971D03*
X015409Y018021D03*
X010958Y021317D03*
X010488Y021367D03*
X015409Y007784D03*
X015879Y007734D03*
X010958Y005175D03*
X010488Y005225D03*
D35*
X010498Y005215D03*
X010568Y005015D03*
X010938Y005175D03*
X010948Y005175D03*
X015489Y007574D03*
X015419Y007774D03*
X015859Y007734D03*
X015869Y007734D03*
X014702Y013086D03*
X014632Y013286D03*
X015072Y013246D03*
X015082Y013246D03*
X015489Y017811D03*
X015419Y018011D03*
X015859Y017971D03*
X015869Y017971D03*
X010948Y021317D03*
X010938Y021317D03*
X010568Y021157D03*
X010498Y021357D03*
X009176Y013443D03*
X009166Y013443D03*
X008796Y013283D03*
X008726Y013483D03*
D36*
X008616Y013593D03*
X009126Y013443D03*
X009136Y013443D03*
X009146Y013443D03*
X009146Y013353D03*
X007606Y013463D03*
X013512Y013266D03*
X014522Y013396D03*
X015032Y013246D03*
X015042Y013246D03*
X015052Y013246D03*
X015052Y013156D03*
X015839Y017881D03*
X015839Y017971D03*
X015829Y017971D03*
X015819Y017971D03*
X015309Y018121D03*
X014299Y017991D03*
X010918Y021227D03*
X010918Y021317D03*
X010908Y021317D03*
X010898Y021317D03*
X010388Y021467D03*
X009378Y021337D03*
X014299Y007754D03*
X015309Y007884D03*
X015819Y007734D03*
X015829Y007734D03*
X015839Y007734D03*
X015839Y007644D03*
X010918Y005175D03*
X010908Y005175D03*
X010898Y005175D03*
X010918Y005085D03*
X010388Y005325D03*
X009378Y005195D03*
D37*
X009408Y005195D03*
X009418Y005195D03*
X009868Y005215D03*
X010308Y005035D03*
X010338Y005025D03*
X010358Y005015D03*
X010368Y005015D03*
X010375Y005005D03*
X010379Y005007D03*
X010388Y005005D03*
X010398Y005005D03*
X010418Y004995D03*
X010418Y005295D03*
X010408Y005305D03*
X010728Y005205D03*
X010738Y005205D03*
X010748Y005205D03*
X014329Y007754D03*
X014339Y007754D03*
X014789Y007774D03*
X015229Y007594D03*
X015259Y007584D03*
X015279Y007574D03*
X015289Y007574D03*
X015296Y007564D03*
X015302Y007565D03*
X015309Y007564D03*
X015319Y007564D03*
X015339Y007554D03*
X015339Y007854D03*
X015329Y007864D03*
X015649Y007764D03*
X015659Y007764D03*
X015669Y007764D03*
X014552Y013066D03*
X014532Y013076D03*
X014522Y013076D03*
X014514Y013077D03*
X014508Y013076D03*
X014502Y013086D03*
X014492Y013086D03*
X014472Y013096D03*
X014442Y013106D03*
X014552Y013366D03*
X014542Y013376D03*
X014862Y013276D03*
X014872Y013276D03*
X014882Y013276D03*
X014002Y013286D03*
X013552Y013266D03*
X013542Y013266D03*
X008976Y013473D03*
X008966Y013473D03*
X008956Y013473D03*
X008646Y013563D03*
X008636Y013573D03*
X008536Y013303D03*
X008566Y013293D03*
X008586Y013283D03*
X008596Y013283D03*
X008603Y013273D03*
X008610Y013273D03*
X008616Y013273D03*
X008626Y013273D03*
X008646Y013263D03*
X008096Y013483D03*
X007646Y013463D03*
X007636Y013463D03*
X014329Y017991D03*
X014339Y017991D03*
X014789Y018011D03*
X015229Y017831D03*
X015259Y017821D03*
X015279Y017811D03*
X015289Y017811D03*
X015296Y017801D03*
X015305Y017800D03*
X015309Y017801D03*
X015319Y017801D03*
X015339Y017791D03*
X015339Y018091D03*
X015329Y018101D03*
X015649Y018001D03*
X015659Y018001D03*
X015669Y018001D03*
X010748Y021347D03*
X010738Y021347D03*
X010728Y021347D03*
X010418Y021437D03*
X010408Y021447D03*
X010308Y021177D03*
X010338Y021167D03*
X010358Y021157D03*
X010368Y021157D03*
X010375Y021147D03*
X010380Y021147D03*
X010388Y021147D03*
X010398Y021147D03*
X010418Y021137D03*
X009868Y021357D03*
X009418Y021337D03*
X009408Y021337D03*
D38*
X010068Y021262D03*
X010098Y021252D03*
X010108Y021252D03*
X010118Y021242D03*
X010128Y021242D03*
X010138Y021242D03*
X010148Y021232D03*
X010158Y021232D03*
X010178Y021222D03*
X010188Y021222D03*
X010208Y021212D03*
X010586Y021372D03*
X010588Y021372D03*
X010598Y021372D03*
X010608Y021372D03*
X010648Y021362D03*
X010628Y021102D03*
X014989Y017916D03*
X015019Y017906D03*
X015029Y017906D03*
X015039Y017896D03*
X015049Y017896D03*
X015059Y017896D03*
X015069Y017886D03*
X015079Y017886D03*
X015099Y017876D03*
X015109Y017876D03*
X015129Y017866D03*
X015505Y018026D03*
X015509Y018026D03*
X015519Y018026D03*
X015529Y018026D03*
X015569Y018016D03*
X015549Y017756D03*
X014742Y013301D03*
X014732Y013301D03*
X014722Y013301D03*
X014782Y013291D03*
X014762Y013031D03*
X014342Y013141D03*
X014322Y013151D03*
X014312Y013151D03*
X014292Y013161D03*
X014282Y013161D03*
X014272Y013171D03*
X014262Y013171D03*
X014252Y013171D03*
X014242Y013181D03*
X014232Y013181D03*
X014202Y013191D03*
X008876Y013488D03*
X008836Y013498D03*
X008826Y013498D03*
X008816Y013498D03*
X008812Y013498D03*
X008856Y013228D03*
X008436Y013338D03*
X008416Y013348D03*
X008406Y013348D03*
X008386Y013358D03*
X008376Y013358D03*
X008366Y013368D03*
X008356Y013368D03*
X008346Y013368D03*
X008336Y013378D03*
X008326Y013378D03*
X008296Y013388D03*
X014989Y007679D03*
X015019Y007669D03*
X015029Y007669D03*
X015039Y007659D03*
X015049Y007659D03*
X015059Y007659D03*
X015069Y007649D03*
X015079Y007649D03*
X015099Y007639D03*
X015109Y007639D03*
X015129Y007629D03*
X015509Y007789D03*
X015519Y007789D03*
X015529Y007789D03*
X015569Y007779D03*
X015549Y007519D03*
X010648Y005220D03*
X010608Y005230D03*
X010598Y005230D03*
X010588Y005230D03*
X010628Y004960D03*
X010208Y005070D03*
X010188Y005080D03*
X010178Y005080D03*
X010158Y005090D03*
X010148Y005090D03*
X010138Y005100D03*
X010128Y005100D03*
X010118Y005100D03*
X010108Y005110D03*
X010098Y005110D03*
X010068Y005120D03*
D39*
X010578Y005010D03*
X015499Y007569D03*
X014712Y013081D03*
X015499Y017806D03*
X010578Y021152D03*
X008806Y013278D03*
D40*
X008786Y013428D03*
X014692Y013231D03*
X015479Y017956D03*
X010558Y021302D03*
X015479Y007719D03*
X010558Y005160D03*
D41*
X010548Y005165D03*
X015469Y007724D03*
X014682Y013236D03*
X015469Y017961D03*
X010548Y021307D03*
X008776Y013433D03*
D42*
X008766Y013448D03*
X014672Y013251D03*
X015459Y017976D03*
X010538Y021322D03*
X015459Y007739D03*
X010538Y005180D03*
D43*
X010528Y005190D03*
X015449Y007749D03*
X014662Y013261D03*
X015449Y017986D03*
X010528Y021332D03*
X008756Y013458D03*
D44*
X008746Y013463D03*
X014652Y013266D03*
X015439Y017991D03*
X010518Y021337D03*
X015439Y007754D03*
X010518Y005195D03*
D45*
X010508Y005210D03*
X015429Y007769D03*
X014642Y013281D03*
X015429Y018006D03*
X010508Y021352D03*
X008736Y013478D03*
D46*
X008126Y013448D03*
X008096Y013458D03*
X014002Y013261D03*
X014032Y013251D03*
X014819Y017976D03*
X014789Y017986D03*
X009898Y021322D03*
X009868Y021332D03*
X014789Y007749D03*
X014819Y007739D03*
X009898Y005180D03*
X009868Y005190D03*
D47*
X005612Y004990D02*
X005612Y021526D01*
X006557Y021526D02*
X006559Y021576D01*
X006565Y021626D01*
X006575Y021675D01*
X006589Y021723D01*
X006606Y021770D01*
X006627Y021815D01*
X006652Y021859D01*
X006680Y021900D01*
X006712Y021939D01*
X006746Y021976D01*
X006783Y022010D01*
X006823Y022040D01*
X006865Y022067D01*
X006909Y022091D01*
X006955Y022112D01*
X007002Y022128D01*
X007050Y022141D01*
X007100Y022150D01*
X007149Y022155D01*
X007200Y022156D01*
X007250Y022153D01*
X007299Y022146D01*
X007348Y022135D01*
X007396Y022120D01*
X007442Y022102D01*
X007487Y022080D01*
X007530Y022054D01*
X007571Y022025D01*
X007610Y021993D01*
X007646Y021958D01*
X007678Y021920D01*
X007708Y021880D01*
X007735Y021837D01*
X007758Y021793D01*
X007777Y021747D01*
X007793Y021699D01*
X007805Y021650D01*
X007813Y021601D01*
X007817Y021551D01*
X007817Y021501D01*
X007813Y021451D01*
X007805Y021402D01*
X007793Y021353D01*
X007777Y021305D01*
X007758Y021259D01*
X007735Y021215D01*
X007708Y021172D01*
X007678Y021132D01*
X007646Y021094D01*
X007610Y021059D01*
X007571Y021027D01*
X007530Y020998D01*
X007487Y020972D01*
X007442Y020950D01*
X007396Y020932D01*
X007348Y020917D01*
X007299Y020906D01*
X007250Y020899D01*
X007200Y020896D01*
X007149Y020897D01*
X007100Y020902D01*
X007050Y020911D01*
X007002Y020924D01*
X006955Y020940D01*
X006909Y020961D01*
X006865Y020985D01*
X006823Y021012D01*
X006783Y021042D01*
X006746Y021076D01*
X006712Y021113D01*
X006680Y021152D01*
X006652Y021193D01*
X006627Y021237D01*
X006606Y021282D01*
X006589Y021329D01*
X006575Y021377D01*
X006565Y021426D01*
X006559Y021476D01*
X006557Y021526D01*
X005612Y021526D02*
X005614Y021603D01*
X005620Y021680D01*
X005629Y021757D01*
X005642Y021833D01*
X005659Y021909D01*
X005680Y021983D01*
X005704Y022057D01*
X005732Y022129D01*
X005763Y022199D01*
X005798Y022268D01*
X005836Y022336D01*
X005877Y022401D01*
X005922Y022464D01*
X005970Y022525D01*
X006020Y022584D01*
X006073Y022640D01*
X006129Y022693D01*
X006188Y022743D01*
X006249Y022791D01*
X006312Y022836D01*
X006377Y022877D01*
X006445Y022915D01*
X006514Y022950D01*
X006584Y022981D01*
X006656Y023009D01*
X006730Y023033D01*
X006804Y023054D01*
X006880Y023071D01*
X006956Y023084D01*
X007033Y023093D01*
X007110Y023099D01*
X007187Y023101D01*
X023722Y023101D01*
X023092Y021526D02*
X023094Y021576D01*
X023100Y021626D01*
X023110Y021675D01*
X023124Y021723D01*
X023141Y021770D01*
X023162Y021815D01*
X023187Y021859D01*
X023215Y021900D01*
X023247Y021939D01*
X023281Y021976D01*
X023318Y022010D01*
X023358Y022040D01*
X023400Y022067D01*
X023444Y022091D01*
X023490Y022112D01*
X023537Y022128D01*
X023585Y022141D01*
X023635Y022150D01*
X023684Y022155D01*
X023735Y022156D01*
X023785Y022153D01*
X023834Y022146D01*
X023883Y022135D01*
X023931Y022120D01*
X023977Y022102D01*
X024022Y022080D01*
X024065Y022054D01*
X024106Y022025D01*
X024145Y021993D01*
X024181Y021958D01*
X024213Y021920D01*
X024243Y021880D01*
X024270Y021837D01*
X024293Y021793D01*
X024312Y021747D01*
X024328Y021699D01*
X024340Y021650D01*
X024348Y021601D01*
X024352Y021551D01*
X024352Y021501D01*
X024348Y021451D01*
X024340Y021402D01*
X024328Y021353D01*
X024312Y021305D01*
X024293Y021259D01*
X024270Y021215D01*
X024243Y021172D01*
X024213Y021132D01*
X024181Y021094D01*
X024145Y021059D01*
X024106Y021027D01*
X024065Y020998D01*
X024022Y020972D01*
X023977Y020950D01*
X023931Y020932D01*
X023883Y020917D01*
X023834Y020906D01*
X023785Y020899D01*
X023735Y020896D01*
X023684Y020897D01*
X023635Y020902D01*
X023585Y020911D01*
X023537Y020924D01*
X023490Y020940D01*
X023444Y020961D01*
X023400Y020985D01*
X023358Y021012D01*
X023318Y021042D01*
X023281Y021076D01*
X023247Y021113D01*
X023215Y021152D01*
X023187Y021193D01*
X023162Y021237D01*
X023141Y021282D01*
X023124Y021329D01*
X023110Y021377D01*
X023100Y021426D01*
X023094Y021476D01*
X023092Y021526D01*
X023722Y023101D02*
X023799Y023099D01*
X023876Y023093D01*
X023953Y023084D01*
X024029Y023071D01*
X024105Y023054D01*
X024179Y023033D01*
X024253Y023009D01*
X024325Y022981D01*
X024395Y022950D01*
X024464Y022915D01*
X024532Y022877D01*
X024597Y022836D01*
X024660Y022791D01*
X024721Y022743D01*
X024780Y022693D01*
X024836Y022640D01*
X024889Y022584D01*
X024939Y022525D01*
X024987Y022464D01*
X025032Y022401D01*
X025073Y022336D01*
X025111Y022268D01*
X025146Y022199D01*
X025177Y022129D01*
X025205Y022057D01*
X025229Y021983D01*
X025250Y021909D01*
X025267Y021833D01*
X025280Y021757D01*
X025289Y021680D01*
X025295Y021603D01*
X025297Y021526D01*
X025297Y004990D01*
X023092Y004990D02*
X023094Y005040D01*
X023100Y005090D01*
X023110Y005139D01*
X023124Y005187D01*
X023141Y005234D01*
X023162Y005279D01*
X023187Y005323D01*
X023215Y005364D01*
X023247Y005403D01*
X023281Y005440D01*
X023318Y005474D01*
X023358Y005504D01*
X023400Y005531D01*
X023444Y005555D01*
X023490Y005576D01*
X023537Y005592D01*
X023585Y005605D01*
X023635Y005614D01*
X023684Y005619D01*
X023735Y005620D01*
X023785Y005617D01*
X023834Y005610D01*
X023883Y005599D01*
X023931Y005584D01*
X023977Y005566D01*
X024022Y005544D01*
X024065Y005518D01*
X024106Y005489D01*
X024145Y005457D01*
X024181Y005422D01*
X024213Y005384D01*
X024243Y005344D01*
X024270Y005301D01*
X024293Y005257D01*
X024312Y005211D01*
X024328Y005163D01*
X024340Y005114D01*
X024348Y005065D01*
X024352Y005015D01*
X024352Y004965D01*
X024348Y004915D01*
X024340Y004866D01*
X024328Y004817D01*
X024312Y004769D01*
X024293Y004723D01*
X024270Y004679D01*
X024243Y004636D01*
X024213Y004596D01*
X024181Y004558D01*
X024145Y004523D01*
X024106Y004491D01*
X024065Y004462D01*
X024022Y004436D01*
X023977Y004414D01*
X023931Y004396D01*
X023883Y004381D01*
X023834Y004370D01*
X023785Y004363D01*
X023735Y004360D01*
X023684Y004361D01*
X023635Y004366D01*
X023585Y004375D01*
X023537Y004388D01*
X023490Y004404D01*
X023444Y004425D01*
X023400Y004449D01*
X023358Y004476D01*
X023318Y004506D01*
X023281Y004540D01*
X023247Y004577D01*
X023215Y004616D01*
X023187Y004657D01*
X023162Y004701D01*
X023141Y004746D01*
X023124Y004793D01*
X023110Y004841D01*
X023100Y004890D01*
X023094Y004940D01*
X023092Y004990D01*
X023722Y003415D02*
X023799Y003417D01*
X023876Y003423D01*
X023953Y003432D01*
X024029Y003445D01*
X024105Y003462D01*
X024179Y003483D01*
X024253Y003507D01*
X024325Y003535D01*
X024395Y003566D01*
X024464Y003601D01*
X024532Y003639D01*
X024597Y003680D01*
X024660Y003725D01*
X024721Y003773D01*
X024780Y003823D01*
X024836Y003876D01*
X024889Y003932D01*
X024939Y003991D01*
X024987Y004052D01*
X025032Y004115D01*
X025073Y004180D01*
X025111Y004248D01*
X025146Y004317D01*
X025177Y004387D01*
X025205Y004459D01*
X025229Y004533D01*
X025250Y004607D01*
X025267Y004683D01*
X025280Y004759D01*
X025289Y004836D01*
X025295Y004913D01*
X025297Y004990D01*
X023722Y003416D02*
X007187Y003416D01*
X006557Y004990D02*
X006559Y005040D01*
X006565Y005090D01*
X006575Y005139D01*
X006589Y005187D01*
X006606Y005234D01*
X006627Y005279D01*
X006652Y005323D01*
X006680Y005364D01*
X006712Y005403D01*
X006746Y005440D01*
X006783Y005474D01*
X006823Y005504D01*
X006865Y005531D01*
X006909Y005555D01*
X006955Y005576D01*
X007002Y005592D01*
X007050Y005605D01*
X007100Y005614D01*
X007149Y005619D01*
X007200Y005620D01*
X007250Y005617D01*
X007299Y005610D01*
X007348Y005599D01*
X007396Y005584D01*
X007442Y005566D01*
X007487Y005544D01*
X007530Y005518D01*
X007571Y005489D01*
X007610Y005457D01*
X007646Y005422D01*
X007678Y005384D01*
X007708Y005344D01*
X007735Y005301D01*
X007758Y005257D01*
X007777Y005211D01*
X007793Y005163D01*
X007805Y005114D01*
X007813Y005065D01*
X007817Y005015D01*
X007817Y004965D01*
X007813Y004915D01*
X007805Y004866D01*
X007793Y004817D01*
X007777Y004769D01*
X007758Y004723D01*
X007735Y004679D01*
X007708Y004636D01*
X007678Y004596D01*
X007646Y004558D01*
X007610Y004523D01*
X007571Y004491D01*
X007530Y004462D01*
X007487Y004436D01*
X007442Y004414D01*
X007396Y004396D01*
X007348Y004381D01*
X007299Y004370D01*
X007250Y004363D01*
X007200Y004360D01*
X007149Y004361D01*
X007100Y004366D01*
X007050Y004375D01*
X007002Y004388D01*
X006955Y004404D01*
X006909Y004425D01*
X006865Y004449D01*
X006823Y004476D01*
X006783Y004506D01*
X006746Y004540D01*
X006712Y004577D01*
X006680Y004616D01*
X006652Y004657D01*
X006627Y004701D01*
X006606Y004746D01*
X006589Y004793D01*
X006575Y004841D01*
X006565Y004890D01*
X006559Y004940D01*
X006557Y004990D01*
X005612Y004990D02*
X005614Y004913D01*
X005620Y004836D01*
X005629Y004759D01*
X005642Y004683D01*
X005659Y004607D01*
X005680Y004533D01*
X005704Y004459D01*
X005732Y004387D01*
X005763Y004317D01*
X005798Y004248D01*
X005836Y004180D01*
X005877Y004115D01*
X005922Y004052D01*
X005970Y003991D01*
X006020Y003932D01*
X006073Y003876D01*
X006129Y003823D01*
X006188Y003773D01*
X006249Y003725D01*
X006312Y003680D01*
X006377Y003639D01*
X006445Y003601D01*
X006514Y003566D01*
X006584Y003535D01*
X006656Y003507D01*
X006730Y003483D01*
X006804Y003462D01*
X006880Y003445D01*
X006956Y003432D01*
X007033Y003423D01*
X007110Y003417D01*
X007187Y003415D01*
D48*
X008808Y007943D02*
X008810Y007969D01*
X008816Y007995D01*
X008826Y008020D01*
X008839Y008043D01*
X008855Y008063D01*
X008875Y008081D01*
X008897Y008096D01*
X008920Y008108D01*
X008946Y008116D01*
X008972Y008120D01*
X008998Y008120D01*
X009024Y008116D01*
X009050Y008108D01*
X009074Y008096D01*
X009095Y008081D01*
X009115Y008063D01*
X009131Y008043D01*
X009144Y008020D01*
X009154Y007995D01*
X009160Y007969D01*
X009162Y007943D01*
X009160Y007917D01*
X009154Y007891D01*
X009144Y007866D01*
X009131Y007843D01*
X009115Y007823D01*
X009095Y007805D01*
X009073Y007790D01*
X009050Y007778D01*
X009024Y007770D01*
X008998Y007766D01*
X008972Y007766D01*
X008946Y007770D01*
X008920Y007778D01*
X008896Y007790D01*
X008875Y007805D01*
X008855Y007823D01*
X008839Y007843D01*
X008826Y007866D01*
X008816Y007891D01*
X008810Y007917D01*
X008808Y007943D01*
X008808Y009912D02*
X008810Y009938D01*
X008816Y009964D01*
X008826Y009989D01*
X008839Y010012D01*
X008855Y010032D01*
X008875Y010050D01*
X008897Y010065D01*
X008920Y010077D01*
X008946Y010085D01*
X008972Y010089D01*
X008998Y010089D01*
X009024Y010085D01*
X009050Y010077D01*
X009074Y010065D01*
X009095Y010050D01*
X009115Y010032D01*
X009131Y010012D01*
X009144Y009989D01*
X009154Y009964D01*
X009160Y009938D01*
X009162Y009912D01*
X009160Y009886D01*
X009154Y009860D01*
X009144Y009835D01*
X009131Y009812D01*
X009115Y009792D01*
X009095Y009774D01*
X009073Y009759D01*
X009050Y009747D01*
X009024Y009739D01*
X008998Y009735D01*
X008972Y009735D01*
X008946Y009739D01*
X008920Y009747D01*
X008896Y009759D01*
X008875Y009774D01*
X008855Y009792D01*
X008839Y009812D01*
X008826Y009835D01*
X008816Y009860D01*
X008810Y009886D01*
X008808Y009912D01*
X008869Y010896D02*
X008808Y011124D01*
X009163Y011124D01*
X009102Y010896D01*
X008796Y017419D02*
X008798Y017445D01*
X008804Y017471D01*
X008814Y017496D01*
X008827Y017519D01*
X008843Y017539D01*
X008863Y017557D01*
X008885Y017572D01*
X008908Y017584D01*
X008934Y017592D01*
X008960Y017596D01*
X008986Y017596D01*
X009012Y017592D01*
X009038Y017584D01*
X009062Y017572D01*
X009083Y017557D01*
X009103Y017539D01*
X009119Y017519D01*
X009132Y017496D01*
X009142Y017471D01*
X009148Y017445D01*
X009150Y017419D01*
X009148Y017393D01*
X009142Y017367D01*
X009132Y017342D01*
X009119Y017319D01*
X009103Y017299D01*
X009083Y017281D01*
X009061Y017266D01*
X009038Y017254D01*
X009012Y017246D01*
X008986Y017242D01*
X008960Y017242D01*
X008934Y017246D01*
X008908Y017254D01*
X008884Y017266D01*
X008863Y017281D01*
X008843Y017299D01*
X008827Y017319D01*
X008814Y017342D01*
X008804Y017367D01*
X008798Y017393D01*
X008796Y017419D01*
X008796Y019387D02*
X008798Y019413D01*
X008804Y019439D01*
X008814Y019464D01*
X008827Y019487D01*
X008843Y019507D01*
X008863Y019525D01*
X008885Y019540D01*
X008908Y019552D01*
X008934Y019560D01*
X008960Y019564D01*
X008986Y019564D01*
X009012Y019560D01*
X009038Y019552D01*
X009062Y019540D01*
X009083Y019525D01*
X009103Y019507D01*
X009119Y019487D01*
X009132Y019464D01*
X009142Y019439D01*
X009148Y019413D01*
X009150Y019387D01*
X009148Y019361D01*
X009142Y019335D01*
X009132Y019310D01*
X009119Y019287D01*
X009103Y019267D01*
X009083Y019249D01*
X009061Y019234D01*
X009038Y019222D01*
X009012Y019214D01*
X008986Y019210D01*
X008960Y019210D01*
X008934Y019214D01*
X008908Y019222D01*
X008884Y019234D01*
X008863Y019249D01*
X008843Y019267D01*
X008827Y019287D01*
X008814Y019310D01*
X008804Y019335D01*
X008798Y019361D01*
X008796Y019387D01*
X008857Y020372D02*
X008796Y020600D01*
X009150Y020600D01*
X009089Y020372D01*
X021854Y010305D02*
X021793Y010077D01*
X022147Y010077D01*
X022086Y010305D01*
X021793Y011290D02*
X021795Y011316D01*
X021801Y011342D01*
X021811Y011367D01*
X021824Y011390D01*
X021840Y011410D01*
X021860Y011428D01*
X021882Y011443D01*
X021905Y011455D01*
X021931Y011463D01*
X021957Y011467D01*
X021983Y011467D01*
X022009Y011463D01*
X022035Y011455D01*
X022059Y011443D01*
X022080Y011428D01*
X022100Y011410D01*
X022116Y011390D01*
X022129Y011367D01*
X022139Y011342D01*
X022145Y011316D01*
X022147Y011290D01*
X022145Y011264D01*
X022139Y011238D01*
X022129Y011213D01*
X022116Y011190D01*
X022100Y011170D01*
X022080Y011152D01*
X022058Y011137D01*
X022035Y011125D01*
X022009Y011117D01*
X021983Y011113D01*
X021957Y011113D01*
X021931Y011117D01*
X021905Y011125D01*
X021881Y011137D01*
X021860Y011152D01*
X021840Y011170D01*
X021824Y011190D01*
X021811Y011213D01*
X021801Y011238D01*
X021795Y011264D01*
X021793Y011290D01*
X021793Y013258D02*
X021795Y013284D01*
X021801Y013310D01*
X021811Y013335D01*
X021824Y013358D01*
X021840Y013378D01*
X021860Y013396D01*
X021882Y013411D01*
X021905Y013423D01*
X021931Y013431D01*
X021957Y013435D01*
X021983Y013435D01*
X022009Y013431D01*
X022035Y013423D01*
X022059Y013411D01*
X022080Y013396D01*
X022100Y013378D01*
X022116Y013358D01*
X022129Y013335D01*
X022139Y013310D01*
X022145Y013284D01*
X022147Y013258D01*
X022145Y013232D01*
X022139Y013206D01*
X022129Y013181D01*
X022116Y013158D01*
X022100Y013138D01*
X022080Y013120D01*
X022058Y013105D01*
X022035Y013093D01*
X022009Y013085D01*
X021983Y013081D01*
X021957Y013081D01*
X021931Y013085D01*
X021905Y013093D01*
X021881Y013105D01*
X021860Y013120D01*
X021840Y013138D01*
X021824Y013158D01*
X021811Y013181D01*
X021801Y013206D01*
X021795Y013232D01*
X021793Y013258D01*
X021793Y015227D02*
X021795Y015253D01*
X021801Y015279D01*
X021811Y015304D01*
X021824Y015327D01*
X021840Y015347D01*
X021860Y015365D01*
X021882Y015380D01*
X021905Y015392D01*
X021931Y015400D01*
X021957Y015404D01*
X021983Y015404D01*
X022009Y015400D01*
X022035Y015392D01*
X022059Y015380D01*
X022080Y015365D01*
X022100Y015347D01*
X022116Y015327D01*
X022129Y015304D01*
X022139Y015279D01*
X022145Y015253D01*
X022147Y015227D01*
X022145Y015201D01*
X022139Y015175D01*
X022129Y015150D01*
X022116Y015127D01*
X022100Y015107D01*
X022080Y015089D01*
X022058Y015074D01*
X022035Y015062D01*
X022009Y015054D01*
X021983Y015050D01*
X021957Y015050D01*
X021931Y015054D01*
X021905Y015062D01*
X021881Y015074D01*
X021860Y015089D01*
X021840Y015107D01*
X021824Y015127D01*
X021811Y015150D01*
X021801Y015175D01*
X021795Y015201D01*
X021793Y015227D01*
D49*
X024526Y015205D02*
X024977Y015205D01*
X024977Y015055D02*
X024977Y015355D01*
X024676Y015055D02*
X024526Y015205D01*
X006417Y017180D02*
X006417Y017480D01*
X006417Y017330D02*
X005966Y017330D01*
X006116Y017180D01*
X006429Y008005D02*
X006429Y007705D01*
X006429Y007855D02*
X005979Y007855D01*
X006129Y007705D01*
D50*
X018138Y007943D03*
X018138Y006943D03*
X018138Y008943D03*
X021038Y008943D03*
X021038Y007943D03*
X021038Y006943D03*
X021038Y017573D03*
X021038Y018573D03*
X021038Y019573D03*
X018138Y019573D03*
X018138Y018573D03*
X018138Y017573D03*
D51*
X019003Y018452D02*
X019073Y018382D01*
X019213Y018382D01*
X019284Y018452D01*
X019284Y018732D01*
X019213Y018802D01*
X019073Y018802D01*
X019003Y018732D01*
X019003Y018452D01*
X019464Y018522D02*
X019744Y018802D01*
X019924Y018662D02*
X020064Y018802D01*
X020064Y018382D01*
X019924Y018382D02*
X020204Y018382D01*
X019744Y018382D02*
X019534Y018592D01*
X019464Y018802D02*
X019464Y018382D01*
X017228Y020516D02*
X017228Y020936D01*
X017018Y020726D01*
X017298Y020726D01*
X016838Y020726D02*
X016768Y020656D01*
X016558Y020656D01*
X016698Y020656D02*
X016838Y020516D01*
X016838Y020726D02*
X016838Y020866D01*
X016768Y020936D01*
X016558Y020936D01*
X016558Y020516D01*
X019964Y020805D02*
X020385Y020805D01*
X020385Y021085D01*
X020385Y021265D02*
X020385Y021545D01*
X020385Y021725D02*
X019964Y021725D01*
X019964Y021936D01*
X020035Y022006D01*
X020315Y022006D01*
X020385Y021936D01*
X020385Y021725D01*
X020175Y021405D02*
X020175Y021265D01*
X020385Y021265D02*
X019964Y021265D01*
X019964Y021545D01*
X020105Y022186D02*
X019964Y022326D01*
X020385Y022326D01*
X020385Y022186D02*
X020385Y022466D01*
X022585Y018747D02*
X022515Y018677D01*
X022515Y018537D01*
X022585Y018467D01*
X022585Y018287D02*
X022725Y018287D01*
X022795Y018217D01*
X022795Y018007D01*
X022795Y018147D02*
X022935Y018287D01*
X022935Y018467D02*
X022655Y018747D01*
X022585Y018747D01*
X022935Y018747D02*
X022935Y018467D01*
X022585Y018287D02*
X022515Y018217D01*
X022515Y018007D01*
X022935Y018007D01*
X023696Y018007D02*
X023696Y018217D01*
X023766Y018287D01*
X023906Y018287D01*
X023976Y018217D01*
X023976Y018007D01*
X023976Y018147D02*
X024116Y018287D01*
X024116Y018467D02*
X024116Y018747D01*
X024116Y018607D02*
X023696Y018607D01*
X023836Y018467D01*
X023696Y018007D02*
X024116Y018007D01*
X017220Y013839D02*
X017220Y013769D01*
X017150Y013698D01*
X017220Y013628D01*
X017220Y013558D01*
X017150Y013488D01*
X017010Y013488D01*
X016939Y013558D01*
X016759Y013488D02*
X016619Y013628D01*
X016689Y013628D02*
X016479Y013628D01*
X016479Y013488D02*
X016479Y013909D01*
X016689Y013909D01*
X016759Y013839D01*
X016759Y013698D01*
X016689Y013628D01*
X016939Y013839D02*
X017010Y013909D01*
X017150Y013909D01*
X017220Y013839D01*
X017150Y013698D02*
X017080Y013698D01*
X017076Y011587D02*
X017216Y011587D01*
X017286Y011517D01*
X017286Y011447D01*
X017216Y011377D01*
X017076Y011377D01*
X017006Y011447D01*
X017006Y011517D01*
X017076Y011587D01*
X017076Y011377D02*
X017006Y011307D01*
X017006Y011237D01*
X017076Y011167D01*
X017216Y011167D01*
X017286Y011237D01*
X017286Y011307D01*
X017216Y011377D01*
X016825Y011377D02*
X016755Y011307D01*
X016545Y011307D01*
X016545Y011167D02*
X016545Y011587D01*
X016755Y011587D01*
X016825Y011517D01*
X016825Y011377D01*
X016685Y011307D02*
X016825Y011167D01*
X019073Y008172D02*
X019003Y008102D01*
X019003Y007822D01*
X019073Y007752D01*
X019213Y007752D01*
X019284Y007822D01*
X019284Y008102D01*
X019213Y008172D01*
X019073Y008172D01*
X019464Y008172D02*
X019464Y007752D01*
X019464Y007892D02*
X019744Y008172D01*
X019924Y008102D02*
X019994Y008172D01*
X020134Y008172D01*
X020204Y008102D01*
X020204Y008032D01*
X019924Y007752D01*
X020204Y007752D01*
X019744Y007752D02*
X019534Y007962D01*
X020113Y005891D02*
X020043Y005821D01*
X020043Y005681D01*
X020113Y005611D01*
X020113Y005431D02*
X020043Y005361D01*
X020043Y005151D01*
X020464Y005151D01*
X020464Y005361D01*
X020393Y005431D01*
X020113Y005431D01*
X020464Y005611D02*
X020183Y005891D01*
X020113Y005891D01*
X020464Y005891D02*
X020464Y005611D01*
X020464Y004970D02*
X020464Y004690D01*
X020043Y004690D01*
X020043Y004970D01*
X020253Y004830D02*
X020253Y004690D01*
X020464Y004510D02*
X020464Y004230D01*
X020043Y004230D01*
X017286Y004431D02*
X017006Y004150D01*
X017006Y004080D01*
X016825Y004080D02*
X016685Y004221D01*
X016755Y004221D02*
X016545Y004221D01*
X016545Y004080D02*
X016545Y004501D01*
X016755Y004501D01*
X016825Y004431D01*
X016825Y004291D01*
X016755Y004221D01*
X017006Y004501D02*
X017286Y004501D01*
X017286Y004431D01*
X012934Y005546D02*
X012654Y005546D01*
X012934Y005826D01*
X012934Y005896D01*
X012864Y005967D01*
X012724Y005967D01*
X012654Y005896D01*
X012474Y005967D02*
X012194Y005967D01*
X012334Y005967D02*
X012334Y005546D01*
X022540Y007472D02*
X022540Y007682D01*
X022610Y007752D01*
X022750Y007752D01*
X022820Y007682D01*
X022820Y007472D01*
X022820Y007612D02*
X022960Y007752D01*
X022890Y007932D02*
X022960Y008002D01*
X022960Y008142D01*
X022890Y008212D01*
X022820Y008212D01*
X022750Y008142D01*
X022750Y007932D01*
X022890Y007932D01*
X022750Y007932D02*
X022610Y008072D01*
X022540Y008212D01*
X022540Y007472D02*
X022960Y007472D01*
X023721Y007472D02*
X023721Y007682D01*
X023791Y007752D01*
X023931Y007752D01*
X024001Y007682D01*
X024001Y007472D01*
X024001Y007612D02*
X024141Y007752D01*
X024071Y007932D02*
X024141Y008002D01*
X024141Y008142D01*
X024071Y008212D01*
X023931Y008212D01*
X023861Y008142D01*
X023861Y008072D01*
X023931Y007932D01*
X023721Y007932D01*
X023721Y008212D01*
X023721Y007472D02*
X024141Y007472D01*
X012540Y020704D02*
X012260Y020704D01*
X012400Y020704D02*
X012400Y021124D01*
X012260Y020984D01*
X012080Y021124D02*
X011800Y021124D01*
X011940Y021124D02*
X011940Y020704D01*
D52*
X021562Y020682D02*
X021562Y020772D01*
X021562Y020771D02*
X021616Y020773D01*
X021669Y020779D01*
X021722Y020789D01*
X021774Y020803D01*
X021825Y020820D01*
X021874Y020841D01*
X021922Y020865D01*
X021968Y020893D01*
X022012Y020924D01*
X022054Y020958D01*
X022093Y020994D01*
X022130Y021034D01*
X022163Y021076D01*
X022194Y021120D01*
X022221Y021166D01*
X022300Y021124D01*
X022272Y021075D01*
X022240Y021029D01*
X022205Y020984D01*
X022168Y020942D01*
X022127Y020902D01*
X022084Y020866D01*
X022039Y020832D01*
X021992Y020801D01*
X021942Y020774D01*
X021891Y020750D01*
X021839Y020729D01*
X021785Y020712D01*
X021730Y020699D01*
X021675Y020689D01*
X021618Y020683D01*
X021562Y020681D01*
X021562Y020690D01*
X021618Y020692D01*
X021673Y020698D01*
X021728Y020708D01*
X021783Y020721D01*
X021836Y020738D01*
X021888Y020758D01*
X021938Y020782D01*
X021987Y020809D01*
X022034Y020839D01*
X022079Y020873D01*
X022121Y020909D01*
X022161Y020948D01*
X022198Y020990D01*
X022233Y021034D01*
X022264Y021080D01*
X022292Y021128D01*
X022284Y021132D01*
X022256Y021085D01*
X022225Y021039D01*
X022191Y020996D01*
X022155Y020954D01*
X022115Y020916D01*
X022073Y020880D01*
X022029Y020847D01*
X021983Y020817D01*
X021934Y020790D01*
X021884Y020767D01*
X021833Y020746D01*
X021780Y020730D01*
X021727Y020717D01*
X021672Y020707D01*
X021617Y020701D01*
X021562Y020699D01*
X021562Y020708D01*
X021617Y020710D01*
X021671Y020716D01*
X021725Y020725D01*
X021778Y020738D01*
X021830Y020755D01*
X021881Y020775D01*
X021930Y020798D01*
X021978Y020825D01*
X022024Y020854D01*
X022068Y020887D01*
X022109Y020922D01*
X022148Y020961D01*
X022185Y021001D01*
X022218Y021044D01*
X022249Y021090D01*
X022276Y021137D01*
X022268Y021141D01*
X022241Y021094D01*
X022211Y021050D01*
X022178Y021007D01*
X022142Y020967D01*
X022103Y020929D01*
X022062Y020894D01*
X022019Y020862D01*
X021973Y020832D01*
X021926Y020806D01*
X021877Y020783D01*
X021827Y020763D01*
X021775Y020747D01*
X021723Y020734D01*
X021670Y020725D01*
X021616Y020719D01*
X021562Y020717D01*
X021562Y020726D01*
X021615Y020728D01*
X021668Y020734D01*
X021721Y020743D01*
X021773Y020756D01*
X021824Y020772D01*
X021874Y020791D01*
X021922Y020814D01*
X021969Y020840D01*
X022013Y020869D01*
X022056Y020901D01*
X022097Y020936D01*
X022135Y020973D01*
X022171Y021013D01*
X022204Y021055D01*
X022234Y021099D01*
X022261Y021145D01*
X022253Y021149D01*
X022226Y021104D01*
X022196Y021060D01*
X022164Y021019D01*
X022129Y020979D01*
X022091Y020942D01*
X022051Y020908D01*
X022008Y020876D01*
X021964Y020848D01*
X021918Y020822D01*
X021870Y020800D01*
X021821Y020780D01*
X021771Y020764D01*
X021719Y020752D01*
X021667Y020743D01*
X021615Y020737D01*
X021562Y020735D01*
X021562Y020744D01*
X021618Y020746D01*
X021673Y020753D01*
X021728Y020763D01*
X021782Y020777D01*
X021834Y020795D01*
X021886Y020816D01*
X021935Y020842D01*
X021983Y020870D01*
X022029Y020902D01*
X022072Y020937D01*
X022112Y020975D01*
X022150Y021016D01*
X022185Y021060D01*
X022216Y021106D01*
X022245Y021154D01*
X022237Y021158D01*
X022209Y021110D01*
X022178Y021065D01*
X022143Y021022D01*
X022106Y020982D01*
X022066Y020944D01*
X022023Y020909D01*
X021978Y020878D01*
X021931Y020849D01*
X021882Y020825D01*
X021831Y020803D01*
X021779Y020786D01*
X021726Y020772D01*
X021672Y020762D01*
X021617Y020755D01*
X021562Y020753D01*
X021562Y020762D01*
X021616Y020764D01*
X021670Y020770D01*
X021724Y020780D01*
X021776Y020794D01*
X021828Y020812D01*
X021878Y020833D01*
X021927Y020857D01*
X021973Y020885D01*
X022018Y020917D01*
X022060Y020951D01*
X022099Y020988D01*
X022136Y021028D01*
X022170Y021070D01*
X022201Y021115D01*
X022229Y021162D01*
X022288Y021949D02*
X022210Y021904D01*
X022210Y021905D02*
X022182Y021949D01*
X022151Y021991D01*
X022118Y022031D01*
X022082Y022069D01*
X022043Y022104D01*
X022002Y022136D01*
X021958Y022166D01*
X021913Y022192D01*
X021866Y022215D01*
X021818Y022235D01*
X021768Y022251D01*
X021718Y022264D01*
X021666Y022273D01*
X021614Y022279D01*
X021562Y022281D01*
X021561Y022370D01*
X021562Y022371D01*
X021617Y022369D01*
X021671Y022363D01*
X021726Y022354D01*
X021779Y022341D01*
X021831Y022325D01*
X021883Y022306D01*
X021933Y022283D01*
X021981Y022257D01*
X022028Y022228D01*
X022072Y022196D01*
X022115Y022161D01*
X022155Y022123D01*
X022192Y022083D01*
X022227Y022041D01*
X022259Y021996D01*
X022288Y021950D01*
X022280Y021945D01*
X022252Y021991D01*
X022220Y022035D01*
X022185Y022077D01*
X022148Y022117D01*
X022109Y022154D01*
X022067Y022189D01*
X022023Y022220D01*
X021977Y022249D01*
X021929Y022275D01*
X021879Y022297D01*
X021829Y022317D01*
X021777Y022333D01*
X021724Y022345D01*
X021670Y022354D01*
X021616Y022360D01*
X021562Y022362D01*
X021562Y022353D01*
X021616Y022351D01*
X021669Y022345D01*
X021722Y022336D01*
X021774Y022324D01*
X021826Y022308D01*
X021876Y022289D01*
X021925Y022267D01*
X021972Y022241D01*
X022018Y022213D01*
X022061Y022181D01*
X022103Y022147D01*
X022142Y022111D01*
X022179Y022071D01*
X022213Y022030D01*
X022244Y021986D01*
X022273Y021941D01*
X022265Y021936D01*
X022235Y021984D01*
X022201Y022030D01*
X022165Y022073D01*
X022125Y022114D01*
X022083Y022152D01*
X022039Y022187D01*
X021992Y022219D01*
X021943Y022247D01*
X021892Y022272D01*
X021839Y022294D01*
X021786Y022311D01*
X021731Y022325D01*
X021675Y022335D01*
X021619Y022342D01*
X021562Y022344D01*
X021562Y022335D01*
X021618Y022333D01*
X021674Y022327D01*
X021729Y022317D01*
X021783Y022303D01*
X021836Y022285D01*
X021888Y022264D01*
X021939Y022239D01*
X021987Y022211D01*
X022033Y022180D01*
X022078Y022145D01*
X022119Y022108D01*
X022158Y022067D01*
X022194Y022025D01*
X022227Y021979D01*
X022257Y021932D01*
X022249Y021927D01*
X022220Y021974D01*
X022187Y022019D01*
X022151Y022061D01*
X022113Y022101D01*
X022072Y022138D01*
X022028Y022173D01*
X021982Y022204D01*
X021934Y022231D01*
X021885Y022256D01*
X021833Y022277D01*
X021781Y022294D01*
X021727Y022308D01*
X021672Y022318D01*
X021617Y022324D01*
X021562Y022326D01*
X021562Y022317D01*
X021617Y022315D01*
X021671Y022309D01*
X021725Y022299D01*
X021778Y022285D01*
X021830Y022268D01*
X021881Y022248D01*
X021930Y022223D01*
X021977Y022196D01*
X022023Y022165D01*
X022066Y022132D01*
X022107Y022095D01*
X022145Y022055D01*
X022180Y022013D01*
X022212Y021969D01*
X022241Y021923D01*
X022233Y021918D01*
X022205Y021964D01*
X022173Y022008D01*
X022138Y022049D01*
X022100Y022088D01*
X022060Y022125D01*
X022018Y022158D01*
X021973Y022188D01*
X021926Y022216D01*
X021877Y022239D01*
X021827Y022260D01*
X021776Y022277D01*
X021723Y022290D01*
X021670Y022300D01*
X021616Y022306D01*
X021562Y022308D01*
X021562Y022299D01*
X021615Y022297D01*
X021669Y022291D01*
X021721Y022281D01*
X021773Y022268D01*
X021824Y022251D01*
X021874Y022231D01*
X021922Y022208D01*
X021968Y022181D01*
X022012Y022151D01*
X022054Y022118D01*
X022094Y022082D01*
X022131Y022043D01*
X022166Y022002D01*
X022197Y021959D01*
X022226Y021914D01*
X022218Y021909D01*
X022190Y021954D01*
X022159Y021997D01*
X022125Y022037D01*
X022088Y022075D01*
X022049Y022111D01*
X022007Y022143D01*
X021963Y022173D01*
X021917Y022200D01*
X021870Y022223D01*
X021821Y022243D01*
X021771Y022260D01*
X021719Y022273D01*
X021667Y022282D01*
X021615Y022288D01*
X021562Y022290D01*
X021553Y022370D02*
X021553Y022280D01*
X021552Y022281D02*
X021498Y022279D01*
X021445Y022273D01*
X021392Y022263D01*
X021340Y022249D01*
X021289Y022232D01*
X021239Y022211D01*
X021191Y022187D01*
X021145Y022159D01*
X021101Y022128D01*
X021060Y022094D01*
X021020Y022057D01*
X020984Y022018D01*
X020916Y022075D01*
X020915Y022076D01*
X020953Y022117D01*
X020993Y022155D01*
X021036Y022191D01*
X021081Y022224D01*
X021128Y022254D01*
X021176Y022280D01*
X021227Y022304D01*
X021279Y022324D01*
X021332Y022340D01*
X021386Y022354D01*
X021441Y022363D01*
X021496Y022369D01*
X021552Y022371D01*
X021552Y022362D01*
X021497Y022360D01*
X021442Y022354D01*
X021388Y022345D01*
X021334Y022332D01*
X021282Y022315D01*
X021230Y022296D01*
X021180Y022272D01*
X021132Y022246D01*
X021086Y022216D01*
X021041Y022184D01*
X020999Y022149D01*
X020959Y022110D01*
X020922Y022070D01*
X020929Y022064D01*
X020966Y022104D01*
X021005Y022142D01*
X021047Y022177D01*
X021091Y022209D01*
X021137Y022238D01*
X021185Y022264D01*
X021234Y022287D01*
X021285Y022307D01*
X021337Y022323D01*
X021390Y022336D01*
X021443Y022345D01*
X021498Y022351D01*
X021552Y022353D01*
X021552Y022344D01*
X021498Y022342D01*
X021445Y022336D01*
X021392Y022327D01*
X021339Y022314D01*
X021288Y022298D01*
X021237Y022279D01*
X021189Y022256D01*
X021141Y022231D01*
X021096Y022202D01*
X021052Y022170D01*
X021011Y022135D01*
X020972Y022098D01*
X020936Y022058D01*
X020943Y022052D01*
X020979Y022092D01*
X021017Y022129D01*
X021058Y022163D01*
X021101Y022194D01*
X021146Y022223D01*
X021193Y022248D01*
X021241Y022271D01*
X021291Y022290D01*
X021342Y022306D01*
X021393Y022318D01*
X021446Y022327D01*
X021499Y022333D01*
X021552Y022335D01*
X021552Y022326D01*
X021499Y022324D01*
X021447Y022318D01*
X021395Y022309D01*
X021344Y022297D01*
X021294Y022281D01*
X021244Y022262D01*
X021197Y022240D01*
X021150Y022215D01*
X021106Y022187D01*
X021064Y022156D01*
X021023Y022122D01*
X020985Y022085D01*
X020950Y022047D01*
X020956Y022041D01*
X020992Y022079D01*
X021029Y022115D01*
X021069Y022149D01*
X021111Y022179D01*
X021155Y022207D01*
X021201Y022232D01*
X021248Y022254D01*
X021297Y022273D01*
X021346Y022288D01*
X021397Y022301D01*
X021448Y022309D01*
X021500Y022315D01*
X021552Y022317D01*
X021552Y022308D01*
X021496Y022306D01*
X021441Y022299D01*
X021386Y022289D01*
X021332Y022275D01*
X021279Y022257D01*
X021228Y022235D01*
X021178Y022210D01*
X021130Y022181D01*
X021085Y022149D01*
X021042Y022114D01*
X021001Y022076D01*
X020963Y022035D01*
X020970Y022029D01*
X021007Y022070D01*
X021048Y022107D01*
X021090Y022142D01*
X021135Y022174D01*
X021183Y022202D01*
X021232Y022227D01*
X021283Y022249D01*
X021335Y022266D01*
X021388Y022280D01*
X021442Y022290D01*
X021497Y022297D01*
X021552Y022299D01*
X021552Y022290D01*
X021498Y022288D01*
X021444Y022282D01*
X021390Y022272D01*
X021337Y022258D01*
X021286Y022240D01*
X021236Y022219D01*
X021187Y022194D01*
X021140Y022166D01*
X021096Y022135D01*
X021054Y022101D01*
X021014Y022063D01*
X020977Y022023D01*
X020912Y020982D02*
X020981Y021039D01*
X020980Y021039D02*
X021017Y020999D01*
X021056Y020961D01*
X021098Y020927D01*
X021142Y020895D01*
X021188Y020867D01*
X021237Y020842D01*
X021287Y020821D01*
X021338Y020803D01*
X021391Y020790D01*
X021444Y020780D01*
X021498Y020773D01*
X021552Y020771D01*
X021553Y020682D01*
X021552Y020681D01*
X021496Y020683D01*
X021440Y020689D01*
X021385Y020699D01*
X021330Y020712D01*
X021277Y020729D01*
X021224Y020749D01*
X021173Y020773D01*
X021124Y020800D01*
X021077Y020831D01*
X021032Y020864D01*
X020989Y020900D01*
X020949Y020939D01*
X020911Y020981D01*
X020918Y020987D01*
X020955Y020946D01*
X020995Y020907D01*
X021037Y020871D01*
X021082Y020838D01*
X021129Y020808D01*
X021177Y020781D01*
X021228Y020758D01*
X021280Y020737D01*
X021333Y020721D01*
X021387Y020708D01*
X021441Y020698D01*
X021496Y020692D01*
X021552Y020690D01*
X021552Y020699D01*
X021497Y020701D01*
X021442Y020707D01*
X021388Y020716D01*
X021335Y020729D01*
X021283Y020746D01*
X021231Y020766D01*
X021182Y020789D01*
X021133Y020816D01*
X021087Y020845D01*
X021043Y020878D01*
X021001Y020914D01*
X020962Y020952D01*
X020925Y020993D01*
X020932Y020998D01*
X020968Y020958D01*
X021007Y020920D01*
X021049Y020885D01*
X021092Y020853D01*
X021138Y020823D01*
X021186Y020797D01*
X021235Y020774D01*
X021285Y020754D01*
X021337Y020738D01*
X021390Y020725D01*
X021444Y020716D01*
X021498Y020710D01*
X021552Y020708D01*
X021552Y020717D01*
X021498Y020719D01*
X021445Y020725D01*
X021392Y020734D01*
X021340Y020747D01*
X021288Y020763D01*
X021238Y020782D01*
X021190Y020805D01*
X021143Y020831D01*
X021097Y020860D01*
X021054Y020892D01*
X021013Y020927D01*
X020975Y020964D01*
X020939Y021004D01*
X020946Y021010D01*
X020981Y020971D01*
X021019Y020934D01*
X021060Y020899D01*
X021103Y020868D01*
X021147Y020839D01*
X021194Y020813D01*
X021242Y020791D01*
X021291Y020771D01*
X021342Y020755D01*
X021394Y020743D01*
X021446Y020734D01*
X021499Y020728D01*
X021552Y020726D01*
X021552Y020735D01*
X021500Y020737D01*
X021447Y020743D01*
X021396Y020752D01*
X021345Y020764D01*
X021294Y020780D01*
X021245Y020799D01*
X021198Y020821D01*
X021152Y020847D01*
X021108Y020875D01*
X021066Y020906D01*
X021025Y020940D01*
X020988Y020977D01*
X020953Y021016D01*
X020959Y021022D01*
X020994Y020983D01*
X021032Y020947D01*
X021071Y020913D01*
X021113Y020882D01*
X021157Y020854D01*
X021202Y020829D01*
X021249Y020807D01*
X021297Y020788D01*
X021347Y020773D01*
X021397Y020760D01*
X021449Y020752D01*
X021500Y020746D01*
X021552Y020744D01*
X021552Y020753D01*
X021501Y020755D01*
X021450Y020760D01*
X021399Y020769D01*
X021349Y020781D01*
X021300Y020797D01*
X021253Y020815D01*
X021206Y020837D01*
X021161Y020862D01*
X021118Y020890D01*
X021077Y020920D01*
X021038Y020953D01*
X021001Y020989D01*
X020966Y021027D01*
X020973Y021033D01*
X021010Y020992D01*
X021050Y020954D01*
X021092Y020920D01*
X021137Y020888D01*
X021184Y020859D01*
X021233Y020834D01*
X021284Y020813D01*
X021335Y020795D01*
X021389Y020781D01*
X021443Y020771D01*
X021497Y020764D01*
X021552Y020762D01*
X021562Y004146D02*
X021562Y004236D01*
X021562Y004235D02*
X021616Y004237D01*
X021669Y004243D01*
X021722Y004253D01*
X021774Y004267D01*
X021825Y004284D01*
X021874Y004305D01*
X021922Y004329D01*
X021968Y004357D01*
X022012Y004388D01*
X022054Y004422D01*
X022093Y004458D01*
X022130Y004498D01*
X022163Y004540D01*
X022194Y004584D01*
X022221Y004630D01*
X022300Y004588D01*
X022272Y004539D01*
X022240Y004493D01*
X022205Y004448D01*
X022168Y004406D01*
X022127Y004366D01*
X022084Y004330D01*
X022039Y004296D01*
X021992Y004265D01*
X021942Y004238D01*
X021891Y004214D01*
X021839Y004193D01*
X021785Y004176D01*
X021730Y004163D01*
X021675Y004153D01*
X021618Y004147D01*
X021562Y004145D01*
X021562Y004154D01*
X021618Y004156D01*
X021673Y004162D01*
X021728Y004172D01*
X021783Y004185D01*
X021836Y004202D01*
X021888Y004222D01*
X021938Y004246D01*
X021987Y004273D01*
X022034Y004303D01*
X022079Y004337D01*
X022121Y004373D01*
X022161Y004412D01*
X022198Y004454D01*
X022233Y004498D01*
X022264Y004544D01*
X022292Y004592D01*
X022284Y004596D01*
X022256Y004549D01*
X022225Y004503D01*
X022191Y004460D01*
X022155Y004418D01*
X022115Y004380D01*
X022073Y004344D01*
X022029Y004311D01*
X021983Y004281D01*
X021934Y004254D01*
X021884Y004231D01*
X021833Y004210D01*
X021780Y004194D01*
X021727Y004181D01*
X021672Y004171D01*
X021617Y004165D01*
X021562Y004163D01*
X021562Y004172D01*
X021617Y004174D01*
X021671Y004180D01*
X021725Y004189D01*
X021778Y004202D01*
X021830Y004219D01*
X021881Y004239D01*
X021930Y004262D01*
X021978Y004289D01*
X022024Y004318D01*
X022068Y004351D01*
X022109Y004386D01*
X022148Y004425D01*
X022185Y004465D01*
X022218Y004508D01*
X022249Y004554D01*
X022276Y004601D01*
X022268Y004605D01*
X022241Y004558D01*
X022211Y004514D01*
X022178Y004471D01*
X022142Y004431D01*
X022103Y004393D01*
X022062Y004358D01*
X022019Y004326D01*
X021973Y004296D01*
X021926Y004270D01*
X021877Y004247D01*
X021827Y004227D01*
X021775Y004211D01*
X021723Y004198D01*
X021670Y004189D01*
X021616Y004183D01*
X021562Y004181D01*
X021562Y004190D01*
X021615Y004192D01*
X021668Y004198D01*
X021721Y004207D01*
X021773Y004220D01*
X021824Y004236D01*
X021874Y004255D01*
X021922Y004278D01*
X021969Y004304D01*
X022013Y004333D01*
X022056Y004365D01*
X022097Y004400D01*
X022135Y004437D01*
X022171Y004477D01*
X022204Y004519D01*
X022234Y004563D01*
X022261Y004609D01*
X022253Y004613D01*
X022226Y004568D01*
X022196Y004524D01*
X022164Y004483D01*
X022129Y004443D01*
X022091Y004406D01*
X022051Y004372D01*
X022008Y004340D01*
X021964Y004312D01*
X021918Y004286D01*
X021870Y004264D01*
X021821Y004244D01*
X021771Y004228D01*
X021719Y004216D01*
X021667Y004207D01*
X021615Y004201D01*
X021562Y004199D01*
X021562Y004208D01*
X021618Y004210D01*
X021673Y004217D01*
X021728Y004227D01*
X021782Y004241D01*
X021834Y004259D01*
X021886Y004280D01*
X021935Y004306D01*
X021983Y004334D01*
X022029Y004366D01*
X022072Y004401D01*
X022112Y004439D01*
X022150Y004480D01*
X022185Y004524D01*
X022216Y004570D01*
X022245Y004618D01*
X022237Y004622D01*
X022209Y004574D01*
X022178Y004529D01*
X022143Y004486D01*
X022106Y004446D01*
X022066Y004408D01*
X022023Y004373D01*
X021978Y004342D01*
X021931Y004313D01*
X021882Y004289D01*
X021831Y004267D01*
X021779Y004250D01*
X021726Y004236D01*
X021672Y004226D01*
X021617Y004219D01*
X021562Y004217D01*
X021562Y004226D01*
X021616Y004228D01*
X021670Y004234D01*
X021724Y004244D01*
X021776Y004258D01*
X021828Y004276D01*
X021878Y004297D01*
X021927Y004321D01*
X021973Y004349D01*
X022018Y004381D01*
X022060Y004415D01*
X022099Y004452D01*
X022136Y004492D01*
X022170Y004534D01*
X022201Y004579D01*
X022229Y004626D01*
X022288Y005413D02*
X022210Y005368D01*
X022210Y005369D02*
X022182Y005413D01*
X022151Y005455D01*
X022118Y005495D01*
X022082Y005533D01*
X022043Y005568D01*
X022002Y005600D01*
X021958Y005630D01*
X021913Y005656D01*
X021866Y005679D01*
X021818Y005699D01*
X021768Y005715D01*
X021718Y005728D01*
X021666Y005737D01*
X021614Y005743D01*
X021562Y005745D01*
X021561Y005834D01*
X021562Y005835D01*
X021617Y005833D01*
X021671Y005827D01*
X021726Y005818D01*
X021779Y005805D01*
X021831Y005789D01*
X021883Y005770D01*
X021933Y005747D01*
X021981Y005721D01*
X022028Y005692D01*
X022072Y005660D01*
X022115Y005625D01*
X022155Y005587D01*
X022192Y005547D01*
X022227Y005505D01*
X022259Y005460D01*
X022288Y005414D01*
X022280Y005409D01*
X022252Y005455D01*
X022220Y005499D01*
X022185Y005541D01*
X022148Y005581D01*
X022109Y005618D01*
X022067Y005653D01*
X022023Y005684D01*
X021977Y005713D01*
X021929Y005739D01*
X021879Y005761D01*
X021829Y005781D01*
X021777Y005797D01*
X021724Y005809D01*
X021670Y005818D01*
X021616Y005824D01*
X021562Y005826D01*
X021562Y005817D01*
X021616Y005815D01*
X021669Y005809D01*
X021722Y005800D01*
X021774Y005788D01*
X021826Y005772D01*
X021876Y005753D01*
X021925Y005731D01*
X021972Y005705D01*
X022018Y005677D01*
X022061Y005645D01*
X022103Y005611D01*
X022142Y005575D01*
X022179Y005535D01*
X022213Y005494D01*
X022244Y005450D01*
X022273Y005405D01*
X022265Y005400D01*
X022235Y005448D01*
X022201Y005494D01*
X022165Y005537D01*
X022125Y005578D01*
X022083Y005616D01*
X022039Y005651D01*
X021992Y005683D01*
X021943Y005711D01*
X021892Y005736D01*
X021839Y005758D01*
X021786Y005775D01*
X021731Y005789D01*
X021675Y005799D01*
X021619Y005806D01*
X021562Y005808D01*
X021562Y005799D01*
X021618Y005797D01*
X021674Y005791D01*
X021729Y005781D01*
X021783Y005767D01*
X021836Y005749D01*
X021888Y005728D01*
X021939Y005703D01*
X021987Y005675D01*
X022033Y005644D01*
X022078Y005609D01*
X022119Y005572D01*
X022158Y005531D01*
X022194Y005489D01*
X022227Y005443D01*
X022257Y005396D01*
X022249Y005391D01*
X022220Y005438D01*
X022187Y005483D01*
X022151Y005525D01*
X022113Y005565D01*
X022072Y005602D01*
X022028Y005637D01*
X021982Y005668D01*
X021934Y005695D01*
X021885Y005720D01*
X021833Y005741D01*
X021781Y005758D01*
X021727Y005772D01*
X021672Y005782D01*
X021617Y005788D01*
X021562Y005790D01*
X021562Y005781D01*
X021617Y005779D01*
X021671Y005773D01*
X021725Y005763D01*
X021778Y005749D01*
X021830Y005732D01*
X021881Y005712D01*
X021930Y005687D01*
X021977Y005660D01*
X022023Y005629D01*
X022066Y005596D01*
X022107Y005559D01*
X022145Y005519D01*
X022180Y005477D01*
X022212Y005433D01*
X022241Y005387D01*
X022233Y005382D01*
X022205Y005428D01*
X022173Y005472D01*
X022138Y005513D01*
X022100Y005552D01*
X022060Y005589D01*
X022018Y005622D01*
X021973Y005652D01*
X021926Y005680D01*
X021877Y005703D01*
X021827Y005724D01*
X021776Y005741D01*
X021723Y005754D01*
X021670Y005764D01*
X021616Y005770D01*
X021562Y005772D01*
X021562Y005763D01*
X021615Y005761D01*
X021669Y005755D01*
X021721Y005745D01*
X021773Y005732D01*
X021824Y005715D01*
X021874Y005695D01*
X021922Y005672D01*
X021968Y005645D01*
X022012Y005615D01*
X022054Y005582D01*
X022094Y005546D01*
X022131Y005507D01*
X022166Y005466D01*
X022197Y005423D01*
X022226Y005378D01*
X022218Y005373D01*
X022190Y005418D01*
X022159Y005461D01*
X022125Y005501D01*
X022088Y005539D01*
X022049Y005575D01*
X022007Y005607D01*
X021963Y005637D01*
X021917Y005664D01*
X021870Y005687D01*
X021821Y005707D01*
X021771Y005724D01*
X021719Y005737D01*
X021667Y005746D01*
X021615Y005752D01*
X021562Y005754D01*
X021553Y005834D02*
X021553Y005744D01*
X021552Y005745D02*
X021498Y005743D01*
X021445Y005737D01*
X021392Y005727D01*
X021340Y005713D01*
X021289Y005696D01*
X021239Y005675D01*
X021191Y005651D01*
X021145Y005623D01*
X021101Y005592D01*
X021060Y005558D01*
X021020Y005521D01*
X020984Y005482D01*
X020916Y005539D01*
X020915Y005540D01*
X020953Y005581D01*
X020993Y005619D01*
X021036Y005655D01*
X021081Y005688D01*
X021128Y005718D01*
X021176Y005744D01*
X021227Y005768D01*
X021279Y005788D01*
X021332Y005804D01*
X021386Y005818D01*
X021441Y005827D01*
X021496Y005833D01*
X021552Y005835D01*
X021552Y005826D01*
X021497Y005824D01*
X021442Y005818D01*
X021388Y005809D01*
X021334Y005796D01*
X021282Y005779D01*
X021230Y005760D01*
X021180Y005736D01*
X021132Y005710D01*
X021086Y005680D01*
X021041Y005648D01*
X020999Y005613D01*
X020959Y005574D01*
X020922Y005534D01*
X020929Y005528D01*
X020966Y005568D01*
X021005Y005606D01*
X021047Y005641D01*
X021091Y005673D01*
X021137Y005702D01*
X021185Y005728D01*
X021234Y005751D01*
X021285Y005771D01*
X021337Y005787D01*
X021390Y005800D01*
X021443Y005809D01*
X021498Y005815D01*
X021552Y005817D01*
X021552Y005808D01*
X021498Y005806D01*
X021445Y005800D01*
X021392Y005791D01*
X021339Y005778D01*
X021288Y005762D01*
X021237Y005743D01*
X021189Y005720D01*
X021141Y005695D01*
X021096Y005666D01*
X021052Y005634D01*
X021011Y005599D01*
X020972Y005562D01*
X020936Y005522D01*
X020943Y005516D01*
X020979Y005556D01*
X021017Y005593D01*
X021058Y005627D01*
X021101Y005658D01*
X021146Y005687D01*
X021193Y005712D01*
X021241Y005735D01*
X021291Y005754D01*
X021342Y005770D01*
X021393Y005782D01*
X021446Y005791D01*
X021499Y005797D01*
X021552Y005799D01*
X021552Y005790D01*
X021499Y005788D01*
X021447Y005782D01*
X021395Y005773D01*
X021344Y005761D01*
X021294Y005745D01*
X021244Y005726D01*
X021197Y005704D01*
X021150Y005679D01*
X021106Y005651D01*
X021064Y005620D01*
X021023Y005586D01*
X020985Y005549D01*
X020950Y005511D01*
X020956Y005505D01*
X020992Y005543D01*
X021029Y005579D01*
X021069Y005613D01*
X021111Y005643D01*
X021155Y005671D01*
X021201Y005696D01*
X021248Y005718D01*
X021297Y005737D01*
X021346Y005752D01*
X021397Y005765D01*
X021448Y005773D01*
X021500Y005779D01*
X021552Y005781D01*
X021552Y005772D01*
X021496Y005770D01*
X021441Y005763D01*
X021386Y005753D01*
X021332Y005739D01*
X021279Y005721D01*
X021228Y005699D01*
X021178Y005674D01*
X021130Y005645D01*
X021085Y005613D01*
X021042Y005578D01*
X021001Y005540D01*
X020963Y005499D01*
X020970Y005493D01*
X021007Y005534D01*
X021048Y005571D01*
X021090Y005606D01*
X021135Y005638D01*
X021183Y005666D01*
X021232Y005691D01*
X021283Y005713D01*
X021335Y005730D01*
X021388Y005744D01*
X021442Y005754D01*
X021497Y005761D01*
X021552Y005763D01*
X021552Y005754D01*
X021498Y005752D01*
X021444Y005746D01*
X021390Y005736D01*
X021337Y005722D01*
X021286Y005704D01*
X021236Y005683D01*
X021187Y005658D01*
X021140Y005630D01*
X021096Y005599D01*
X021054Y005565D01*
X021014Y005527D01*
X020977Y005487D01*
X020912Y004446D02*
X020981Y004503D01*
X020980Y004503D02*
X021017Y004463D01*
X021056Y004425D01*
X021098Y004391D01*
X021142Y004359D01*
X021188Y004331D01*
X021237Y004306D01*
X021287Y004285D01*
X021338Y004267D01*
X021391Y004254D01*
X021444Y004244D01*
X021498Y004237D01*
X021552Y004235D01*
X021553Y004146D01*
X021552Y004145D01*
X021496Y004147D01*
X021440Y004153D01*
X021385Y004163D01*
X021330Y004176D01*
X021277Y004193D01*
X021224Y004213D01*
X021173Y004237D01*
X021124Y004264D01*
X021077Y004295D01*
X021032Y004328D01*
X020989Y004364D01*
X020949Y004403D01*
X020911Y004445D01*
X020918Y004451D01*
X020955Y004410D01*
X020995Y004371D01*
X021037Y004335D01*
X021082Y004302D01*
X021129Y004272D01*
X021177Y004245D01*
X021228Y004222D01*
X021280Y004201D01*
X021333Y004185D01*
X021387Y004172D01*
X021441Y004162D01*
X021496Y004156D01*
X021552Y004154D01*
X021552Y004163D01*
X021497Y004165D01*
X021442Y004171D01*
X021388Y004180D01*
X021335Y004193D01*
X021283Y004210D01*
X021231Y004230D01*
X021182Y004253D01*
X021133Y004280D01*
X021087Y004309D01*
X021043Y004342D01*
X021001Y004378D01*
X020962Y004416D01*
X020925Y004457D01*
X020932Y004462D01*
X020968Y004422D01*
X021007Y004384D01*
X021049Y004349D01*
X021092Y004317D01*
X021138Y004287D01*
X021186Y004261D01*
X021235Y004238D01*
X021285Y004218D01*
X021337Y004202D01*
X021390Y004189D01*
X021444Y004180D01*
X021498Y004174D01*
X021552Y004172D01*
X021552Y004181D01*
X021498Y004183D01*
X021445Y004189D01*
X021392Y004198D01*
X021340Y004211D01*
X021288Y004227D01*
X021238Y004246D01*
X021190Y004269D01*
X021143Y004295D01*
X021097Y004324D01*
X021054Y004356D01*
X021013Y004391D01*
X020975Y004428D01*
X020939Y004468D01*
X020946Y004474D01*
X020981Y004435D01*
X021019Y004398D01*
X021060Y004363D01*
X021103Y004332D01*
X021147Y004303D01*
X021194Y004277D01*
X021242Y004255D01*
X021291Y004235D01*
X021342Y004219D01*
X021394Y004207D01*
X021446Y004198D01*
X021499Y004192D01*
X021552Y004190D01*
X021552Y004199D01*
X021500Y004201D01*
X021447Y004207D01*
X021396Y004216D01*
X021345Y004228D01*
X021294Y004244D01*
X021245Y004263D01*
X021198Y004285D01*
X021152Y004311D01*
X021108Y004339D01*
X021066Y004370D01*
X021025Y004404D01*
X020988Y004441D01*
X020953Y004480D01*
X020959Y004486D01*
X020994Y004447D01*
X021032Y004411D01*
X021071Y004377D01*
X021113Y004346D01*
X021157Y004318D01*
X021202Y004293D01*
X021249Y004271D01*
X021297Y004252D01*
X021347Y004237D01*
X021397Y004224D01*
X021449Y004216D01*
X021500Y004210D01*
X021552Y004208D01*
X021552Y004217D01*
X021501Y004219D01*
X021450Y004224D01*
X021399Y004233D01*
X021349Y004245D01*
X021300Y004261D01*
X021253Y004279D01*
X021206Y004301D01*
X021161Y004326D01*
X021118Y004354D01*
X021077Y004384D01*
X021038Y004417D01*
X021001Y004453D01*
X020966Y004491D01*
X020973Y004497D01*
X021010Y004456D01*
X021050Y004418D01*
X021092Y004384D01*
X021137Y004352D01*
X021184Y004323D01*
X021233Y004298D01*
X021284Y004277D01*
X021335Y004259D01*
X021389Y004245D01*
X021443Y004235D01*
X021497Y004228D01*
X021552Y004226D01*
D53*
X020937Y004480D02*
X020937Y004680D01*
X020937Y005320D02*
X020937Y005500D01*
X020937Y021016D02*
X020937Y021216D01*
X020937Y021856D02*
X020937Y022036D01*
D54*
X017279Y021526D03*
X017181Y014439D03*
X017279Y012077D03*
X017279Y004990D03*
D55*
X011829Y010304D03*
X011829Y019753D03*
D56*
X013139Y017983D03*
X013139Y008534D03*
D57*
X012889Y010259D03*
X012889Y006809D03*
X012889Y016258D03*
X012889Y019708D03*
D58*
X011214Y017983D03*
X011214Y008534D03*
D59*
X012889Y008534D03*
X012889Y017983D03*
M02*
