G75*
G70*
%OFA0B0*%
%FSLAX24Y24*%
%IPPOS*%
%LPD*%
%AMOC8*
5,1,8,0,0,1.08239X$1,22.5*
%
%ADD10C,0.0060*%
%ADD11C,0.0090*%
%ADD12R,0.0110X0.0005*%
%ADD13R,0.0210X0.0005*%
%ADD14R,0.0280X0.0005*%
%ADD15R,0.0325X0.0005*%
%ADD16R,0.0365X0.0005*%
%ADD17R,0.0410X0.0005*%
%ADD18R,0.0440X0.0005*%
%ADD19R,0.0470X0.0005*%
%ADD20R,0.0505X0.0005*%
%ADD21R,0.0530X0.0005*%
%ADD22R,0.0555X0.0005*%
%ADD23R,0.0580X0.0005*%
%ADD24R,0.0600X0.0005*%
%ADD25R,0.0625X0.0005*%
%ADD26R,0.0645X0.0005*%
%ADD27R,0.0665X0.0005*%
%ADD28R,0.0685X0.0005*%
%ADD29R,0.0705X0.0005*%
%ADD30R,0.0715X0.0005*%
%ADD31R,0.0735X0.0005*%
%ADD32R,0.0755X0.0005*%
%ADD33R,0.0090X0.0005*%
%ADD34R,0.0770X0.0005*%
%ADD35R,0.0190X0.0005*%
%ADD36R,0.0355X0.0005*%
%ADD37R,0.0360X0.0005*%
%ADD38R,0.0260X0.0005*%
%ADD39R,0.0315X0.0005*%
%ADD40R,0.0320X0.0005*%
%ADD41R,0.0295X0.0005*%
%ADD42R,0.0275X0.0005*%
%ADD43R,0.0400X0.0005*%
%ADD44R,0.0265X0.0005*%
%ADD45R,0.0435X0.0005*%
%ADD46R,0.0255X0.0005*%
%ADD47R,0.0465X0.0005*%
%ADD48R,0.0245X0.0005*%
%ADD49R,0.0495X0.0005*%
%ADD50R,0.0235X0.0005*%
%ADD51R,0.0525X0.0005*%
%ADD52R,0.0230X0.0005*%
%ADD53R,0.0240X0.0005*%
%ADD54R,0.0545X0.0005*%
%ADD55R,0.0820X0.0005*%
%ADD56R,0.0220X0.0005*%
%ADD57R,0.0025X0.0005*%
%ADD58R,0.0795X0.0005*%
%ADD59R,0.0215X0.0005*%
%ADD60R,0.0035X0.0005*%
%ADD61R,0.0040X0.0005*%
%ADD62R,0.0800X0.0005*%
%ADD63R,0.0205X0.0005*%
%ADD64R,0.0050X0.0005*%
%ADD65R,0.0805X0.0005*%
%ADD66R,0.0165X0.0005*%
%ADD67R,0.0055X0.0005*%
%ADD68R,0.0200X0.0005*%
%ADD69R,0.0060X0.0005*%
%ADD70R,0.0300X0.0005*%
%ADD71R,0.0195X0.0005*%
%ADD72R,0.0065X0.0005*%
%ADD73R,0.0345X0.0005*%
%ADD74R,0.0070X0.0005*%
%ADD75R,0.0385X0.0005*%
%ADD76R,0.0080X0.0005*%
%ADD77R,0.0425X0.0005*%
%ADD78R,0.0185X0.0005*%
%ADD79R,0.0085X0.0005*%
%ADD80R,0.0635X0.0005*%
%ADD81R,0.0810X0.0005*%
%ADD82R,0.0095X0.0005*%
%ADD83R,0.0335X0.0005*%
%ADD84R,0.0655X0.0005*%
%ADD85R,0.0105X0.0005*%
%ADD86R,0.0290X0.0005*%
%ADD87R,0.0660X0.0005*%
%ADD88R,0.0115X0.0005*%
%ADD89R,0.0285X0.0005*%
%ADD90R,0.0120X0.0005*%
%ADD91R,0.0270X0.0005*%
%ADD92R,0.0675X0.0005*%
%ADD93R,0.0130X0.0005*%
%ADD94R,0.0680X0.0005*%
%ADD95R,0.0135X0.0005*%
%ADD96R,0.0250X0.0005*%
%ADD97R,0.0140X0.0005*%
%ADD98R,0.0180X0.0005*%
%ADD99R,0.0695X0.0005*%
%ADD100R,0.0150X0.0005*%
%ADD101R,0.0160X0.0005*%
%ADD102R,0.0155X0.0005*%
%ADD103R,0.0145X0.0005*%
%ADD104R,0.0700X0.0005*%
%ADD105R,0.0225X0.0005*%
%ADD106R,0.0170X0.0005*%
%ADD107R,0.0100X0.0005*%
%ADD108R,0.0075X0.0005*%
%ADD109R,0.0720X0.0005*%
%ADD110R,0.0725X0.0005*%
%ADD111R,0.0340X0.0005*%
%ADD112R,0.0305X0.0005*%
%ADD113R,0.0175X0.0005*%
%ADD114R,0.0005X0.0005*%
%ADD115R,0.0010X0.0005*%
%ADD116R,0.0015X0.0005*%
%ADD117R,0.0020X0.0005*%
%ADD118R,0.0030X0.0005*%
%ADD119R,0.0125X0.0005*%
%ADD120R,0.0045X0.0005*%
%ADD121R,0.0370X0.0005*%
%ADD122R,0.0375X0.0005*%
%ADD123R,0.0350X0.0005*%
%ADD124R,0.0330X0.0005*%
%ADD125R,0.0485X0.0005*%
%ADD126R,0.0480X0.0005*%
%ADD127R,0.0460X0.0005*%
%ADD128R,0.0445X0.0005*%
%ADD129R,0.0310X0.0005*%
%ADD130R,0.0380X0.0005*%
%ADD131R,0.0415X0.0005*%
%ADD132R,0.0450X0.0005*%
%ADD133R,0.0490X0.0005*%
%ADD134R,0.0965X0.0005*%
%ADD135R,0.0975X0.0005*%
%ADD136R,0.0980X0.0005*%
%ADD137R,0.0990X0.0005*%
%ADD138R,0.1005X0.0005*%
%ADD139R,0.0615X0.0005*%
%ADD140R,0.0640X0.0005*%
%ADD141R,0.0605X0.0005*%
%ADD142R,0.0620X0.0005*%
%ADD143R,0.0590X0.0005*%
%ADD144R,0.0570X0.0005*%
%ADD145R,0.0540X0.0005*%
%ADD146R,0.0515X0.0005*%
%ADD147R,0.0565X0.0005*%
%ADD148R,0.0535X0.0005*%
%ADD149R,0.0395X0.0005*%
%ADD150R,0.0520X0.0005*%
%ADD151R,0.0500X0.0005*%
%ADD152R,0.0430X0.0005*%
%ADD153C,0.0000*%
%ADD154C,0.0030*%
%ADD155C,0.0050*%
%ADD156R,0.0400X0.0500*%
%ADD157C,0.0010*%
%ADD158C,0.0100*%
%ADD159C,0.0200*%
%ADD160R,0.4200X0.0300*%
%ADD161R,0.0750X0.0200*%
%ADD162R,0.0300X0.0200*%
D10*
X006544Y006565D02*
X006544Y010502D01*
X006836Y010502D01*
X006836Y006565D01*
X006544Y006565D01*
X006836Y006565D02*
X008816Y006565D01*
X008816Y010502D01*
X008869Y010502D01*
X009102Y010502D01*
X009497Y010502D01*
X009497Y006565D01*
X008816Y006565D01*
X010945Y007918D02*
X010895Y009068D01*
X010945Y007918D02*
X011045Y007818D01*
X014745Y007818D01*
X014845Y007918D01*
X014895Y009068D01*
X016284Y009155D02*
X016284Y009305D01*
X016334Y009355D01*
X016334Y011255D01*
X016284Y011305D01*
X016284Y011455D01*
X016286Y011472D01*
X016290Y011489D01*
X016297Y011505D01*
X016307Y011519D01*
X016320Y011532D01*
X016334Y011542D01*
X016350Y011549D01*
X016367Y011553D01*
X016384Y011555D01*
X016531Y012240D02*
X016531Y010340D01*
X016481Y010290D01*
X016481Y010140D01*
X016483Y010123D01*
X016487Y010106D01*
X016494Y010090D01*
X016504Y010076D01*
X016517Y010063D01*
X016531Y010053D01*
X016547Y010046D01*
X016564Y010042D01*
X016581Y010040D01*
X017281Y010040D02*
X017298Y010042D01*
X017315Y010046D01*
X017331Y010053D01*
X017345Y010063D01*
X017358Y010076D01*
X017368Y010090D01*
X017375Y010106D01*
X017379Y010123D01*
X017381Y010140D01*
X017381Y010290D01*
X017331Y010340D01*
X017331Y012240D01*
X017381Y012290D01*
X017381Y012440D01*
X017379Y012457D01*
X017375Y012474D01*
X017368Y012490D01*
X017358Y012504D01*
X017345Y012517D01*
X017331Y012527D01*
X017315Y012534D01*
X017298Y012538D01*
X017281Y012540D01*
X017513Y012927D02*
X017513Y011227D01*
X017515Y011210D01*
X017519Y011193D01*
X017526Y011177D01*
X017536Y011163D01*
X017549Y011150D01*
X017563Y011140D01*
X017579Y011133D01*
X017596Y011129D01*
X017613Y011127D01*
X018413Y011127D01*
X018430Y011129D01*
X018447Y011133D01*
X018463Y011140D01*
X018477Y011150D01*
X018490Y011163D01*
X018500Y011177D01*
X018507Y011193D01*
X018511Y011210D01*
X018513Y011227D01*
X018513Y012927D01*
X018511Y012944D01*
X018507Y012961D01*
X018500Y012977D01*
X018490Y012991D01*
X018477Y013004D01*
X018463Y013014D01*
X018447Y013021D01*
X018430Y013025D01*
X018413Y013027D01*
X017613Y013027D01*
X017596Y013025D01*
X017579Y013021D01*
X017563Y013014D01*
X017549Y013004D01*
X017536Y012991D01*
X017526Y012977D01*
X017519Y012961D01*
X017515Y012944D01*
X017513Y012927D01*
X017613Y013489D02*
X018413Y013489D01*
X018430Y013491D01*
X018447Y013495D01*
X018463Y013502D01*
X018477Y013512D01*
X018490Y013525D01*
X018500Y013539D01*
X018507Y013555D01*
X018511Y013572D01*
X018513Y013589D01*
X018513Y015289D01*
X018511Y015306D01*
X018507Y015323D01*
X018500Y015339D01*
X018490Y015353D01*
X018477Y015366D01*
X018463Y015376D01*
X018447Y015383D01*
X018430Y015387D01*
X018413Y015389D01*
X017613Y015389D01*
X017596Y015387D01*
X017579Y015383D01*
X017563Y015376D01*
X017549Y015366D01*
X017536Y015353D01*
X017526Y015339D01*
X017519Y015323D01*
X017515Y015306D01*
X017513Y015289D01*
X017513Y013589D01*
X017515Y013572D01*
X017519Y013555D01*
X017526Y013539D01*
X017536Y013525D01*
X017549Y013512D01*
X017563Y013502D01*
X017579Y013495D01*
X017596Y013491D01*
X017613Y013489D01*
X017381Y014077D02*
X017381Y014227D01*
X017331Y014277D01*
X017331Y016177D01*
X017381Y016227D01*
X017381Y016377D01*
X017379Y016394D01*
X017375Y016411D01*
X017368Y016427D01*
X017358Y016441D01*
X017345Y016454D01*
X017331Y016464D01*
X017315Y016471D01*
X017298Y016475D01*
X017281Y016477D01*
X017563Y016392D02*
X017563Y016242D01*
X017565Y016225D01*
X017569Y016208D01*
X017576Y016192D01*
X017586Y016178D01*
X017599Y016165D01*
X017613Y016155D01*
X017629Y016148D01*
X017646Y016144D01*
X017663Y016142D01*
X017563Y016392D02*
X017613Y016442D01*
X017613Y018342D01*
X017563Y018392D01*
X017563Y018542D01*
X017565Y018559D01*
X017569Y018576D01*
X017576Y018592D01*
X017586Y018606D01*
X017599Y018619D01*
X017613Y018629D01*
X017629Y018636D01*
X017646Y018640D01*
X017663Y018642D01*
X017282Y019195D02*
X017282Y019345D01*
X017232Y019395D01*
X017232Y021295D01*
X017282Y021345D01*
X017282Y021495D01*
X017280Y021512D01*
X017276Y021529D01*
X017269Y021545D01*
X017259Y021559D01*
X017246Y021572D01*
X017232Y021582D01*
X017216Y021589D01*
X017199Y021593D01*
X017182Y021595D01*
X016482Y021595D02*
X016465Y021593D01*
X016448Y021589D01*
X016432Y021582D01*
X016418Y021572D01*
X016405Y021559D01*
X016395Y021545D01*
X016388Y021529D01*
X016384Y021512D01*
X016382Y021495D01*
X016382Y021345D01*
X016432Y021295D01*
X016432Y019395D01*
X016382Y019345D01*
X016382Y019195D01*
X016384Y019178D01*
X016388Y019161D01*
X016395Y019145D01*
X016405Y019131D01*
X016418Y019118D01*
X016432Y019108D01*
X016448Y019101D01*
X016465Y019097D01*
X016482Y019095D01*
X017182Y019095D02*
X017199Y019097D01*
X017216Y019101D01*
X017232Y019108D01*
X017246Y019118D01*
X017259Y019131D01*
X017269Y019145D01*
X017276Y019161D01*
X017280Y019178D01*
X017282Y019195D01*
X018363Y018642D02*
X018380Y018640D01*
X018397Y018636D01*
X018413Y018629D01*
X018427Y018619D01*
X018440Y018606D01*
X018450Y018592D01*
X018457Y018576D01*
X018461Y018559D01*
X018463Y018542D01*
X018463Y018392D01*
X018413Y018342D01*
X018413Y016442D01*
X018463Y016392D01*
X018463Y016242D01*
X018461Y016225D01*
X018457Y016208D01*
X018450Y016192D01*
X018440Y016178D01*
X018427Y016165D01*
X018413Y016155D01*
X018397Y016148D01*
X018380Y016144D01*
X018363Y016142D01*
X017184Y015211D02*
X017184Y015061D01*
X017182Y015044D01*
X017178Y015027D01*
X017171Y015011D01*
X017161Y014997D01*
X017148Y014984D01*
X017134Y014974D01*
X017118Y014967D01*
X017101Y014963D01*
X017084Y014961D01*
X017184Y015211D02*
X017134Y015261D01*
X017134Y017161D01*
X017184Y017211D01*
X017184Y017361D01*
X017182Y017378D01*
X017178Y017395D01*
X017171Y017411D01*
X017161Y017425D01*
X017148Y017438D01*
X017134Y017448D01*
X017118Y017455D01*
X017101Y017459D01*
X017084Y017461D01*
X016384Y017461D02*
X016367Y017459D01*
X016350Y017455D01*
X016334Y017448D01*
X016320Y017438D01*
X016307Y017425D01*
X016297Y017411D01*
X016290Y017395D01*
X016286Y017378D01*
X016284Y017361D01*
X016284Y017211D01*
X016334Y017161D01*
X016334Y015261D01*
X016284Y015211D01*
X016284Y015061D01*
X016286Y015044D01*
X016290Y015027D01*
X016297Y015011D01*
X016307Y014997D01*
X016320Y014984D01*
X016334Y014974D01*
X016350Y014967D01*
X016367Y014963D01*
X016384Y014961D01*
X016531Y014277D02*
X016531Y016177D01*
X016481Y016227D01*
X016481Y016377D01*
X016483Y016394D01*
X016487Y016411D01*
X016494Y016427D01*
X016504Y016441D01*
X016517Y016454D01*
X016531Y016464D01*
X016547Y016471D01*
X016564Y016475D01*
X016581Y016477D01*
X014845Y017367D02*
X014895Y018517D01*
X014845Y017367D02*
X014745Y017267D01*
X011045Y017267D01*
X010945Y017367D01*
X010895Y018517D01*
X009485Y019978D02*
X009089Y019978D01*
X008857Y019978D01*
X008804Y019978D01*
X008804Y016041D01*
X006824Y016041D01*
X006824Y019978D01*
X008804Y019978D01*
X009485Y019978D02*
X009485Y016041D01*
X008804Y016041D01*
X008430Y015530D02*
X006730Y015530D01*
X006713Y015528D01*
X006696Y015524D01*
X006680Y015517D01*
X006666Y015507D01*
X006653Y015494D01*
X006643Y015480D01*
X006636Y015464D01*
X006632Y015447D01*
X006630Y015430D01*
X006630Y014630D01*
X006632Y014613D01*
X006636Y014596D01*
X006643Y014580D01*
X006653Y014566D01*
X006666Y014553D01*
X006680Y014543D01*
X006696Y014536D01*
X006713Y014532D01*
X006730Y014530D01*
X008430Y014530D01*
X008447Y014532D01*
X008464Y014536D01*
X008480Y014543D01*
X008494Y014553D01*
X008507Y014566D01*
X008517Y014580D01*
X008524Y014596D01*
X008528Y014613D01*
X008530Y014630D01*
X008530Y015430D01*
X008528Y015447D01*
X008524Y015464D01*
X008517Y015480D01*
X008507Y015494D01*
X008494Y015507D01*
X008480Y015517D01*
X008464Y015524D01*
X008447Y015528D01*
X008430Y015530D01*
X007730Y015030D02*
X007680Y015030D01*
X007480Y015030D02*
X007430Y015030D01*
X007171Y014299D02*
X007021Y014299D01*
X007004Y014297D01*
X006987Y014293D01*
X006971Y014286D01*
X006957Y014276D01*
X006944Y014263D01*
X006934Y014249D01*
X006927Y014233D01*
X006923Y014216D01*
X006921Y014199D01*
X007171Y014299D02*
X007221Y014249D01*
X009121Y014249D01*
X009171Y014299D01*
X009321Y014299D01*
X009338Y014297D01*
X009355Y014293D01*
X009371Y014286D01*
X009385Y014276D01*
X009398Y014263D01*
X009408Y014249D01*
X009415Y014233D01*
X009419Y014216D01*
X009421Y014199D01*
X009421Y013499D02*
X009419Y013482D01*
X009415Y013465D01*
X009408Y013449D01*
X009398Y013435D01*
X009385Y013422D01*
X009371Y013412D01*
X009355Y013405D01*
X009338Y013401D01*
X009321Y013399D01*
X009171Y013399D01*
X009121Y013449D01*
X007221Y013449D01*
X007171Y013399D01*
X007021Y013399D01*
X007004Y013401D01*
X006987Y013405D01*
X006971Y013412D01*
X006957Y013422D01*
X006944Y013435D01*
X006934Y013449D01*
X006927Y013465D01*
X006923Y013482D01*
X006921Y013499D01*
X007021Y013118D02*
X007171Y013118D01*
X007221Y013068D01*
X009121Y013068D01*
X009171Y013118D01*
X009321Y013118D01*
X009338Y013116D01*
X009355Y013112D01*
X009371Y013105D01*
X009385Y013095D01*
X009398Y013082D01*
X009408Y013068D01*
X009415Y013052D01*
X009419Y013035D01*
X009421Y013018D01*
X009421Y012318D02*
X009419Y012301D01*
X009415Y012284D01*
X009408Y012268D01*
X009398Y012254D01*
X009385Y012241D01*
X009371Y012231D01*
X009355Y012224D01*
X009338Y012220D01*
X009321Y012218D01*
X009171Y012218D01*
X009121Y012268D01*
X007221Y012268D01*
X007171Y012218D01*
X007021Y012218D01*
X007004Y012220D01*
X006987Y012224D01*
X006971Y012231D01*
X006957Y012241D01*
X006944Y012254D01*
X006934Y012268D01*
X006927Y012284D01*
X006923Y012301D01*
X006921Y012318D01*
X006730Y011986D02*
X008430Y011986D01*
X008447Y011984D01*
X008464Y011980D01*
X008480Y011973D01*
X008494Y011963D01*
X008507Y011950D01*
X008517Y011936D01*
X008524Y011920D01*
X008528Y011903D01*
X008530Y011886D01*
X008530Y011086D01*
X008528Y011069D01*
X008524Y011052D01*
X008517Y011036D01*
X008507Y011022D01*
X008494Y011009D01*
X008480Y010999D01*
X008464Y010992D01*
X008447Y010988D01*
X008430Y010986D01*
X006730Y010986D01*
X006713Y010988D01*
X006696Y010992D01*
X006680Y010999D01*
X006666Y011009D01*
X006653Y011022D01*
X006643Y011036D01*
X006636Y011052D01*
X006632Y011069D01*
X006630Y011086D01*
X006630Y011886D01*
X006632Y011903D01*
X006636Y011920D01*
X006643Y011936D01*
X006653Y011950D01*
X006666Y011963D01*
X006680Y011973D01*
X006696Y011980D01*
X006713Y011984D01*
X006730Y011986D01*
X007430Y011486D02*
X007480Y011486D01*
X007680Y011486D02*
X007730Y011486D01*
X006836Y010502D02*
X008816Y010502D01*
X006921Y013018D02*
X006923Y013035D01*
X006927Y013052D01*
X006934Y013068D01*
X006944Y013082D01*
X006957Y013095D01*
X006971Y013105D01*
X006987Y013112D01*
X007004Y013116D01*
X007021Y013118D01*
X006824Y016041D02*
X006532Y016041D01*
X006532Y019978D01*
X006824Y019978D01*
X016481Y014227D02*
X016481Y014077D01*
X016483Y014060D01*
X016487Y014043D01*
X016494Y014027D01*
X016504Y014013D01*
X016517Y014000D01*
X016531Y013990D01*
X016547Y013983D01*
X016564Y013979D01*
X016581Y013977D01*
X016481Y014227D02*
X016531Y014277D01*
X017281Y013977D02*
X017298Y013979D01*
X017315Y013983D01*
X017331Y013990D01*
X017345Y014000D01*
X017358Y014013D01*
X017368Y014027D01*
X017375Y014043D01*
X017379Y014060D01*
X017381Y014077D01*
X018013Y014289D02*
X018013Y014339D01*
X018013Y014539D02*
X018013Y014589D01*
X016581Y012540D02*
X016564Y012538D01*
X016547Y012534D01*
X016531Y012527D01*
X016517Y012517D01*
X016504Y012504D01*
X016494Y012490D01*
X016487Y012474D01*
X016483Y012457D01*
X016481Y012440D01*
X016481Y012290D01*
X016531Y012240D01*
X017084Y011555D02*
X017101Y011553D01*
X017118Y011549D01*
X017134Y011542D01*
X017148Y011532D01*
X017161Y011519D01*
X017171Y011505D01*
X017178Y011489D01*
X017182Y011472D01*
X017184Y011455D01*
X017184Y011305D01*
X017134Y011255D01*
X017134Y009355D01*
X017184Y009305D01*
X017184Y009155D01*
X017182Y009138D01*
X017178Y009121D01*
X017171Y009105D01*
X017161Y009091D01*
X017148Y009078D01*
X017134Y009068D01*
X017118Y009061D01*
X017101Y009057D01*
X017084Y009055D01*
X016384Y009055D02*
X016367Y009057D01*
X016350Y009061D01*
X016334Y009068D01*
X016320Y009078D01*
X016307Y009091D01*
X016297Y009105D01*
X016290Y009121D01*
X016286Y009138D01*
X016284Y009155D01*
X017563Y010026D02*
X017563Y010176D01*
X017565Y010193D01*
X017569Y010210D01*
X017576Y010226D01*
X017586Y010240D01*
X017599Y010253D01*
X017613Y010263D01*
X017629Y010270D01*
X017646Y010274D01*
X017663Y010276D01*
X017563Y010026D02*
X017613Y009976D01*
X017613Y008076D01*
X017563Y008026D01*
X017563Y007876D01*
X017565Y007859D01*
X017569Y007842D01*
X017576Y007826D01*
X017586Y007812D01*
X017599Y007799D01*
X017613Y007789D01*
X017629Y007782D01*
X017646Y007778D01*
X017663Y007776D01*
X017282Y007518D02*
X017282Y007368D01*
X017232Y007318D01*
X017232Y005418D01*
X017282Y005368D01*
X017282Y005218D01*
X017280Y005201D01*
X017276Y005184D01*
X017269Y005168D01*
X017259Y005154D01*
X017246Y005141D01*
X017232Y005131D01*
X017216Y005124D01*
X017199Y005120D01*
X017182Y005118D01*
X016482Y005118D02*
X016465Y005120D01*
X016448Y005124D01*
X016432Y005131D01*
X016418Y005141D01*
X016405Y005154D01*
X016395Y005168D01*
X016388Y005184D01*
X016384Y005201D01*
X016382Y005218D01*
X016382Y005368D01*
X016432Y005418D01*
X016432Y007318D01*
X016382Y007368D01*
X016382Y007518D01*
X016384Y007535D01*
X016388Y007552D01*
X016395Y007568D01*
X016405Y007582D01*
X016418Y007595D01*
X016432Y007605D01*
X016448Y007612D01*
X016465Y007616D01*
X016482Y007618D01*
X017182Y007618D02*
X017199Y007616D01*
X017216Y007612D01*
X017232Y007605D01*
X017246Y007595D01*
X017259Y007582D01*
X017269Y007568D01*
X017276Y007552D01*
X017280Y007535D01*
X017282Y007518D01*
X018363Y007776D02*
X018380Y007778D01*
X018397Y007782D01*
X018413Y007789D01*
X018427Y007799D01*
X018440Y007812D01*
X018450Y007826D01*
X018457Y007842D01*
X018461Y007859D01*
X018463Y007876D01*
X018463Y008026D01*
X018413Y008076D01*
X018413Y009976D01*
X018463Y010026D01*
X018463Y010176D01*
X018461Y010193D01*
X018457Y010210D01*
X018450Y010226D01*
X018440Y010240D01*
X018427Y010253D01*
X018413Y010263D01*
X018397Y010270D01*
X018380Y010274D01*
X018363Y010276D01*
X018013Y011927D02*
X018013Y011977D01*
X018013Y012177D02*
X018013Y012227D01*
X020983Y012586D02*
X021040Y012529D01*
X021266Y012529D01*
X021323Y012586D01*
X021323Y012700D01*
X021266Y012756D01*
X021040Y012756D02*
X020983Y012700D01*
X020983Y012586D01*
X020983Y012898D02*
X020983Y013125D01*
X020983Y013011D02*
X021323Y013011D01*
X021323Y013266D02*
X020983Y013266D01*
X021323Y013266D02*
X021323Y013493D01*
X021323Y013634D02*
X021096Y013634D01*
X020983Y013748D01*
X021096Y013861D01*
X021323Y013861D01*
X021153Y013861D02*
X021153Y013634D01*
X021040Y014926D02*
X021266Y014926D01*
X021323Y014983D01*
X021323Y015096D01*
X021266Y015153D01*
X021153Y015153D01*
X021153Y015040D01*
X021040Y015153D02*
X020983Y015096D01*
X020983Y014983D01*
X021040Y014926D01*
X020983Y015295D02*
X021323Y015521D01*
X020983Y015521D01*
X020983Y015663D02*
X020983Y015833D01*
X021040Y015890D01*
X021266Y015890D01*
X021323Y015833D01*
X021323Y015663D01*
X020983Y015663D01*
X020983Y015295D02*
X021323Y015295D01*
X021458Y016211D02*
X022139Y016211D01*
X022139Y010305D01*
X022086Y010305D01*
X021854Y010305D01*
X021458Y010305D01*
X021458Y016211D01*
X021588Y016548D02*
X021738Y016548D01*
X021788Y016598D01*
X023688Y016598D01*
X023738Y016548D01*
X023888Y016548D01*
X023905Y016550D01*
X023922Y016554D01*
X023938Y016561D01*
X023952Y016571D01*
X023965Y016584D01*
X023975Y016598D01*
X023982Y016614D01*
X023986Y016631D01*
X023988Y016648D01*
X024120Y016211D02*
X024120Y010305D01*
X022139Y010305D01*
X021788Y009918D02*
X023688Y009918D01*
X023738Y009968D01*
X023888Y009968D01*
X023905Y009966D01*
X023922Y009962D01*
X023938Y009955D01*
X023952Y009945D01*
X023965Y009932D01*
X023975Y009918D01*
X023982Y009902D01*
X023986Y009885D01*
X023988Y009868D01*
X024120Y010305D02*
X024411Y010305D01*
X024411Y016211D01*
X024120Y016211D01*
X022139Y016211D01*
X021588Y016548D02*
X021571Y016550D01*
X021554Y016554D01*
X021538Y016561D01*
X021524Y016571D01*
X021511Y016584D01*
X021501Y016598D01*
X021494Y016614D01*
X021490Y016631D01*
X021488Y016648D01*
X021488Y017348D02*
X021490Y017365D01*
X021494Y017382D01*
X021501Y017398D01*
X021511Y017412D01*
X021524Y017425D01*
X021538Y017435D01*
X021554Y017442D01*
X021571Y017446D01*
X021588Y017448D01*
X021738Y017448D01*
X021788Y017398D01*
X023688Y017398D01*
X023738Y017448D01*
X023888Y017448D01*
X023905Y017446D01*
X023922Y017442D01*
X023938Y017435D01*
X023952Y017425D01*
X023965Y017412D01*
X023975Y017398D01*
X023982Y017382D01*
X023986Y017365D01*
X023988Y017348D01*
X023888Y017729D02*
X023738Y017729D01*
X023688Y017779D01*
X021788Y017779D01*
X021738Y017729D01*
X021588Y017729D01*
X021571Y017731D01*
X021554Y017735D01*
X021538Y017742D01*
X021524Y017752D01*
X021511Y017765D01*
X021501Y017779D01*
X021494Y017795D01*
X021490Y017812D01*
X021488Y017829D01*
X021488Y018529D02*
X021490Y018546D01*
X021494Y018563D01*
X021501Y018579D01*
X021511Y018593D01*
X021524Y018606D01*
X021538Y018616D01*
X021554Y018623D01*
X021571Y018627D01*
X021588Y018629D01*
X021738Y018629D01*
X021788Y018579D01*
X023688Y018579D01*
X023738Y018629D01*
X023888Y018629D01*
X023905Y018627D01*
X023922Y018623D01*
X023938Y018616D01*
X023952Y018606D01*
X023965Y018593D01*
X023975Y018579D01*
X023982Y018563D01*
X023986Y018546D01*
X023988Y018529D01*
X023988Y017829D02*
X023986Y017812D01*
X023982Y017795D01*
X023975Y017779D01*
X023965Y017765D01*
X023952Y017752D01*
X023938Y017742D01*
X023922Y017735D01*
X023905Y017731D01*
X023888Y017729D01*
X021035Y019435D02*
X021035Y022435D01*
X018535Y022435D01*
X018535Y019435D01*
X019535Y019435D01*
X019537Y019465D01*
X019542Y019495D01*
X019551Y019524D01*
X019564Y019551D01*
X019579Y019577D01*
X019598Y019601D01*
X019619Y019622D01*
X019643Y019641D01*
X019669Y019656D01*
X019696Y019669D01*
X019725Y019678D01*
X019755Y019683D01*
X019785Y019685D01*
X019815Y019683D01*
X019845Y019678D01*
X019874Y019669D01*
X019901Y019656D01*
X019927Y019641D01*
X019951Y019622D01*
X019972Y019601D01*
X019991Y019577D01*
X020006Y019551D01*
X020019Y019524D01*
X020028Y019495D01*
X020033Y019465D01*
X020035Y019435D01*
X021035Y019435D01*
X021040Y011893D02*
X021096Y011893D01*
X021153Y011836D01*
X021153Y011666D01*
X021153Y011836D02*
X021210Y011893D01*
X021266Y011893D01*
X021323Y011836D01*
X021323Y011666D01*
X020983Y011666D01*
X020983Y011836D01*
X021040Y011893D01*
X021323Y011524D02*
X021323Y011298D01*
X020983Y011298D01*
X020983Y011156D02*
X020983Y010929D01*
X020983Y011043D02*
X021323Y011043D01*
X021266Y010788D02*
X021323Y010731D01*
X021323Y010618D01*
X021266Y010561D01*
X021040Y010561D01*
X020983Y010618D01*
X020983Y010731D01*
X021040Y010788D01*
X021588Y009968D02*
X021738Y009968D01*
X021788Y009918D01*
X021588Y009968D02*
X021571Y009966D01*
X021554Y009962D01*
X021538Y009955D01*
X021524Y009945D01*
X021511Y009932D01*
X021501Y009918D01*
X021494Y009902D01*
X021490Y009885D01*
X021488Y009868D01*
X021488Y009168D02*
X021490Y009151D01*
X021494Y009134D01*
X021501Y009118D01*
X021511Y009104D01*
X021524Y009091D01*
X021538Y009081D01*
X021554Y009074D01*
X021571Y009070D01*
X021588Y009068D01*
X021738Y009068D01*
X021788Y009118D01*
X023688Y009118D01*
X023738Y009068D01*
X023888Y009068D01*
X023905Y009070D01*
X023922Y009074D01*
X023938Y009081D01*
X023952Y009091D01*
X023965Y009104D01*
X023975Y009118D01*
X023982Y009134D01*
X023986Y009151D01*
X023988Y009168D01*
X023888Y008787D02*
X023738Y008787D01*
X023688Y008737D01*
X021788Y008737D01*
X021738Y008787D01*
X021588Y008787D01*
X021571Y008785D01*
X021554Y008781D01*
X021538Y008774D01*
X021524Y008764D01*
X021511Y008751D01*
X021501Y008737D01*
X021494Y008721D01*
X021490Y008704D01*
X021488Y008687D01*
X021488Y007987D02*
X021490Y007970D01*
X021494Y007953D01*
X021501Y007937D01*
X021511Y007923D01*
X021524Y007910D01*
X021538Y007900D01*
X021554Y007893D01*
X021571Y007889D01*
X021588Y007887D01*
X021738Y007887D01*
X021788Y007937D01*
X023688Y007937D01*
X023738Y007887D01*
X023888Y007887D01*
X023905Y007889D01*
X023922Y007893D01*
X023938Y007900D01*
X023952Y007910D01*
X023965Y007923D01*
X023975Y007937D01*
X023982Y007953D01*
X023986Y007970D01*
X023988Y007987D01*
X023988Y008687D02*
X023986Y008704D01*
X023982Y008721D01*
X023975Y008737D01*
X023965Y008751D01*
X023952Y008764D01*
X023938Y008774D01*
X023922Y008781D01*
X023905Y008785D01*
X023888Y008787D01*
X021035Y007081D02*
X021035Y004081D01*
X020035Y004081D01*
X020033Y004111D01*
X020028Y004141D01*
X020019Y004170D01*
X020006Y004197D01*
X019991Y004223D01*
X019972Y004247D01*
X019951Y004268D01*
X019927Y004287D01*
X019901Y004302D01*
X019874Y004315D01*
X019845Y004324D01*
X019815Y004329D01*
X019785Y004331D01*
X019755Y004329D01*
X019725Y004324D01*
X019696Y004315D01*
X019669Y004302D01*
X019643Y004287D01*
X019619Y004268D01*
X019598Y004247D01*
X019579Y004223D01*
X019564Y004197D01*
X019551Y004170D01*
X019542Y004141D01*
X019537Y004111D01*
X019535Y004081D01*
X018535Y004081D01*
X018535Y007081D01*
X021035Y007081D01*
D11*
X020222Y008482D02*
X019881Y008822D01*
X019796Y008822D01*
X019711Y008737D01*
X019711Y008567D01*
X019796Y008482D01*
X020222Y008482D02*
X020222Y008822D01*
X019711Y009587D02*
X019711Y009927D01*
X019711Y009757D02*
X020222Y009757D01*
X020222Y010139D02*
X019881Y010139D01*
X020051Y010139D02*
X019881Y010309D01*
X019881Y010395D01*
X019881Y010600D02*
X019881Y010685D01*
X020222Y010685D01*
X020222Y010600D02*
X020222Y010770D01*
X020136Y010968D02*
X020051Y011053D01*
X020051Y011308D01*
X019966Y011308D02*
X020222Y011308D01*
X020222Y011053D01*
X020136Y010968D01*
X019881Y011053D02*
X019881Y011223D01*
X019966Y011308D01*
X019966Y011520D02*
X020136Y011520D01*
X020222Y011606D01*
X020222Y011861D01*
X019881Y011861D02*
X019881Y011606D01*
X019966Y011520D01*
X019711Y010685D02*
X019626Y010685D01*
X019796Y012625D02*
X020136Y012625D01*
X020222Y012710D01*
X020222Y012881D01*
X020136Y012966D01*
X020136Y013178D02*
X020222Y013263D01*
X020222Y013433D01*
X020136Y013518D01*
X019966Y013518D01*
X019881Y013433D01*
X019881Y013263D01*
X019966Y013178D01*
X020136Y013178D01*
X019796Y012966D02*
X019711Y012881D01*
X019711Y012710D01*
X019796Y012625D01*
X019881Y013730D02*
X019881Y013986D01*
X019966Y014071D01*
X020222Y014071D01*
X020136Y014368D02*
X020222Y014453D01*
X020136Y014368D02*
X019796Y014368D01*
X019881Y014283D02*
X019881Y014453D01*
X019881Y014651D02*
X020222Y014651D01*
X020051Y014651D02*
X019881Y014821D01*
X019881Y014906D01*
X019966Y015112D02*
X019881Y015197D01*
X019881Y015367D01*
X019966Y015452D01*
X020136Y015452D01*
X020222Y015367D01*
X020222Y015197D01*
X020136Y015112D01*
X019966Y015112D01*
X019711Y015664D02*
X019711Y015749D01*
X020222Y015749D01*
X020222Y015664D02*
X020222Y015834D01*
X020222Y016585D02*
X019711Y016585D01*
X019711Y016840D01*
X019796Y016925D01*
X019966Y016925D01*
X020051Y016840D01*
X020051Y016585D01*
X020136Y017137D02*
X019796Y017137D01*
X019711Y017222D01*
X019711Y017392D01*
X019796Y017478D01*
X019711Y017690D02*
X019711Y017945D01*
X019796Y018030D01*
X019881Y018030D01*
X019966Y017945D01*
X019966Y017690D01*
X019711Y017690D02*
X020222Y017690D01*
X020222Y017945D01*
X020136Y018030D01*
X020051Y018030D01*
X019966Y017945D01*
X020136Y017478D02*
X020222Y017392D01*
X020222Y017222D01*
X020136Y017137D01*
X020222Y013730D02*
X019881Y013730D01*
X014170Y013738D02*
X013830Y013738D01*
X013830Y013823D02*
X013915Y013908D01*
X014085Y013908D01*
X014170Y013823D01*
X014170Y013738D01*
X014085Y013568D02*
X013915Y013568D01*
X013830Y013653D01*
X013830Y013823D01*
X013624Y013908D02*
X013369Y013738D01*
X013624Y013568D01*
X013369Y013568D02*
X013369Y014078D01*
X013157Y013823D02*
X013072Y013908D01*
X012902Y013908D01*
X012817Y013823D01*
X012817Y013653D01*
X012902Y013568D01*
X013072Y013568D01*
X013157Y013653D01*
X013157Y013823D01*
X012605Y013823D02*
X012605Y013568D01*
X012434Y013568D02*
X012434Y013823D01*
X012520Y013908D01*
X012605Y013823D01*
X012434Y013823D02*
X012349Y013908D01*
X012264Y013908D01*
X012264Y013568D01*
X012052Y013653D02*
X011967Y013568D01*
X011797Y013568D01*
X011712Y013653D01*
X011797Y013823D02*
X011967Y013823D01*
X012052Y013738D01*
X012052Y013653D01*
X011797Y013823D02*
X011712Y013908D01*
X011712Y013993D01*
X011797Y014078D01*
X011967Y014078D01*
X012052Y013993D01*
X012052Y014468D02*
X012052Y014978D01*
X011882Y014808D01*
X011712Y014978D01*
X011712Y014468D01*
X012264Y014553D02*
X012349Y014638D01*
X012605Y014638D01*
X012605Y014723D02*
X012605Y014468D01*
X012349Y014468D01*
X012264Y014553D01*
X012349Y014808D02*
X012520Y014808D01*
X012605Y014723D01*
X012817Y014723D02*
X012817Y014553D01*
X012902Y014468D01*
X013157Y014468D01*
X013157Y014383D02*
X013157Y014808D01*
X012902Y014808D01*
X012817Y014723D01*
X012987Y014298D02*
X013072Y014298D01*
X013157Y014383D01*
X013369Y014468D02*
X013539Y014468D01*
X013454Y014468D02*
X013454Y014808D01*
X013369Y014808D01*
X013454Y014978D02*
X013454Y015063D01*
X013738Y014723D02*
X013738Y014553D01*
X013823Y014468D01*
X014078Y014468D01*
X014078Y014808D02*
X013823Y014808D01*
X013738Y014723D01*
D12*
X012894Y012581D03*
X012894Y012576D03*
X012739Y012016D03*
X012739Y012011D03*
X012579Y012036D03*
X012579Y012041D03*
X012519Y011566D03*
X012549Y011371D03*
X012924Y011471D03*
X012939Y011461D03*
X012944Y011456D03*
X012954Y011451D03*
X012959Y011446D03*
X012969Y011441D03*
X012974Y011436D03*
X012979Y011431D03*
X012989Y011426D03*
X012994Y011421D03*
X013009Y011411D03*
X013024Y011401D03*
X013029Y011396D03*
X013044Y011386D03*
X013089Y011356D03*
X013104Y011346D03*
X013109Y011341D03*
X013114Y011336D03*
X013129Y011326D03*
X013024Y011051D03*
X013144Y011701D03*
X013264Y011856D03*
X013264Y011861D03*
X013269Y011866D03*
X013269Y011871D03*
D13*
X013929Y012506D03*
X014214Y012356D03*
X014129Y011326D03*
X013024Y011056D03*
X012664Y011221D03*
X011934Y011401D03*
X011679Y011921D03*
X011674Y011926D03*
X011674Y012466D03*
X012614Y012971D03*
X013024Y012776D03*
D14*
X012614Y012966D03*
X011769Y012516D03*
X013024Y011061D03*
X013299Y011176D03*
X013964Y012486D03*
D15*
X013037Y012806D03*
X012617Y012961D03*
X013027Y011066D03*
X013997Y011266D03*
D16*
X013027Y011071D03*
X014022Y012441D03*
D17*
X013024Y011076D03*
X011929Y012571D03*
D18*
X011919Y012561D03*
X013024Y011081D03*
D19*
X013024Y011086D03*
X011909Y012546D03*
D20*
X012627Y012931D03*
X013027Y011091D03*
D21*
X013024Y011096D03*
D22*
X013027Y011101D03*
X012652Y012911D03*
D23*
X012669Y012896D03*
X013024Y011106D03*
D24*
X013024Y011111D03*
X012679Y012886D03*
D25*
X013027Y011116D03*
D26*
X013027Y011121D03*
X012382Y011266D03*
D27*
X012352Y011281D03*
X013027Y011126D03*
D28*
X013027Y011131D03*
X012327Y011296D03*
D29*
X012297Y011316D03*
X013027Y011136D03*
D30*
X013027Y011141D03*
X012292Y011321D03*
X012287Y011326D03*
D31*
X013027Y011146D03*
D32*
X013027Y011151D03*
D33*
X013209Y011261D03*
X013759Y011151D03*
X013144Y011676D03*
X013279Y011906D03*
X013284Y011916D03*
X013284Y011921D03*
X012739Y012036D03*
X012574Y012011D03*
X012519Y011541D03*
X012554Y011376D03*
X012899Y012606D03*
D34*
X013024Y011156D03*
D35*
X012944Y011486D03*
X013759Y011156D03*
X014234Y011811D03*
X014239Y011816D03*
X014244Y011826D03*
X014249Y011831D03*
X014254Y011836D03*
X014259Y011841D03*
X014264Y012316D03*
X014259Y012321D03*
X014254Y012326D03*
X013919Y012511D03*
X013794Y012731D03*
X013789Y012736D03*
X013784Y012741D03*
X011804Y011826D03*
X011644Y011951D03*
X011639Y011956D03*
X011639Y012436D03*
X011644Y012441D03*
X011889Y011436D03*
X011894Y011431D03*
D36*
X012812Y011161D03*
X013762Y011171D03*
X014007Y012451D03*
D37*
X014014Y012446D03*
X014064Y012416D03*
X012829Y012866D03*
X011949Y012591D03*
X011829Y012531D03*
X013239Y011161D03*
D38*
X013759Y011161D03*
X014059Y011286D03*
X013954Y012491D03*
X013674Y012811D03*
X013029Y012791D03*
X012004Y011361D03*
D39*
X012782Y011166D03*
X013272Y011166D03*
X012862Y012861D03*
D40*
X011804Y012526D03*
X013759Y011166D03*
X014094Y012411D03*
X013984Y012471D03*
D41*
X013972Y012481D03*
X014112Y012406D03*
X013287Y011171D03*
X012767Y011171D03*
X011787Y012521D03*
D42*
X011982Y012616D03*
X012022Y011356D03*
X012497Y011341D03*
X012752Y011176D03*
X012952Y011511D03*
D43*
X013759Y011176D03*
X011934Y012576D03*
D44*
X011757Y012511D03*
X012962Y011501D03*
X012737Y011181D03*
X013317Y011181D03*
X013497Y011276D03*
X014142Y012396D03*
D45*
X013762Y011181D03*
D46*
X013327Y011186D03*
X012962Y011496D03*
X012727Y011186D03*
X011997Y011366D03*
X011747Y012506D03*
X014152Y012391D03*
D47*
X013762Y011186D03*
X012602Y012946D03*
D48*
X013697Y012801D03*
X014162Y012386D03*
X013337Y011191D03*
X012717Y011191D03*
X011987Y011371D03*
X011772Y011861D03*
X011767Y011866D03*
X011732Y011891D03*
D49*
X013762Y011191D03*
D50*
X013347Y011196D03*
X012707Y011196D03*
X012302Y011236D03*
X011967Y011381D03*
X011782Y011851D03*
X011777Y011856D03*
X011717Y012491D03*
X013707Y012796D03*
X014182Y012376D03*
D51*
X013762Y011196D03*
D52*
X014089Y011301D03*
X014099Y011306D03*
X014189Y012371D03*
X013939Y012501D03*
X013714Y012791D03*
X012699Y011201D03*
X012689Y011206D03*
X011714Y011901D03*
X011704Y011906D03*
X011704Y012486D03*
D53*
X011724Y012496D03*
X011724Y011896D03*
X011974Y011376D03*
X012964Y011516D03*
X013354Y011201D03*
X013489Y011281D03*
X014079Y011296D03*
X014174Y012381D03*
X013029Y012786D03*
D54*
X012647Y012916D03*
X013762Y011201D03*
D55*
X013639Y011206D03*
D56*
X014114Y011316D03*
X014199Y012366D03*
X013729Y012781D03*
X013724Y012786D03*
X012679Y011211D03*
X011949Y011391D03*
X011689Y012476D03*
D57*
X012557Y011926D03*
X012557Y011921D03*
X012732Y012101D03*
X013332Y012076D03*
X013332Y012071D03*
X013132Y011576D03*
X013132Y011571D03*
X013237Y011211D03*
X012512Y011471D03*
X012912Y012691D03*
X012912Y012696D03*
D58*
X013662Y011211D03*
X013672Y011216D03*
D59*
X013482Y011286D03*
X012977Y011521D03*
X012672Y011216D03*
X011942Y011396D03*
X011792Y011841D03*
X011687Y011916D03*
X011682Y012471D03*
X013737Y012776D03*
X014207Y012361D03*
X014122Y011321D03*
D60*
X013232Y011216D03*
X012557Y011386D03*
X012557Y011936D03*
X012732Y012091D03*
X012732Y012096D03*
X013322Y012041D03*
X013327Y012051D03*
X013327Y012056D03*
X012907Y012676D03*
D61*
X012909Y012671D03*
X012734Y012086D03*
X012559Y011946D03*
X012559Y011941D03*
X012514Y011491D03*
X012514Y011486D03*
X013134Y011596D03*
X013134Y011601D03*
X013459Y011331D03*
X013229Y011221D03*
X013319Y012031D03*
X013319Y012036D03*
X013324Y012046D03*
D62*
X013709Y011236D03*
X013699Y011231D03*
X013679Y011221D03*
D63*
X014137Y011331D03*
X014142Y011336D03*
X014222Y012351D03*
X013752Y012766D03*
X013747Y012771D03*
X012652Y011231D03*
X012657Y011226D03*
X011927Y011406D03*
X011797Y011836D03*
X011667Y011931D03*
X011667Y012461D03*
D64*
X012564Y011961D03*
X012734Y012076D03*
X013314Y012016D03*
X013314Y012011D03*
X012904Y012656D03*
X012514Y011506D03*
X012514Y011501D03*
X012514Y011496D03*
X013229Y011226D03*
D65*
X013692Y011226D03*
X013717Y011241D03*
X013727Y011246D03*
X013732Y011251D03*
X013742Y011256D03*
D66*
X013177Y011311D03*
X012302Y011231D03*
X011837Y011496D03*
X011832Y011501D03*
X011832Y011506D03*
X011827Y011511D03*
X011822Y011521D03*
X011812Y011816D03*
X011587Y012011D03*
X011582Y012021D03*
X011577Y012026D03*
X011572Y012031D03*
X011567Y012041D03*
X011567Y012351D03*
X011572Y012361D03*
X011577Y012366D03*
X011582Y012371D03*
X011587Y012381D03*
X013837Y012681D03*
X013842Y012676D03*
X013847Y012671D03*
X013847Y012666D03*
X013852Y012661D03*
X013907Y012516D03*
X014317Y012256D03*
X014322Y012251D03*
X014327Y012241D03*
X014332Y011926D03*
X014327Y011916D03*
X014322Y011911D03*
X014222Y011791D03*
X014222Y011786D03*
X014227Y011776D03*
X014227Y011771D03*
X014232Y011766D03*
X014237Y011756D03*
X014232Y011431D03*
X014227Y011426D03*
X014227Y011421D03*
X014222Y011416D03*
D67*
X013227Y011231D03*
X013137Y011616D03*
X013137Y011621D03*
X013307Y011991D03*
X013307Y011996D03*
X013312Y012001D03*
X013312Y012006D03*
X012737Y012071D03*
X012562Y011966D03*
X012447Y012661D03*
X012442Y012691D03*
X012437Y012721D03*
X012432Y012751D03*
X012427Y012776D03*
X012427Y012781D03*
X012422Y012806D03*
X012422Y012811D03*
X012417Y012836D03*
X012417Y012841D03*
X012397Y012961D03*
X012397Y012966D03*
X012907Y012651D03*
D68*
X012484Y012866D03*
X012014Y012631D03*
X011659Y012456D03*
X011654Y012451D03*
X011654Y011941D03*
X011659Y011936D03*
X011799Y011831D03*
X011914Y011416D03*
X011919Y011411D03*
X012524Y011351D03*
X012644Y011236D03*
X013479Y011291D03*
X014149Y011341D03*
X014234Y012341D03*
X014229Y012346D03*
X013759Y012761D03*
D69*
X012929Y012531D03*
X012934Y012511D03*
X012939Y012491D03*
X012939Y012486D03*
X012944Y012466D03*
X012949Y012446D03*
X012954Y012426D03*
X012959Y012401D03*
X012964Y012381D03*
X012969Y012361D03*
X012974Y012336D03*
X012979Y012316D03*
X012984Y012296D03*
X012989Y012271D03*
X012994Y012251D03*
X012999Y012231D03*
X013004Y012206D03*
X013009Y012186D03*
X013014Y012166D03*
X013019Y012141D03*
X013024Y012121D03*
X013029Y012101D03*
X013034Y012076D03*
X013039Y012056D03*
X013044Y012036D03*
X013049Y012011D03*
X013054Y011991D03*
X013059Y011971D03*
X013064Y011946D03*
X013069Y011926D03*
X013074Y011906D03*
X013079Y011881D03*
X013084Y011861D03*
X013089Y011841D03*
X013094Y011816D03*
X013099Y011801D03*
X013099Y011796D03*
X013104Y011786D03*
X013104Y011781D03*
X013104Y011776D03*
X013109Y011761D03*
X013109Y011756D03*
X013109Y011751D03*
X013114Y011741D03*
X013114Y011736D03*
X013139Y011631D03*
X013139Y011626D03*
X013264Y011626D03*
X013264Y011631D03*
X013264Y011636D03*
X013269Y011676D03*
X013269Y011681D03*
X013274Y011706D03*
X013274Y011711D03*
X013274Y011716D03*
X013274Y011721D03*
X013274Y011726D03*
X013279Y011736D03*
X013279Y011741D03*
X013279Y011746D03*
X013279Y011751D03*
X013279Y011756D03*
X013279Y011761D03*
X013279Y011766D03*
X013279Y011771D03*
X013284Y011781D03*
X013284Y011786D03*
X013284Y011791D03*
X013284Y011796D03*
X013284Y011801D03*
X013284Y011806D03*
X013304Y011981D03*
X013304Y011986D03*
X013259Y011591D03*
X013259Y011586D03*
X013259Y011581D03*
X013259Y011576D03*
X013254Y011566D03*
X013254Y011561D03*
X013254Y011556D03*
X013254Y011551D03*
X013254Y011546D03*
X013254Y011541D03*
X013254Y011536D03*
X013254Y011531D03*
X013254Y011526D03*
X013249Y011521D03*
X013249Y011516D03*
X013249Y011511D03*
X013249Y011506D03*
X013249Y011501D03*
X013249Y011496D03*
X013249Y011491D03*
X013249Y011486D03*
X013249Y011481D03*
X013249Y011476D03*
X013244Y011471D03*
X013244Y011466D03*
X013244Y011461D03*
X013244Y011456D03*
X013244Y011451D03*
X013244Y011446D03*
X013244Y011441D03*
X013244Y011436D03*
X013244Y011431D03*
X013244Y011426D03*
X013239Y011421D03*
X013239Y011416D03*
X013239Y011411D03*
X013239Y011406D03*
X013239Y011401D03*
X013239Y011396D03*
X013239Y011391D03*
X013239Y011386D03*
X013239Y011381D03*
X013239Y011376D03*
X013234Y011371D03*
X013234Y011366D03*
X013234Y011361D03*
X013234Y011356D03*
X013234Y011351D03*
X013234Y011346D03*
X013234Y011341D03*
X013234Y011336D03*
X013234Y011331D03*
X013234Y011326D03*
X013229Y011321D03*
X013224Y011236D03*
X012514Y011511D03*
X012514Y011516D03*
X012474Y011621D03*
X012464Y011646D03*
X012454Y011671D03*
X012444Y011696D03*
X012419Y011761D03*
X012409Y011786D03*
X012399Y011811D03*
X012389Y011836D03*
X012364Y011901D03*
X012354Y011926D03*
X012344Y011951D03*
X012334Y011976D03*
X012309Y012041D03*
X012299Y012066D03*
X012289Y012091D03*
X012279Y012116D03*
X012244Y012206D03*
X012234Y012231D03*
X012224Y012256D03*
X012214Y012281D03*
X012189Y012346D03*
X012179Y012371D03*
X012169Y012396D03*
X012159Y012421D03*
X012149Y012446D03*
X012139Y012471D03*
X012134Y012486D03*
X012124Y012511D03*
X012459Y012576D03*
X012459Y012581D03*
X012459Y012586D03*
X012459Y012591D03*
X012459Y012596D03*
X012459Y012601D03*
X012454Y012606D03*
X012454Y012611D03*
X012454Y012616D03*
X012454Y012621D03*
X012454Y012626D03*
X012454Y012631D03*
X012449Y012636D03*
X012449Y012641D03*
X012449Y012646D03*
X012449Y012651D03*
X012449Y012656D03*
X012444Y012666D03*
X012444Y012671D03*
X012444Y012676D03*
X012444Y012681D03*
X012444Y012686D03*
X012439Y012696D03*
X012439Y012701D03*
X012439Y012706D03*
X012439Y012711D03*
X012439Y012716D03*
X012434Y012726D03*
X012434Y012731D03*
X012434Y012736D03*
X012434Y012741D03*
X012434Y012746D03*
X012429Y012756D03*
X012429Y012761D03*
X012429Y012766D03*
X012429Y012771D03*
X012424Y012786D03*
X012424Y012791D03*
X012424Y012796D03*
X012424Y012801D03*
X012419Y012816D03*
X012419Y012821D03*
X012419Y012826D03*
X012419Y012831D03*
X012394Y012971D03*
X012394Y012976D03*
X012464Y012571D03*
X012464Y012566D03*
X012464Y012561D03*
X012464Y012556D03*
X012464Y012551D03*
X012464Y012546D03*
X012469Y012536D03*
X012469Y012531D03*
X012469Y012526D03*
X012469Y012521D03*
X012469Y012516D03*
X012474Y012506D03*
X012474Y012501D03*
X012474Y012496D03*
X012474Y012491D03*
X012479Y012481D03*
X012479Y012476D03*
X012479Y012471D03*
X012479Y012466D03*
X012479Y012461D03*
X012484Y012451D03*
X012484Y012446D03*
X012484Y012441D03*
X012484Y012436D03*
X012484Y012431D03*
X012489Y012421D03*
X012489Y012416D03*
X012489Y012411D03*
X012489Y012406D03*
X012489Y012401D03*
X012494Y012391D03*
X012494Y012386D03*
X012494Y012381D03*
X012494Y012376D03*
X012499Y012366D03*
X012499Y012361D03*
X012499Y012356D03*
X012499Y012351D03*
X012499Y012346D03*
X012504Y012336D03*
X012504Y012331D03*
X012504Y012326D03*
X012504Y012321D03*
X012504Y012316D03*
X012509Y012306D03*
X012509Y012301D03*
X012509Y012296D03*
X012509Y012291D03*
X012509Y012286D03*
X012514Y012276D03*
X012514Y012271D03*
X012514Y012266D03*
X012514Y012261D03*
X012514Y012256D03*
X012519Y012246D03*
X012519Y012241D03*
X012519Y012236D03*
X012519Y012231D03*
X012524Y012221D03*
X012524Y012216D03*
X012524Y012211D03*
X012524Y012206D03*
X012524Y012201D03*
X012529Y012191D03*
X012529Y012186D03*
X012529Y012181D03*
X012529Y012176D03*
X012529Y012171D03*
X012534Y012161D03*
X012534Y012156D03*
X012534Y012151D03*
X012534Y012146D03*
X012534Y012141D03*
X012539Y012131D03*
X012539Y012126D03*
X012539Y012121D03*
X012539Y012116D03*
X012544Y012106D03*
X012544Y012101D03*
X012544Y012096D03*
X012544Y012091D03*
X012544Y012086D03*
X012564Y011971D03*
X012684Y011931D03*
X012694Y011956D03*
X012674Y011906D03*
X012664Y011881D03*
X012734Y012066D03*
X012904Y012641D03*
X012904Y012646D03*
D70*
X013034Y012801D03*
X013379Y012931D03*
X014019Y011271D03*
X012299Y011241D03*
D71*
X012627Y011251D03*
X012632Y011246D03*
X012637Y011241D03*
X011907Y011421D03*
X011902Y011426D03*
X011647Y011946D03*
X011652Y012446D03*
X013767Y012756D03*
X013772Y012751D03*
X013777Y012746D03*
X014242Y012336D03*
X014247Y012331D03*
X014167Y011356D03*
X014162Y011351D03*
X014157Y011346D03*
D72*
X013257Y011571D03*
X013262Y011596D03*
X013262Y011601D03*
X013262Y011606D03*
X013262Y011611D03*
X013262Y011616D03*
X013262Y011621D03*
X013267Y011641D03*
X013267Y011646D03*
X013267Y011651D03*
X013267Y011656D03*
X013267Y011661D03*
X013267Y011666D03*
X013267Y011671D03*
X013272Y011686D03*
X013272Y011691D03*
X013272Y011696D03*
X013272Y011701D03*
X013277Y011731D03*
X013282Y011776D03*
X013217Y011806D03*
X013212Y011796D03*
X013207Y011786D03*
X013202Y011776D03*
X013197Y011766D03*
X013192Y011756D03*
X013187Y011746D03*
X013182Y011736D03*
X013112Y011746D03*
X013107Y011766D03*
X013107Y011771D03*
X013102Y011791D03*
X013097Y011806D03*
X013097Y011811D03*
X013092Y011821D03*
X013092Y011826D03*
X013092Y011831D03*
X013092Y011836D03*
X013087Y011846D03*
X013087Y011851D03*
X013087Y011856D03*
X013082Y011866D03*
X013082Y011871D03*
X013082Y011876D03*
X013077Y011886D03*
X013077Y011891D03*
X013077Y011896D03*
X013077Y011901D03*
X013072Y011911D03*
X013072Y011916D03*
X013072Y011921D03*
X013067Y011931D03*
X013067Y011936D03*
X013067Y011941D03*
X013062Y011951D03*
X013062Y011956D03*
X013062Y011961D03*
X013062Y011966D03*
X013057Y011976D03*
X013057Y011981D03*
X013057Y011986D03*
X013052Y011996D03*
X013052Y012001D03*
X013052Y012006D03*
X013047Y012016D03*
X013047Y012021D03*
X013047Y012026D03*
X013047Y012031D03*
X013042Y012041D03*
X013042Y012046D03*
X013042Y012051D03*
X013037Y012061D03*
X013037Y012066D03*
X013037Y012071D03*
X013032Y012081D03*
X013032Y012086D03*
X013032Y012091D03*
X013032Y012096D03*
X013027Y012106D03*
X013027Y012111D03*
X013027Y012116D03*
X013022Y012126D03*
X013022Y012131D03*
X013022Y012136D03*
X013017Y012146D03*
X013017Y012151D03*
X013017Y012156D03*
X013017Y012161D03*
X013012Y012171D03*
X013012Y012176D03*
X013012Y012181D03*
X013007Y012191D03*
X013007Y012196D03*
X013007Y012201D03*
X013002Y012211D03*
X013002Y012216D03*
X013002Y012221D03*
X013002Y012226D03*
X012997Y012236D03*
X012997Y012241D03*
X012997Y012246D03*
X012992Y012256D03*
X012992Y012261D03*
X012992Y012266D03*
X012987Y012276D03*
X012987Y012281D03*
X012987Y012286D03*
X012987Y012291D03*
X012982Y012301D03*
X012982Y012306D03*
X012982Y012311D03*
X012977Y012321D03*
X012977Y012326D03*
X012977Y012331D03*
X012972Y012341D03*
X012972Y012346D03*
X012972Y012351D03*
X012972Y012356D03*
X012967Y012366D03*
X012967Y012371D03*
X012967Y012376D03*
X012962Y012386D03*
X012962Y012391D03*
X012962Y012396D03*
X012957Y012406D03*
X012957Y012411D03*
X012957Y012416D03*
X012957Y012421D03*
X012952Y012431D03*
X012952Y012436D03*
X012952Y012441D03*
X012947Y012451D03*
X012947Y012456D03*
X012947Y012461D03*
X012942Y012471D03*
X012942Y012476D03*
X012942Y012481D03*
X012937Y012496D03*
X012937Y012501D03*
X012937Y012506D03*
X012932Y012516D03*
X012932Y012521D03*
X012932Y012526D03*
X012927Y012536D03*
X012927Y012541D03*
X012927Y012546D03*
X012857Y012546D03*
X012852Y012536D03*
X012847Y012526D03*
X012842Y012516D03*
X012837Y012506D03*
X012832Y012496D03*
X012827Y012486D03*
X012822Y012476D03*
X012817Y012466D03*
X012812Y012456D03*
X012807Y012446D03*
X012802Y012436D03*
X012797Y012426D03*
X012792Y012416D03*
X012787Y012406D03*
X012782Y012396D03*
X012777Y012386D03*
X012772Y012376D03*
X012767Y012366D03*
X012762Y012356D03*
X012757Y012346D03*
X012752Y012341D03*
X012752Y012336D03*
X012747Y012331D03*
X012747Y012326D03*
X012742Y012321D03*
X012742Y012316D03*
X012737Y012311D03*
X012737Y012306D03*
X012732Y012301D03*
X012727Y012291D03*
X012722Y012281D03*
X012717Y012271D03*
X012712Y012261D03*
X012707Y012251D03*
X012702Y012241D03*
X012697Y012231D03*
X012692Y012221D03*
X012687Y012211D03*
X012737Y012061D03*
X012702Y011981D03*
X012702Y011976D03*
X012702Y011971D03*
X012697Y011966D03*
X012697Y011961D03*
X012692Y011951D03*
X012692Y011946D03*
X012687Y011941D03*
X012687Y011936D03*
X012682Y011926D03*
X012682Y011921D03*
X012677Y011916D03*
X012677Y011911D03*
X012672Y011901D03*
X012672Y011896D03*
X012667Y011891D03*
X012667Y011886D03*
X012662Y011876D03*
X012662Y011871D03*
X012657Y011866D03*
X012657Y011861D03*
X012657Y011856D03*
X012652Y011851D03*
X012652Y011846D03*
X012647Y011841D03*
X012647Y011836D03*
X012647Y011831D03*
X012642Y011821D03*
X012637Y011811D03*
X012637Y011806D03*
X012632Y011796D03*
X012627Y011786D03*
X012627Y011781D03*
X012622Y011771D03*
X012617Y011761D03*
X012612Y011751D03*
X012612Y011746D03*
X012607Y011736D03*
X012602Y011726D03*
X012602Y011721D03*
X012597Y011711D03*
X012592Y011701D03*
X012592Y011696D03*
X012587Y011686D03*
X012582Y011676D03*
X012577Y011661D03*
X012572Y011651D03*
X012562Y011626D03*
X012482Y011606D03*
X012477Y011611D03*
X012477Y011616D03*
X012472Y011626D03*
X012472Y011631D03*
X012467Y011636D03*
X012467Y011641D03*
X012462Y011651D03*
X012462Y011656D03*
X012457Y011661D03*
X012457Y011666D03*
X012452Y011676D03*
X012452Y011681D03*
X012447Y011686D03*
X012447Y011691D03*
X012442Y011701D03*
X012442Y011706D03*
X012437Y011711D03*
X012437Y011716D03*
X012437Y011721D03*
X012432Y011726D03*
X012432Y011731D03*
X012427Y011736D03*
X012427Y011741D03*
X012427Y011746D03*
X012422Y011751D03*
X012422Y011756D03*
X012417Y011766D03*
X012417Y011771D03*
X012412Y011776D03*
X012412Y011781D03*
X012407Y011791D03*
X012407Y011796D03*
X012402Y011801D03*
X012402Y011806D03*
X012397Y011816D03*
X012397Y011821D03*
X012392Y011826D03*
X012392Y011831D03*
X012387Y011841D03*
X012387Y011846D03*
X012382Y011851D03*
X012382Y011856D03*
X012382Y011861D03*
X012377Y011866D03*
X012377Y011871D03*
X012372Y011876D03*
X012372Y011881D03*
X012372Y011886D03*
X012367Y011891D03*
X012367Y011896D03*
X012362Y011906D03*
X012362Y011911D03*
X012357Y011916D03*
X012357Y011921D03*
X012352Y011931D03*
X012352Y011936D03*
X012347Y011941D03*
X012347Y011946D03*
X012342Y011956D03*
X012342Y011961D03*
X012337Y011966D03*
X012337Y011971D03*
X012332Y011981D03*
X012332Y011986D03*
X012327Y011991D03*
X012327Y011996D03*
X012327Y012001D03*
X012322Y012006D03*
X012322Y012011D03*
X012317Y012016D03*
X012317Y012021D03*
X012317Y012026D03*
X012312Y012031D03*
X012312Y012036D03*
X012307Y012046D03*
X012307Y012051D03*
X012302Y012056D03*
X012302Y012061D03*
X012297Y012071D03*
X012297Y012076D03*
X012292Y012081D03*
X012292Y012086D03*
X012287Y012096D03*
X012287Y012101D03*
X012282Y012106D03*
X012282Y012111D03*
X012277Y012121D03*
X012277Y012126D03*
X012272Y012131D03*
X012272Y012136D03*
X012272Y012141D03*
X012267Y012146D03*
X012267Y012151D03*
X012262Y012156D03*
X012262Y012161D03*
X012262Y012166D03*
X012257Y012171D03*
X012257Y012176D03*
X012252Y012181D03*
X012252Y012186D03*
X012252Y012191D03*
X012247Y012196D03*
X012247Y012201D03*
X012242Y012211D03*
X012242Y012216D03*
X012237Y012221D03*
X012237Y012226D03*
X012232Y012236D03*
X012232Y012241D03*
X012227Y012246D03*
X012227Y012251D03*
X012222Y012261D03*
X012222Y012266D03*
X012217Y012271D03*
X012217Y012276D03*
X012212Y012286D03*
X012212Y012291D03*
X012207Y012296D03*
X012207Y012301D03*
X012207Y012306D03*
X012202Y012311D03*
X012202Y012316D03*
X012197Y012321D03*
X012197Y012326D03*
X012197Y012331D03*
X012192Y012336D03*
X012192Y012341D03*
X012187Y012351D03*
X012187Y012356D03*
X012182Y012361D03*
X012182Y012366D03*
X012177Y012376D03*
X012177Y012381D03*
X012172Y012386D03*
X012172Y012391D03*
X012167Y012401D03*
X012167Y012406D03*
X012162Y012411D03*
X012162Y012416D03*
X012157Y012426D03*
X012157Y012431D03*
X012152Y012436D03*
X012152Y012441D03*
X012147Y012451D03*
X012147Y012456D03*
X012142Y012461D03*
X012142Y012466D03*
X012137Y012476D03*
X012137Y012481D03*
X012132Y012491D03*
X012132Y012496D03*
X012127Y012501D03*
X012127Y012506D03*
X012122Y012516D03*
X012122Y012521D03*
X012117Y012526D03*
X012072Y012646D03*
X012072Y012651D03*
X012067Y012661D03*
X012062Y012676D03*
X012057Y012686D03*
X012052Y012701D03*
X012047Y012711D03*
X012042Y012726D03*
X012032Y012751D03*
X012022Y012776D03*
X012017Y012791D03*
X012012Y012801D03*
X012007Y012816D03*
X012002Y012826D03*
X011997Y012841D03*
X011992Y012851D03*
X011987Y012866D03*
X011982Y012876D03*
X011977Y012891D03*
X011972Y012901D03*
X011967Y012916D03*
X011962Y012926D03*
X011962Y012931D03*
X011957Y012941D03*
X011952Y012951D03*
X011952Y012956D03*
X011952Y012961D03*
X011947Y012966D03*
X011947Y012971D03*
X011942Y012976D03*
X012467Y012541D03*
X012472Y012511D03*
X012477Y012486D03*
X012482Y012456D03*
X012487Y012426D03*
X012492Y012396D03*
X012497Y012371D03*
X012502Y012341D03*
X012507Y012311D03*
X012512Y012281D03*
X012517Y012251D03*
X012522Y012226D03*
X012527Y012196D03*
X012532Y012166D03*
X012537Y012136D03*
X012542Y012111D03*
X012547Y012081D03*
X012567Y011976D03*
X012552Y011381D03*
X013137Y011636D03*
X013302Y011971D03*
X013302Y011976D03*
X013222Y011241D03*
X012902Y012631D03*
X012902Y012636D03*
X013017Y012731D03*
D73*
X012302Y011246D03*
D74*
X012514Y011521D03*
X012514Y011526D03*
X012554Y011606D03*
X012554Y011611D03*
X012559Y011616D03*
X012559Y011621D03*
X012564Y011631D03*
X012564Y011636D03*
X012569Y011641D03*
X012569Y011646D03*
X012574Y011656D03*
X012579Y011666D03*
X012579Y011671D03*
X012584Y011681D03*
X012589Y011691D03*
X012594Y011706D03*
X012599Y011716D03*
X012604Y011731D03*
X012609Y011741D03*
X012614Y011756D03*
X012619Y011766D03*
X012624Y011776D03*
X012629Y011791D03*
X012634Y011801D03*
X012639Y011816D03*
X012644Y011826D03*
X012569Y011981D03*
X012569Y011986D03*
X012619Y012081D03*
X012624Y012091D03*
X012629Y012101D03*
X012634Y012106D03*
X012634Y012111D03*
X012639Y012116D03*
X012639Y012121D03*
X012644Y012126D03*
X012644Y012131D03*
X012649Y012136D03*
X012649Y012141D03*
X012654Y012146D03*
X012654Y012151D03*
X012659Y012156D03*
X012659Y012161D03*
X012664Y012166D03*
X012664Y012171D03*
X012669Y012176D03*
X012669Y012181D03*
X012674Y012186D03*
X012674Y012191D03*
X012679Y012196D03*
X012679Y012201D03*
X012684Y012206D03*
X012689Y012216D03*
X012694Y012226D03*
X012699Y012236D03*
X012704Y012246D03*
X012709Y012256D03*
X012714Y012266D03*
X012719Y012276D03*
X012724Y012286D03*
X012729Y012296D03*
X012759Y012351D03*
X012764Y012361D03*
X012769Y012371D03*
X012774Y012381D03*
X012779Y012391D03*
X012784Y012401D03*
X012789Y012411D03*
X012794Y012421D03*
X012799Y012431D03*
X012804Y012441D03*
X012809Y012451D03*
X012814Y012461D03*
X012819Y012471D03*
X012824Y012481D03*
X012829Y012491D03*
X012834Y012501D03*
X012839Y012511D03*
X012844Y012521D03*
X012849Y012531D03*
X012854Y012541D03*
X012734Y012056D03*
X012799Y011941D03*
X012814Y011916D03*
X012829Y011891D03*
X012834Y011881D03*
X012844Y011866D03*
X012849Y011856D03*
X012854Y011846D03*
X012859Y011841D03*
X012864Y011831D03*
X012869Y011821D03*
X012874Y011816D03*
X012879Y011806D03*
X012884Y011796D03*
X012889Y011786D03*
X012894Y011781D03*
X012894Y011776D03*
X012899Y011771D03*
X012899Y011766D03*
X012904Y011761D03*
X012909Y011756D03*
X012909Y011751D03*
X012914Y011746D03*
X012914Y011741D03*
X012919Y011736D03*
X012924Y011731D03*
X012924Y011726D03*
X012929Y011721D03*
X012929Y011716D03*
X012934Y011711D03*
X012939Y011706D03*
X012939Y011701D03*
X012944Y011696D03*
X012944Y011691D03*
X012949Y011686D03*
X012954Y011681D03*
X012954Y011676D03*
X012959Y011671D03*
X012959Y011666D03*
X012964Y011661D03*
X012969Y011656D03*
X012969Y011651D03*
X012974Y011646D03*
X012974Y011641D03*
X012979Y011636D03*
X012984Y011631D03*
X012984Y011626D03*
X012989Y011621D03*
X012989Y011616D03*
X012994Y011611D03*
X012999Y011606D03*
X012999Y011601D03*
X013004Y011596D03*
X013004Y011591D03*
X013009Y011586D03*
X013014Y011581D03*
X013014Y011576D03*
X013019Y011571D03*
X013019Y011566D03*
X013024Y011561D03*
X013029Y011556D03*
X013029Y011551D03*
X013034Y011546D03*
X013139Y011641D03*
X013139Y011646D03*
X013184Y011741D03*
X013189Y011751D03*
X013194Y011761D03*
X013199Y011771D03*
X013204Y011781D03*
X013209Y011791D03*
X013214Y011801D03*
X013299Y011966D03*
X013219Y011246D03*
X012069Y012656D03*
X012064Y012666D03*
X012064Y012671D03*
X012059Y012681D03*
X012054Y012691D03*
X012054Y012696D03*
X012049Y012706D03*
X012044Y012716D03*
X012044Y012721D03*
X012039Y012731D03*
X012039Y012736D03*
X012034Y012741D03*
X012034Y012746D03*
X012029Y012756D03*
X012029Y012761D03*
X012024Y012766D03*
X012024Y012771D03*
X012019Y012781D03*
X012019Y012786D03*
X012014Y012796D03*
X012009Y012806D03*
X012009Y012811D03*
X012004Y012821D03*
X011999Y012831D03*
X011999Y012836D03*
X011994Y012846D03*
X011989Y012856D03*
X011989Y012861D03*
X011984Y012871D03*
X011979Y012881D03*
X011979Y012886D03*
X011974Y012896D03*
X011969Y012906D03*
X011969Y012911D03*
X011964Y012921D03*
X011959Y012936D03*
X011954Y012946D03*
D75*
X011937Y012581D03*
X012302Y011251D03*
D76*
X012514Y011536D03*
X012569Y011991D03*
X012569Y011996D03*
X013029Y011541D03*
X013214Y011251D03*
X013289Y011936D03*
X013289Y011941D03*
X012899Y012616D03*
X012899Y012621D03*
D77*
X013382Y012916D03*
X011927Y012566D03*
X012302Y011256D03*
D78*
X012622Y011256D03*
X011887Y011441D03*
X011882Y011446D03*
X011632Y011961D03*
X011627Y011966D03*
X011622Y011971D03*
X011622Y012421D03*
X011627Y012426D03*
X011632Y012431D03*
X013022Y012771D03*
X014272Y012311D03*
X014277Y012306D03*
X014282Y011861D03*
X014277Y011856D03*
X014272Y011851D03*
X014267Y011846D03*
X014242Y011821D03*
X014232Y011806D03*
X014182Y011371D03*
X014177Y011366D03*
X014172Y011361D03*
D79*
X013212Y011256D03*
X013142Y011661D03*
X013142Y011666D03*
X013142Y011671D03*
X013287Y011926D03*
X013287Y011931D03*
X012737Y012041D03*
X012572Y012006D03*
X012572Y012001D03*
X012897Y012611D03*
X013017Y012736D03*
D80*
X012392Y011261D03*
D81*
X013749Y011261D03*
D82*
X013207Y011266D03*
X013142Y011681D03*
X013277Y011896D03*
X013277Y011901D03*
X013282Y011911D03*
X012737Y012031D03*
X012577Y012016D03*
X012517Y011546D03*
X012897Y012596D03*
X012897Y012601D03*
X012432Y012851D03*
D83*
X013997Y012461D03*
X013517Y011266D03*
D84*
X012367Y011271D03*
D85*
X012517Y011561D03*
X012577Y012026D03*
X012577Y012031D03*
X012897Y012586D03*
X012897Y012591D03*
X012617Y012976D03*
X012057Y012641D03*
X013272Y011881D03*
X013272Y011876D03*
X013147Y011696D03*
X013002Y011416D03*
X013017Y011406D03*
X013037Y011391D03*
X013052Y011381D03*
X013057Y011376D03*
X013067Y011371D03*
X013122Y011331D03*
X013137Y011321D03*
X013202Y011271D03*
D86*
X013504Y011271D03*
X012034Y011351D03*
X011974Y012611D03*
D87*
X013379Y012871D03*
X012359Y011276D03*
D88*
X012517Y011571D03*
X012582Y012046D03*
X013147Y011716D03*
X013147Y011711D03*
X013147Y011706D03*
X013262Y011846D03*
X013262Y011851D03*
X013017Y011536D03*
X012932Y011466D03*
X013077Y011366D03*
X013082Y011361D03*
X013097Y011351D03*
X013202Y011276D03*
X013462Y011316D03*
D89*
X014032Y011276D03*
X014127Y012401D03*
X013647Y012821D03*
X013032Y012796D03*
D90*
X013019Y012746D03*
X012894Y012571D03*
X012894Y012566D03*
X012444Y012856D03*
X012579Y012051D03*
X012739Y012006D03*
X012519Y011581D03*
X012519Y011576D03*
X012924Y011476D03*
X013149Y011721D03*
X013259Y011836D03*
X013259Y011841D03*
X013199Y011281D03*
D91*
X012954Y011506D03*
X014044Y011281D03*
X013664Y012816D03*
D92*
X012342Y011286D03*
D93*
X012544Y011366D03*
X012519Y011591D03*
X012584Y012066D03*
X012584Y012071D03*
X012889Y012551D03*
X013019Y012751D03*
X013254Y011821D03*
X013249Y011811D03*
X013149Y011731D03*
X013464Y011311D03*
X013194Y011286D03*
D94*
X012334Y011291D03*
X013379Y012866D03*
D95*
X012587Y012076D03*
X012742Y011991D03*
X012742Y011986D03*
X012517Y011596D03*
X013192Y011291D03*
D96*
X014069Y011291D03*
X013949Y012496D03*
X013684Y012806D03*
X013379Y012936D03*
X011989Y012621D03*
X011734Y012501D03*
X011739Y011886D03*
X011749Y011881D03*
X011754Y011876D03*
X011759Y011871D03*
D97*
X012519Y011601D03*
X013189Y011296D03*
D98*
X013474Y011296D03*
X012989Y011526D03*
X012534Y011356D03*
X011874Y011451D03*
X011869Y011456D03*
X011864Y011461D03*
X011619Y012416D03*
X013379Y012941D03*
X013799Y012726D03*
X013804Y012721D03*
X013809Y012716D03*
X013814Y012711D03*
X014279Y012301D03*
X014284Y012296D03*
X014289Y012291D03*
X014284Y011866D03*
X014229Y011801D03*
X014189Y011376D03*
D99*
X012317Y011301D03*
X012312Y011306D03*
D100*
X012539Y011361D03*
X011794Y011581D03*
X011789Y011591D03*
X011789Y011596D03*
X011789Y011601D03*
X011784Y011606D03*
X011784Y011611D03*
X011784Y011616D03*
X011784Y011621D03*
X011779Y011636D03*
X011779Y011641D03*
X011779Y011646D03*
X011779Y011651D03*
X011779Y011656D03*
X011779Y011661D03*
X011779Y011666D03*
X011779Y011671D03*
X011779Y011676D03*
X011779Y011681D03*
X011779Y011686D03*
X011779Y011691D03*
X011779Y011696D03*
X011779Y011701D03*
X011779Y011706D03*
X011779Y011711D03*
X011779Y011716D03*
X011784Y011726D03*
X011784Y011731D03*
X011784Y011736D03*
X011784Y011741D03*
X011789Y011751D03*
X011789Y011756D03*
X011789Y011761D03*
X011794Y011771D03*
X011539Y012101D03*
X011534Y012116D03*
X011534Y012121D03*
X011534Y012126D03*
X011529Y012131D03*
X011529Y012136D03*
X011529Y012141D03*
X011529Y012146D03*
X011524Y012156D03*
X011524Y012161D03*
X011524Y012166D03*
X011524Y012171D03*
X011524Y012176D03*
X011524Y012181D03*
X011524Y012186D03*
X011524Y012191D03*
X011524Y012196D03*
X011524Y012201D03*
X011524Y012206D03*
X011524Y012211D03*
X011524Y012216D03*
X011524Y012221D03*
X011524Y012226D03*
X011524Y012231D03*
X011529Y012246D03*
X011529Y012251D03*
X011529Y012256D03*
X011529Y012261D03*
X011534Y012266D03*
X011534Y012271D03*
X011534Y012276D03*
X011539Y012286D03*
X011539Y012291D03*
X013184Y011301D03*
X014264Y011496D03*
X014269Y011506D03*
X014269Y011511D03*
X014269Y011516D03*
X014274Y011526D03*
X014274Y011531D03*
X014274Y011536D03*
X014279Y011546D03*
X014279Y011551D03*
X014279Y011556D03*
X014279Y011561D03*
X014279Y011566D03*
X014284Y011606D03*
X014284Y011611D03*
X014284Y011616D03*
X014279Y011636D03*
X014279Y011641D03*
X014279Y011646D03*
X014279Y011651D03*
X014279Y011656D03*
X014274Y011661D03*
X014274Y011666D03*
X014274Y011671D03*
X014274Y011676D03*
X014269Y011681D03*
X014269Y011686D03*
X014264Y011701D03*
X014354Y011971D03*
X014359Y011986D03*
X014364Y011996D03*
X014364Y012001D03*
X014364Y012006D03*
X014369Y012016D03*
X014369Y012021D03*
X014369Y012026D03*
X014369Y012031D03*
X014374Y012046D03*
X014374Y012051D03*
X014374Y012056D03*
X014374Y012061D03*
X014374Y012066D03*
X014374Y012071D03*
X014374Y012076D03*
X014374Y012081D03*
X014374Y012086D03*
X014374Y012091D03*
X014374Y012096D03*
X014374Y012101D03*
X014374Y012106D03*
X014374Y012111D03*
X014369Y012131D03*
X014369Y012136D03*
X014369Y012141D03*
X014369Y012146D03*
X014364Y012151D03*
X014364Y012156D03*
X014364Y012161D03*
X014359Y012171D03*
X014359Y012176D03*
X013899Y012521D03*
X013899Y012526D03*
X013899Y012531D03*
X013894Y012546D03*
X013894Y012551D03*
X013894Y012556D03*
X013894Y012561D03*
X013889Y012571D03*
X013889Y012576D03*
X013889Y012581D03*
X013884Y012591D03*
X013879Y012606D03*
D101*
X013864Y012636D03*
X013864Y012641D03*
X013859Y012646D03*
X013859Y012651D03*
X013854Y012656D03*
X014324Y012246D03*
X014329Y012236D03*
X014334Y012231D03*
X014334Y012226D03*
X014339Y012221D03*
X014344Y012211D03*
X014339Y011941D03*
X014339Y011936D03*
X014334Y011931D03*
X014329Y011921D03*
X014224Y011781D03*
X014234Y011761D03*
X014239Y011751D03*
X014244Y011746D03*
X014249Y011736D03*
X014254Y011726D03*
X014254Y011471D03*
X014249Y011461D03*
X014244Y011451D03*
X014239Y011446D03*
X014239Y011441D03*
X014234Y011436D03*
X013469Y011301D03*
X013019Y012761D03*
X011809Y011806D03*
X011804Y011796D03*
X011809Y011541D03*
X011814Y011531D03*
X011819Y011526D03*
X011824Y011516D03*
X011569Y012036D03*
X011564Y012046D03*
X011559Y012056D03*
X011554Y012066D03*
X011549Y012076D03*
X011549Y012316D03*
X011554Y012326D03*
X011559Y012336D03*
X011564Y012346D03*
X011569Y012356D03*
D102*
X011562Y012341D03*
X011557Y012331D03*
X011552Y012321D03*
X011547Y012311D03*
X011547Y012306D03*
X011542Y012301D03*
X011542Y012296D03*
X011537Y012281D03*
X011537Y012111D03*
X011537Y012106D03*
X011542Y012096D03*
X011542Y012091D03*
X011547Y012086D03*
X011547Y012081D03*
X011552Y012071D03*
X011557Y012061D03*
X011562Y012051D03*
X011812Y011811D03*
X011807Y011801D03*
X011802Y011791D03*
X011802Y011786D03*
X011797Y011781D03*
X011797Y011776D03*
X011792Y011766D03*
X011787Y011746D03*
X011792Y011586D03*
X011797Y011576D03*
X011797Y011571D03*
X011797Y011566D03*
X011802Y011561D03*
X011802Y011556D03*
X011807Y011551D03*
X011807Y011546D03*
X011812Y011536D03*
X012932Y011481D03*
X013182Y011306D03*
X014247Y011456D03*
X014252Y011466D03*
X014257Y011476D03*
X014257Y011481D03*
X014262Y011486D03*
X014262Y011491D03*
X014267Y011501D03*
X014272Y011521D03*
X014267Y011691D03*
X014267Y011696D03*
X014262Y011706D03*
X014262Y011711D03*
X014257Y011716D03*
X014257Y011721D03*
X014252Y011731D03*
X014247Y011741D03*
X014342Y011946D03*
X014347Y011951D03*
X014347Y011956D03*
X014352Y011961D03*
X014352Y011966D03*
X014357Y011976D03*
X014357Y011981D03*
X014362Y011991D03*
X014367Y012011D03*
X014362Y012166D03*
X014357Y012181D03*
X014357Y012186D03*
X014352Y012191D03*
X014352Y012196D03*
X014347Y012201D03*
X014347Y012206D03*
X014342Y012216D03*
X013887Y012586D03*
X013882Y012596D03*
X013882Y012601D03*
X013877Y012611D03*
X013877Y012616D03*
X013872Y012621D03*
X013872Y012626D03*
X013867Y012631D03*
D103*
X013892Y012566D03*
X013897Y012541D03*
X013897Y012536D03*
X014372Y012126D03*
X014372Y012121D03*
X014372Y012116D03*
X014372Y012041D03*
X014372Y012036D03*
X014282Y011631D03*
X014282Y011626D03*
X014282Y011621D03*
X014282Y011601D03*
X014282Y011596D03*
X014282Y011591D03*
X014282Y011586D03*
X014282Y011581D03*
X014282Y011576D03*
X014282Y011571D03*
X014277Y011541D03*
X013467Y011306D03*
X013002Y011531D03*
X011782Y011626D03*
X011782Y011631D03*
X011782Y011721D03*
X011527Y012151D03*
X011527Y012236D03*
X011527Y012241D03*
X012457Y012861D03*
X013022Y012756D03*
D104*
X013379Y012861D03*
X012304Y011311D03*
D105*
X012517Y011346D03*
X012952Y011491D03*
X011957Y011386D03*
X011787Y011846D03*
X011697Y011911D03*
X011697Y012481D03*
X012002Y012626D03*
X013027Y012781D03*
X014107Y011311D03*
D106*
X014209Y011401D03*
X014214Y011406D03*
X014219Y011411D03*
X014299Y011881D03*
X014304Y011886D03*
X014309Y011891D03*
X014309Y011896D03*
X014314Y011901D03*
X014319Y011906D03*
X014314Y012261D03*
X014309Y012266D03*
X014304Y012271D03*
X014304Y012276D03*
X013834Y012686D03*
X013829Y012691D03*
X013174Y011316D03*
X011849Y011481D03*
X011844Y011486D03*
X011839Y011491D03*
X011599Y011996D03*
X011594Y012001D03*
X011589Y012006D03*
X011584Y012016D03*
X011584Y012376D03*
X011589Y012386D03*
X011594Y012391D03*
X011599Y012396D03*
X012024Y012636D03*
D107*
X012574Y012021D03*
X012739Y012021D03*
X012739Y012026D03*
X013144Y011691D03*
X013144Y011686D03*
X013274Y011886D03*
X013274Y011891D03*
X013459Y011321D03*
X012519Y011551D03*
X012519Y011556D03*
X013019Y012741D03*
D108*
X012902Y012626D03*
X012422Y012846D03*
X012112Y012531D03*
X012627Y012096D03*
X012622Y012086D03*
X012737Y012051D03*
X012737Y012046D03*
X012777Y011981D03*
X012777Y011976D03*
X012782Y011971D03*
X012787Y011966D03*
X012787Y011961D03*
X012792Y011956D03*
X012792Y011951D03*
X012797Y011946D03*
X012802Y011936D03*
X012807Y011931D03*
X012807Y011926D03*
X012812Y011921D03*
X012817Y011911D03*
X012822Y011906D03*
X012822Y011901D03*
X012827Y011896D03*
X012832Y011886D03*
X012837Y011876D03*
X012842Y011871D03*
X012847Y011861D03*
X012852Y011851D03*
X012862Y011836D03*
X012867Y011826D03*
X012877Y011811D03*
X012882Y011801D03*
X012887Y011791D03*
X013142Y011656D03*
X013142Y011651D03*
X013292Y011946D03*
X013292Y011951D03*
X013297Y011956D03*
X013297Y011961D03*
X013462Y011326D03*
X012517Y011531D03*
D109*
X012279Y011331D03*
D110*
X012272Y011336D03*
D111*
X012074Y011341D03*
X011954Y012596D03*
D112*
X012047Y011346D03*
X013632Y012826D03*
X013977Y012476D03*
D113*
X013827Y012696D03*
X013822Y012701D03*
X013817Y012706D03*
X014292Y012286D03*
X014297Y012281D03*
X014297Y011876D03*
X014292Y011871D03*
X014227Y011796D03*
X014207Y011396D03*
X014202Y011391D03*
X014197Y011386D03*
X014192Y011381D03*
X013022Y012766D03*
X011807Y011821D03*
X011617Y011976D03*
X011612Y011981D03*
X011607Y011986D03*
X011602Y011991D03*
X011602Y012401D03*
X011607Y012406D03*
X011612Y012411D03*
X011852Y011476D03*
X011857Y011471D03*
X011862Y011466D03*
D114*
X012512Y011446D03*
X012552Y011891D03*
X012552Y011896D03*
X013132Y011546D03*
X013347Y012121D03*
X013347Y012126D03*
X013017Y012726D03*
D115*
X012914Y012716D03*
X012914Y012711D03*
X012729Y012121D03*
X012729Y012116D03*
X012554Y011901D03*
X012514Y011451D03*
X013129Y011551D03*
X013129Y011556D03*
X013344Y012111D03*
X013344Y012116D03*
D116*
X013342Y012106D03*
X013342Y012101D03*
X013132Y011566D03*
X013132Y011561D03*
X012512Y011456D03*
X012552Y011906D03*
X012732Y012111D03*
X012912Y012701D03*
X012912Y012706D03*
X013377Y012946D03*
D117*
X013339Y012096D03*
X013339Y012091D03*
X013334Y012086D03*
X013334Y012081D03*
X012729Y012106D03*
X012554Y011916D03*
X012554Y011911D03*
X012514Y011466D03*
X012514Y011461D03*
D118*
X012514Y011476D03*
X012514Y011481D03*
X012559Y011931D03*
X013134Y011591D03*
X013134Y011586D03*
X013134Y011581D03*
X013329Y012061D03*
X013329Y012066D03*
X012909Y012681D03*
X012909Y012686D03*
D119*
X012892Y012561D03*
X012892Y012556D03*
X012742Y012001D03*
X012742Y011996D03*
X012582Y012056D03*
X012582Y012061D03*
X012517Y011586D03*
X013147Y011726D03*
X013252Y011816D03*
X013257Y011826D03*
X013257Y011831D03*
D120*
X013317Y012021D03*
X013317Y012026D03*
X013137Y011611D03*
X013137Y011606D03*
X012732Y012081D03*
X012562Y011956D03*
X012562Y011951D03*
X012907Y012661D03*
X012907Y012666D03*
D121*
X014029Y012436D03*
X014044Y012426D03*
X014054Y012421D03*
D122*
X014037Y012431D03*
X011942Y012586D03*
D123*
X013039Y012811D03*
X013379Y012926D03*
X014004Y012456D03*
D124*
X013989Y012466D03*
X013614Y012831D03*
X011959Y012601D03*
D125*
X011902Y012536D03*
X012612Y012941D03*
D126*
X011904Y012541D03*
D127*
X011914Y012551D03*
X013379Y012911D03*
D128*
X011917Y012556D03*
D129*
X011964Y012606D03*
D130*
X013044Y012816D03*
D131*
X013047Y012821D03*
D132*
X013054Y012826D03*
X012594Y012951D03*
D133*
X013064Y012831D03*
X013379Y012906D03*
D134*
X013287Y012836D03*
D135*
X013277Y012841D03*
D136*
X013264Y012846D03*
D137*
X013249Y012851D03*
D138*
X013232Y012856D03*
D139*
X012692Y012871D03*
X012687Y012876D03*
D140*
X013379Y012876D03*
D141*
X012682Y012881D03*
D142*
X013379Y012881D03*
D143*
X013379Y012886D03*
X012674Y012891D03*
D144*
X012664Y012901D03*
X013379Y012891D03*
D145*
X013379Y012896D03*
D146*
X013382Y012901D03*
D147*
X012657Y012906D03*
D148*
X012642Y012921D03*
D149*
X013382Y012921D03*
D150*
X012634Y012926D03*
D151*
X012619Y012936D03*
D152*
X012584Y012956D03*
D153*
X005612Y004990D02*
X005612Y021526D01*
X006557Y021526D02*
X006559Y021576D01*
X006565Y021626D01*
X006575Y021675D01*
X006589Y021723D01*
X006606Y021770D01*
X006627Y021815D01*
X006652Y021859D01*
X006680Y021900D01*
X006712Y021939D01*
X006746Y021976D01*
X006783Y022010D01*
X006823Y022040D01*
X006865Y022067D01*
X006909Y022091D01*
X006955Y022112D01*
X007002Y022128D01*
X007050Y022141D01*
X007100Y022150D01*
X007149Y022155D01*
X007200Y022156D01*
X007250Y022153D01*
X007299Y022146D01*
X007348Y022135D01*
X007396Y022120D01*
X007442Y022102D01*
X007487Y022080D01*
X007530Y022054D01*
X007571Y022025D01*
X007610Y021993D01*
X007646Y021958D01*
X007678Y021920D01*
X007708Y021880D01*
X007735Y021837D01*
X007758Y021793D01*
X007777Y021747D01*
X007793Y021699D01*
X007805Y021650D01*
X007813Y021601D01*
X007817Y021551D01*
X007817Y021501D01*
X007813Y021451D01*
X007805Y021402D01*
X007793Y021353D01*
X007777Y021305D01*
X007758Y021259D01*
X007735Y021215D01*
X007708Y021172D01*
X007678Y021132D01*
X007646Y021094D01*
X007610Y021059D01*
X007571Y021027D01*
X007530Y020998D01*
X007487Y020972D01*
X007442Y020950D01*
X007396Y020932D01*
X007348Y020917D01*
X007299Y020906D01*
X007250Y020899D01*
X007200Y020896D01*
X007149Y020897D01*
X007100Y020902D01*
X007050Y020911D01*
X007002Y020924D01*
X006955Y020940D01*
X006909Y020961D01*
X006865Y020985D01*
X006823Y021012D01*
X006783Y021042D01*
X006746Y021076D01*
X006712Y021113D01*
X006680Y021152D01*
X006652Y021193D01*
X006627Y021237D01*
X006606Y021282D01*
X006589Y021329D01*
X006575Y021377D01*
X006565Y021426D01*
X006559Y021476D01*
X006557Y021526D01*
X005612Y021526D02*
X005614Y021603D01*
X005620Y021680D01*
X005629Y021757D01*
X005642Y021833D01*
X005659Y021909D01*
X005680Y021983D01*
X005704Y022057D01*
X005732Y022129D01*
X005763Y022199D01*
X005798Y022268D01*
X005836Y022336D01*
X005877Y022401D01*
X005922Y022464D01*
X005970Y022525D01*
X006020Y022584D01*
X006073Y022640D01*
X006129Y022693D01*
X006188Y022743D01*
X006249Y022791D01*
X006312Y022836D01*
X006377Y022877D01*
X006445Y022915D01*
X006514Y022950D01*
X006584Y022981D01*
X006656Y023009D01*
X006730Y023033D01*
X006804Y023054D01*
X006880Y023071D01*
X006956Y023084D01*
X007033Y023093D01*
X007110Y023099D01*
X007187Y023101D01*
X023722Y023101D01*
X023092Y021526D02*
X023094Y021576D01*
X023100Y021626D01*
X023110Y021675D01*
X023124Y021723D01*
X023141Y021770D01*
X023162Y021815D01*
X023187Y021859D01*
X023215Y021900D01*
X023247Y021939D01*
X023281Y021976D01*
X023318Y022010D01*
X023358Y022040D01*
X023400Y022067D01*
X023444Y022091D01*
X023490Y022112D01*
X023537Y022128D01*
X023585Y022141D01*
X023635Y022150D01*
X023684Y022155D01*
X023735Y022156D01*
X023785Y022153D01*
X023834Y022146D01*
X023883Y022135D01*
X023931Y022120D01*
X023977Y022102D01*
X024022Y022080D01*
X024065Y022054D01*
X024106Y022025D01*
X024145Y021993D01*
X024181Y021958D01*
X024213Y021920D01*
X024243Y021880D01*
X024270Y021837D01*
X024293Y021793D01*
X024312Y021747D01*
X024328Y021699D01*
X024340Y021650D01*
X024348Y021601D01*
X024352Y021551D01*
X024352Y021501D01*
X024348Y021451D01*
X024340Y021402D01*
X024328Y021353D01*
X024312Y021305D01*
X024293Y021259D01*
X024270Y021215D01*
X024243Y021172D01*
X024213Y021132D01*
X024181Y021094D01*
X024145Y021059D01*
X024106Y021027D01*
X024065Y020998D01*
X024022Y020972D01*
X023977Y020950D01*
X023931Y020932D01*
X023883Y020917D01*
X023834Y020906D01*
X023785Y020899D01*
X023735Y020896D01*
X023684Y020897D01*
X023635Y020902D01*
X023585Y020911D01*
X023537Y020924D01*
X023490Y020940D01*
X023444Y020961D01*
X023400Y020985D01*
X023358Y021012D01*
X023318Y021042D01*
X023281Y021076D01*
X023247Y021113D01*
X023215Y021152D01*
X023187Y021193D01*
X023162Y021237D01*
X023141Y021282D01*
X023124Y021329D01*
X023110Y021377D01*
X023100Y021426D01*
X023094Y021476D01*
X023092Y021526D01*
X023722Y023101D02*
X023799Y023099D01*
X023876Y023093D01*
X023953Y023084D01*
X024029Y023071D01*
X024105Y023054D01*
X024179Y023033D01*
X024253Y023009D01*
X024325Y022981D01*
X024395Y022950D01*
X024464Y022915D01*
X024532Y022877D01*
X024597Y022836D01*
X024660Y022791D01*
X024721Y022743D01*
X024780Y022693D01*
X024836Y022640D01*
X024889Y022584D01*
X024939Y022525D01*
X024987Y022464D01*
X025032Y022401D01*
X025073Y022336D01*
X025111Y022268D01*
X025146Y022199D01*
X025177Y022129D01*
X025205Y022057D01*
X025229Y021983D01*
X025250Y021909D01*
X025267Y021833D01*
X025280Y021757D01*
X025289Y021680D01*
X025295Y021603D01*
X025297Y021526D01*
X025297Y004990D01*
X023092Y004990D02*
X023094Y005040D01*
X023100Y005090D01*
X023110Y005139D01*
X023124Y005187D01*
X023141Y005234D01*
X023162Y005279D01*
X023187Y005323D01*
X023215Y005364D01*
X023247Y005403D01*
X023281Y005440D01*
X023318Y005474D01*
X023358Y005504D01*
X023400Y005531D01*
X023444Y005555D01*
X023490Y005576D01*
X023537Y005592D01*
X023585Y005605D01*
X023635Y005614D01*
X023684Y005619D01*
X023735Y005620D01*
X023785Y005617D01*
X023834Y005610D01*
X023883Y005599D01*
X023931Y005584D01*
X023977Y005566D01*
X024022Y005544D01*
X024065Y005518D01*
X024106Y005489D01*
X024145Y005457D01*
X024181Y005422D01*
X024213Y005384D01*
X024243Y005344D01*
X024270Y005301D01*
X024293Y005257D01*
X024312Y005211D01*
X024328Y005163D01*
X024340Y005114D01*
X024348Y005065D01*
X024352Y005015D01*
X024352Y004965D01*
X024348Y004915D01*
X024340Y004866D01*
X024328Y004817D01*
X024312Y004769D01*
X024293Y004723D01*
X024270Y004679D01*
X024243Y004636D01*
X024213Y004596D01*
X024181Y004558D01*
X024145Y004523D01*
X024106Y004491D01*
X024065Y004462D01*
X024022Y004436D01*
X023977Y004414D01*
X023931Y004396D01*
X023883Y004381D01*
X023834Y004370D01*
X023785Y004363D01*
X023735Y004360D01*
X023684Y004361D01*
X023635Y004366D01*
X023585Y004375D01*
X023537Y004388D01*
X023490Y004404D01*
X023444Y004425D01*
X023400Y004449D01*
X023358Y004476D01*
X023318Y004506D01*
X023281Y004540D01*
X023247Y004577D01*
X023215Y004616D01*
X023187Y004657D01*
X023162Y004701D01*
X023141Y004746D01*
X023124Y004793D01*
X023110Y004841D01*
X023100Y004890D01*
X023094Y004940D01*
X023092Y004990D01*
X023722Y003415D02*
X023799Y003417D01*
X023876Y003423D01*
X023953Y003432D01*
X024029Y003445D01*
X024105Y003462D01*
X024179Y003483D01*
X024253Y003507D01*
X024325Y003535D01*
X024395Y003566D01*
X024464Y003601D01*
X024532Y003639D01*
X024597Y003680D01*
X024660Y003725D01*
X024721Y003773D01*
X024780Y003823D01*
X024836Y003876D01*
X024889Y003932D01*
X024939Y003991D01*
X024987Y004052D01*
X025032Y004115D01*
X025073Y004180D01*
X025111Y004248D01*
X025146Y004317D01*
X025177Y004387D01*
X025205Y004459D01*
X025229Y004533D01*
X025250Y004607D01*
X025267Y004683D01*
X025280Y004759D01*
X025289Y004836D01*
X025295Y004913D01*
X025297Y004990D01*
X023722Y003416D02*
X007187Y003416D01*
X006557Y004990D02*
X006559Y005040D01*
X006565Y005090D01*
X006575Y005139D01*
X006589Y005187D01*
X006606Y005234D01*
X006627Y005279D01*
X006652Y005323D01*
X006680Y005364D01*
X006712Y005403D01*
X006746Y005440D01*
X006783Y005474D01*
X006823Y005504D01*
X006865Y005531D01*
X006909Y005555D01*
X006955Y005576D01*
X007002Y005592D01*
X007050Y005605D01*
X007100Y005614D01*
X007149Y005619D01*
X007200Y005620D01*
X007250Y005617D01*
X007299Y005610D01*
X007348Y005599D01*
X007396Y005584D01*
X007442Y005566D01*
X007487Y005544D01*
X007530Y005518D01*
X007571Y005489D01*
X007610Y005457D01*
X007646Y005422D01*
X007678Y005384D01*
X007708Y005344D01*
X007735Y005301D01*
X007758Y005257D01*
X007777Y005211D01*
X007793Y005163D01*
X007805Y005114D01*
X007813Y005065D01*
X007817Y005015D01*
X007817Y004965D01*
X007813Y004915D01*
X007805Y004866D01*
X007793Y004817D01*
X007777Y004769D01*
X007758Y004723D01*
X007735Y004679D01*
X007708Y004636D01*
X007678Y004596D01*
X007646Y004558D01*
X007610Y004523D01*
X007571Y004491D01*
X007530Y004462D01*
X007487Y004436D01*
X007442Y004414D01*
X007396Y004396D01*
X007348Y004381D01*
X007299Y004370D01*
X007250Y004363D01*
X007200Y004360D01*
X007149Y004361D01*
X007100Y004366D01*
X007050Y004375D01*
X007002Y004388D01*
X006955Y004404D01*
X006909Y004425D01*
X006865Y004449D01*
X006823Y004476D01*
X006783Y004506D01*
X006746Y004540D01*
X006712Y004577D01*
X006680Y004616D01*
X006652Y004657D01*
X006627Y004701D01*
X006606Y004746D01*
X006589Y004793D01*
X006575Y004841D01*
X006565Y004890D01*
X006559Y004940D01*
X006557Y004990D01*
X005612Y004990D02*
X005614Y004913D01*
X005620Y004836D01*
X005629Y004759D01*
X005642Y004683D01*
X005659Y004607D01*
X005680Y004533D01*
X005704Y004459D01*
X005732Y004387D01*
X005763Y004317D01*
X005798Y004248D01*
X005836Y004180D01*
X005877Y004115D01*
X005922Y004052D01*
X005970Y003991D01*
X006020Y003932D01*
X006073Y003876D01*
X006129Y003823D01*
X006188Y003773D01*
X006249Y003725D01*
X006312Y003680D01*
X006377Y003639D01*
X006445Y003601D01*
X006514Y003566D01*
X006584Y003535D01*
X006656Y003507D01*
X006730Y003483D01*
X006804Y003462D01*
X006880Y003445D01*
X006956Y003432D01*
X007033Y003423D01*
X007110Y003417D01*
X007187Y003415D01*
X011452Y010706D02*
X011458Y010716D01*
X011461Y010716D02*
X011461Y010707D01*
X011463Y010706D01*
X011466Y010706D01*
X011468Y010707D01*
X011468Y010716D01*
X011472Y010712D02*
X011477Y010712D01*
X011479Y010711D02*
X011481Y010712D01*
X011484Y010712D01*
X011486Y010711D01*
X011486Y010709D01*
X011479Y010709D01*
X011479Y010707D02*
X011479Y010711D01*
X011479Y010707D02*
X011481Y010706D01*
X011484Y010706D01*
X011489Y010706D02*
X011489Y010712D01*
X011492Y010712D02*
X011494Y010712D01*
X011492Y010712D02*
X011489Y010709D01*
X011496Y010711D02*
X011498Y010712D01*
X011503Y010712D01*
X011501Y010709D02*
X011498Y010709D01*
X011496Y010711D01*
X011496Y010706D02*
X011501Y010706D01*
X011503Y010707D01*
X011501Y010709D01*
X011506Y010706D02*
X011512Y010716D01*
X011515Y010712D02*
X011518Y010712D01*
X011516Y010714D02*
X011516Y010707D01*
X011518Y010706D01*
X011521Y010706D02*
X011521Y010716D01*
X011523Y010712D02*
X011526Y010712D01*
X011528Y010711D01*
X011528Y010706D01*
X011530Y010707D02*
X011532Y010706D01*
X011535Y010706D01*
X011537Y010707D01*
X011537Y010711D01*
X011535Y010712D01*
X011532Y010712D01*
X011530Y010711D01*
X011530Y010707D01*
X011523Y010712D02*
X011521Y010711D01*
X011539Y010712D02*
X011541Y010712D01*
X011543Y010711D01*
X011544Y010712D01*
X011546Y010711D01*
X011546Y010706D01*
X011548Y010707D02*
X011550Y010709D01*
X011555Y010709D01*
X011555Y010711D02*
X011555Y010706D01*
X011550Y010706D01*
X011548Y010707D01*
X011543Y010706D02*
X011543Y010711D01*
X011539Y010712D02*
X011539Y010706D01*
X011550Y010712D02*
X011553Y010712D01*
X011555Y010711D01*
X011558Y010711D02*
X011559Y010712D01*
X011564Y010712D01*
X011567Y010712D02*
X011572Y010712D01*
X011574Y010711D01*
X011574Y010707D01*
X011572Y010706D01*
X011567Y010706D01*
X011564Y010707D02*
X011563Y010709D01*
X011559Y010709D01*
X011558Y010711D01*
X011558Y010706D02*
X011563Y010706D01*
X011564Y010707D01*
X011567Y010702D02*
X011567Y010712D01*
X011576Y010712D02*
X011576Y010706D01*
X011576Y010709D02*
X011579Y010712D01*
X011581Y010712D01*
X011584Y010712D02*
X011585Y010712D01*
X011585Y010706D01*
X011584Y010706D02*
X011587Y010706D01*
X011590Y010707D02*
X011592Y010706D01*
X011597Y010706D01*
X011599Y010707D02*
X011599Y010711D01*
X011601Y010712D01*
X011604Y010712D01*
X011606Y010711D01*
X011606Y010709D01*
X011599Y010709D01*
X011599Y010707D02*
X011601Y010706D01*
X011604Y010706D01*
X011608Y010706D02*
X011615Y010716D01*
X011618Y010716D02*
X011623Y010716D01*
X011624Y010714D01*
X011624Y010707D01*
X011623Y010706D01*
X011618Y010706D01*
X011618Y010716D01*
X011627Y010711D02*
X011627Y010707D01*
X011628Y010706D01*
X011632Y010706D01*
X011633Y010707D01*
X011633Y010711D01*
X011632Y010712D01*
X011628Y010712D01*
X011627Y010711D01*
X011636Y010711D02*
X011636Y010707D01*
X011638Y010706D01*
X011643Y010706D01*
X011645Y010707D02*
X011647Y010706D01*
X011652Y010706D01*
X011652Y010712D01*
X011654Y010712D02*
X011656Y010712D01*
X011658Y010711D01*
X011659Y010712D01*
X011661Y010711D01*
X011661Y010706D01*
X011664Y010707D02*
X011664Y010711D01*
X011665Y010712D01*
X011669Y010712D01*
X011670Y010711D01*
X011670Y010709D01*
X011664Y010709D01*
X011664Y010707D02*
X011665Y010706D01*
X011669Y010706D01*
X011673Y010706D02*
X011673Y010712D01*
X011678Y010712D01*
X011679Y010711D01*
X011679Y010706D01*
X011684Y010707D02*
X011685Y010706D01*
X011684Y010707D02*
X011684Y010714D01*
X011682Y010712D02*
X011685Y010712D01*
X011688Y010711D02*
X011690Y010712D01*
X011695Y010712D01*
X011693Y010709D02*
X011690Y010709D01*
X011688Y010711D01*
X011688Y010706D02*
X011693Y010706D01*
X011695Y010707D01*
X011693Y010709D01*
X011697Y010706D02*
X011704Y010716D01*
X011708Y010712D02*
X011712Y010712D01*
X011713Y010711D01*
X011713Y010709D01*
X011707Y010709D01*
X011707Y010711D02*
X011708Y010712D01*
X011707Y010711D02*
X011707Y010707D01*
X011708Y010706D01*
X011712Y010706D01*
X011716Y010707D02*
X011717Y010709D01*
X011722Y010709D01*
X011722Y010711D02*
X011722Y010706D01*
X011717Y010706D01*
X011716Y010707D01*
X011717Y010712D02*
X011721Y010712D01*
X011722Y010711D01*
X011725Y010711D02*
X011725Y010707D01*
X011727Y010706D01*
X011732Y010706D01*
X011732Y010704D02*
X011732Y010712D01*
X011727Y010712D01*
X011725Y010711D01*
X011728Y010702D02*
X011730Y010702D01*
X011732Y010704D01*
X011734Y010706D02*
X011738Y010706D01*
X011736Y010706D02*
X011736Y010716D01*
X011734Y010716D01*
X011740Y010711D02*
X011742Y010712D01*
X011745Y010712D01*
X011747Y010711D01*
X011747Y010709D01*
X011740Y010709D01*
X011740Y010707D02*
X011740Y010711D01*
X011740Y010707D02*
X011742Y010706D01*
X011745Y010706D01*
X011750Y010706D02*
X011756Y010716D01*
X011759Y010716D02*
X011760Y010716D01*
X011760Y010706D01*
X011759Y010706D02*
X011762Y010706D01*
X011765Y010707D02*
X011767Y010706D01*
X011770Y010706D01*
X011772Y010707D01*
X011772Y010711D01*
X011770Y010712D01*
X011767Y010712D01*
X011765Y010711D01*
X011765Y010707D01*
X011774Y010707D02*
X011776Y010706D01*
X011781Y010706D01*
X011781Y010704D02*
X011781Y010712D01*
X011776Y010712D01*
X011774Y010711D01*
X011774Y010707D01*
X011777Y010702D02*
X011779Y010702D01*
X011781Y010704D01*
X011783Y010707D02*
X011785Y010706D01*
X011788Y010706D01*
X011790Y010707D01*
X011790Y010711D01*
X011788Y010712D01*
X011785Y010712D01*
X011783Y010711D01*
X011783Y010707D01*
X011792Y010706D02*
X011799Y010716D01*
X011802Y010716D02*
X011805Y010712D01*
X011808Y010716D01*
X011808Y010706D01*
X011811Y010707D02*
X011813Y010709D01*
X011818Y010709D01*
X011818Y010711D02*
X011818Y010706D01*
X011813Y010706D01*
X011811Y010707D01*
X011813Y010712D02*
X011816Y010712D01*
X011818Y010711D01*
X011820Y010711D02*
X011820Y010707D01*
X011822Y010706D01*
X011827Y010706D01*
X011827Y010704D02*
X011827Y010712D01*
X011822Y010712D01*
X011820Y010711D01*
X011823Y010702D02*
X011825Y010702D01*
X011827Y010704D01*
X011829Y010706D02*
X011833Y010706D01*
X011831Y010706D02*
X011831Y010712D01*
X011829Y010712D01*
X011831Y010716D02*
X011831Y010717D01*
X011837Y010712D02*
X011835Y010711D01*
X011835Y010707D01*
X011837Y010706D01*
X011842Y010706D01*
X011845Y010704D02*
X011851Y010704D01*
X011854Y010707D02*
X011856Y010706D01*
X011859Y010706D01*
X011861Y010707D01*
X011861Y010709D01*
X011859Y010711D01*
X011856Y010711D01*
X011854Y010712D01*
X011854Y010714D01*
X011856Y010716D01*
X011859Y010716D01*
X011861Y010714D01*
X011863Y010712D02*
X011865Y010712D01*
X011866Y010711D01*
X011868Y010712D01*
X011870Y010711D01*
X011870Y010706D01*
X011872Y010707D02*
X011874Y010706D01*
X011877Y010706D01*
X011879Y010707D01*
X011879Y010711D01*
X011877Y010712D01*
X011874Y010712D01*
X011872Y010711D01*
X011872Y010707D01*
X011866Y010706D02*
X011866Y010711D01*
X011863Y010712D02*
X011863Y010706D01*
X011881Y010706D02*
X011881Y010716D01*
X011881Y010709D02*
X011887Y010712D01*
X011889Y010711D02*
X011891Y010712D01*
X011894Y010712D01*
X011896Y010711D01*
X011896Y010709D01*
X011889Y010709D01*
X011889Y010707D02*
X011889Y010711D01*
X011889Y010707D02*
X011891Y010706D01*
X011894Y010706D01*
X011898Y010704D02*
X011905Y010704D01*
X011908Y010706D02*
X011911Y010706D01*
X011909Y010706D02*
X011909Y010716D01*
X011908Y010716D01*
X011914Y010711D02*
X011914Y010707D01*
X011915Y010706D01*
X011919Y010706D01*
X011920Y010707D01*
X011920Y010711D01*
X011919Y010712D01*
X011915Y010712D01*
X011914Y010711D01*
X011923Y010711D02*
X011923Y010707D01*
X011925Y010706D01*
X011930Y010706D01*
X011930Y010704D02*
X011930Y010712D01*
X011925Y010712D01*
X011923Y010711D01*
X011932Y010711D02*
X011932Y010707D01*
X011934Y010706D01*
X011937Y010706D01*
X011939Y010707D01*
X011939Y010711D01*
X011937Y010712D01*
X011934Y010712D01*
X011932Y010711D01*
X011930Y010704D02*
X011928Y010702D01*
X011926Y010702D01*
X011941Y010706D02*
X011943Y010706D01*
X011943Y010707D01*
X011941Y010707D01*
X011941Y010706D01*
X011946Y010706D02*
X011951Y010706D01*
X011953Y010707D01*
X011953Y010711D01*
X011951Y010712D01*
X011946Y010712D01*
X011946Y010716D02*
X011946Y010706D01*
X011955Y010706D02*
X011955Y010712D01*
X011957Y010712D01*
X011958Y010711D01*
X011960Y010712D01*
X011962Y010711D01*
X011962Y010706D01*
X011964Y010706D02*
X011969Y010706D01*
X011971Y010707D01*
X011971Y010711D01*
X011969Y010712D01*
X011964Y010712D01*
X011964Y010702D01*
X011958Y010706D02*
X011958Y010711D01*
X011887Y010706D02*
X011881Y010709D01*
X011842Y010712D02*
X011837Y010712D01*
X011802Y010706D02*
X011802Y010716D01*
X011658Y010711D02*
X011658Y010706D01*
X011654Y010706D02*
X011654Y010712D01*
X011645Y010712D02*
X011645Y010707D01*
X011643Y010712D02*
X011638Y010712D01*
X011636Y010711D01*
X011597Y010712D02*
X011592Y010712D01*
X011590Y010711D01*
X011590Y010707D01*
X011585Y010716D02*
X011585Y010717D01*
X011477Y010707D02*
X011475Y010709D01*
X011472Y010709D01*
X011470Y010711D01*
X011472Y010712D01*
X011470Y010706D02*
X011475Y010706D01*
X011477Y010707D01*
D154*
X009163Y010731D02*
X009102Y010502D01*
X008869Y010502D02*
X008808Y010731D01*
X009163Y010731D01*
X008808Y009518D02*
X008810Y009544D01*
X008816Y009570D01*
X008826Y009595D01*
X008839Y009618D01*
X008855Y009638D01*
X008875Y009656D01*
X008897Y009671D01*
X008920Y009683D01*
X008946Y009691D01*
X008972Y009695D01*
X008998Y009695D01*
X009024Y009691D01*
X009050Y009683D01*
X009074Y009671D01*
X009095Y009656D01*
X009115Y009638D01*
X009131Y009618D01*
X009144Y009595D01*
X009154Y009570D01*
X009160Y009544D01*
X009162Y009518D01*
X009160Y009492D01*
X009154Y009466D01*
X009144Y009441D01*
X009131Y009418D01*
X009115Y009398D01*
X009095Y009380D01*
X009073Y009365D01*
X009050Y009353D01*
X009024Y009345D01*
X008998Y009341D01*
X008972Y009341D01*
X008946Y009345D01*
X008920Y009353D01*
X008896Y009365D01*
X008875Y009380D01*
X008855Y009398D01*
X008839Y009418D01*
X008826Y009441D01*
X008816Y009466D01*
X008810Y009492D01*
X008808Y009518D01*
X008808Y007549D02*
X008810Y007575D01*
X008816Y007601D01*
X008826Y007626D01*
X008839Y007649D01*
X008855Y007669D01*
X008875Y007687D01*
X008897Y007702D01*
X008920Y007714D01*
X008946Y007722D01*
X008972Y007726D01*
X008998Y007726D01*
X009024Y007722D01*
X009050Y007714D01*
X009074Y007702D01*
X009095Y007687D01*
X009115Y007669D01*
X009131Y007649D01*
X009144Y007626D01*
X009154Y007601D01*
X009160Y007575D01*
X009162Y007549D01*
X009160Y007523D01*
X009154Y007497D01*
X009144Y007472D01*
X009131Y007449D01*
X009115Y007429D01*
X009095Y007411D01*
X009073Y007396D01*
X009050Y007384D01*
X009024Y007376D01*
X008998Y007372D01*
X008972Y007372D01*
X008946Y007376D01*
X008920Y007384D01*
X008896Y007396D01*
X008875Y007411D01*
X008855Y007429D01*
X008839Y007449D01*
X008826Y007472D01*
X008816Y007497D01*
X008810Y007523D01*
X008808Y007549D01*
X008796Y017025D02*
X008798Y017051D01*
X008804Y017077D01*
X008814Y017102D01*
X008827Y017125D01*
X008843Y017145D01*
X008863Y017163D01*
X008885Y017178D01*
X008908Y017190D01*
X008934Y017198D01*
X008960Y017202D01*
X008986Y017202D01*
X009012Y017198D01*
X009038Y017190D01*
X009062Y017178D01*
X009083Y017163D01*
X009103Y017145D01*
X009119Y017125D01*
X009132Y017102D01*
X009142Y017077D01*
X009148Y017051D01*
X009150Y017025D01*
X009148Y016999D01*
X009142Y016973D01*
X009132Y016948D01*
X009119Y016925D01*
X009103Y016905D01*
X009083Y016887D01*
X009061Y016872D01*
X009038Y016860D01*
X009012Y016852D01*
X008986Y016848D01*
X008960Y016848D01*
X008934Y016852D01*
X008908Y016860D01*
X008884Y016872D01*
X008863Y016887D01*
X008843Y016905D01*
X008827Y016925D01*
X008814Y016948D01*
X008804Y016973D01*
X008798Y016999D01*
X008796Y017025D01*
X008796Y018994D02*
X008798Y019020D01*
X008804Y019046D01*
X008814Y019071D01*
X008827Y019094D01*
X008843Y019114D01*
X008863Y019132D01*
X008885Y019147D01*
X008908Y019159D01*
X008934Y019167D01*
X008960Y019171D01*
X008986Y019171D01*
X009012Y019167D01*
X009038Y019159D01*
X009062Y019147D01*
X009083Y019132D01*
X009103Y019114D01*
X009119Y019094D01*
X009132Y019071D01*
X009142Y019046D01*
X009148Y019020D01*
X009150Y018994D01*
X009148Y018968D01*
X009142Y018942D01*
X009132Y018917D01*
X009119Y018894D01*
X009103Y018874D01*
X009083Y018856D01*
X009061Y018841D01*
X009038Y018829D01*
X009012Y018821D01*
X008986Y018817D01*
X008960Y018817D01*
X008934Y018821D01*
X008908Y018829D01*
X008884Y018841D01*
X008863Y018856D01*
X008843Y018874D01*
X008827Y018894D01*
X008814Y018917D01*
X008804Y018942D01*
X008798Y018968D01*
X008796Y018994D01*
X008857Y019978D02*
X008796Y020206D01*
X009150Y020206D01*
X009089Y019978D01*
X021854Y010305D02*
X021793Y010077D01*
X022147Y010077D01*
X022086Y010305D01*
X021793Y011290D02*
X021795Y011316D01*
X021801Y011342D01*
X021811Y011367D01*
X021824Y011390D01*
X021840Y011410D01*
X021860Y011428D01*
X021882Y011443D01*
X021905Y011455D01*
X021931Y011463D01*
X021957Y011467D01*
X021983Y011467D01*
X022009Y011463D01*
X022035Y011455D01*
X022059Y011443D01*
X022080Y011428D01*
X022100Y011410D01*
X022116Y011390D01*
X022129Y011367D01*
X022139Y011342D01*
X022145Y011316D01*
X022147Y011290D01*
X022145Y011264D01*
X022139Y011238D01*
X022129Y011213D01*
X022116Y011190D01*
X022100Y011170D01*
X022080Y011152D01*
X022058Y011137D01*
X022035Y011125D01*
X022009Y011117D01*
X021983Y011113D01*
X021957Y011113D01*
X021931Y011117D01*
X021905Y011125D01*
X021881Y011137D01*
X021860Y011152D01*
X021840Y011170D01*
X021824Y011190D01*
X021811Y011213D01*
X021801Y011238D01*
X021795Y011264D01*
X021793Y011290D01*
X021793Y013258D02*
X021795Y013284D01*
X021801Y013310D01*
X021811Y013335D01*
X021824Y013358D01*
X021840Y013378D01*
X021860Y013396D01*
X021882Y013411D01*
X021905Y013423D01*
X021931Y013431D01*
X021957Y013435D01*
X021983Y013435D01*
X022009Y013431D01*
X022035Y013423D01*
X022059Y013411D01*
X022080Y013396D01*
X022100Y013378D01*
X022116Y013358D01*
X022129Y013335D01*
X022139Y013310D01*
X022145Y013284D01*
X022147Y013258D01*
X022145Y013232D01*
X022139Y013206D01*
X022129Y013181D01*
X022116Y013158D01*
X022100Y013138D01*
X022080Y013120D01*
X022058Y013105D01*
X022035Y013093D01*
X022009Y013085D01*
X021983Y013081D01*
X021957Y013081D01*
X021931Y013085D01*
X021905Y013093D01*
X021881Y013105D01*
X021860Y013120D01*
X021840Y013138D01*
X021824Y013158D01*
X021811Y013181D01*
X021801Y013206D01*
X021795Y013232D01*
X021793Y013258D01*
X021793Y015227D02*
X021795Y015253D01*
X021801Y015279D01*
X021811Y015304D01*
X021824Y015327D01*
X021840Y015347D01*
X021860Y015365D01*
X021882Y015380D01*
X021905Y015392D01*
X021931Y015400D01*
X021957Y015404D01*
X021983Y015404D01*
X022009Y015400D01*
X022035Y015392D01*
X022059Y015380D01*
X022080Y015365D01*
X022100Y015347D01*
X022116Y015327D01*
X022129Y015304D01*
X022139Y015279D01*
X022145Y015253D01*
X022147Y015227D01*
X022145Y015201D01*
X022139Y015175D01*
X022129Y015150D01*
X022116Y015127D01*
X022100Y015107D01*
X022080Y015089D01*
X022058Y015074D01*
X022035Y015062D01*
X022009Y015054D01*
X021983Y015050D01*
X021957Y015050D01*
X021931Y015054D01*
X021905Y015062D01*
X021881Y015074D01*
X021860Y015089D01*
X021840Y015107D01*
X021824Y015127D01*
X021811Y015150D01*
X021801Y015175D01*
X021795Y015201D01*
X021793Y015227D01*
D155*
X022251Y016761D02*
X022251Y017211D01*
X022477Y017211D01*
X022552Y017136D01*
X022552Y016986D01*
X022477Y016911D01*
X022251Y016911D01*
X022402Y016911D02*
X022552Y016761D01*
X022712Y016761D02*
X023012Y017061D01*
X023012Y017136D01*
X022937Y017211D01*
X022787Y017211D01*
X022712Y017136D01*
X022712Y016761D02*
X023012Y016761D01*
X023012Y017942D02*
X022712Y017942D01*
X022862Y017942D02*
X022862Y018392D01*
X022712Y018242D01*
X022552Y018317D02*
X022552Y018167D01*
X022477Y018092D01*
X022251Y018092D01*
X022251Y017942D02*
X022251Y018392D01*
X022477Y018392D01*
X022552Y018317D01*
X022402Y018092D02*
X022552Y017942D01*
X022171Y018821D02*
X021721Y018821D01*
X022171Y018821D02*
X022171Y019121D01*
X022171Y019282D02*
X021721Y019282D01*
X021721Y019582D01*
X021721Y019742D02*
X021721Y019967D01*
X021796Y020042D01*
X022096Y020042D01*
X022171Y019967D01*
X022171Y019742D01*
X021721Y019742D01*
X021946Y019432D02*
X021946Y019282D01*
X022171Y019282D02*
X022171Y019582D01*
X022171Y020202D02*
X022171Y020503D01*
X022171Y020352D02*
X021721Y020352D01*
X021871Y020202D01*
X020406Y020729D02*
X020106Y020729D01*
X020256Y020729D02*
X020256Y021179D01*
X020106Y021029D01*
X019946Y021179D02*
X019646Y020879D01*
X019721Y020954D02*
X019946Y020729D01*
X019646Y020729D02*
X019646Y021179D01*
X019485Y021104D02*
X019410Y021179D01*
X019260Y021179D01*
X019185Y021104D01*
X019185Y020804D01*
X019260Y020729D01*
X019410Y020729D01*
X019485Y020804D01*
X019485Y021104D01*
X017070Y020544D02*
X016619Y020544D01*
X016845Y020319D01*
X016845Y020619D01*
X016845Y020159D02*
X016920Y020084D01*
X016920Y019858D01*
X017070Y019858D02*
X016619Y019858D01*
X016619Y020084D01*
X016695Y020159D01*
X016845Y020159D01*
X016920Y020009D02*
X017070Y020159D01*
X017876Y017784D02*
X017951Y017784D01*
X018026Y017709D01*
X018101Y017784D01*
X018176Y017784D01*
X018251Y017709D01*
X018251Y017559D01*
X018176Y017484D01*
X018251Y017324D02*
X018101Y017174D01*
X018101Y017249D02*
X018101Y017024D01*
X018251Y017024D02*
X017801Y017024D01*
X017801Y017249D01*
X017876Y017324D01*
X018026Y017324D01*
X018101Y017249D01*
X017876Y017484D02*
X017801Y017559D01*
X017801Y017709D01*
X017876Y017784D01*
X018026Y017709D02*
X018026Y017634D01*
X016216Y017322D02*
X016140Y017322D01*
X015840Y017623D01*
X015765Y017623D01*
X015765Y017322D01*
X015840Y017162D02*
X015765Y017087D01*
X015765Y016862D01*
X016216Y016862D01*
X016065Y016862D02*
X016065Y017087D01*
X015990Y017162D01*
X015840Y017162D01*
X016065Y017012D02*
X016216Y017162D01*
X016281Y014815D02*
X016356Y014740D01*
X016356Y014590D01*
X016281Y014515D01*
X016131Y014515D02*
X016055Y014665D01*
X016055Y014740D01*
X016131Y014815D01*
X016281Y014815D01*
X016131Y014515D02*
X015905Y014515D01*
X015905Y014815D01*
X015980Y014355D02*
X016131Y014355D01*
X016206Y014280D01*
X016206Y014055D01*
X016356Y014055D02*
X015905Y014055D01*
X015905Y014280D01*
X015980Y014355D01*
X016206Y014205D02*
X016356Y014355D01*
X016381Y012942D02*
X016381Y012642D01*
X016081Y012942D01*
X016006Y012942D01*
X015931Y012867D01*
X015931Y012717D01*
X016006Y012642D01*
X016381Y012482D02*
X016381Y012181D01*
X016381Y012331D02*
X015931Y012331D01*
X016081Y012181D01*
X016006Y012021D02*
X016156Y012021D01*
X016231Y011946D01*
X016231Y011721D01*
X016381Y011721D02*
X015931Y011721D01*
X015931Y011946D01*
X016006Y012021D01*
X016231Y011871D02*
X016381Y012021D01*
X015934Y010355D02*
X015934Y010054D01*
X015708Y010280D01*
X016159Y010280D01*
X016159Y009894D02*
X016159Y009594D01*
X016159Y009744D02*
X015708Y009744D01*
X015859Y009594D01*
X015784Y009434D02*
X015934Y009434D01*
X016009Y009359D01*
X016009Y009134D01*
X016009Y009284D02*
X016159Y009434D01*
X016159Y009134D02*
X015708Y009134D01*
X015708Y009359D01*
X015784Y009434D01*
X017775Y009291D02*
X018226Y009291D01*
X018226Y009141D02*
X018226Y009441D01*
X018151Y009602D02*
X017850Y009902D01*
X018151Y009902D01*
X018226Y009827D01*
X018226Y009677D01*
X018151Y009602D01*
X017850Y009602D01*
X017775Y009677D01*
X017775Y009827D01*
X017850Y009902D01*
X017775Y009291D02*
X017926Y009141D01*
X018001Y008981D02*
X017850Y008981D01*
X017775Y008906D01*
X017775Y008681D01*
X018226Y008681D01*
X018076Y008681D02*
X018076Y008906D01*
X018001Y008981D01*
X018076Y008831D02*
X018226Y008981D01*
X017045Y007008D02*
X017045Y006708D01*
X017045Y006858D02*
X016594Y006858D01*
X016744Y006708D01*
X017045Y006548D02*
X017045Y006247D01*
X017045Y006398D02*
X016594Y006398D01*
X016744Y006247D01*
X016669Y006087D02*
X016819Y006087D01*
X016895Y006012D01*
X016895Y005787D01*
X017045Y005787D02*
X016594Y005787D01*
X016594Y006012D01*
X016669Y006087D01*
X016895Y005937D02*
X017045Y006087D01*
X019185Y005750D02*
X019185Y005450D01*
X019260Y005374D01*
X019410Y005374D01*
X019485Y005450D01*
X019485Y005750D01*
X019410Y005825D01*
X019260Y005825D01*
X019185Y005750D01*
X019646Y005825D02*
X019646Y005374D01*
X019646Y005525D02*
X019946Y005825D01*
X020106Y005750D02*
X020181Y005825D01*
X020331Y005825D01*
X020406Y005750D01*
X020406Y005675D01*
X020106Y005374D01*
X020406Y005374D01*
X019946Y005374D02*
X019721Y005600D01*
X021800Y006183D02*
X022250Y006183D01*
X022250Y006484D01*
X022250Y006644D02*
X022250Y006944D01*
X022250Y007104D02*
X022250Y007329D01*
X022175Y007404D01*
X021875Y007404D01*
X021800Y007329D01*
X021800Y007104D01*
X022250Y007104D01*
X022025Y006794D02*
X022025Y006644D01*
X021800Y006644D02*
X022250Y006644D01*
X021800Y006644D02*
X021800Y006944D01*
X021875Y007565D02*
X021800Y007640D01*
X021800Y007790D01*
X021875Y007865D01*
X021950Y007865D01*
X022250Y007565D01*
X022250Y007865D01*
X022550Y008124D02*
X022550Y008575D01*
X022775Y008575D01*
X022850Y008500D01*
X022850Y008350D01*
X022775Y008275D01*
X022550Y008275D01*
X022700Y008275D02*
X022850Y008124D01*
X023011Y008200D02*
X023011Y008275D01*
X023086Y008350D01*
X023236Y008350D01*
X023311Y008275D01*
X023311Y008200D01*
X023236Y008124D01*
X023086Y008124D01*
X023011Y008200D01*
X023086Y008350D02*
X023011Y008425D01*
X023011Y008500D01*
X023086Y008575D01*
X023236Y008575D01*
X023311Y008500D01*
X023311Y008425D01*
X023236Y008350D01*
X023236Y009306D02*
X023086Y009306D01*
X023011Y009381D01*
X023086Y009531D02*
X023311Y009531D01*
X023311Y009681D02*
X023236Y009756D01*
X023086Y009756D01*
X023011Y009681D01*
X023011Y009606D01*
X023086Y009531D01*
X022850Y009531D02*
X022775Y009456D01*
X022550Y009456D01*
X022700Y009456D02*
X022850Y009306D01*
X022850Y009531D02*
X022850Y009681D01*
X022775Y009756D01*
X022550Y009756D01*
X022550Y009306D01*
X023236Y009306D02*
X023311Y009381D01*
X023311Y009681D01*
X019128Y011822D02*
X019053Y011747D01*
X018752Y011747D01*
X018677Y011822D01*
X018677Y011972D01*
X018752Y012047D01*
X018752Y012207D02*
X018677Y012282D01*
X018677Y012432D01*
X018752Y012507D01*
X018828Y012507D01*
X018903Y012432D01*
X018978Y012507D01*
X019053Y012507D01*
X019128Y012432D01*
X019128Y012282D01*
X019053Y012207D01*
X019053Y012047D02*
X019128Y011972D01*
X019128Y011822D01*
X018903Y012357D02*
X018903Y012432D01*
X018753Y014061D02*
X019053Y014061D01*
X019129Y014136D01*
X019129Y014286D01*
X019053Y014361D01*
X019129Y014521D02*
X019129Y014821D01*
X019129Y014671D02*
X018678Y014671D01*
X018828Y014521D01*
X018753Y014361D02*
X018678Y014286D01*
X018678Y014136D01*
X018753Y014061D01*
X024526Y015205D02*
X024977Y015205D01*
X024977Y015055D02*
X024977Y015355D01*
X024676Y015055D02*
X024526Y015205D01*
X013256Y016612D02*
X012955Y016612D01*
X013106Y016612D02*
X013106Y017062D01*
X012955Y016912D01*
X012795Y017062D02*
X012495Y017062D01*
X012645Y017062D02*
X012645Y016612D01*
X009423Y015224D02*
X009423Y015149D01*
X009123Y014848D01*
X009423Y014848D01*
X009423Y015224D02*
X009348Y015299D01*
X009198Y015299D01*
X009123Y015224D01*
X008963Y015224D02*
X008888Y015299D01*
X008738Y015299D01*
X008663Y015224D01*
X008663Y014924D01*
X008738Y014848D01*
X008888Y014848D01*
X008963Y014924D01*
X008547Y014087D02*
X008397Y014012D01*
X008247Y013861D01*
X008472Y013861D01*
X008547Y013786D01*
X008547Y013711D01*
X008472Y013636D01*
X008322Y013636D01*
X008247Y013711D01*
X008247Y013861D01*
X008087Y013861D02*
X008087Y014012D01*
X008012Y014087D01*
X007786Y014087D01*
X007786Y013636D01*
X007786Y013786D02*
X008012Y013786D01*
X008087Y013861D01*
X007937Y013786D02*
X008087Y013636D01*
X008043Y012906D02*
X008043Y012455D01*
X008193Y012455D02*
X007892Y012455D01*
X007732Y012455D02*
X007582Y012605D01*
X007657Y012605D02*
X007432Y012605D01*
X007432Y012455D02*
X007432Y012906D01*
X007657Y012906D01*
X007732Y012831D01*
X007732Y012680D01*
X007657Y012605D01*
X007892Y012755D02*
X008043Y012906D01*
X008353Y012831D02*
X008428Y012906D01*
X008578Y012906D01*
X008653Y012831D01*
X008653Y012755D01*
X008578Y012680D01*
X008653Y012605D01*
X008653Y012530D01*
X008578Y012455D01*
X008428Y012455D01*
X008353Y012530D01*
X008503Y012680D02*
X008578Y012680D01*
X008718Y011756D02*
X008643Y011681D01*
X008643Y011380D01*
X008718Y011305D01*
X008868Y011305D01*
X008943Y011380D01*
X009104Y011530D02*
X009329Y011756D01*
X009329Y011305D01*
X009404Y011530D02*
X009104Y011530D01*
X008943Y011681D02*
X008868Y011756D01*
X008718Y011756D01*
X006429Y007611D02*
X006429Y007311D01*
X006429Y007461D02*
X005979Y007461D01*
X006129Y007311D01*
X012495Y007613D02*
X012795Y007613D01*
X012645Y007613D02*
X012645Y007163D01*
X012955Y007163D02*
X013256Y007463D01*
X013256Y007538D01*
X013181Y007613D01*
X013031Y007613D01*
X012955Y007538D01*
X012955Y007163D02*
X013256Y007163D01*
X006417Y016787D02*
X006417Y017087D01*
X006417Y016937D02*
X005966Y016937D01*
X006116Y016787D01*
D156*
X018335Y019935D03*
X018335Y020935D03*
X018335Y021935D03*
X021235Y021935D03*
X021235Y020935D03*
X021235Y019935D03*
X021235Y006581D03*
X021235Y005581D03*
X021235Y004581D03*
X018335Y004581D03*
X018335Y005581D03*
X018335Y006581D03*
D157*
X023333Y006115D02*
X023333Y006205D01*
X023333Y006204D02*
X023387Y006206D01*
X023440Y006212D01*
X023493Y006222D01*
X023545Y006236D01*
X023596Y006253D01*
X023645Y006274D01*
X023693Y006298D01*
X023739Y006326D01*
X023783Y006357D01*
X023825Y006391D01*
X023864Y006427D01*
X023901Y006467D01*
X023934Y006509D01*
X023965Y006553D01*
X023992Y006599D01*
X024071Y006557D01*
X024043Y006508D01*
X024011Y006462D01*
X023976Y006417D01*
X023939Y006375D01*
X023898Y006335D01*
X023855Y006299D01*
X023810Y006265D01*
X023763Y006234D01*
X023713Y006207D01*
X023662Y006183D01*
X023610Y006162D01*
X023556Y006145D01*
X023501Y006132D01*
X023446Y006122D01*
X023389Y006116D01*
X023333Y006114D01*
X023333Y006123D01*
X023389Y006125D01*
X023444Y006131D01*
X023499Y006141D01*
X023554Y006154D01*
X023607Y006171D01*
X023659Y006191D01*
X023709Y006215D01*
X023758Y006242D01*
X023805Y006272D01*
X023850Y006306D01*
X023892Y006342D01*
X023932Y006381D01*
X023969Y006423D01*
X024004Y006467D01*
X024035Y006513D01*
X024063Y006561D01*
X024055Y006565D01*
X024027Y006518D01*
X023996Y006472D01*
X023962Y006429D01*
X023926Y006387D01*
X023886Y006349D01*
X023844Y006313D01*
X023800Y006280D01*
X023754Y006250D01*
X023705Y006223D01*
X023655Y006200D01*
X023604Y006179D01*
X023551Y006163D01*
X023498Y006150D01*
X023443Y006140D01*
X023388Y006134D01*
X023333Y006132D01*
X023333Y006141D01*
X023388Y006143D01*
X023442Y006149D01*
X023496Y006158D01*
X023549Y006171D01*
X023601Y006188D01*
X023652Y006208D01*
X023701Y006231D01*
X023749Y006258D01*
X023795Y006287D01*
X023839Y006320D01*
X023880Y006355D01*
X023919Y006394D01*
X023956Y006434D01*
X023989Y006477D01*
X024020Y006523D01*
X024047Y006570D01*
X024039Y006574D01*
X024012Y006527D01*
X023982Y006483D01*
X023949Y006440D01*
X023913Y006400D01*
X023874Y006362D01*
X023833Y006327D01*
X023790Y006295D01*
X023744Y006265D01*
X023697Y006239D01*
X023648Y006216D01*
X023598Y006196D01*
X023546Y006180D01*
X023494Y006167D01*
X023441Y006158D01*
X023387Y006152D01*
X023333Y006150D01*
X023333Y006159D01*
X023386Y006161D01*
X023439Y006167D01*
X023492Y006176D01*
X023544Y006189D01*
X023595Y006205D01*
X023645Y006224D01*
X023693Y006247D01*
X023740Y006273D01*
X023784Y006302D01*
X023827Y006334D01*
X023868Y006369D01*
X023906Y006406D01*
X023942Y006446D01*
X023975Y006488D01*
X024005Y006532D01*
X024032Y006578D01*
X024024Y006582D01*
X023997Y006537D01*
X023967Y006493D01*
X023935Y006452D01*
X023900Y006412D01*
X023862Y006375D01*
X023822Y006341D01*
X023779Y006309D01*
X023735Y006281D01*
X023689Y006255D01*
X023641Y006233D01*
X023592Y006213D01*
X023542Y006197D01*
X023490Y006185D01*
X023438Y006176D01*
X023386Y006170D01*
X023333Y006168D01*
X023333Y006177D01*
X023389Y006179D01*
X023444Y006186D01*
X023499Y006196D01*
X023553Y006210D01*
X023605Y006228D01*
X023657Y006249D01*
X023706Y006275D01*
X023754Y006303D01*
X023800Y006335D01*
X023843Y006370D01*
X023883Y006408D01*
X023921Y006449D01*
X023956Y006493D01*
X023987Y006539D01*
X024016Y006587D01*
X024008Y006591D01*
X023980Y006543D01*
X023949Y006498D01*
X023914Y006455D01*
X023877Y006415D01*
X023837Y006377D01*
X023794Y006342D01*
X023749Y006311D01*
X023702Y006282D01*
X023653Y006258D01*
X023602Y006236D01*
X023550Y006219D01*
X023497Y006205D01*
X023443Y006195D01*
X023388Y006188D01*
X023333Y006186D01*
X023333Y006195D01*
X023387Y006197D01*
X023441Y006203D01*
X023495Y006213D01*
X023547Y006227D01*
X023599Y006245D01*
X023649Y006266D01*
X023698Y006290D01*
X023744Y006318D01*
X023789Y006350D01*
X023831Y006384D01*
X023870Y006421D01*
X023907Y006461D01*
X023941Y006503D01*
X023972Y006548D01*
X024000Y006595D01*
X024059Y007382D02*
X023981Y007337D01*
X023981Y007338D02*
X023953Y007382D01*
X023922Y007424D01*
X023889Y007464D01*
X023853Y007502D01*
X023814Y007537D01*
X023773Y007569D01*
X023729Y007599D01*
X023684Y007625D01*
X023637Y007648D01*
X023589Y007668D01*
X023539Y007684D01*
X023489Y007697D01*
X023437Y007706D01*
X023385Y007712D01*
X023333Y007714D01*
X023332Y007803D01*
X023333Y007804D01*
X023388Y007802D01*
X023442Y007796D01*
X023497Y007787D01*
X023550Y007774D01*
X023602Y007758D01*
X023654Y007739D01*
X023704Y007716D01*
X023752Y007690D01*
X023799Y007661D01*
X023843Y007629D01*
X023886Y007594D01*
X023926Y007556D01*
X023963Y007516D01*
X023998Y007474D01*
X024030Y007429D01*
X024059Y007383D01*
X024051Y007378D01*
X024023Y007424D01*
X023991Y007468D01*
X023956Y007510D01*
X023919Y007550D01*
X023880Y007587D01*
X023838Y007622D01*
X023794Y007653D01*
X023748Y007682D01*
X023700Y007708D01*
X023650Y007730D01*
X023600Y007750D01*
X023548Y007766D01*
X023495Y007778D01*
X023441Y007787D01*
X023387Y007793D01*
X023333Y007795D01*
X023333Y007786D01*
X023387Y007784D01*
X023440Y007778D01*
X023493Y007769D01*
X023545Y007757D01*
X023597Y007741D01*
X023647Y007722D01*
X023696Y007700D01*
X023743Y007674D01*
X023789Y007646D01*
X023832Y007614D01*
X023874Y007580D01*
X023913Y007544D01*
X023950Y007504D01*
X023984Y007463D01*
X024015Y007419D01*
X024044Y007374D01*
X024036Y007369D01*
X024006Y007417D01*
X023972Y007463D01*
X023936Y007506D01*
X023896Y007547D01*
X023854Y007585D01*
X023810Y007620D01*
X023763Y007652D01*
X023714Y007680D01*
X023663Y007705D01*
X023610Y007727D01*
X023557Y007744D01*
X023502Y007758D01*
X023446Y007768D01*
X023390Y007775D01*
X023333Y007777D01*
X023333Y007768D01*
X023389Y007766D01*
X023445Y007760D01*
X023500Y007750D01*
X023554Y007736D01*
X023607Y007718D01*
X023659Y007697D01*
X023710Y007672D01*
X023758Y007644D01*
X023804Y007613D01*
X023849Y007578D01*
X023890Y007541D01*
X023929Y007500D01*
X023965Y007458D01*
X023998Y007412D01*
X024028Y007365D01*
X024020Y007360D01*
X023991Y007407D01*
X023958Y007452D01*
X023922Y007494D01*
X023884Y007534D01*
X023843Y007571D01*
X023799Y007606D01*
X023753Y007637D01*
X023705Y007664D01*
X023656Y007689D01*
X023604Y007710D01*
X023552Y007727D01*
X023498Y007741D01*
X023443Y007751D01*
X023388Y007757D01*
X023333Y007759D01*
X023333Y007750D01*
X023388Y007748D01*
X023442Y007742D01*
X023496Y007732D01*
X023549Y007718D01*
X023601Y007701D01*
X023652Y007681D01*
X023701Y007656D01*
X023748Y007629D01*
X023794Y007598D01*
X023837Y007565D01*
X023878Y007528D01*
X023916Y007488D01*
X023951Y007446D01*
X023983Y007402D01*
X024012Y007356D01*
X024004Y007351D01*
X023976Y007397D01*
X023944Y007441D01*
X023909Y007482D01*
X023871Y007521D01*
X023831Y007558D01*
X023789Y007591D01*
X023744Y007621D01*
X023697Y007649D01*
X023648Y007672D01*
X023598Y007693D01*
X023547Y007710D01*
X023494Y007723D01*
X023441Y007733D01*
X023387Y007739D01*
X023333Y007741D01*
X023333Y007732D01*
X023386Y007730D01*
X023440Y007724D01*
X023492Y007714D01*
X023544Y007701D01*
X023595Y007684D01*
X023645Y007664D01*
X023693Y007641D01*
X023739Y007614D01*
X023783Y007584D01*
X023825Y007551D01*
X023865Y007515D01*
X023902Y007476D01*
X023937Y007435D01*
X023968Y007392D01*
X023997Y007347D01*
X023989Y007342D01*
X023961Y007387D01*
X023930Y007430D01*
X023896Y007470D01*
X023859Y007508D01*
X023820Y007544D01*
X023778Y007576D01*
X023734Y007606D01*
X023688Y007633D01*
X023641Y007656D01*
X023592Y007676D01*
X023542Y007693D01*
X023490Y007706D01*
X023438Y007715D01*
X023386Y007721D01*
X023333Y007723D01*
X023324Y007803D02*
X023324Y007713D01*
X023323Y007714D02*
X023269Y007712D01*
X023216Y007706D01*
X023163Y007696D01*
X023111Y007682D01*
X023060Y007665D01*
X023010Y007644D01*
X022962Y007620D01*
X022916Y007592D01*
X022872Y007561D01*
X022831Y007527D01*
X022791Y007490D01*
X022755Y007451D01*
X022687Y007508D01*
X022686Y007509D01*
X022724Y007550D01*
X022764Y007588D01*
X022807Y007624D01*
X022852Y007657D01*
X022899Y007687D01*
X022947Y007713D01*
X022998Y007737D01*
X023050Y007757D01*
X023103Y007773D01*
X023157Y007787D01*
X023212Y007796D01*
X023267Y007802D01*
X023323Y007804D01*
X023323Y007795D01*
X023268Y007793D01*
X023213Y007787D01*
X023159Y007778D01*
X023105Y007765D01*
X023053Y007748D01*
X023001Y007729D01*
X022951Y007705D01*
X022903Y007679D01*
X022857Y007649D01*
X022812Y007617D01*
X022770Y007582D01*
X022730Y007543D01*
X022693Y007503D01*
X022700Y007497D01*
X022737Y007537D01*
X022776Y007575D01*
X022818Y007610D01*
X022862Y007642D01*
X022908Y007671D01*
X022956Y007697D01*
X023005Y007720D01*
X023056Y007740D01*
X023108Y007756D01*
X023161Y007769D01*
X023214Y007778D01*
X023269Y007784D01*
X023323Y007786D01*
X023323Y007777D01*
X023269Y007775D01*
X023216Y007769D01*
X023163Y007760D01*
X023110Y007747D01*
X023059Y007731D01*
X023008Y007712D01*
X022960Y007689D01*
X022912Y007664D01*
X022867Y007635D01*
X022823Y007603D01*
X022782Y007568D01*
X022743Y007531D01*
X022707Y007491D01*
X022714Y007485D01*
X022750Y007525D01*
X022788Y007562D01*
X022829Y007596D01*
X022872Y007627D01*
X022917Y007656D01*
X022964Y007681D01*
X023012Y007704D01*
X023062Y007723D01*
X023113Y007739D01*
X023164Y007751D01*
X023217Y007760D01*
X023270Y007766D01*
X023323Y007768D01*
X023323Y007759D01*
X023270Y007757D01*
X023218Y007751D01*
X023166Y007742D01*
X023115Y007730D01*
X023065Y007714D01*
X023015Y007695D01*
X022968Y007673D01*
X022921Y007648D01*
X022877Y007620D01*
X022835Y007589D01*
X022794Y007555D01*
X022756Y007518D01*
X022721Y007480D01*
X022727Y007474D01*
X022763Y007512D01*
X022800Y007548D01*
X022840Y007582D01*
X022882Y007612D01*
X022926Y007640D01*
X022972Y007665D01*
X023019Y007687D01*
X023068Y007706D01*
X023117Y007721D01*
X023168Y007734D01*
X023219Y007742D01*
X023271Y007748D01*
X023323Y007750D01*
X023323Y007741D01*
X023267Y007739D01*
X023212Y007732D01*
X023157Y007722D01*
X023103Y007708D01*
X023050Y007690D01*
X022999Y007668D01*
X022949Y007643D01*
X022901Y007614D01*
X022856Y007582D01*
X022813Y007547D01*
X022772Y007509D01*
X022734Y007468D01*
X022741Y007462D01*
X022778Y007503D01*
X022819Y007540D01*
X022861Y007575D01*
X022906Y007607D01*
X022954Y007635D01*
X023003Y007660D01*
X023054Y007682D01*
X023106Y007699D01*
X023159Y007713D01*
X023213Y007723D01*
X023268Y007730D01*
X023323Y007732D01*
X023323Y007723D01*
X023269Y007721D01*
X023215Y007715D01*
X023161Y007705D01*
X023108Y007691D01*
X023057Y007673D01*
X023007Y007652D01*
X022958Y007627D01*
X022911Y007599D01*
X022867Y007568D01*
X022825Y007534D01*
X022785Y007496D01*
X022748Y007456D01*
X022683Y006415D02*
X022752Y006472D01*
X022751Y006472D02*
X022788Y006432D01*
X022827Y006394D01*
X022869Y006360D01*
X022913Y006328D01*
X022959Y006300D01*
X023008Y006275D01*
X023058Y006254D01*
X023109Y006236D01*
X023162Y006223D01*
X023215Y006213D01*
X023269Y006206D01*
X023323Y006204D01*
X023324Y006115D01*
X023323Y006114D01*
X023267Y006116D01*
X023211Y006122D01*
X023156Y006132D01*
X023101Y006145D01*
X023048Y006162D01*
X022995Y006182D01*
X022944Y006206D01*
X022895Y006233D01*
X022848Y006264D01*
X022803Y006297D01*
X022760Y006333D01*
X022720Y006372D01*
X022682Y006414D01*
X022689Y006420D01*
X022726Y006379D01*
X022766Y006340D01*
X022808Y006304D01*
X022853Y006271D01*
X022900Y006241D01*
X022948Y006214D01*
X022999Y006191D01*
X023051Y006170D01*
X023104Y006154D01*
X023158Y006141D01*
X023212Y006131D01*
X023267Y006125D01*
X023323Y006123D01*
X023323Y006132D01*
X023268Y006134D01*
X023213Y006140D01*
X023159Y006149D01*
X023106Y006162D01*
X023054Y006179D01*
X023002Y006199D01*
X022953Y006222D01*
X022904Y006249D01*
X022858Y006278D01*
X022814Y006311D01*
X022772Y006347D01*
X022733Y006385D01*
X022696Y006426D01*
X022703Y006431D01*
X022739Y006391D01*
X022778Y006353D01*
X022820Y006318D01*
X022863Y006286D01*
X022909Y006256D01*
X022957Y006230D01*
X023006Y006207D01*
X023056Y006187D01*
X023108Y006171D01*
X023161Y006158D01*
X023215Y006149D01*
X023269Y006143D01*
X023323Y006141D01*
X023323Y006150D01*
X023269Y006152D01*
X023216Y006158D01*
X023163Y006167D01*
X023111Y006180D01*
X023059Y006196D01*
X023009Y006215D01*
X022961Y006238D01*
X022914Y006264D01*
X022868Y006293D01*
X022825Y006325D01*
X022784Y006360D01*
X022746Y006397D01*
X022710Y006437D01*
X022717Y006443D01*
X022752Y006404D01*
X022790Y006367D01*
X022831Y006332D01*
X022874Y006301D01*
X022918Y006272D01*
X022965Y006246D01*
X023013Y006224D01*
X023062Y006204D01*
X023113Y006188D01*
X023165Y006176D01*
X023217Y006167D01*
X023270Y006161D01*
X023323Y006159D01*
X023323Y006168D01*
X023271Y006170D01*
X023218Y006176D01*
X023167Y006185D01*
X023116Y006197D01*
X023065Y006213D01*
X023016Y006232D01*
X022969Y006254D01*
X022923Y006280D01*
X022879Y006308D01*
X022837Y006339D01*
X022796Y006373D01*
X022759Y006410D01*
X022724Y006449D01*
X022730Y006455D01*
X022765Y006416D01*
X022803Y006380D01*
X022842Y006346D01*
X022884Y006315D01*
X022928Y006287D01*
X022973Y006262D01*
X023020Y006240D01*
X023068Y006221D01*
X023118Y006206D01*
X023168Y006193D01*
X023220Y006185D01*
X023271Y006179D01*
X023323Y006177D01*
X023323Y006186D01*
X023272Y006188D01*
X023221Y006193D01*
X023170Y006202D01*
X023120Y006214D01*
X023071Y006230D01*
X023024Y006248D01*
X022977Y006270D01*
X022932Y006295D01*
X022889Y006323D01*
X022848Y006353D01*
X022809Y006386D01*
X022772Y006422D01*
X022737Y006460D01*
X022744Y006466D01*
X022781Y006425D01*
X022821Y006387D01*
X022863Y006353D01*
X022908Y006321D01*
X022955Y006292D01*
X023004Y006267D01*
X023055Y006246D01*
X023106Y006228D01*
X023160Y006214D01*
X023214Y006204D01*
X023268Y006197D01*
X023323Y006195D01*
X024059Y019980D02*
X023981Y019935D01*
X023981Y019936D02*
X023953Y019980D01*
X023922Y020022D01*
X023889Y020062D01*
X023853Y020100D01*
X023814Y020135D01*
X023773Y020167D01*
X023729Y020197D01*
X023684Y020223D01*
X023637Y020246D01*
X023589Y020266D01*
X023539Y020282D01*
X023489Y020295D01*
X023437Y020304D01*
X023385Y020310D01*
X023333Y020312D01*
X023332Y020401D01*
X023333Y020402D01*
X023388Y020400D01*
X023442Y020394D01*
X023497Y020385D01*
X023550Y020372D01*
X023602Y020356D01*
X023654Y020337D01*
X023704Y020314D01*
X023752Y020288D01*
X023799Y020259D01*
X023843Y020227D01*
X023886Y020192D01*
X023926Y020154D01*
X023963Y020114D01*
X023998Y020072D01*
X024030Y020027D01*
X024059Y019981D01*
X024051Y019976D01*
X024023Y020022D01*
X023991Y020066D01*
X023956Y020108D01*
X023919Y020148D01*
X023880Y020185D01*
X023838Y020220D01*
X023794Y020251D01*
X023748Y020280D01*
X023700Y020306D01*
X023650Y020328D01*
X023600Y020348D01*
X023548Y020364D01*
X023495Y020376D01*
X023441Y020385D01*
X023387Y020391D01*
X023333Y020393D01*
X023333Y020384D01*
X023387Y020382D01*
X023440Y020376D01*
X023493Y020367D01*
X023545Y020355D01*
X023597Y020339D01*
X023647Y020320D01*
X023696Y020298D01*
X023743Y020272D01*
X023789Y020244D01*
X023832Y020212D01*
X023874Y020178D01*
X023913Y020142D01*
X023950Y020102D01*
X023984Y020061D01*
X024015Y020017D01*
X024044Y019972D01*
X024036Y019967D01*
X024006Y020015D01*
X023972Y020061D01*
X023936Y020104D01*
X023896Y020145D01*
X023854Y020183D01*
X023810Y020218D01*
X023763Y020250D01*
X023714Y020278D01*
X023663Y020303D01*
X023610Y020325D01*
X023557Y020342D01*
X023502Y020356D01*
X023446Y020366D01*
X023390Y020373D01*
X023333Y020375D01*
X023333Y020366D01*
X023389Y020364D01*
X023445Y020358D01*
X023500Y020348D01*
X023554Y020334D01*
X023607Y020316D01*
X023659Y020295D01*
X023710Y020270D01*
X023758Y020242D01*
X023804Y020211D01*
X023849Y020176D01*
X023890Y020139D01*
X023929Y020098D01*
X023965Y020056D01*
X023998Y020010D01*
X024028Y019963D01*
X024020Y019958D01*
X023991Y020005D01*
X023958Y020050D01*
X023922Y020092D01*
X023884Y020132D01*
X023843Y020169D01*
X023799Y020204D01*
X023753Y020235D01*
X023705Y020262D01*
X023656Y020287D01*
X023604Y020308D01*
X023552Y020325D01*
X023498Y020339D01*
X023443Y020349D01*
X023388Y020355D01*
X023333Y020357D01*
X023333Y020348D01*
X023388Y020346D01*
X023442Y020340D01*
X023496Y020330D01*
X023549Y020316D01*
X023601Y020299D01*
X023652Y020279D01*
X023701Y020254D01*
X023748Y020227D01*
X023794Y020196D01*
X023837Y020163D01*
X023878Y020126D01*
X023916Y020086D01*
X023951Y020044D01*
X023983Y020000D01*
X024012Y019954D01*
X024004Y019949D01*
X023976Y019995D01*
X023944Y020039D01*
X023909Y020080D01*
X023871Y020119D01*
X023831Y020156D01*
X023789Y020189D01*
X023744Y020219D01*
X023697Y020247D01*
X023648Y020270D01*
X023598Y020291D01*
X023547Y020308D01*
X023494Y020321D01*
X023441Y020331D01*
X023387Y020337D01*
X023333Y020339D01*
X023333Y020330D01*
X023386Y020328D01*
X023440Y020322D01*
X023492Y020312D01*
X023544Y020299D01*
X023595Y020282D01*
X023645Y020262D01*
X023693Y020239D01*
X023739Y020212D01*
X023783Y020182D01*
X023825Y020149D01*
X023865Y020113D01*
X023902Y020074D01*
X023937Y020033D01*
X023968Y019990D01*
X023997Y019945D01*
X023989Y019940D01*
X023961Y019985D01*
X023930Y020028D01*
X023896Y020068D01*
X023859Y020106D01*
X023820Y020142D01*
X023778Y020174D01*
X023734Y020204D01*
X023688Y020231D01*
X023641Y020254D01*
X023592Y020274D01*
X023542Y020291D01*
X023490Y020304D01*
X023438Y020313D01*
X023386Y020319D01*
X023333Y020321D01*
X023333Y018713D02*
X023333Y018803D01*
X023333Y018802D02*
X023387Y018804D01*
X023440Y018810D01*
X023493Y018820D01*
X023545Y018834D01*
X023596Y018851D01*
X023645Y018872D01*
X023693Y018896D01*
X023739Y018924D01*
X023783Y018955D01*
X023825Y018989D01*
X023864Y019025D01*
X023901Y019065D01*
X023934Y019107D01*
X023965Y019151D01*
X023992Y019197D01*
X024071Y019155D01*
X024043Y019106D01*
X024011Y019060D01*
X023976Y019015D01*
X023939Y018973D01*
X023898Y018933D01*
X023855Y018897D01*
X023810Y018863D01*
X023763Y018832D01*
X023713Y018805D01*
X023662Y018781D01*
X023610Y018760D01*
X023556Y018743D01*
X023501Y018730D01*
X023446Y018720D01*
X023389Y018714D01*
X023333Y018712D01*
X023333Y018721D01*
X023389Y018723D01*
X023444Y018729D01*
X023499Y018739D01*
X023554Y018752D01*
X023607Y018769D01*
X023659Y018789D01*
X023709Y018813D01*
X023758Y018840D01*
X023805Y018870D01*
X023850Y018904D01*
X023892Y018940D01*
X023932Y018979D01*
X023969Y019021D01*
X024004Y019065D01*
X024035Y019111D01*
X024063Y019159D01*
X024055Y019163D01*
X024027Y019116D01*
X023996Y019070D01*
X023962Y019027D01*
X023926Y018985D01*
X023886Y018947D01*
X023844Y018911D01*
X023800Y018878D01*
X023754Y018848D01*
X023705Y018821D01*
X023655Y018798D01*
X023604Y018777D01*
X023551Y018761D01*
X023498Y018748D01*
X023443Y018738D01*
X023388Y018732D01*
X023333Y018730D01*
X023333Y018739D01*
X023388Y018741D01*
X023442Y018747D01*
X023496Y018756D01*
X023549Y018769D01*
X023601Y018786D01*
X023652Y018806D01*
X023701Y018829D01*
X023749Y018856D01*
X023795Y018885D01*
X023839Y018918D01*
X023880Y018953D01*
X023919Y018992D01*
X023956Y019032D01*
X023989Y019075D01*
X024020Y019121D01*
X024047Y019168D01*
X024039Y019172D01*
X024012Y019125D01*
X023982Y019081D01*
X023949Y019038D01*
X023913Y018998D01*
X023874Y018960D01*
X023833Y018925D01*
X023790Y018893D01*
X023744Y018863D01*
X023697Y018837D01*
X023648Y018814D01*
X023598Y018794D01*
X023546Y018778D01*
X023494Y018765D01*
X023441Y018756D01*
X023387Y018750D01*
X023333Y018748D01*
X023333Y018757D01*
X023386Y018759D01*
X023439Y018765D01*
X023492Y018774D01*
X023544Y018787D01*
X023595Y018803D01*
X023645Y018822D01*
X023693Y018845D01*
X023740Y018871D01*
X023784Y018900D01*
X023827Y018932D01*
X023868Y018967D01*
X023906Y019004D01*
X023942Y019044D01*
X023975Y019086D01*
X024005Y019130D01*
X024032Y019176D01*
X024024Y019180D01*
X023997Y019135D01*
X023967Y019091D01*
X023935Y019050D01*
X023900Y019010D01*
X023862Y018973D01*
X023822Y018939D01*
X023779Y018907D01*
X023735Y018879D01*
X023689Y018853D01*
X023641Y018831D01*
X023592Y018811D01*
X023542Y018795D01*
X023490Y018783D01*
X023438Y018774D01*
X023386Y018768D01*
X023333Y018766D01*
X023333Y018775D01*
X023389Y018777D01*
X023444Y018784D01*
X023499Y018794D01*
X023553Y018808D01*
X023605Y018826D01*
X023657Y018847D01*
X023706Y018873D01*
X023754Y018901D01*
X023800Y018933D01*
X023843Y018968D01*
X023883Y019006D01*
X023921Y019047D01*
X023956Y019091D01*
X023987Y019137D01*
X024016Y019185D01*
X024008Y019189D01*
X023980Y019141D01*
X023949Y019096D01*
X023914Y019053D01*
X023877Y019013D01*
X023837Y018975D01*
X023794Y018940D01*
X023749Y018909D01*
X023702Y018880D01*
X023653Y018856D01*
X023602Y018834D01*
X023550Y018817D01*
X023497Y018803D01*
X023443Y018793D01*
X023388Y018786D01*
X023333Y018784D01*
X023333Y018793D01*
X023387Y018795D01*
X023441Y018801D01*
X023495Y018811D01*
X023547Y018825D01*
X023599Y018843D01*
X023649Y018864D01*
X023698Y018888D01*
X023744Y018916D01*
X023789Y018948D01*
X023831Y018982D01*
X023870Y019019D01*
X023907Y019059D01*
X023941Y019101D01*
X023972Y019146D01*
X024000Y019193D01*
X022683Y019013D02*
X022752Y019070D01*
X022751Y019070D02*
X022788Y019030D01*
X022827Y018992D01*
X022869Y018958D01*
X022913Y018926D01*
X022959Y018898D01*
X023008Y018873D01*
X023058Y018852D01*
X023109Y018834D01*
X023162Y018821D01*
X023215Y018811D01*
X023269Y018804D01*
X023323Y018802D01*
X023324Y018713D01*
X023323Y018712D01*
X023267Y018714D01*
X023211Y018720D01*
X023156Y018730D01*
X023101Y018743D01*
X023048Y018760D01*
X022995Y018780D01*
X022944Y018804D01*
X022895Y018831D01*
X022848Y018862D01*
X022803Y018895D01*
X022760Y018931D01*
X022720Y018970D01*
X022682Y019012D01*
X022689Y019018D01*
X022726Y018977D01*
X022766Y018938D01*
X022808Y018902D01*
X022853Y018869D01*
X022900Y018839D01*
X022948Y018812D01*
X022999Y018789D01*
X023051Y018768D01*
X023104Y018752D01*
X023158Y018739D01*
X023212Y018729D01*
X023267Y018723D01*
X023323Y018721D01*
X023323Y018730D01*
X023268Y018732D01*
X023213Y018738D01*
X023159Y018747D01*
X023106Y018760D01*
X023054Y018777D01*
X023002Y018797D01*
X022953Y018820D01*
X022904Y018847D01*
X022858Y018876D01*
X022814Y018909D01*
X022772Y018945D01*
X022733Y018983D01*
X022696Y019024D01*
X022703Y019029D01*
X022739Y018989D01*
X022778Y018951D01*
X022820Y018916D01*
X022863Y018884D01*
X022909Y018854D01*
X022957Y018828D01*
X023006Y018805D01*
X023056Y018785D01*
X023108Y018769D01*
X023161Y018756D01*
X023215Y018747D01*
X023269Y018741D01*
X023323Y018739D01*
X023323Y018748D01*
X023269Y018750D01*
X023216Y018756D01*
X023163Y018765D01*
X023111Y018778D01*
X023059Y018794D01*
X023009Y018813D01*
X022961Y018836D01*
X022914Y018862D01*
X022868Y018891D01*
X022825Y018923D01*
X022784Y018958D01*
X022746Y018995D01*
X022710Y019035D01*
X022717Y019041D01*
X022752Y019002D01*
X022790Y018965D01*
X022831Y018930D01*
X022874Y018899D01*
X022918Y018870D01*
X022965Y018844D01*
X023013Y018822D01*
X023062Y018802D01*
X023113Y018786D01*
X023165Y018774D01*
X023217Y018765D01*
X023270Y018759D01*
X023323Y018757D01*
X023323Y018766D01*
X023271Y018768D01*
X023218Y018774D01*
X023167Y018783D01*
X023116Y018795D01*
X023065Y018811D01*
X023016Y018830D01*
X022969Y018852D01*
X022923Y018878D01*
X022879Y018906D01*
X022837Y018937D01*
X022796Y018971D01*
X022759Y019008D01*
X022724Y019047D01*
X022730Y019053D01*
X022765Y019014D01*
X022803Y018978D01*
X022842Y018944D01*
X022884Y018913D01*
X022928Y018885D01*
X022973Y018860D01*
X023020Y018838D01*
X023068Y018819D01*
X023118Y018804D01*
X023168Y018791D01*
X023220Y018783D01*
X023271Y018777D01*
X023323Y018775D01*
X023323Y018784D01*
X023272Y018786D01*
X023221Y018791D01*
X023170Y018800D01*
X023120Y018812D01*
X023071Y018828D01*
X023024Y018846D01*
X022977Y018868D01*
X022932Y018893D01*
X022889Y018921D01*
X022848Y018951D01*
X022809Y018984D01*
X022772Y019020D01*
X022737Y019058D01*
X022744Y019064D01*
X022781Y019023D01*
X022821Y018985D01*
X022863Y018951D01*
X022908Y018919D01*
X022955Y018890D01*
X023004Y018865D01*
X023055Y018844D01*
X023106Y018826D01*
X023160Y018812D01*
X023214Y018802D01*
X023268Y018795D01*
X023323Y018793D01*
X023324Y020401D02*
X023324Y020311D01*
X023323Y020312D02*
X023269Y020310D01*
X023216Y020304D01*
X023163Y020294D01*
X023111Y020280D01*
X023060Y020263D01*
X023010Y020242D01*
X022962Y020218D01*
X022916Y020190D01*
X022872Y020159D01*
X022831Y020125D01*
X022791Y020088D01*
X022755Y020049D01*
X022687Y020106D01*
X022686Y020107D01*
X022724Y020148D01*
X022764Y020186D01*
X022807Y020222D01*
X022852Y020255D01*
X022899Y020285D01*
X022947Y020311D01*
X022998Y020335D01*
X023050Y020355D01*
X023103Y020371D01*
X023157Y020385D01*
X023212Y020394D01*
X023267Y020400D01*
X023323Y020402D01*
X023323Y020393D01*
X023268Y020391D01*
X023213Y020385D01*
X023159Y020376D01*
X023105Y020363D01*
X023053Y020346D01*
X023001Y020327D01*
X022951Y020303D01*
X022903Y020277D01*
X022857Y020247D01*
X022812Y020215D01*
X022770Y020180D01*
X022730Y020141D01*
X022693Y020101D01*
X022700Y020095D01*
X022737Y020135D01*
X022776Y020173D01*
X022818Y020208D01*
X022862Y020240D01*
X022908Y020269D01*
X022956Y020295D01*
X023005Y020318D01*
X023056Y020338D01*
X023108Y020354D01*
X023161Y020367D01*
X023214Y020376D01*
X023269Y020382D01*
X023323Y020384D01*
X023323Y020375D01*
X023269Y020373D01*
X023216Y020367D01*
X023163Y020358D01*
X023110Y020345D01*
X023059Y020329D01*
X023008Y020310D01*
X022960Y020287D01*
X022912Y020262D01*
X022867Y020233D01*
X022823Y020201D01*
X022782Y020166D01*
X022743Y020129D01*
X022707Y020089D01*
X022714Y020083D01*
X022750Y020123D01*
X022788Y020160D01*
X022829Y020194D01*
X022872Y020225D01*
X022917Y020254D01*
X022964Y020279D01*
X023012Y020302D01*
X023062Y020321D01*
X023113Y020337D01*
X023164Y020349D01*
X023217Y020358D01*
X023270Y020364D01*
X023323Y020366D01*
X023323Y020357D01*
X023270Y020355D01*
X023218Y020349D01*
X023166Y020340D01*
X023115Y020328D01*
X023065Y020312D01*
X023015Y020293D01*
X022968Y020271D01*
X022921Y020246D01*
X022877Y020218D01*
X022835Y020187D01*
X022794Y020153D01*
X022756Y020116D01*
X022721Y020078D01*
X022727Y020072D01*
X022763Y020110D01*
X022800Y020146D01*
X022840Y020180D01*
X022882Y020210D01*
X022926Y020238D01*
X022972Y020263D01*
X023019Y020285D01*
X023068Y020304D01*
X023117Y020319D01*
X023168Y020332D01*
X023219Y020340D01*
X023271Y020346D01*
X023323Y020348D01*
X023323Y020339D01*
X023267Y020337D01*
X023212Y020330D01*
X023157Y020320D01*
X023103Y020306D01*
X023050Y020288D01*
X022999Y020266D01*
X022949Y020241D01*
X022901Y020212D01*
X022856Y020180D01*
X022813Y020145D01*
X022772Y020107D01*
X022734Y020066D01*
X022741Y020060D01*
X022778Y020101D01*
X022819Y020138D01*
X022861Y020173D01*
X022906Y020205D01*
X022954Y020233D01*
X023003Y020258D01*
X023054Y020280D01*
X023106Y020297D01*
X023159Y020311D01*
X023213Y020321D01*
X023268Y020328D01*
X023323Y020330D01*
X023323Y020321D01*
X023269Y020319D01*
X023215Y020313D01*
X023161Y020303D01*
X023108Y020289D01*
X023057Y020271D01*
X023007Y020250D01*
X022958Y020225D01*
X022911Y020197D01*
X022867Y020166D01*
X022825Y020132D01*
X022785Y020094D01*
X022748Y020054D01*
D158*
X022708Y020067D02*
X022708Y019887D01*
X022708Y019247D02*
X022708Y019047D01*
X018313Y014539D02*
X018013Y014539D01*
X017713Y014539D01*
X017713Y014339D02*
X018013Y014339D01*
X018313Y014339D01*
X018313Y012177D02*
X018013Y012177D01*
X017713Y012177D01*
X017713Y011977D02*
X018013Y011977D01*
X018313Y011977D01*
X022708Y007469D02*
X022708Y007289D01*
X022708Y006649D02*
X022708Y006449D01*
X007680Y011186D02*
X007680Y011486D01*
X007680Y011786D01*
X007480Y011786D02*
X007480Y011486D01*
X007480Y011186D01*
X007480Y014730D02*
X007480Y015030D01*
X007480Y015330D01*
X007680Y015330D02*
X007680Y015030D01*
X007680Y014730D01*
D159*
X011125Y017507D03*
X011125Y008058D03*
D160*
X012895Y009368D03*
X012895Y018817D03*
D161*
X014620Y018567D03*
X011170Y018567D03*
X011170Y009118D03*
X014620Y009118D03*
D162*
X013395Y009118D03*
X012395Y009118D03*
X012395Y018567D03*
X013395Y018567D03*
M02*
