%
M48
M72
T01C0.0320
T02C0.0360
T03C0.0400
T04C0.0551
T05C0.1260
%
T01
X17588Y6943
X17588Y7943
X17588Y8943
X21588Y8943
X21588Y7943
X21588Y6943
X22738Y6640
X23919Y6640
X22057Y4990
X21057Y4990
X22738Y9640
X23919Y9640
X23919Y16876
X22738Y16876
X21588Y17573
X21588Y18573
X21588Y19573
X22738Y19876
X23919Y19876
X22057Y21526
X21057Y21526
X17588Y19573
X17588Y18573
X17588Y17573
T02
X17931Y14439
X16431Y14439
X16529Y12077
X18029Y12077
X18029Y4990
X16529Y4990
X16529Y21526
X18029Y21526
T03
X10714Y18983
X10714Y17983
X10714Y16983
X10714Y9534
X10714Y8534
X10714Y7534
T04
X7844Y7549
X7844Y9518
X7831Y17025
X7831Y18994
X23112Y15227
X23112Y13258
X23112Y11290
T05
X7187Y4990
X23722Y4990
X23722Y21526
X7187Y21526
M30
