%
M48
M72
T01C0.0236
T02C0.0320
T03C0.0400
T04C0.0551
T05C0.1260
%
T01
X15848Y11683
T02
X16832Y12790
X16832Y13727
X18013Y13939
X18013Y14939
X18013Y15892
X16832Y16727
X16832Y17664
X18013Y18892
X17785Y19935
X16832Y20664
X17785Y20935
X17785Y21935
X21785Y21935
X21785Y20935
X21785Y19935
X22828Y19557
X23828Y19557
X24238Y18179
X24238Y16998
X21238Y16998
X21238Y18179
X18013Y12577
X18013Y11577
X18013Y10427
X16832Y9790
X16832Y8853
X18013Y7427
X17785Y6581
X16832Y5853
X17785Y5581
X17785Y4581
X21785Y4581
X21785Y5581
X21785Y6581
X22828Y6959
X23828Y6959
X24238Y8337
X24238Y9518
X21238Y9518
X21238Y8337
X9671Y12471
X8671Y11290
X7671Y11290
X6671Y12471
X6671Y14046
X7474Y15227
X8474Y15227
X9671Y14046
T03
X11895Y17967
X12895Y17967
X13895Y17967
X13895Y8518
X12895Y8518
X11895Y8518
T04
X7844Y7549
X7844Y9518
X7831Y17025
X7831Y18994
X23112Y15227
X23112Y13258
X23112Y11290
T05
X7187Y4990
X23722Y4990
X23722Y21526
X7187Y21526
M30
