%
M48
M72
T01C0.0236
T02C0.0320
T03C0.0360
T04C0.0400
T05C0.0551
T06C0.1260
%
T01
X10336Y7353
X14273Y10699
X12305Y10896
X10336Y10896
X7187Y11093
X10336Y16801
X10533Y20345
X12502Y20345
X14470Y20148
X8466Y20640
T02
X17588Y19573
X17588Y18573
X17588Y17573
X21588Y17573
X21588Y18573
X21588Y19573
X22738Y19876
X23919Y19876
X22057Y21526
X21057Y21526
X22738Y16876
X23919Y16876
X23919Y9640
X22738Y9640
X21588Y8943
X21588Y7943
X21588Y6943
X22738Y6640
X23919Y6640
X22057Y4990
X21057Y4990
X17588Y6943
X17588Y7943
X17588Y8943
T03
X18029Y12077
X16529Y12077
X16431Y14439
X17931Y14439
X18029Y21526
X16529Y21526
X16529Y4990
X18029Y4990
T04
X12289Y7534
X10289Y8534
X12289Y9534
X12289Y16983
X10289Y17983
X12289Y18983
T05
X7831Y19387
X7831Y17419
X7844Y9912
X7844Y7943
X23112Y11290
X23112Y13258
X23112Y15227
T06
X7187Y4990
X23722Y4990
X23722Y21526
X7187Y21526
M30
